<svg xmlns="http://www.w3.org/2000/svg" xmlns:xlink="http://www.w3.org/1999/xlink" width="642.263" height="1177.922" viewBox="0 0 642.263 1177.922">
  <defs>
    <clipPath id="clip-path">
      <rect id="Rectangle_209" data-name="Rectangle 209" width="78.04" height="65.057" fill="#fff"/>
    </clipPath>
    <clipPath id="clip-path-2">
      <rect id="Rectangle_211" data-name="Rectangle 211" width="54.264" height="52.95" fill="#fff"/>
    </clipPath>
    <clipPath id="clip-path-3">
      <rect id="Rectangle_214" data-name="Rectangle 214" width="95.743" height="51.446" fill="#fff"/>
    </clipPath>
    <clipPath id="clip-path-4">
      <rect id="Rectangle_213" data-name="Rectangle 213" width="62.63" height="39.703" fill="#fff"/>
    </clipPath>
  </defs>
  <g id="Group_839" data-name="Group 839" transform="translate(1 -395.451)">
    <g id="Group_838" data-name="Group 838">
      <g id="Group_837" data-name="Group 837">
        <rect id="Rectangle_378" data-name="Rectangle 378" width="640" height="1141.6" transform="translate(0 412.618)" fill="#70e8ff"/>
        <path id="Subtraction_33" data-name="Subtraction 33" d="M585.506,29.584h0L576.453,28.4a10.928,10.928,0,0,0,2.083-.3c.648-.16,1.46-.444,1.647-.889a.675.675,0,0,0-.221-.73c-2.459-.016-2.633-.208-3.015-.629a4.088,4.088,0,0,0-1.5-1.054,88.169,88.169,0,0,0,9.184-6.564,93.338,93.338,0,0,0,8.117-7.094l-4.937,1.384L586.772,11.1c-2.542.642-5.4,2.521-8.5,5.586a67.592,67.592,0,0,0-5.8,6.736l0,0c-.193.251-.36.467-.5.65a2.379,2.379,0,0,1-1.936-1.723,5.327,5.327,0,0,1,.124-2.887,5.356,5.356,0,0,1,1-2.043c-.229-.017-.461-.026-.689-.026a7.467,7.467,0,0,0-3.681.933,15.819,15.819,0,0,0-2.742,2.053l-.074.064,0,0a16.354,16.354,0,0,1-2.653,2.013,6.892,6.892,0,0,1-3.464.91,8.9,8.9,0,0,1-1.237-.09l2.537,1.2a4.547,4.547,0,0,1-1,.084c-.787,0-1.835-.094-2.677-.169h-.013l-.1-.009h-.013c-.9-.081-1.753-.157-2.37-.157-.542,0-.84.061-.911.186a.174.174,0,0,0,.021.181,6.4,6.4,0,0,1-1.361-2.666,2.518,2.518,0,0,1,.378-2.492l-6.187,4.184c.481-.424.6-1.878.711-3.162v-.009a6.294,6.294,0,0,1,.321-1.975,1.851,1.851,0,0,0-.191-.01,2.762,2.762,0,0,0-1.893.91,5.725,5.725,0,0,0-1.265,1.955c-.388,1-.374,1.859.037,2.231a31.108,31.108,0,0,0-3.267-1.937c-1.067-.552-1.554-.8-3.8-2.969-.35.054-.572.339-.642.824a5.114,5.114,0,0,0,.38,2.314,3.1,3.1,0,0,0,1.082,1.626,12.289,12.289,0,0,1-3.4.528,10.165,10.165,0,0,1-3.336-.6c3.659-1.044,3.415-4.664,3.2-7.857a10.393,10.393,0,0,1,.211-4.183l-12.51,11.684a24.3,24.3,0,0,0,1.6-5c-.4,1.143-2.068,2.009-4.968,2.573a50.58,50.58,0,0,1-9,.7,69.153,69.153,0,0,1-7.049-.341h.98a.454.454,0,0,0,.2-.513c-.112-.3-.611-.59-1.4-.812a10.25,10.25,0,0,0-2.633-.338,6.3,6.3,0,0,0-2.674.5.961.961,0,0,1,.963-.513c.108,0,.225.006.349.012h.068c.144.007.322.016.514.016h.033a3.166,3.166,0,0,0-1.781-.609c-1.2,0-2.215.857-3.2,1.686l-.01.009c-.979.825-1.991,1.677-3.169,1.678a3.309,3.309,0,0,1-2.03-.807,12.537,12.537,0,0,0,1.41.088,3.774,3.774,0,0,0,2.85-.876,2,2,0,0,0,.467-1.594,16.506,16.506,0,0,1-4.136.568h-.008a24.693,24.693,0,0,0-3.2.324,3.139,3.139,0,0,0-2.074,1.059,2.056,2.056,0,0,0-.1,1.871,10.152,10.152,0,0,0-1.786-.579h-.006a4.081,4.081,0,0,1-1.5-.568,1.441,1.441,0,0,1-.421-1.439l-8.188,2.344a1.1,1.1,0,0,0,.526-1.056c-.075-.325-.427-.75-1.674-.933a7.6,7.6,0,0,0,1.079.075,15.732,15.732,0,0,0,4.208-.743l.288-.08.026-.007h0a13.473,13.473,0,0,1,3.371-.664,2.773,2.773,0,0,1,2.342,1.054,8.224,8.224,0,0,0-.183-2.332v-.006a5.421,5.421,0,0,1-.126-1.891,3.476,3.476,0,0,1,1.181-1.951,29.753,29.753,0,0,0-8.591,2.323,58.6,58.6,0,0,0-6.739,3.628l0,0c-1.392.833-2.707,1.619-4.1,2.337l-7.634-2.036-.362,1.185L453.025,18.3c-.223.151-.428.3-.61.428l-.008.006-.013.01a2.768,2.768,0,0,1-1.031.594.164.164,0,0,1-.146-.075c-.185-.3.16-.745.48-1.1a4.724,4.724,0,0,0-1.953.687c-.262-1.6,1.2-3.411,2.661-4.968l-.546-.477-.021-.018-.085-.074.154-.078h0c.712-.357,1.448-.726,2.088-1.067l-.309.332-.134.143-1.152,1.239c.563.48,1.309,1.107,2.077,1.7a9.172,9.172,0,0,0,1.3-1.449,1.969,1.969,0,0,0,.439-1.369c-.072-.484-.438-.884-1.118-1.223-.264.171-.6.363-1.1.623.642-.707,1.29-1.5,1.221-2.039a.6.6,0,0,0-.294-.434l-5.962,1.324a24.974,24.974,0,0,1,2.44,1.99l0,0,.112.1.018.015.057.05.159.139c-2.959,1.484-5.854,3.062-5.938,4.623-.031.59.355,1.148,1.149,1.659l-4.446-1.859c-4.281,2.3-4.546,2.381-7.792,3.39h0l-.023.007c-.791.246-1.773.551-3.039.959a1.574,1.574,0,0,1,.326-1.266c.292-.5.569-.976-.075-1.421a4.773,4.773,0,0,1-2.806.849,12.016,12.016,0,0,1-4.776-1.338c-.267-.121-.534-.244-.736-.338h0l-.005,0a9.114,9.114,0,0,0-3.076-1.071.984.984,0,0,0-1.017.714c-2.131.387-2.369,1.151-2.6,1.891a1.872,1.872,0,0,1-1.405,1.484l0-.007c.079-.226.212-.6.06-.839a.513.513,0,0,0-.413-.2l-2.862,2.115a.427.427,0,0,1-.225-.31c-.011-.209.223-.41.471-.622.27-.231.548-.469.495-.723s-.487-.52-1.317-.77l-.78.22-.189.053c-3.478.984-5.991,1.695-8.685,1.695a15.732,15.732,0,0,1-3.656-.442c-1.42.094-2.2.356-2.384.8-.2.487.351,1.117.839,1.673.409.465.761.866.646,1.121-.082.181-.4.268-.976.268-.227,0-.507-.015-.832-.043-.049-.107-.1-.219-.155-.341a7.864,7.864,0,0,0-1.491-2.438,5.149,5.149,0,0,0-3.34-1.389,6.23,6.23,0,0,0-1.418,1.336,5.062,5.062,0,0,1-3.218,1.972l.17-2.691c-.409.012-.8.031-1.185.05h-.016l-.035,0-.031,0c-.518.026-1.007.051-1.452.051a3.777,3.777,0,0,1-1.767-.3,1.362,1.362,0,0,1-.695-1.287,7.292,7.292,0,0,1-3.185.819,5.666,5.666,0,0,1-1.985-.365c-.793.252-1.232.618-1.3,1.086-.2,1.3,2.43,3.167,4.172,4.4a12.745,12.745,0,0,1,1.422,1.083,18.6,18.6,0,0,0-4.472-1.417h0a13.628,13.628,0,0,1-2.8-.813,6.166,6.166,0,0,1-2.409-1.972l3.758-.682a10.645,10.645,0,0,0-4.109-.979,6.342,6.342,0,0,0-2.762.641c-.14.064-.274.128-.392.185l-.006,0a3.521,3.521,0,0,1-1.447.471c-.809,0-1.588-.667-2.69-2.3.181.015.375.022.578.022a7.948,7.948,0,0,0,2.684-.464,2.48,2.48,0,0,0,1.523-1.148.976.976,0,0,0-.393-1.106l-3.973,1.375a.244.244,0,0,1-.048-.22c.057-.166.344-.258.621-.348.253-.082.491-.158.5-.283s-.2-.269-.649-.468a28.693,28.693,0,0,0-4.439,2.861l.049-.168-6.553.4c.345-.084.557-.27.541-.476s-.258-.426-.893-.479l-4.691,1.4c.4-.187.583-.394.557-.616-.029-.243-.321-.5-.843-.742a9.163,9.163,0,0,0-1.936-.595,7.4,7.4,0,0,0-.987-.07,4.5,4.5,0,0,0-2.407.624,5.961,5.961,0,0,0-1.488,1.374c-.1.122-.2.252-.277.346l-.051.064c-.681.863-1.269,1.609-2.308,1.609a4.114,4.114,0,0,1-1.969-.654c.051,0,.1.007.157.007a1.593,1.593,0,0,0,.583-.116,1.63,1.63,0,0,1,.592-.117c.047,0,.1,0,.155.007l-2.477-1.21a2.449,2.449,0,0,1-.7,1.674,3.812,3.812,0,0,1-1.66.909,21.385,21.385,0,0,1-4.927.543h0a21.328,21.328,0,0,0-4.922.544,3.775,3.775,0,0,0-1.655.91,2.441,2.441,0,0,0-.686,1.676c-1.129-.735-1.555-1.134-1.519-1.424.038-.308.581-.5,1.482-.806h0a18.724,18.724,0,0,0,4.043-1.835l-3.761-1.651a6.935,6.935,0,0,1,1-.064c.245,0,.5.008.7.015h.03c.219.007.446.014.671.014a5.624,5.624,0,0,0,1.932-.293,8.7,8.7,0,0,0-3.85-.909,10.8,10.8,0,0,0-4.2.925,26.1,26.1,0,0,0-3.307,1.747l-.007,0-.019.011c-.177.106-.35.209-.518.307-.709-.308-.713-1-.716-1.673a2.415,2.415,0,0,0-.221-1.259,1.639,1.639,0,0,0-1.5-.571,8.726,8.726,0,0,0-1.551.17c-1.792.282-2.767.7-2.979,1.266-.2.544.3,1.137.785,1.71l0,0c.41.486.8.945.665,1.3-.1.276-.515.468-1.26.586l-3.4-2.941a14.254,14.254,0,0,1-5.542,1.089,31.157,31.157,0,0,1-5.274-.591l-.01,0c-1.285-.219-2.613-.446-3.956-.541a3.157,3.157,0,0,0-1.83.874A8.8,8.8,0,0,0,284.277,23a19.721,19.721,0,0,0-5.842,1.187l-.217.069-.017.005-.086.027a17.467,17.467,0,0,1-4.97,1.1,5.278,5.278,0,0,1-1.25-.14.292.292,0,0,0,.145-.25c-.016-.377-.846-.872-1.65-1.351l-.008,0a5.629,5.629,0,0,1-1.354-.958l-6.653,1.829a3.409,3.409,0,0,0,2.836-3.262v0c.049-.261.1-.557.179-.844a8.718,8.718,0,0,0-2.865.795l0,0a7.09,7.09,0,0,1-1.708.56l0,0c.548-.388,1.116-.79,1.1-1.233-.008-.254-.2-.5-.6-.744l-1.374.554h0l-.2.08-.091.037,0,0-.019.008c-1.767.712-3.6,1.449-5.387,2.2a5.288,5.288,0,0,0,2.013.445,17.04,17.04,0,0,0-1.747.188h-.01a24.172,24.172,0,0,1-3.311.3,7.466,7.466,0,0,1-3.342-.659,2.971,2.971,0,0,1,.584-.96l0,0a2.933,2.933,0,0,0,.595-.986,3.241,3.241,0,0,0,1.937.828c1.057,0,1.75-.874,2.42-1.718l.048-.06.09-.113c-.858.062-1.452.091-1.868.091-.548,0-.825-.048-.926-.161a.36.36,0,0,1-.045-.294v0c.033-.305.078-.723-.993-1.217a5.938,5.938,0,0,0-2.587.611,2.956,2.956,0,0,0-1.331,1.29,1.794,1.794,0,0,0,.171,1.909L244.983,22l-.052-.008h0a23.765,23.765,0,0,0-3.409-.359A11.368,11.368,0,0,0,236.61,22.9l.554-2.322-3.7.785,2.785-2.862a11.154,11.154,0,0,0-2.116-.252c-1.656,0-1.886.72-2.129,1.482l-.009.027-.007.023-.027.084a2.083,2.083,0,0,1-.685,1.1,3.472,3.472,0,0,1-2.106.5,14.482,14.482,0,0,1-2.026-.169l-.229-2.03a6.885,6.885,0,0,0-2.666,1.606,3.38,3.38,0,0,1-2.009,1.1,2.639,2.639,0,0,1-1.7-.836c-.4.178-.607.369-.626.584-.035.381.523.76,1.062,1.127.487.331.946.643.874.91-.089.332-1,.551-2.878.691-1.566-1.19-4.843-1.891-6.18-2.137-.452.2-.654.436-.6.694.156.735,2.314,1.425,3.526,1.425h.028c-.522.045-1.024.067-1.492.067a8.646,8.646,0,0,1-6.434-2.382l-.359-.319a6.059,6.059,0,0,0-4.42-2.036,11.854,11.854,0,0,0-3.444.614c1.4.567,1.278,1.34,1.174,2.023v0a1.281,1.281,0,0,0,.139,1.1c.386.451,1.462.661,3.385.661.235,0,.483,0,.737-.009a4.436,4.436,0,0,1-1.5.244,12.547,12.547,0,0,1-3.524-.726L200,23.667h0a12.611,12.611,0,0,0-3.577-.732,4.507,4.507,0,0,0-2.519.722l2.182-2.649h-.037a6.724,6.724,0,0,0-2.97,1.02l-.011.006c-.2.107-.369.2-.514.268l.068-2a5.935,5.935,0,0,1-4.036,1.408,17.187,17.187,0,0,1-2.025-.155l-.014,0-.066-.008a15.469,15.469,0,0,0-1.8-.147,3.282,3.282,0,0,0-3.311,2.107c.285-.7.347-1.154.187-1.391a.583.583,0,0,0-.525-.207,6.94,6.94,0,0,0-1.62.349l-.007,0-.233.067a8.419,8.419,0,0,1-2.2.412,2.06,2.06,0,0,1-1.167-.3c1.641-1.213,4.154-1.351,6.37-1.473h0c2.6-.143,4.851-.267,4.9-2.072a2.918,2.918,0,0,0-1.327-.312,6.258,6.258,0,0,0-1.32.186l-.011,0-.008,0h0a6.233,6.233,0,0,1-1.309.186,2.769,2.769,0,0,1-1.265-.3c1.005-.451,2.815-1.407,3.221-2.131a11.269,11.269,0,0,0-3.017-.438,9.789,9.789,0,0,0-3.573.688,21.957,21.957,0,0,0-2.906,1.451l-.014.008a14.317,14.317,0,0,1-3.179,1.479l6.321-.924a1.955,1.955,0,0,1-.559,1.6,2.315,2.315,0,0,1-1.242.317,2.592,2.592,0,0,0-2.47,1.374,5.38,5.38,0,0,0-2.438-.592,9.479,9.479,0,0,0-2.33.37l-.064.016h-.006a8.842,8.842,0,0,1-2.143.355,3.894,3.894,0,0,1-1.394-.249h.006a1.429,1.429,0,0,0,.69-.161,1.415,1.415,0,0,1,.558-.157c-.122,0-.223,0-.323,0a12.491,12.491,0,0,1-7.529-2.609c-.389-.274-.764-.554-1.095-.8l0,0c-1.308-.974-2.341-1.744-3.409-1.755a5.814,5.814,0,0,0-.749-.045,10.131,10.131,0,0,0-3.385.646c-1.111.42-1.831.941-1.977,1.431-.1.33.062.634.475.9-.187.087-.274.151-.264.2.018.083.381.1.77.1.187,0,.4,0,.629-.006l.16,0c.285,0,.537-.006.771-.006a14.979,14.979,0,0,1,2.591.18c.9.169,1.456.468,1.665.89.227.46.045,1.082-.541,1.848a6.308,6.308,0,0,0-1.909-1.413,4.394,4.394,0,0,0-1.855-.393,12.194,12.194,0,0,0-3.274.643l-.009,0-.054.016-.456.13a17.034,17.034,0,0,1-4.775.774,14.855,14.855,0,0,1-4.8-.835c.714-.382,1.081-.747,1.123-1.116.052-.453-.391-.841-.819-1.217l0,0c-.4-.349-.773-.68-.721-1.033.042-.279.35-.545.943-.814a11.786,11.786,0,0,0-3.408.82,5.544,5.544,0,0,0-1.633,1.255l0,0-.009.009c-.2.2-.431.427-.7.673l-1.5-1.517a11.765,11.765,0,0,0-2.78,2.687c-.7.946-.912,1.232-5.893,2.579.419-.215.624-.426.624-.646,0-.408-.713-.779-1.4-1.138s-1.324-.689-1.336-1.054c-.006-.164.116-.32.373-.477h-.19a12.476,12.476,0,0,0-3.156.391,8.69,8.69,0,0,0-2.589,1.114l.263-.235a26.53,26.53,0,0,1-3.466.254,17.113,17.113,0,0,1-3.567-.375l-.137-.027-.06-.012h0a13.092,13.092,0,0,0-2.685-.325,17.132,17.132,0,0,0-4.475.729l.916.915a43.653,43.653,0,0,1-7.614,1.483c-1.247.144-2.587.264-4.1.367-1.235.095-2.566.178-4.188.261-1.059.055-2.132.1-3.169.15h-.019l-.112.005h-.012a120.569,120.569,0,0,0-13,1.048l3.407.56h-.09a14.241,14.241,0,0,0-2.241.335l-.014,0-.715.138a21.833,21.833,0,0,1-3.945.458,7.507,7.507,0,0,1-2.712-.433,7.089,7.089,0,0,0,.731-.2h0a5.02,5.02,0,0,1,1.33-.294,1.18,1.18,0,0,1,.188.014,3.458,3.458,0,0,0-1.348-1.69,5.751,5.751,0,0,0-3.007-1.025L60.4,25.816l-1.243-1.2c-.817.028-1.27.154-1.386.386s.093.518.292.8.4.584.293.807-.57.359-1.386.388c-1.324-1.912-4.472-2.176-7.676-2.176-.832,0-1.7.019-2.539.037h-.034c-.833.018-1.694.037-2.538.037a23.068,23.068,0,0,1-4.358-.316,6.175,6.175,0,0,1-3.184-1.43c-.269.5-.319.882-.153,1.16.356.6,1.653.6,2.907.608H39.4c1.184.005,2.3.011,2.559.5.127.243.035.583-.28,1.041-.32-.116-.6-.243-.857-.355a8.834,8.834,0,0,0-3.526-.86L38.557,27.2c-1.387-.079-2.708-.171-4.039-.28-1.179-.087-2.334-.183-3.532-.293-.9-.082-1.76-.165-2.522-.238l-.02,0-.044,0h0l-.072-.007h-.008c-1.2-.115-2.338-.225-3.464-.318-2.431-.2-4.383-.293-6.327-.293-2,0-4.029.1-6.2.3l.308-.447a17.473,17.473,0,0,0-2.665-.242c-2.019,0-3.262.572-4.155,1.913-.451-.418-.151-.77.138-1.109.192-.225.373-.437.326-.655-.037-.171-.212-.328-.538-.482A5.8,5.8,0,0,1,1.3,26.9,9.5,9.5,0,0,1,0,26.808V10.732a62.607,62.607,0,0,0,6.59,1.11,76.507,76.507,0,0,0,8.849.482c4.441,0,8.814-.324,12.506-.64,2.356-.211,4.881-.432,7.386-.626,2.011-.157,4.668-.353,7.391-.468,1.686-.071,3.233-.106,4.73-.106a73.736,73.736,0,0,1,10.2.654c.354-.081.56-.219.612-.408.112-.408-.483-.974-.918-1.387a4.553,4.553,0,0,0,2.142.783c.888,0,1.25-.688,1.6-1.354.309-.587.628-1.194,1.3-1.353l5.955,3.473a1.639,1.639,0,0,0,.838-.961,1.748,1.748,0,0,0-.442-1.276,1.567,1.567,0,0,1-.35-.755,41.168,41.168,0,0,1,4.842-.261c2.757,0,5.565.214,8.043.4h0l.153.011c2.591.2,5.037.385,7.419.385a23.932,23.932,0,0,0,7.274-.93A1.941,1.941,0,0,1,97.552,9.4c.06.68.112,1.268,1.941,1.451-.852-.595-1.221-1.078-1.127-1.476.19-.8,2.227-1.1,4.2-1.382h0c1.717-.249,3.338-.484,3.545-1.035a.5.5,0,0,0-.152-.5c1.718,1.455,4.133,1.741,6.264,1.994h0a11.334,11.334,0,0,1,3.8.854,2.716,2.716,0,0,1,1.354,2.988c.135.007.276.01.417.01,1.923,0,2.342-.725,2.42-1.158a1.852,1.852,0,0,0-1.139-1.824c.618.008,1.138.012,1.638.012,4.183,0,7.384-.325,10.415-1.941a7.9,7.9,0,0,0,2.733.291c1.342,0,3.065-.084,4.89-.172h.033c1.48-.072,3.01-.146,4.588-.192.793-.017,1.5-.025,2.167-.025a44.287,44.287,0,0,1,6.728.416,10.156,10.156,0,0,1,4.764,1.7c-.936-.785-1.3-1.232-1.227-1.492s.58-.327,1.278-.421h0a8.44,8.44,0,0,0,2.654-.68l-2.816-2.37,6.227.115A5.967,5.967,0,0,1,164.3,4.4c.305,0,.461.068.477.209.415.037.5.262.607.546.171.454.405,1.075,2.083,1.412h.233c2.9,0,3.729-.69,4.775-1.564a10.972,10.972,0,0,1,1.4-1.036l-.691-.344,2.829-.3c.2,0,.308.028.32.079.028.112-.395.338-.929.623-.959.512-2.273,1.213-2.164,1.854.082.482.982.858,2.675,1.12a3.67,3.67,0,0,1,1.413-1.578,5.306,5.306,0,0,1,2.894-1.175,2.132,2.132,0,0,1,1.391.481h-.134c-1.945,0-2.364.545-2.44.87-.11.472.349,1.083,1.093,1.452l4.927.06-2.01-3.039c.643-.008,1.273-.011,1.872-.011,2.619,0,5.514.063,8.849.194,1.991.078,3.775.159,5.452.247l2.187.13,1.213.072,2.1.125c5.771.34,11.917.673,18.023.673,1.482,0,2.938-.02,4.326-.059.03,1.214,2.184,1.332,4.465,1.456,2.111.115,4.295.234,5.026,1.221a1.459,1.459,0,0,1,.189,1.284l-.612-.372c-.856.1-1.3.341-1.277.685.023.385.648.884,1.629,1.3a8.608,8.608,0,0,0,3.188.693,4.784,4.784,0,0,0,.778-.06c-.451-.169-.7-.375-.762-.631-.108-.442.368-.969.828-1.478.474-.525.964-1.067.788-1.5-.2-.5-1.248-.794-3.285-.92l5.727-1.96a4.47,4.47,0,0,1,2.181-2.675,7.645,7.645,0,0,1,3.594-.717,27.607,27.607,0,0,1,4.207.4c.843.135,1.687.287,2.581.447h.005a46.57,46.57,0,0,0,8.038.977,14.3,14.3,0,0,0,3.966-.5,1.351,1.351,0,0,0-.8.941,18.045,18.045,0,0,1,5.53-.769,43.8,43.8,0,0,1,7.821.873c.335.062.663.124.981.184l.038.007.181.034.029.005h0a26.659,26.659,0,0,0,4.133.6,1.867,1.867,0,0,0,1.044-.219l.846,2.083c4.279-2.109,6.136-2.964,9.123-2.964a45.556,45.556,0,0,1,6.461.688,1.03,1.03,0,0,1-.153.27c-.134.194-.285.413-.213.629.063.189.287.344.685.475l.021-.017A10.033,10.033,0,0,1,311.6,3.175c.555,0,1.148.024,1.762.071l-.193.656,8.681-.32c.05,1.513.889,2.218,2.639,2.218a23.6,23.6,0,0,0,4.678-.766h0l.317-.072a26.177,26.177,0,0,1,5.455-.831,5.992,5.992,0,0,1,2.732.544,3.719,3.719,0,0,1,1.8,2c1.119-1.286,4.429-1.954,7.348-2.543h.012c1.305-.263,2.538-.512,3.414-.789a1.254,1.254,0,0,0,.693.863,4.289,4.289,0,0,1,3.313-1.3,18.235,18.235,0,0,1,4.966,1.029l.2.06h0a16.544,16.544,0,0,0,4.41.962,4.478,4.478,0,0,0,.463-.023c.86-.294,1.326-.641,1.425-1.059.146-.614-.524-1.3-1.172-1.963a6.364,6.364,0,0,0,3.22.759A20.417,20.417,0,0,0,374,1.346c.363-.122.718-.244,1.023-.349h0a14.593,14.593,0,0,1,3.755-1,1.221,1.221,0,0,1,.679.16,2.634,2.634,0,0,1,1.825.664,2.017,2.017,0,0,1,.245,1.544,2.506,2.506,0,0,0,.243,1.712c2.407-.257,2.38-1.532,2.358-2.557-.01-.486-.019-.9.22-1.15a.918.918,0,0,1,.685-.218,9.227,9.227,0,0,1,2.811.737c-.2.067-.446.13-.684.192l-.007,0h-.006c-.553.144-1.125.293-1.156.484-.01.06.033.121.131.186C387.237,2,388.7,3.4,390.248,4.894c1.848,1.779,3.758,3.617,5.24,3.617a1.528,1.528,0,0,0,.749-.188l-1.753-1.174a5.107,5.107,0,0,1,1.6-.245,13.774,13.774,0,0,1,5.07,1.373l.332.141.029.012.2.083a10.639,10.639,0,0,0,3.517,1.118c.847,0,1.324-.457,1.5-1.44l-.448-2.023A17.35,17.35,0,0,0,411.118,7.3a4.224,4.224,0,0,0,1.167-.171l.034-.008a4.673,4.673,0,0,1,1.285-.177,18.57,18.57,0,0,1,4.681.919l-.109.332c.236-.023.478-.034.718-.034a10.871,10.871,0,0,1,2.492.336l.167.038.059.014a7.888,7.888,0,0,0,1.713.275,2.629,2.629,0,0,0,2.363-1.637l-1.264-.465c.981-.035,1.8-.051,2.5-.051,1.506,0,2.486.074,3.844.176h.017c.827.063,1.856.14,3.291.219a5.651,5.651,0,0,1,2.147-.413,1.879,1.879,0,0,1,1.309.373c.1-1,1.668-1.512,4.661-1.512a62.9,62.9,0,0,1,7.19.569l.016,0h.011l.059.007h0c.431.052.771.094,1.007.117-1.365.117-2.1.362-2.241.749-.152.41.348.92.877,1.46l.019.019.007.007c.123.126.251.257.368.386a8.019,8.019,0,0,1,1.752-1.349,3.543,3.543,0,0,1,1.7-.446,6.9,6.9,0,0,1,3.265,1.1,10.335,10.335,0,0,1,1.576-4.718c1.123-1.49,2.974-2.23,5.658-2.263-.244.126-.522.236-.791.342-.557.22-1.083.428-1.16.725a.422.422,0,0,0,.118.376.9.9,0,0,0,.731.3,4.386,4.386,0,0,0,1.723-.554l.022-.011c.26.32,0,.6-.3.917-.364.384-.776.818-.435,1.46a6.592,6.592,0,0,1,4.193-1.454,18.519,18.519,0,0,1,2.605.254l.19.027a22.661,22.661,0,0,0,3.313.29,14.769,14.769,0,0,0,2.55-.219c-.544.278-.837.553-.9.841-.075.367.222.723.566,1.134a4.9,4.9,0,0,1,.615.855,1.167,1.167,0,0,1,1.239-1.147,7.655,7.655,0,0,1,2.659.843,5.866,5.866,0,0,0,1.832.638.41.41,0,0,0,.37-.16c.165-.243.078-.779-.265-1.636,5.489,1.6,12.531,1.891,18.744,2.153,6.605.278,12.309.517,14.488,2.208a1.394,1.394,0,0,0,1.179.482,9.622,9.622,0,0,0,2.619-.6h0A9.688,9.688,0,0,1,522,8.6l-.387,1.656a18.034,18.034,0,0,1,5.328-1.948,26.29,26.29,0,0,0,5.841-1.9c-1.168.776-1.709,1.415-1.7,2.01.009.832,1.095,1.585,2.513,2.483L538.342,7.6l.668,2.606a5.447,5.447,0,0,1,2.44-.533,15.225,15.225,0,0,1,3.459.553c1.167-1.564,3.927-2.056,6.363-2.491h0c1.8-.322,3.363-.6,3.912-1.25A2.348,2.348,0,0,0,557.5,8.012a8.474,8.474,0,0,0,1.254-.128l.027,0a8.021,8.021,0,0,1,1.186-.124,1.771,1.771,0,0,1,1.848,1.371A10.163,10.163,0,0,1,564.372,8a3.052,3.052,0,0,1-.5-2.429.511.511,0,0,1,.473-.241,1.867,1.867,0,0,1,.753.21,1.946,1.946,0,0,1,.238-.025h.01c.058,0,.118-.007.184-.016l-.534-1.848a.79.79,0,0,1,.123-.582.3.3,0,0,1,.226-.089c.5,0,1.454.8,2.557,1.728l.026.022,0,0c.476.4.969.813,1.453,1.183a6.37,6.37,0,0,0-2.562-.526,8.091,8.091,0,0,0-1.291.109l.594,2.052A25.442,25.442,0,0,1,571.067,7h.1a7.089,7.089,0,0,1-1.783-1.08c.539.234,1.043.5,1.53.765l.008,0c.221.119.406.218.6.318a4.761,4.761,0,0,1,.659.047.953.953,0,0,1-.4.084h-.008a4.779,4.779,0,0,0,2.09.529,5.183,5.183,0,0,0,1.812-.357,8.322,8.322,0,0,0,4.072.937,28.9,28.9,0,0,0,5.757-.817h.005l.187-.039.087-.018.434-.09a27.468,27.468,0,0,1,5.429-.712l.212,0a9.33,9.33,0,0,1,5.3,1.609,4.719,4.719,0,0,0-1.9-.474,1.264,1.264,0,0,0-1.093.429,31.446,31.446,0,0,1,7.009,1.12l.24.059.041.01.182.045a25.782,25.782,0,0,0,5.785.992,6.771,6.771,0,0,0,2.244-.342l-.042-1.893a64.961,64.961,0,0,1,9.194-.894c.774,0,1.507.029,2.24.089L621.52,5.2a15.889,15.889,0,0,0,3.106.235c1.135,0,2.355-.054,3.646-.111h.025l.137-.006h.01c1.152-.05,2.585-.113,3.919-.113a24.1,24.1,0,0,1,3.868.258,7.888,7.888,0,0,1,3.028,1.044V18.6a16.251,16.251,0,0,0-3.51,2.3,6.738,6.738,0,0,0-2.041,2.59,1.331,1.331,0,0,0,.027,1.063,11.26,11.26,0,0,1-3.325-.5l-.24-.073-.035-.011-.015,0a6.743,6.743,0,0,0-2.178-.4,8.776,8.776,0,0,0-1.636.174,9.007,9.007,0,0,1,1.965,1.248c-.005.017-.034.026-.087.026a3.742,3.742,0,0,1-.408-.046l-.013,0-.14-.02-.051-.007a7.809,7.809,0,0,0-1.034-.081c-1.167,0-1.9.41-2.165,1.22-.186.01-.357.015-.509.015-.713,0-1.137-.1-1.337-.317a.9.9,0,0,1-.132-.727.952.952,0,0,0-.527-1.138c-.665.3-2.1,1.177-2.282,1.93-.879-1.089.183-2.379,1.308-3.744,1.21-1.468,2.461-2.987,1.345-4.357-.9-1-4.045-2.782-8.845-5.022l-.146-.068-.056-.026-.006,0c-.916,1.1-1.623,4.029-1.8,7.451a26.189,26.189,0,0,0,.145,4.674,9.354,9.354,0,0,0,1.036,3.522c-.082.293-.231.435-.455.435-.454,0-1.148-.587-1.883-1.209l0,0a5.943,5.943,0,0,0-2.147-1.408,4.62,4.62,0,0,0-2.758-.962,8.467,8.467,0,0,0-3.225.866l-.046.019a8.156,8.156,0,0,1-3.089.85,3.648,3.648,0,0,1-1.234-.211l2.925-1.378c-.143-.2-.69-.309-1.543-.309-1.887,0-4.69.516-5.342,1.156a5.128,5.128,0,0,1,.8-1.719l0,0a14.2,14.2,0,0,0,1.186-2.351c.3-.884.229-1.485-.218-1.837a11.83,11.83,0,0,0-1.443-.088,13.507,13.507,0,0,0-3.339.434,16.2,16.2,0,0,0-4.221,1.792c-2.488,1.507-4.124,3.461-4.071,4.862,1.169-.287,2.408-.6,3.4-.844l.058-.014.059-.015c2.206-.549,4.487-1.117,6.741-1.65.042,1.118-1.606,1.635-3.351,2.183-1.927.6-3.919,1.23-3.865,2.721ZM373.364,20.078c-.592,0-1.073.428-1.56,1.386a1.139,1.139,0,0,0,1.027.5,6.305,6.305,0,0,0,2.3-.72l0,0c.242-.11.458-.208.639-.279-.351-.132-.675-.283-.961-.417a3.874,3.874,0,0,0-1.427-.474Zm83.859-3.256a6.01,6.01,0,0,0-.845.061,5.015,5.015,0,0,0,2.377.84,1.6,1.6,0,0,0,1.03-.341,6.409,6.409,0,0,0-2.462-.559h-.1ZM544.9,10.238c-.318,0-.473.031-.519.1s0,.139.043.242a1.033,1.033,0,0,1,.1.357A2.763,2.763,0,0,1,544.9,10.238ZM164.326,5.373l-.062.07,0,0c-.236.268-.459.522-.4.644.023.051.094.076.216.076a5.478,5.478,0,0,0,1.3-.286Zm400.9,22.445h-.053a6.029,6.029,0,0,1-1.424-.238c-.348-.993-.411-1.572-.21-1.934.232-.419.805-.549,1.673-.746a18.241,18.241,0,0,0,1.8-.482c-.149.1-.216.2-.2.3.036.246.592.433,1.181.631l.005,0c.616.207,1.253.422,1.308.718.021.114-.043.23-.2.355a4.616,4.616,0,0,0-1.461-.33c-.678,0-.849.381-1.029.785l-.006.013-.028.061,0,.007A1.264,1.264,0,0,1,565.231,27.818ZM62.856,27.4h-.015c-.182,0-.263-.073-.263-.225a1.633,1.633,0,0,0,.305.115h.007a2.216,2.216,0,0,1,.235.08A1.693,1.693,0,0,1,62.856,27.4Zm248.166-.051h-.095c-.073,0-.144,0-.223-.008-.125-.718-.12-1.11.016-1.272a.265.265,0,0,1,.217-.09,2.668,2.668,0,0,1,.894.322c.134.063.276.129.432.2a5.9,5.9,0,0,0,1.747.51c-.388.035-.783.095-1.166.152l-.015,0-.015,0H312.8A12.306,12.306,0,0,1,311.022,27.35Zm3.436-.315h-.067c-.119,0-.243-.009-.381-.024.233-.021.44-.031.634-.031.134,0,.264,0,.386.015A3.986,3.986,0,0,1,314.458,27.034Zm306.95-.06c-.94-.126-1.527-.351-1.746-.669a.561.561,0,0,1-.078-.467,3.9,3.9,0,0,0,1.825,1.135h0ZM73.175,26.927l-.332-.055a1.134,1.134,0,0,1,.333.054h0Zm310.857-.359h0l-2.318-1.56h.013c1.372.126,2.061.19,2.523.9l-.217.655ZM284.5,25.47h0l1.689-1.871a1.71,1.71,0,0,0,.08.731v0c.074.281.143.547-.009.746C286.063,25.336,285.5,25.46,284.5,25.47Zm239.641-.848h0l3.96-6.663,1.352,5.309a6.123,6.123,0,0,0-1.876-.386,5.213,5.213,0,0,0-3.436,1.74Zm-308.376-.189h0c.119-.01.251-.023.418-.04A2.167,2.167,0,0,1,215.764,24.433Zm351.256-.018h0a5.25,5.25,0,0,1,1.473-.593A11.511,11.511,0,0,1,567.02,24.415Zm-222.27-.091h0l-.688-.057-.68-2.417,1.368,2.474ZM286.185,23.6h0a.874.874,0,0,1,.144-.366.5.5,0,0,0,.074.008.449.449,0,0,1,.1.014l-.312.344Zm243.3-.178h0l-.037-.153c.07.026.16.054.2.068l.007,0a.331.331,0,0,0-.078.039.329.329,0,0,1-.1.044ZM346.152,22.07h0l1.536-.466A6.237,6.237,0,0,1,346.152,22.07Zm12.824-.322h0c-.142-.011-.226-.052-.249-.121-.043-.129.127-.364.506-.7l-.256.819Zm-6.688-.543h-.043c-.055,0-.111,0-.169-.009l.654-.039A1.915,1.915,0,0,1,352.289,21.205Zm97.63-.375a11.791,11.791,0,0,1-2.955-1.235l2.955,1.234Zm.25-.867c-.445-.2-.685-.407-.711-.625-.02-.161.077-.325.286-.487a2.111,2.111,0,0,0,.426,1.111h0Zm167.148-.4h0l-.991-.014,1.387-4.264-.4,4.278Zm-436.576-.51h0c-.021,0-.033-.006-.036-.015-.01-.038.119-.164.788-.549a1.353,1.353,0,0,0,.206.105l.005,0,.009,0c.041.017.079.034.116.054A4.708,4.708,0,0,1,180.742,19.054ZM105.956,6.449c-.116-.1-.227-.2-.33-.3a2.167,2.167,0,0,1,.331.3ZM350.25,3.338h0c-.041-.426.39-.788,1.316-1.106a.4.4,0,0,1,.015.343c-.116.269-.551.519-1.331.764Z" transform="translate(0.468 1543.218)" fill="#fff" stroke="rgba(0,0,0,0)" stroke-width="1"/>
        <path id="Subtraction_31" data-name="Subtraction 31" d="M481.374,29.584h0l-9.06-1.186a10.91,10.91,0,0,0,2.084-.3c.649-.16,1.461-.443,1.649-.889a.675.675,0,0,0-.222-.73c-2.461-.016-2.635-.208-3.017-.629a4.1,4.1,0,0,0-1.5-1.054,88.266,88.266,0,0,0,9.191-6.564,93.4,93.4,0,0,0,8.123-7.094l-4.941,1.384L482.64,11.1c-2.543.641-5.4,2.52-8.5,5.585a67.532,67.532,0,0,0-5.807,6.738l0,0c-.2.253-.364.471-.506.651a2.378,2.378,0,0,1-1.938-1.723,5.323,5.323,0,0,1,.125-2.887,5.345,5.345,0,0,1,1-2.042c-.235-.017-.467-.026-.69-.026a7.478,7.478,0,0,0-3.683.933,15.859,15.859,0,0,0-2.743,2.052l-.073.064a16.327,16.327,0,0,1-2.657,2.016,6.9,6.9,0,0,1-3.467.911,8.922,8.922,0,0,1-1.237-.09l2.539,1.2a4.542,4.542,0,0,1-1,.084c-.8,0-1.846-.095-2.691-.171l-.1-.009h0c-.9-.081-1.759-.158-2.381-.158-.543,0-.841.061-.912.187a.174.174,0,0,0,.021.181,6.4,6.4,0,0,1-1.362-2.666,2.516,2.516,0,0,1,.378-2.492l-6.191,4.184c.483-.424.6-1.882.712-3.167v0a6.3,6.3,0,0,1,.321-1.976,1.86,1.86,0,0,0-.192-.01,2.766,2.766,0,0,0-1.894.91,5.737,5.737,0,0,0-1.266,1.956c-.388,1-.373,1.858.038,2.23a31.2,31.2,0,0,0-3.27-1.937c-1.069-.553-1.556-.8-3.8-2.969-.35.055-.573.339-.642.824a5.1,5.1,0,0,0,.38,2.313,3.1,3.1,0,0,0,1.082,1.626,12.274,12.274,0,0,1-3.4.528,10.165,10.165,0,0,1-3.338-.6.355.355,0,0,0-.078.039.31.31,0,0,1-.095.044h0l-.038-.153c.056.02.135.047.212.07,3.662-1.044,3.418-4.664,3.2-7.858A10.37,10.37,0,0,1,428.9,11.3l-12.52,11.684a24.279,24.279,0,0,0,1.6-5c-.4,1.144-2.07,2.009-4.971,2.573a50.611,50.611,0,0,1-9.007.7,69.29,69.29,0,0,1-7.055-.341h.981a.453.453,0,0,0,.2-.513c-.112-.3-.611-.59-1.405-.812a10.253,10.253,0,0,0-2.635-.338,6.3,6.3,0,0,0-2.676.5.963.963,0,0,1,.964-.513c.107,0,.223.006.346.012h.031l.03,0c.169.009.336.017.522.017h.034a3.171,3.171,0,0,0-1.782-.609c-1.2,0-2.217.857-3.2,1.686l-.009.008,0,0c-.978.824-1.99,1.677-3.17,1.677a3.311,3.311,0,0,1-2.031-.807,12.556,12.556,0,0,0,1.411.088,3.779,3.779,0,0,0,2.852-.875,2,2,0,0,0,.467-1.595,16.563,16.563,0,0,1-4.139.568,24.605,24.605,0,0,0-3.211.324,3.144,3.144,0,0,0-2.077,1.06,2.053,2.053,0,0,0-.1,1.871,10.129,10.129,0,0,0-1.778-.577l-.015,0a4.071,4.071,0,0,1-1.5-.568,1.442,1.442,0,0,1-.421-1.44l-8.194,2.344a1.094,1.094,0,0,0,.526-1.056c-.075-.325-.426-.75-1.674-.933a7.639,7.639,0,0,0,1.08.075,15.781,15.781,0,0,0,4.211-.744l.313-.087.009,0a13.483,13.483,0,0,1,3.368-.662,2.772,2.772,0,0,1,2.343,1.054,8.223,8.223,0,0,0-.182-2.332,5.4,5.4,0,0,1-.128-1.9,3.474,3.474,0,0,1,1.182-1.951,29.778,29.778,0,0,0-8.6,2.323,58.43,58.43,0,0,0-6.748,3.63l0,0-.011.006,0,0c-1.392.831-2.706,1.616-4.082,2.327l-7.641-2.036-.362,1.185L348.8,18.3c-.221.15-.423.294-.628.441l0,0a2.769,2.769,0,0,1-1.03.592.163.163,0,0,1-.146-.075c-.186-.3.159-.745.48-1.1a4.738,4.738,0,0,0-1.955.687c-.262-1.6,1.2-3.411,2.663-4.969l-.25-.218-.032-.028-.147-.128-.034-.03-.189-.165.134-.067.006,0,.028-.014.006,0c.744-.373,1.446-.725,2.074-1.059l-1.6,1.714c.829.707,1.47,1.233,2.078,1.7a9.137,9.137,0,0,0,1.3-1.449A1.967,1.967,0,0,0,352,12.768c-.072-.484-.438-.884-1.119-1.223-.266.171-.617.369-1.1.623.643-.707,1.291-1.5,1.221-2.038A.6.6,0,0,0,350.7,9.7l-5.967,1.323a24.792,24.792,0,0,1,2.417,1.968l.017.015.039.034.264.23.01.009.045.039c-2.961,1.485-5.859,3.064-5.942,4.623-.031.59.355,1.148,1.15,1.659l-4.449-1.859c-4.287,2.3-4.552,2.383-7.8,3.391h0l-.017.005c-.743.231-1.76.547-3.043.959a1.572,1.572,0,0,1,.327-1.266c.293-.5.568-.976-.075-1.421a4.784,4.784,0,0,1-2.809.849,12.026,12.026,0,0,1-4.778-1.337c-.22-.1-.445-.2-.688-.315l-.052-.024a9.144,9.144,0,0,0-3.084-1.073.984.984,0,0,0-1.018.714c-2.132.387-2.371,1.152-2.6,1.892a1.872,1.872,0,0,1-1.406,1.484l0-.007c.08-.226.213-.605.06-.84a.513.513,0,0,0-.412-.2l-2.865,2.115a.426.426,0,0,1-.225-.311c-.012-.209.223-.41.471-.622.27-.23.549-.469.5-.722s-.488-.52-1.318-.769l-.923.26-.044.013c-3.482.984-6,1.7-8.694,1.7a15.78,15.78,0,0,1-3.659-.442c-1.421.094-2.2.356-2.385.8-.2.488.352,1.118.84,1.674.408.465.761.866.646,1.12-.082.18-.4.268-.977.268-.234,0-.514-.014-.833-.043-.052-.113-.1-.227-.156-.342a7.851,7.851,0,0,0-1.492-2.436,5.156,5.156,0,0,0-3.342-1.388A6.246,6.246,0,0,0,285,22.751a5.065,5.065,0,0,1-3.221,1.972l.171-2.691c-.429.012-.853.034-1.227.053h-.038c-.52.026-1.011.05-1.458.05a3.779,3.779,0,0,1-1.768-.3,1.362,1.362,0,0,1-.7-1.287,7.3,7.3,0,0,1-3.187.819,5.678,5.678,0,0,1-1.987-.365c-.793.253-1.232.618-1.3,1.086-.2,1.3,2.431,3.166,4.174,4.4a12.714,12.714,0,0,1,1.423,1.083,18.572,18.572,0,0,0-4.473-1.416l-.011,0a13.587,13.587,0,0,1-2.8-.811,6.168,6.168,0,0,1-2.411-1.972l3.76-.682a10.665,10.665,0,0,0-4.112-.979,6.346,6.346,0,0,0-2.764.641c-.119.055-.237.111-.34.16l-.058.027h0a3.522,3.522,0,0,1-1.445.47c-.81,0-1.59-.668-2.693-2.3.185.015.38.023.579.023a7.959,7.959,0,0,0,2.686-.464,2.48,2.48,0,0,0,1.524-1.148.974.974,0,0,0-.393-1.105l-3.976,1.375a.241.241,0,0,1-.048-.219c.057-.166.343-.259.621-.348.253-.082.492-.159.5-.283s-.2-.269-.649-.468a28.75,28.75,0,0,0-4.442,2.861l.049-.168-6.557.4c.345-.083.558-.269.542-.475s-.258-.426-.894-.479l-4.694,1.4c.4-.187.583-.394.557-.616-.029-.243-.321-.5-.843-.742a9.209,9.209,0,0,0-1.937-.6,7.4,7.4,0,0,0-.989-.07,4.509,4.509,0,0,0-2.409.624,5.939,5.939,0,0,0-1.49,1.374c-.095.116-.189.235-.273.341l-.013.017-.042.053c-.681.863-1.269,1.609-2.31,1.609a4.125,4.125,0,0,1-1.971-.654c.054,0,.106.007.158.007a1.586,1.586,0,0,0,.58-.115h0a1.619,1.619,0,0,1,.59-.117c.046,0,.1,0,.156.007l-2.478-1.21a2.446,2.446,0,0,1-.7,1.674,3.807,3.807,0,0,1-1.662.909,21.432,21.432,0,0,1-4.925.543h0a21.409,21.409,0,0,0-4.931.544,3.78,3.78,0,0,0-1.656.91,2.441,2.441,0,0,0-.687,1.677c-1.13-.735-1.556-1.134-1.52-1.424.038-.308.582-.5,1.483-.806l.006,0a18.775,18.775,0,0,0,4.044-1.834l-3.764-1.652a6.868,6.868,0,0,1,1-.065c.228,0,.456.007.676.015h.035c.247.008.471.015.693.015a5.642,5.642,0,0,0,1.934-.292,8.711,8.711,0,0,0-3.853-.909,10.807,10.807,0,0,0-4.206.925,26.183,26.183,0,0,0-3.306,1.745l-.011.006-.036.022-.027.016-.008,0c-.164.1-.318.19-.468.277-.709-.309-.713-1-.716-1.674a2.422,2.422,0,0,0-.221-1.259,1.642,1.642,0,0,0-1.5-.571,8.74,8.74,0,0,0-1.552.17c-1.794.283-2.769.7-2.981,1.265-.2.544.3,1.137.785,1.711.412.487.8.946.668,1.3-.1.276-.516.468-1.262.585L198.6,22.4a14.276,14.276,0,0,1-5.548,1.089,31.222,31.222,0,0,1-5.278-.591l-.018,0c-1.282-.219-2.608-.445-3.951-.541a3.165,3.165,0,0,0-1.831.874A8.826,8.826,0,0,0,179.924,23a19.731,19.731,0,0,0-5.846,1.187l-.036.011-.283.09h0a17.51,17.51,0,0,1-4.973,1.1,5.3,5.3,0,0,1-1.251-.14.291.291,0,0,0,.145-.25c-.016-.377-.847-.872-1.651-1.351a5.642,5.642,0,0,1-1.363-.962l-6.657,1.829a3.409,3.409,0,0,0,2.838-3.261v0c.052-.278.106-.563.179-.842a8.712,8.712,0,0,0-2.869.8,7.107,7.107,0,0,1-1.713.56c.55-.389,1.12-.79,1.106-1.234-.007-.254-.2-.5-.6-.745l-1.241.5-.417.168c-1.772.713-3.605,1.451-5.424,2.212a5.31,5.31,0,0,0,2.014.445,17.27,17.27,0,0,0-1.757.189h0a24.139,24.139,0,0,1-3.31.3,7.474,7.474,0,0,1-3.344-.659,2.949,2.949,0,0,1,.584-.96l0,0a2.933,2.933,0,0,0,.6-.987,3.247,3.247,0,0,0,1.939.828c1.058,0,1.752-.874,2.422-1.719l.137-.172c-.856.062-1.45.091-1.869.091-.549,0-.826-.048-.927-.161a.363.363,0,0,1-.044-.3c.033-.305.078-.724-.994-1.218a5.952,5.952,0,0,0-2.589.611,2.956,2.956,0,0,0-1.332,1.291,1.792,1.792,0,0,0,.171,1.908c-.3-.044-.622-.091-.973-.144l-.039-.005a23.742,23.742,0,0,0-3.414-.36,11.379,11.379,0,0,0-4.912,1.273l.554-2.321-3.7.784,2.786-2.862a11.185,11.185,0,0,0-2.117-.252c-1.657,0-1.887.72-2.13,1.481l0,.009c-.013.042-.026.084-.04.125a2.083,2.083,0,0,1-.685,1.1,3.482,3.482,0,0,1-2.108.5,14.523,14.523,0,0,1-2.027-.17l-.229-2.031a6.9,6.9,0,0,0-2.667,1.606,3.376,3.376,0,0,1-2.011,1.1,2.644,2.644,0,0,1-1.7-.836c-.4.178-.607.369-.626.583-.034.381.524.76,1.064,1.127.486.331.946.643.874.909-.089.332-1,.551-2.88.69-1.568-1.191-4.846-1.891-6.183-2.136-.453.2-.654.435-.6.694.156.735,2.315,1.425,3.528,1.425h.029c-.521.045-1.024.067-1.494.067a8.657,8.657,0,0,1-6.438-2.382l-.256-.226-.094-.083-.01-.009a6.064,6.064,0,0,0-4.423-2.036,11.887,11.887,0,0,0-3.446.614c1.4.568,1.28,1.342,1.174,2.025a1.287,1.287,0,0,0,.139,1.1c.386.451,1.463.661,3.388.661.243,0,.492,0,.738-.009a4.458,4.458,0,0,1-1.5.243,12.564,12.564,0,0,1-3.526-.726l-.019-.006A12.666,12.666,0,0,0,92,22.935a4.517,4.517,0,0,0-2.522.721l2.184-2.648h-.038a6.735,6.735,0,0,0-2.97,1.019l-.011.007,0,0c-.189.1-.367.2-.512.266l.068-2a5.941,5.941,0,0,1-4.04,1.408,17.182,17.182,0,0,1-2.041-.157l-.065-.008a15.505,15.505,0,0,0-1.8-.147A3.285,3.285,0,0,0,76.93,23.5c.285-.7.347-1.154.187-1.391a.584.584,0,0,0-.526-.208,6.986,6.986,0,0,0-1.624.35l-.081.023-.014,0-.061.018-.023.006-.06.017a8.444,8.444,0,0,1-2.2.412h0a2.055,2.055,0,0,1-1.163-.3C73,21.22,75.52,21.082,77.739,20.96c2.605-.143,4.855-.266,4.908-2.072a2.926,2.926,0,0,0-1.327-.312,6.275,6.275,0,0,0-1.333.189l-.01,0a6.253,6.253,0,0,1-1.311.187,2.768,2.768,0,0,1-1.265-.3c1.006-.452,2.817-1.409,3.223-2.132a11.272,11.272,0,0,0-3.019-.438,9.8,9.8,0,0,0-3.576.688,22.026,22.026,0,0,0-2.918,1.457l-.005,0h0a14.342,14.342,0,0,1-3.177,1.478l6.325-.923a1.954,1.954,0,0,1-.559,1.6,2.318,2.318,0,0,1-1.244.317,2.592,2.592,0,0,0-2.47,1.373,5.392,5.392,0,0,0-2.441-.592,9.508,9.508,0,0,0-2.328.369h0l-.06.015a8.853,8.853,0,0,1-2.153.357,3.9,3.9,0,0,1-1.4-.249H61.6a1.427,1.427,0,0,0,.691-.161,1.408,1.408,0,0,1,.557-.157c-.142,0-.253,0-.324,0a12.506,12.506,0,0,1-7.534-2.609c-.373-.262-.721-.521-1.057-.771l-.043-.032c-1.308-.974-2.341-1.743-3.411-1.754a5.808,5.808,0,0,0-.749-.046,10.151,10.151,0,0,0-3.388.646c-1.112.42-1.833.942-1.979,1.431-.1.33.061.634.475.9-.188.087-.274.151-.264.2.018.083.381.095.771.095.19,0,.416,0,.633-.006l.156,0c.2,0,.475-.006.768-.006a15.02,15.02,0,0,1,2.595.18c.9.169,1.459.468,1.668.89.228.461.046,1.082-.541,1.848a6.315,6.315,0,0,0-1.91-1.414,4.408,4.408,0,0,0-1.857-.392,12.225,12.225,0,0,0-3.283.645h0l-.043.012-.012,0-.455.13a17.052,17.052,0,0,1-4.778.773h0a14.868,14.868,0,0,1-4.8-.834c.714-.382,1.082-.747,1.124-1.116.052-.453-.391-.841-.819-1.216-.4-.351-.778-.682-.725-1.036.041-.278.35-.545.945-.814a11.8,11.8,0,0,0-3.411.82,5.567,5.567,0,0,0-1.635,1.256l0,0c-.193.191-.432.43-.711.681l-1.5-1.517A11.761,11.761,0,0,0,23.962,21.3c-.7.947-.913,1.233-5.9,2.58.42-.215.624-.427.625-.647,0-.409-.713-.78-1.4-1.138s-1.326-.689-1.338-1.055c-.006-.164.116-.319.373-.476l-.191,0a12.5,12.5,0,0,0-3.158.391,8.716,8.716,0,0,0-2.59,1.113l.263-.234a26.535,26.535,0,0,1-3.467.254,17.132,17.132,0,0,1-3.57-.375L3.541,21.7l-.025,0-.026-.005-.083-.016a13.125,13.125,0,0,0-2.689-.325c-.228,0-.47.008-.717.024V7.68c1.012-.2,1.53-.437,1.633-.733a.51.51,0,0,0-.156-.493C3.2,7.909,5.616,8.2,7.749,8.448a11.362,11.362,0,0,1,3.8.854,2.714,2.714,0,0,1,1.355,2.987c.137.007.278.011.418.011,1.925,0,2.343-.725,2.421-1.158a1.85,1.85,0,0,0-1.14-1.824c.65.008,1.154.012,1.634.012,4.189,0,7.395-.325,10.428-1.941a7.884,7.884,0,0,0,2.735.291c1.351,0,3.075-.084,4.9-.173h.009c1.407-.068,3-.146,4.61-.192.776-.016,1.484-.024,2.165-.024a44.435,44.435,0,0,1,6.734.416,10.16,10.16,0,0,1,4.768,1.7c-.936-.786-1.3-1.232-1.227-1.493s.581-.328,1.282-.422h.006A8.444,8.444,0,0,0,55.3,6.816l-2.819-2.37,6.231.115A5.986,5.986,0,0,1,59.859,4.4c.306,0,.462.068.477.209.414.036.5.262.607.547.172.454.406,1.075,2.085,1.413h.235c2.9,0,3.73-.69,4.777-1.564a11.019,11.019,0,0,1,1.4-1.037l-.692-.344,2.831-.3c.2,0,.308.028.321.079.028.113-.395.338-.929.623-.961.512-2.275,1.213-2.166,1.854.081.481.982.858,2.677,1.12a3.666,3.666,0,0,1,1.413-1.579,5.316,5.316,0,0,1,2.9-1.175,2.132,2.132,0,0,1,1.392.481h-.134c-1.947,0-2.366.546-2.442.871-.111.471.349,1.082,1.093,1.452l4.932.06L78.619,4.076c.654-.007,1.279-.011,1.859-.011,2.63,0,5.531.063,8.87.193,1.949.077,3.733.158,5.455.247l.641.038,1.472.087,3.4.2c5.762.34,11.9.672,18.027.672,1.49,0,2.949-.02,4.339-.059.029,1.215,2.186,1.332,4.469,1.457,2.113.116,4.3.235,5.03,1.22a1.459,1.459,0,0,1,.189,1.284l-.613-.371c-.857.1-1.3.341-1.278.685.023.385.648.884,1.631,1.3a8.618,8.618,0,0,0,3.19.693,4.771,4.771,0,0,0,.778-.06c-.451-.168-.7-.375-.763-.631-.107-.442.368-.968.828-1.477l0,0c.474-.524.965-1.066.788-1.5-.2-.5-1.248-.794-3.287-.92l5.731-1.961a4.471,4.471,0,0,1,2.183-2.675,7.65,7.65,0,0,1,3.6-.717,27.641,27.641,0,0,1,4.21.4c.82.131,1.639.278,2.506.434l.082.015a46.7,46.7,0,0,0,8.044.977,14.332,14.332,0,0,0,3.97-.5,1.349,1.349,0,0,0-.8.941,18.068,18.068,0,0,1,5.534-.769,43.806,43.806,0,0,1,7.826.873c.346.064.686.128.986.185l.213.04.03.006a26.742,26.742,0,0,0,4.139.6,1.868,1.868,0,0,0,1.045-.218l.846,2.083c4.281-2.109,6.138-2.964,9.13-2.964a45.639,45.639,0,0,1,6.466.687,1.036,1.036,0,0,1-.155.272c-.133.193-.284.412-.212.627.063.188.287.343.685.474l.02-.016a10.042,10.042,0,0,1,7.55-2.754c.548,0,1.142.024,1.765.072l-.193.655,8.688-.32c.05,1.513.889,2.218,2.64,2.218a23.615,23.615,0,0,0,4.682-.767h0l.318-.072a26.175,26.175,0,0,1,5.458-.831,5.994,5.994,0,0,1,2.735.545,3.719,3.719,0,0,1,1.805,2c1.121-1.287,4.434-1.955,7.357-2.544h.007c1.306-.263,2.539-.511,3.418-.79-.041-.426.39-.788,1.317-1.106a.4.4,0,0,1,.015.342c-.115.269-.551.519-1.332.765a1.258,1.258,0,0,0,.693.864,4.294,4.294,0,0,1,3.317-1.3,18.247,18.247,0,0,1,4.97,1.03l.193.059.007,0a16.573,16.573,0,0,0,4.415.962A4.561,4.561,0,0,0,260,4.93c.86-.294,1.326-.64,1.426-1.059.146-.615-.525-1.3-1.173-1.964a6.369,6.369,0,0,0,3.222.759,20.462,20.462,0,0,0,6.235-1.32c.345-.116.681-.231,1.024-.349A14.6,14.6,0,0,1,274.5,0a1.219,1.219,0,0,1,.68.161A2.634,2.634,0,0,1,277,.824a2.013,2.013,0,0,1,.245,1.54v0a2.507,2.507,0,0,0,.243,1.712c2.409-.256,2.382-1.532,2.36-2.557v0c-.01-.484-.019-.9.22-1.145a.918.918,0,0,1,.685-.218,9.232,9.232,0,0,1,2.813.737c-.211.07-.478.139-.693.2-.556.144-1.13.293-1.162.485-.01.061.033.122.131.185,1.113.238,2.575,1.645,4.124,3.135l0,0c1.848,1.777,3.759,3.614,5.241,3.614a1.528,1.528,0,0,0,.749-.189L290.21,7.149a5.108,5.108,0,0,1,1.6-.244,13.81,13.81,0,0,1,5.074,1.372l.553.236a10.657,10.657,0,0,0,3.522,1.12c.847,0,1.325-.458,1.5-1.44l-.45-2.023a17.374,17.374,0,0,0,4.84,1.128,4.259,4.259,0,0,0,1.167-.17l.034-.009a4.686,4.686,0,0,1,1.286-.177,18.606,18.606,0,0,1,4.684.918l-.109.332c.24-.022.483-.033.721-.033a10.949,10.949,0,0,1,2.491.335l.188.043.039.009a7.922,7.922,0,0,0,1.714.274,2.633,2.633,0,0,0,2.366-1.637l-1.265-.466c.985-.034,1.8-.051,2.5-.051,1.5,0,2.477.073,3.826.175l.032,0h.009c.883.067,1.883.142,3.292.22a5.67,5.67,0,0,1,2.149-.413,1.88,1.88,0,0,1,1.31.373c.1-1,1.669-1.512,4.664-1.512a62.962,62.962,0,0,1,7.2.571h.008c.438.054.822.1,1.081.126-1.366.117-2.1.362-2.243.749-.152.409.347.918.875,1.456l0,0c.133.135.27.275.4.413a8.01,8.01,0,0,1,1.754-1.349,3.548,3.548,0,0,1,1.7-.447A6.9,6.9,0,0,1,352,8.132a10.337,10.337,0,0,1,1.577-4.718c1.125-1.49,2.977-2.23,5.662-2.263-.239.124-.513.232-.778.337l-.012,0h0c-.557.22-1.082.428-1.16.724a.424.424,0,0,0,.119.376.9.9,0,0,0,.731.3,4.315,4.315,0,0,0,1.723-.553l.023-.012c.261.32,0,.6-.305.916-.364.384-.776.82-.436,1.46a6.6,6.6,0,0,1,4.2-1.453,18.589,18.589,0,0,1,2.611.254l.187.027a22.739,22.739,0,0,0,3.313.289,14.792,14.792,0,0,0,2.554-.219c-.544.278-.838.553-.9.841-.075.367.222.723.566,1.135a4.906,4.906,0,0,1,.616.855,1.167,1.167,0,0,1,1.24-1.146,7.648,7.648,0,0,1,2.657.841l0,0h0a5.892,5.892,0,0,0,1.83.636.412.412,0,0,0,.371-.16c.165-.244.078-.779-.265-1.636,5.5,1.6,12.541,1.891,18.757,2.152,6.61.278,12.318.517,14.5,2.208a1.4,1.4,0,0,0,1.18.482,9.62,9.62,0,0,0,2.624-.605l.008,0a9.685,9.685,0,0,1,2.616-.6l-.388,1.656a18.052,18.052,0,0,1,5.332-1.948h0a26.324,26.324,0,0,0,5.843-1.9c-1.169.776-1.711,1.415-1.7,2.01.009.831,1.1,1.584,2.515,2.482L434.174,7.6l.669,2.606a5.455,5.455,0,0,1,2.442-.533,15.222,15.222,0,0,1,3.463.554c1.167-1.565,3.931-2.057,6.369-2.492,1.806-.322,3.366-.6,3.916-1.25a2.35,2.35,0,0,0,2.316,1.531,8.44,8.44,0,0,0,1.255-.128l.027,0,.01,0a7.918,7.918,0,0,1,1.177-.123,1.772,1.772,0,0,1,1.849,1.371A10.154,10.154,0,0,1,460.224,8a3.048,3.048,0,0,1-.5-2.43.511.511,0,0,1,.472-.241,1.875,1.875,0,0,1,.754.21,1.962,1.962,0,0,1,.243-.025h.011c.056,0,.115-.007.178-.016l.595,2.052A25.562,25.562,0,0,1,466.925,7h.1a7.075,7.075,0,0,1-1.784-1.081c.532.231,1.03.5,1.512.755l.022.012c.186.1.4.214.607.321a4.758,4.758,0,0,1,.659.047.961.961,0,0,1-.4.084h0a4.778,4.778,0,0,0,2.091.529,5.183,5.183,0,0,0,1.814-.357,8.328,8.328,0,0,0,4.075.937,28.96,28.96,0,0,0,5.766-.818l.71-.147a27.456,27.456,0,0,1,5.434-.713l.211,0a9.344,9.344,0,0,1,5.305,1.61,4.727,4.727,0,0,0-1.9-.474,1.265,1.265,0,0,0-1.094.429,31.454,31.454,0,0,1,7.014,1.12l.344.084.106.026.01,0h0a25.837,25.837,0,0,0,5.787.991,6.78,6.78,0,0,0,2.246-.342L505.5,8.124a64.99,64.99,0,0,1,9.2-.895c.776,0,1.51.029,2.243.089l.464-2.118a15.943,15.943,0,0,0,3.109.235c1.128,0,2.341-.053,3.626-.11l.039,0,.145-.006h.013c1.151-.051,2.584-.114,3.918-.114a19.535,19.535,0,0,1,5.006.5,4.825,4.825,0,0,1,3.183,2.14,2.365,2.365,0,0,1,1.817-.566,20.494,20.494,0,0,1,3.6.5l.067.013h0a21.624,21.624,0,0,0,3.785.516,5.528,5.528,0,0,0,.737-.045l.5,1.67a19.567,19.567,0,0,0,3.894.4,26.53,26.53,0,0,0,4.153-.392l.07-.01.324-.049.028,0c-.128-.067-.258-.126-.391-.186a4.73,4.73,0,0,1-.591-.3,5.069,5.069,0,0,1,2.436-.64,6.9,6.9,0,0,1,3.28.954,13.374,13.374,0,0,0-1.657-.1,20.5,20.5,0,0,0-3.076.273,16.153,16.153,0,0,0,4.471,1.591,22.634,22.634,0,0,0,4.514.41c1.811,0,3.658-.158,5.288-.3l.1-.009h.016c1.75-.15,3.4-.292,5.048-.292.742,0,1.414.029,2.055.088l-.013.473,7.007-.782a3.841,3.841,0,0,0-.607.438s0,0,.007,0a2.143,2.143,0,0,0,.327-.123h.006c.225-.093.533-.221.9-.352a6.83,6.83,0,0,1,2.194-.46,2.623,2.623,0,0,1,.668.079,7.856,7.856,0,0,1,2.174-.275,14.119,14.119,0,0,1,5.964,1.42l4.332.329c-1.394.23-2.1.524-2.23.926s.34.87.883,1.405c.583.576,1.243,1.229,1.222,1.925l3.032-1.325a.536.536,0,0,1,.192.417c-.02.261-.307.471-.56.656-.223.164-.414.3-.388.446s.242.25.684.37a14.389,14.389,0,0,1,3.538-.652h.005c2.229-.248,4.756-.529,6.015-1.644a3.256,3.256,0,0,0-1.521-1.4.922.922,0,0,1-.187.065s-.006,0-.006,0,.045-.045.128-.1a.964.964,0,0,1-.092-.059l0,0c-.025-.018-.049-.035-.078-.051l.036.014h0l.015.006.006,0h0c.045.018.084.033.159.054a4.51,4.51,0,0,0,.893-.7,10.292,10.292,0,0,0,1.75.224c.338,0,.537-.055.628-.172.1-.134.053-.335-.007-.567V11.95a1.9,1.9,0,0,1-.086-.544,9.082,9.082,0,0,0,4.235,2.238,6.056,6.056,0,0,1,3.681,2.219c-.218-.377-.265-.664-.143-.875.177-.307.712-.449,1.685-.449.573,0,1.222.046,1.909.1h.01l.03,0c.683.049,1.389.1,2.029.1,1.172,0,1.833-.181,2.077-.569a1.1,1.1,0,0,0-.077-1.079c1.222,1.641,1.7,1.645,2.084,1.649.351,0,.605,0,1.264,1.273a8.027,8.027,0,0,0-2.1-.267,22.586,22.586,0,0,0-7.392,1.814h0c-.915.336-1.779.654-2.6.9l2.9,1.986a2.9,2.9,0,0,1-2.311,1.1,8.432,8.432,0,0,1-3.29-.981l-.2-.093h0l-.006,0a7.422,7.422,0,0,0-2.688-.877,1.541,1.541,0,0,0-.67.139,2.819,2.819,0,0,1,1.224-.239,5.337,5.337,0,0,1,1.883.365,1.8,1.8,0,0,1,1.052.772l-.369-2.489a11.376,11.376,0,0,0-3.308-.475,23.52,23.52,0,0,0-7.175,1.493h0l-.015,0-.013,0c-.512.165-1,.322-1.483.469.492.175.732.338.734.5,0,.249-.564.466-1.222.718h0l0,0c-.852.327-1.818.7-1.942,1.262a.876.876,0,0,0,.328.776l2.5-.156a.568.568,0,0,1,.2.516c-.115.525-1.206.945-2.261,1.351l-.006,0c-.335.129-.682.262-.989.4-3.548-1.158-8.8-1.535-13.442-1.868h-.01l-.524-.038c-2.5-.181-4.717-.352-6.486-.609-2.015-.293-3.215-.663-3.774-1.163a4.961,4.961,0,0,0,2.159.4A10.362,10.362,0,0,0,585.2,21l-3.449-1.268a9.476,9.476,0,0,1,3.33.883,11.681,11.681,0,0,0,4.649,1.093,10.561,10.561,0,0,0,1.414-.1,2.85,2.85,0,0,1,.577-1.953l0,0c.679-1.235,1.449-2.635-.417-4.19a10.258,10.258,0,0,0-3.631-.773,8.879,8.879,0,0,0-4.528,1.51l-.048.027c-.154.086-.319.178-.484.268a14.939,14.939,0,0,1-2.756,1.222,12.664,12.664,0,0,1-3.841.554,18.746,18.746,0,0,1-2.206-.138.427.427,0,0,1-.15.047.039.039,0,0,1-.037-.016c-.025-.04.03-.149.107-.3v0l0,0a2.542,2.542,0,0,0,.269-.7.7.7,0,0,0-.141-.6,2.366,2.366,0,0,0-1.754-.458,12.177,12.177,0,0,0-1.256.074,25.659,25.659,0,0,0-8.923,3.252,11.8,11.8,0,0,0-2.8,2.364,5.336,5.336,0,0,0-1.267,2.6l.009,0a28.09,28.09,0,0,1,6.838-1.391,4.025,4.025,0,0,1,1.717.3,1.422,1.422,0,0,1,.838,1.069c-.874.258-1.938.475-2.966.684l-.031.006h0c-2.5.508-5.078,1.033-5.431,2.19-.422-.537-.565-.936-.439-1.22.206-.465,1.116-.53,1.918-.588.675-.048,1.312-.094,1.4-.372.067-.22-.218-.576-.872-1.086l-.129,0a5.821,5.821,0,0,0-3.133.955l0,0c-.232.132-.473.268-.712.377a.86.86,0,0,0,.421-.693c-.02-.537-.773-1.029-1.437-1.463a3.749,3.749,0,0,1-.932-.734,55.983,55.983,0,0,1-8.21-1.169l-.4-.079-.066-.013-.135-.027-.051-.01-.01,0c-1.046-.209-2.128-.424-3.279-.617-1.6-.259-3.067-.441-4.61-.572-.234-.344-.946-1.391-.629-2.147-2.765.518-6.759,3.278-7.77,5.369a1.529,1.529,0,0,0-.113,1.4,11.253,11.253,0,0,1-3.328-.5l-.276-.084-.015,0a6.764,6.764,0,0,0-2.179-.4,8.8,8.8,0,0,0-1.637.174c1.474.858,1.988,1.166,1.966,1.248,0,.017-.033.025-.086.025a3.689,3.689,0,0,1-.406-.045h-.007l-.2-.028a7.808,7.808,0,0,0-1.034-.081c-1.168,0-1.9.41-2.168,1.22-.183.01-.355.015-.51.015-.714,0-1.139-.1-1.338-.317a.9.9,0,0,1-.132-.726.951.951,0,0,0-.527-1.14c-.638.292-2.1,1.182-2.283,1.929-.88-1.089.184-2.379,1.311-3.745,1.211-1.468,2.462-2.986,1.345-4.356-.907-1-4.051-2.785-8.854-5.024l-.079-.037-.01,0-.115-.054c-.916,1.1-1.625,4.029-1.8,7.451a26.143,26.143,0,0,0,.145,4.674,9.346,9.346,0,0,0,1.037,3.522c-.082.293-.231.436-.455.436-.456,0-1.151-.589-1.887-1.212a5.953,5.953,0,0,0-2.149-1.408,4.628,4.628,0,0,0-2.76-.962,8.477,8.477,0,0,0-3.228.866l-.047.019a8.163,8.163,0,0,1-3.09.849,3.644,3.644,0,0,1-1.236-.211l2.928-1.377c-.143-.2-.692-.309-1.545-.309-1.887,0-4.692.515-5.346,1.156a5.121,5.121,0,0,1,.8-1.713l.006-.01a14.11,14.11,0,0,0,1.186-2.351c.3-.883.23-1.484-.218-1.837a11.818,11.818,0,0,0-1.446-.088,13.482,13.482,0,0,0-3.34.434,16.212,16.212,0,0,0-4.224,1.792c-2.49,1.507-4.128,3.461-4.075,4.862.964-.236,1.948-.481,2.9-.718l.069-.017.477-.119.028-.007c2.215-.551,4.506-1.121,6.8-1.663.041,1.118-1.608,1.636-3.354,2.184-1.928.605-3.922,1.231-3.867,2.721Zm-212.3-9.507c-.591,0-1.073.428-1.561,1.387a1.138,1.138,0,0,0,1.028.5,6.315,6.315,0,0,0,2.3-.719l.015-.007c.228-.1.443-.2.629-.274-.341-.128-.66-.276-.941-.406l-.023-.01,0,0-.007,0a3.852,3.852,0,0,0-1.418-.469h-.022Zm83.916-3.255a5.942,5.942,0,0,0-.841.06,5.014,5.014,0,0,0,2.379.84,1.607,1.607,0,0,0,1.03-.34,6.42,6.42,0,0,0-2.463-.56h-.1ZM590.458,12.3c0,.006.124.056.494.2l.033.013.879.355a.771.771,0,0,1,.133-.091c-.544-.16-.995-.307-1.264-.4l-.009,0-.017-.006,0,0C590.561,12.335,590.468,12.3,590.458,12.3ZM440.737,10.237h0c-.318,0-.474.031-.52.1s0,.143.043.242a1.036,1.036,0,0,1,.1.357,2.736,2.736,0,0,1,.376-.7ZM59.885,5.373l-.062.07c-.238.269-.462.523-.407.645.023.052.094.077.216.077a5.461,5.461,0,0,0,1.3-.286Zm401.2,22.445h-.054a6.049,6.049,0,0,1-1.425-.237c-.348-.994-.411-1.572-.211-1.935.232-.419.806-.549,1.675-.746a18.2,18.2,0,0,0,1.8-.482c-.149.1-.215.2-.2.3.036.246.592.433,1.182.631h0c.617.208,1.255.422,1.31.718.021.114-.043.23-.2.356a4.606,4.606,0,0,0-1.461-.33c-.68,0-.851.382-1.032.786l-.015.034-.021.047A1.266,1.266,0,0,1,461.083,27.818Zm108.116-.1c-1.347-.031-2.018-.135-2.05-.319-.034-.2.692-.479,1.461-.769a4.973,4.973,0,0,0,1.605-.778c.934.213,1.393.413,1.4.61.013.227-.552.426-1.15.636a3.262,3.262,0,0,0-1.271.62h0ZM206.687,27.35h-.092c-.1,0-.164-.005-.224-.009-.125-.718-.12-1.11.017-1.271a.263.263,0,0,1,.216-.091,2.647,2.647,0,0,1,.884.318l.01,0,.007,0c.113.053.269.126.426.2a5.9,5.9,0,0,0,1.743.51c-.4.036-.809.1-1.174.155h-.007A12.408,12.408,0,0,1,206.687,27.35Zm3.446-.316h-.074c-.123,0-.25-.01-.376-.023.227-.021.433-.031.629-.031.135,0,.265,0,.387.014A3.889,3.889,0,0,1,210.133,27.034ZM636.128,27h0c-.195-.1-.3-.211-.318-.34-.034-.235.224-.485.475-.726l0,0c.212-.2.412-.4.419-.568l-4.007.82c-.182-1.6,1.745-2.5,3.446-3.292,1.165-.543,2.266-1.055,2.459-1.713a.863.863,0,0,0-.14-.728,3.848,3.848,0,0,1,1.2.988l0,0,.016.018.045.051v3.566a6.133,6.133,0,0,0-2.135.559A2.7,2.7,0,0,0,636.128,27ZM517.3,26.974c-.94-.126-1.528-.35-1.746-.668a.566.566,0,0,1-.079-.468,3.9,3.9,0,0,0,1.826,1.135h0Zm62.32-.195h0l.547-2.592a5.973,5.973,0,0,1,.3.526v0a2.246,2.246,0,0,0,1.141,1.162l-1.993.9Zm-299.868-.211h0l-2.32-1.561.015,0c1.373.126,2.062.189,2.523.9l-.218.655Zm-99.606-1.1h0l1.69-1.871a1.709,1.709,0,0,0,.081.731v0c.074.281.143.547-.009.746C181.711,25.336,181.151,25.46,180.146,25.47Zm441.173-.361-3.444-.821,2.48.316.964.5Zm4.98-.312h0l-1.965-.539,1.57-1.606.4,2.144Zm-206.338-.176h0l3.964-6.663,1.353,5.309a6.116,6.116,0,0,0-1.877-.386,5.219,5.219,0,0,0-3.438,1.74Zm-308.6-.189h0c.138-.012.271-.024.418-.04A2.1,2.1,0,0,1,111.361,24.433Zm351.511-.017h0a5.285,5.285,0,0,1,1.475-.594,11.7,11.7,0,0,1-1.474.595Zm-222.431-.092h0l-.688-.057-.68-2.418,1.369,2.474ZM181.835,23.6v0a.863.863,0,0,1,.143-.366.5.5,0,0,0,.076.009h0a.483.483,0,0,1,.089.012l-.312.345Zm430.634-.671-3.449-.811c.009-.194.233-.284.7-.284a16.644,16.644,0,0,1,2.008.213h.009l.032,0,.013,0c.575.081,1.17.164,1.764.222-.5.1-1.069.271-1.081.652Zm2.451-.572-.16,0c-.351-.006-.744-.032-1.2-.078a11.7,11.7,0,0,1,2.239-.171c.215,0,.446,0,.686.011A4.011,4.011,0,0,1,614.92,22.356ZM241.845,22.07h0l1.537-.466a6.292,6.292,0,0,1-1.536.467Zm12.834-.322h0c-.142-.011-.227-.052-.25-.121-.043-.13.127-.365.506-.7l-.256.82Zm-6.694-.544h-.042c-.058,0-.114,0-.17-.008l.655-.04A1.867,1.867,0,0,1,247.985,21.2ZM568.147,20.9h-.069c-.682-.012-1.2-.2-1.343-.5a.507.507,0,0,1,.092-.539l3.982-.383a.41.41,0,0,1,.077.37c-.1.3-.664.494-1.259.7-.28.095-.569.193-.829.308A4.843,4.843,0,0,1,568.147,20.9ZM345.69,20.831a11.811,11.811,0,0,1-2.96-1.236l2.961,1.235h0ZM613.552,20.6h0a1.307,1.307,0,0,1,.714-.821,1.731,1.731,0,0,0-.713.821Zm13.8-.226h-.113a1.924,1.924,0,0,1-1.411-.418,1.118,1.118,0,0,1-.262-.858l.009,0,.018,0a15.247,15.247,0,0,1,3.105-.572c.508,0,.828.114.976.349.171.272.113.7-.178,1.3a1.449,1.449,0,0,0,.319.025h.076c-.287.021-.579.048-.837.071l-.029,0h-.01l-.019,0h0C628.4,20.321,627.844,20.371,627.355,20.371Zm5.137-.111h0a7.188,7.188,0,0,0-1.349-.111c-.218,0-.454.006-.719.02a9.4,9.4,0,0,0,1.118-.234,3.97,3.97,0,0,1,.8-.156c.112,0,.184.026.218.08.047.075.025.206-.069.4Zm-94.19-.085a2.2,2.2,0,0,1-.28-.258l.033,0h.008l.037,0,.017,0,.031,0,.028.042.009.014.016.024.013.02a.72.72,0,0,1,.09.145h0Zm-192.364-.213c-.445-.2-.685-.406-.712-.624-.02-.162.077-.326.286-.487a2.115,2.115,0,0,0,.426,1.111Zm167.27-.4h0l-.992-.014,1.388-4.265-.4,4.278Zm-436.9-.51h0c-.02,0-.033-.005-.035-.015-.014-.054.266-.249.789-.549a1.366,1.366,0,0,0,.206.1l.007,0c.043.019.084.037.123.058A4.683,4.683,0,0,1,76.313,19.054Zm559.961-4.322h0l-1.448-.759,2.032-.878-.583,1.637Zm-12.926-1.364h0c-.127-.065-.248-.135-.381-.212a4.036,4.036,0,0,0-2.371-.636l2.93-.281c-.353.1-.288.427-.226.739a1.825,1.825,0,0,1,.049.39Zm-21.2-.079h-.078c-.477-.009-.74-.092-.782-.248-.051-.187.222-.474.768-.811a7.072,7.072,0,0,1,2.693-1.011c.165,0,.269.039.307.116.049.1-.008.254-.167.467-.057-.087-.109-.129-.161-.129-.128,0-.231.268-.351.578-.032.084-.06.156-.086.219-.159.392-.366.793-.691.793a.525.525,0,0,1-.241-.065A10.165,10.165,0,0,1,602.149,13.289Zm8.367-.2a9.774,9.774,0,0,1-1.781-.659,9.115,9.115,0,0,1,1.782.659Zm1.12-.615-.171-.034-.01,0-.06-.012c-.287-.055-.612-.118-1.016-.213a5.947,5.947,0,0,1,.929-.1c.239,0,.379.04.416.118C611.752,12.287,611.722,12.369,611.637,12.472Zm-2.906-.045a11.133,11.133,0,0,0-2.328-.342c.969.031,1.561.035,1.968.035h.083a.058.058,0,0,0-.031.051c0,.061.109.149.309.255Zm-.276-.307h0a1.107,1.107,0,0,1,.484-.087.518.518,0,0,1,.245.031.006.006,0,0,1,0,0A2.273,2.273,0,0,1,608.455,12.12Zm-44.429-.456H564a5.683,5.683,0,0,1-2.334-1.07c-.475-.294-.966-.6-1.5-.882a16.81,16.81,0,0,1,4.767,1.373A1.013,1.013,0,0,1,564.026,11.663ZM1.472,6.448c-.116-.1-.227-.2-.33-.3a2.166,2.166,0,0,1,.331.3Zm463.764-.533a6.382,6.382,0,0,0-2.564-.526,8.206,8.206,0,0,0-1.292.108l-.534-1.847a.79.79,0,0,1,.123-.582.3.3,0,0,1,.226-.089c.5,0,1.454.8,2.558,1.727C464.238,5.115,464.739,5.535,465.236,5.916Z" transform="translate(0 395.951)" fill="#fff" stroke="rgba(0,0,0,0)" stroke-width="1"/>
      </g>
    </g>
    <g id="Group_836" data-name="Group 836">
      <g id="Group_664" data-name="Group 664" transform="translate(551.98 1496.459)">
        <g id="Group_9" data-name="Group 9" transform="translate(0 0)" clip-path="url(#clip-path)">
          <path id="Path_4943" data-name="Path 4943" d="M77.919,28.668c-.622-4.906-3.956-9.123-9.1-9.556-5.3-.448-10.213,2.838-13.908,6.29a61.208,61.208,0,0,0-8.6,10.46A76.3,76.3,0,0,0,45.8,22.439c-.74-5.761-1.806-12.068-4.538-17.263C40.175,3.113,38.482.668,36.066.1c-2.625-.613-5.187,1.583-6.762,3.43-3.578,4.193-5.846,9.781-7.907,14.835a96.881,96.881,0,0,0-4.356,13.477,27.287,27.287,0,0,0-2.977-6.721c-1.628-2.571-6.664-8.573-9.8-4.462A10.515,10.515,0,0,0,2.953,23.9q-.633,2-1.128,4.044A66.194,66.194,0,0,0,.431,35.817a64.233,64.233,0,0,0,.158,16.09,62.952,62.952,0,0,0,1.519,7.72c.543,2.049,1.312,4.146,3.482,4.919,2.391.851,5.463.383,7.957.377q4.422-.01,8.843-.076,17.542-.257,35.06-1.366c2-.128,3.792-.4,5.14-1.658a1.5,1.5,0,0,0,1.827-.505A91.725,91.725,0,0,0,73.51,45.634c2.338-5.165,5.147-11.151,4.41-16.966M4.563,57.588A61.625,61.625,0,0,1,4.17,30.725a112.063,112.063,0,0,0,.921,28.956c-.211-.691-.363-1.41-.528-2.094m50.468-21c1.029-1.51,2.079-3,3.175-4.466.364-.486,2.071-2.974,3.541-4.663-1.87,4.21-3.672,8.45-5.344,12.742.122-.614.24-1.232.371-1.84a1.491,1.491,0,0,0-1.744-1.773m-.606-6.574a32.113,32.113,0,0,1,6.457-5.695,26.131,26.131,0,0,0-2.428,2.828c-1.329,1.653-2.6,3.349-3.848,5.066a1.568,1.568,0,0,0-.665-1.623c.166-.189.315-.391.484-.576m-2.3,16.3c-.051.237-.1.476-.154.713-.625,2.905-1.131,5.481-3.94,7-.071.039-.151.065-.222.1-.1-.011-.2-.018-.294-.034l4.61-7.783M47.991,57.2a.693.693,0,0,1-.362.263.255.255,0,0,1-.169-.04q.269-.108.531-.223M45.662,42.051c-.116.34-.224.683-.329,1.027a1.585,1.585,0,0,0-.968.228c-.035-.209-.071-.418-.106-.627a1.555,1.555,0,0,0,1.4-.628M36.825,3.832a12.031,12.031,0,0,1,2.168,3.226c2.291,4.648,3.261,10.284,3.926,15.38a75.346,75.346,0,0,1,.431,14.892l-.144-.845a1.388,1.388,0,0,0,.061-.6q-.138-1.355-.281-2.713-.788-7.616-1.577-15.232a1.564,1.564,0,0,0-1.142-1.369A52.158,52.158,0,0,0,36.615,6.566c-.064-1.064-.163-2.124-.321-3.173a3.84,3.84,0,0,1,.53.44M29.047,9.022a20.49,20.49,0,0,1,2.791-4.011,55.913,55.913,0,0,0-2.092,7.39c-.357,1.6-.7,3.205-1.043,4.81-.267.495-.518,1-.741,1.513-.024-.684-.035-1.367-.071-2.05a1.512,1.512,0,0,0-2.083-1.3c1-2.159,2.068-4.286,3.238-6.357m-2.3,32.747c.242-1.317.484-2.633.732-3.948,0,.572-.02,1.146-.051,1.721a33.259,33.259,0,0,1-2.112,10.444q.845-4.089,1.431-8.217M26.7,53.923a15.435,15.435,0,0,1-1.4,3.247c-.051.085-.118.16-.17.243l-.7.011a20.007,20.007,0,0,0,2.273-3.5m-1.94-27.681q.194-.9.411-1.8A128.55,128.55,0,0,1,23.9,41.424c-.6,3.243-1.193,6.486-1.753,9.736a1.549,1.549,0,0,0,1.776,1.781,19.508,19.508,0,0,1-1.26,2,56.45,56.45,0,0,1-1.447-5.48,63.251,63.251,0,0,0,.3-6.834c.444-2.352.886-4.7,1.349-7.051.613-3.116,1.227-6.232,1.894-9.337m-2.474-2.067c-.082.35-.172.7-.249,1.05-.616,2.84-1.182,5.692-1.742,8.544-.059-.207-.112-.415-.174-.621a1.552,1.552,0,0,0-.293-.539c.7-2.844,1.509-5.662,2.459-8.433m-3.88,32.688a5.652,5.652,0,0,0,.621-.452,1.529,1.529,0,0,0,.871-.306c.139.419.282.833.435,1.244l-.066,0c-.785-.05-1.582.051-2.022-.4.053-.029.108-.055.161-.086M17.5,48.11c.012.043.025.089.037.134-.094.493-.179.986-.253,1.481q-.419-2.9-1.081-5.755c.483,1.364.926,2.742,1.3,4.14M6.948,51.842c-.323-3.42-.469-6.853-.465-10.288a82.069,82.069,0,0,1,.465,10.288m.3-26.825a1.6,1.6,0,0,0-1.491-.412c.046-.146.086-.291.134-.436.136-.42.279-1.4.612-1.7,1.369-1.22,4.254,2.865,4.836,3.742a22.917,22.917,0,0,1,2.323,4.616c-1.263-2.5-2.83-4.729-5.557-5.836a1.186,1.186,0,0,0-.856.028m5.285,10.158a2.443,2.443,0,0,0-.5-.2q-.075-.612-.152-1.222c.052.115.1.235.157.346.165.358.327.716.492,1.074m2.726,26.862c-2.481.012-5,.115-7.477-.012a1.4,1.4,0,0,0,.374-.538c.286-.81.516-1.622.718-2.437a1.35,1.35,0,0,0,2.179-1.133q-.57-7.622-1.141-15.245-.148-1.993-.3-3.986.26,1.929.557,3.851c.743,4.742,1.688,9.448,2.8,14.118a3.014,3.014,0,0,0-.3.335,1.49,1.49,0,0,0-.225,1.745c2.041,2.981,5.778,3.176,8.687,1.569l.51,0c.762,1.285,2.121,2.046,3.574,1.22a5.33,5.33,0,0,0,1.257-1.038,1.3,1.3,0,0,0,.995,1.019c.46.126.923.226,1.387.327q-6.8.162-13.592.2m13.194-4.7c.043-.094.089-.189.129-.28.141-.319.267-.647.4-.973a3.843,3.843,0,0,0,.393,1.226l-.918.027m8.168-.474A11.065,11.065,0,0,1,32.91,56.6a4,4,0,0,0-.66-1.866q-.185-5.541.061-11.081A62.468,62.468,0,0,0,33.87,28.106c-.063-1.533-2.566-2.063-2.828-.383-.306,1.968-.561,3.942-.788,5.918-.183-2.316-.5-4.672-.584-7l0-.023c.569-2.8,1.172-5.586,1.769-8.376.508-.922,1.064-1.826,1.572-2.781a15.373,15.373,0,0,0,.786-1.7q.392,18.918,0,37.84a1.346,1.346,0,0,0,1.831,1.315c.22,1.1.47,2.2.786,3.291a1.393,1.393,0,0,0,.2.416l-.006.2c0,.015,0,.027,0,.042m3.494-20.491c.009-.274.017-.547.025-.822q.085.5.169,1a1.36,1.36,0,0,0-.194-.177M40.755,47a55,55,0,0,0,.137-7.034l0,.022q.628,3.694,1.255,7.387a8.256,8.256,0,0,0-.42,5.223,5.692,5.692,0,0,0,.517,1.191q-.3.363-.624.69A73.57,73.57,0,0,1,40.755,47M57.63,60.711c-1.578.152-3.249.079-4.736.164q-3.846.22-7.693.4c-1.088.05-2.175.089-3.263.134.1-.028.194-.047.291-.076a1.4,1.4,0,0,0,1.013-1.3,1.3,1.3,0,0,0,1.171-.7l.379-.638a2.8,2.8,0,0,0,2.155,1.751c1.479.247,2.541-.634,3.375-1.73.033,1.158,1.537,2.1,2.427,1.05l3.1-3.678-.1.539a1.53,1.53,0,0,0,2.1,1.671c-.134.279-.264.56-.4.839a1.436,1.436,0,0,0,.177,1.576m1.407-12.85-3.591,4.256c1.394-3.4,3.076-6.677,4.773-9.943a1.392,1.392,0,0,0-.168-1.608q.13-.323.258-.647c1.117-2.8,2.213-5.611,3.351-8.4.892-2.188,1.942-4.467,4.1-5.651,1.625-.892.173-3.38-1.454-2.486-.22.122-.429.257-.634.395a1.467,1.467,0,0,0-.393-.358,2.907,2.907,0,0,0-1.756-.459,13.827,13.827,0,0,1,2.672-.832,7.077,7.077,0,0,1,7.539,3.08,2.282,2.282,0,0,0-.2-.165c-2.609-1.808-5.058,2.766-6.139,4.476a55.2,55.2,0,0,0-4.228,8.456c-1.3,3.144-2.418,6.362-3.6,9.553a1.128,1.128,0,0,0-.528.336m7.82.353q-1.736,3.3-3.472,6.592-.869,1.648-1.736,3.3A4.679,4.679,0,0,1,60.189,60.1c2.682-5.266,5.4-10.559,8.592-15.537q-.963,1.826-1.924,3.654m-1.706-5.472q-1.934,4.235-3.916,8.447c1.186-3.035,2.262-6.115,3.414-9.164a74.656,74.656,0,0,1,3.284-7.62c.634-1.241,1.32-2.457,2.073-3.631.18-.282.377-.552.564-.828-1.268,4.434-3.541,8.683-5.419,12.8m9.728-9.105a1.338,1.338,0,0,0-1.681.219c-.662.753-1.29,1.528-1.914,2.308a38.231,38.231,0,0,0,2.962-9.881.779.779,0,0,0-.014-.18,9.254,9.254,0,0,1,.859,2.98,15.419,15.419,0,0,1-.212,4.554" transform="translate(0 0)" fill="#fff"/>
        </g>
      </g>
      <g id="Group_660" data-name="Group 660" transform="translate(574.794 1225.465)">
        <g id="Group_13" data-name="Group 13" transform="translate(0 0)" clip-path="url(#clip-path-2)">
          <path id="Path_4947" data-name="Path 4947" d="M17.248,11.287A1.379,1.379,0,0,0,16.922,8.8a6.768,6.768,0,0,1-5.477-7.323,1.134,1.134,0,0,0-1.2-1.3A1.184,1.184,0,0,0,8.422.984,12.079,12.079,0,0,1,.97,10.292a1.376,1.376,0,0,0,0,2.629c5,1.364,7.4,6.262,8.162,11.02a1.35,1.35,0,0,0,1.5.976,1.386,1.386,0,0,0,1.182-1.339c.533-4.433,1.25-9.757,5.439-12.292" transform="translate(0 0)" fill="#fff"/>
          <path id="Path_4948" data-name="Path 4948" d="M58.747,41.02A9.415,9.415,0,0,1,53,31.179c.118-1.006-.744-1.421-1.532-1.263a1.254,1.254,0,0,0-1.884.811A17.436,17.436,0,0,1,42.147,41.4a1.38,1.38,0,0,0,.325,2.491c5.284,1.226,7.106,6.791,6.8,11.653a1.37,1.37,0,0,0,2.678.363c.978-4.736,2.225-10.273,7.125-12.4,1.2-.519.633-2.124-.325-2.491" transform="translate(-5.487 -3.932)" fill="#fff"/>
        </g>
      </g>
      <path id="Subtraction_21" data-name="Subtraction 21" d="M39.05,70.633a1.743,1.743,0,0,1-1.161-.45,3.864,3.864,0,0,1-.922-1.905l-.011-.041-.027-.1a24.258,24.258,0,0,1-.758-4.979c-.01-.146-.025-.308-.04-.479v-.008a7.52,7.52,0,0,1,0-2.036,1.488,1.488,0,0,1,1.186-1.326l.019,0,.016,0a.9.9,0,0,1,.343-.146.856.856,0,0,1,.171-.017.941.941,0,0,1,.932.745c.27,1.955.6,3.9.987,5.769.171.826.356,1.664.551,2.488.175.738.373,1.575-.324,2.152A1.483,1.483,0,0,1,39.05,70.633ZM19.171,67.728a1.609,1.609,0,0,1-1.41-.994A7.746,7.746,0,0,1,17.316,63c.01-.254.02-.516.024-.758.021-1.4.111-2.91.295-4.881.083-.887.18-1.813.266-2.63v0c.254-2.43.517-4.942.556-7.427a28.523,28.523,0,0,0-.324-5.031c-.017-.108-.032-.239-.05-.39v-.007c-.077-.673-.183-1.6-.645-1.873a3.783,3.783,0,0,0-1.553-.28c-.255-.013-.5-.026-.686-.055A49.9,49.9,0,0,1,5.34,37.112c-.245-.091-.494-.18-.758-.274l-.011,0A12.719,12.719,0,0,1,1.1,35.2,2.6,2.6,0,0,1,0,33.276v-.018a1.589,1.589,0,0,1,.541-1.18,4.816,4.816,0,0,1,1.75-.875c.184-.063.358-.123.527-.188.83-.32,1.685-.634,2.54-.934,1.7-.6,3.4-1.14,5.051-1.613a88.952,88.952,0,0,1,9.916-2.214,79.543,79.543,0,0,1,.526-13.274c.282-2.238.675-4.541,1.167-6.847.257-1.2.538-2.385.835-3.512A4.252,4.252,0,0,1,24.115.236,1.049,1.049,0,0,1,24.764,0h.006a.83.83,0,0,1,.485.152A14.571,14.571,0,0,1,28.7,3.982c.751,1.122,1.5,2.275,2.218,3.39l.011.018c.333.515.678,1.048,1.02,1.575l4.716,7.243,1.6,2.456a84.316,84.316,0,0,1,11.5-3.579v1.92c-.409.1-.831.2-1.253.306a80.9,80.9,0,0,0-10.2,3.321,1.151,1.151,0,0,1-.427.088.978.978,0,0,1-.831-.5l-.351-.538c.311.639.608,1.293.883,1.944l5.753-2.64a1.073,1.073,0,0,1,.447-.105.857.857,0,0,1,.817.635,1,1,0,0,1-.416,1.138l0,0-.019.013-.221.15c1.008-.549,1.919-1.041,2.851-1.526,1.077-.56,2.048-1.038,2.967-1.46v3.7c-1.162.923-2.149,1.78-3.02,2.621.63-.445,1.2-.837,1.748-1.2a.778.778,0,0,1,.434-.138.742.742,0,0,1,.128.011l.123-.09.587-.43v2.307l-.111.081-1.679,1.229c-1.222,1.148-2.417,2.374-3.553,3.643.824-.735,1.706-1.48,2.622-2.214.53-.425,1.073-.852,1.6-1.265l.021-.016.017-.014c.356-.28.724-.57,1.084-.856v2.377c-.437.343-.9.711-1.358,1.074-1.068.854-2.323,1.881-3.534,3.021-.083.079-.176.159-.266.237a3.693,3.693,0,0,0-.658.674c-.251.376-.129.655.027,1.008.019.042.038.085.057.13.368.865.783,1.7,1.141,2.408.842,1.66,1.777,3.3,2.681,4.892l0,.007c.634,1.114,1.289,2.266,1.907,3.414V48.63c-.34-.745-.73-1.54-1.193-2.429.395,1.063.785,2.152,1.193,3.329v8.3a10.944,10.944,0,0,1-2.083-1.149A91.844,91.844,0,0,1,32.488,44.038a79.756,79.756,0,0,1-8.482,19.309C23.262,64.566,20.941,67.728,19.171,67.728ZM18.9,38.786h0a2.165,2.165,0,0,1,.486.682,12.321,12.321,0,0,1,.763,3.773l.023.24a35.744,35.744,0,0,1,.143,4.423c-.062,2.314-.307,4.655-.543,6.919v.008c-.069.655-.139,1.332-.2,2-.123,1.25-.271,2.9-.332,4.558-.029.806-.037,1.549-.024,2.274,0,.058,0,.174-.009.307-.023.548-.065,1.566.145,1.706a.145.145,0,0,0,.082.022c.349,0,1.22-.9,1.527-1.244a12.531,12.531,0,0,0,1.175-1.622c.714-1.125,1.443-2.381,2.3-3.955a78.72,78.72,0,0,0,6.731-16.951.8.8,0,0,1,.226-.372c-.17-.208-.335-.43-.489-.659a93.152,93.152,0,0,1-5.557,15.529.935.935,0,0,1-.856.607.947.947,0,0,1-.64-.256c-.85,2.077-1.668,3.968-2.5,5.78a1.016,1.016,0,0,1-.935.6.908.908,0,0,1-.665-.272.89.89,0,0,1-.219-.688c.261-3.861.692-8.016,1.357-13.074a54.017,54.017,0,0,1,.1-8.052l-.058,0a.978.978,0,0,1-1-.966c-.009-.375-.031-.755-.053-1.122-.006-.1-.012-.206-.018-.308a.831.831,0,0,1-.535.179,1.067,1.067,0,0,1-.3-.045l-.074-.011h0l-.037-.006Zm4.74,4h0c-.149,1.031-.3,2.059-.435,3.054-.139,1.576-.239,3.174-.337,4.809a.843.843,0,0,1-.389.657c-.245,1.968-.444,3.715-.608,5.341.786-1.9,1.538-3.83,2.234-5.729-.031,0-.054,0-.076,0a.936.936,0,0,1-.93-.95,29.883,29.883,0,0,1,.608-7.132.438.438,0,0,1-.042-.033l-.024-.019Zm11.609-.011h0c.123.12.247.243.367.362l.009.008.007.007c.216.214.439.435.662.648,1.619,1.546,3.264,3.029,4.889,4.41,2.5,2.12,5.145,4.18,7.871,6.123-.273-.59-.581-1.2-.942-1.857a.882.882,0,0,1-.215.028.686.686,0,0,1-.273-.056A18.875,18.875,0,0,1,40.4,46.528C38.7,45.226,36.972,43.964,35.247,42.778Zm.133-8.8h0c.29.742.6,1.475.914,2.178a44.062,44.062,0,0,0,5.08,8.595c.08.105.163.21.243.311l.007.009.117.148c1.253.971,2.5,1.98,3.718,3-.511-.751-1.04-1.508-1.551-2.24l0,0c-.864-1.237-1.758-2.516-2.584-3.8a.771.771,0,0,1-.228.036.747.747,0,0,1-.618-.356c-.022-.031-.043-.064-.065-.1s-.046-.071-.069-.1l0,0v0l-.006-.015A53.251,53.251,0,0,1,36.5,35.1C36.165,34.758,35.81,34.4,35.38,33.974Zm-7.2,1.147c-.8,3.213-1.561,6.652-2.463,11.149.018-.054.036-.109.055-.163l.008-.024.008-.023c.029-.085.059-.174.087-.26.739-2.876,1.565-5.8,2.523-8.938-.069-.666-.139-1.219-.218-1.74Zm15.478,6.673h0a1.093,1.093,0,0,1-.3.179c.319.482.664.991,1.026,1.513l-.429-1-.012-.028-.288-.669ZM31.766,36.8c-.074.419-.157.856-.246,1.3.649.4,1.3.818,1.995,1.268-.531-.771-1.07-1.563-1.748-2.57Zm-8.618,1.544a1.157,1.157,0,0,1,.414.077c.134-2.033.277-4.036.424-5.954-.158.915-.284,1.674-.4,2.39,0,.126,0,.255,0,.381V35.3c0,.14,0,.284,0,.426a.827.827,0,0,1-.214.577c-.093.65-.184,1.34-.269,2.049h.042ZM2.029,33.535h0c.113.239.554.423.846.545.059.025.108.045.148.063a47.442,47.442,0,0,0,8.629,2.934c.739.176,1.507.338,2.281.48a23.229,23.229,0,0,1-2.732-1.2l-1.234-.4-.409-.133c-1.564-.508-3.336-1.084-5.039-1.635A.844.844,0,0,1,3.9,33.33a1,1,0,0,1,.731-.946c.225-.061.454-.114.676-.166l.011,0,.319-.075a1.027,1.027,0,0,1,.074-.209c-.077.028-.157.054-.233.08l-.007,0c-.094.031-.19.064-.285.1-.84.305-1.69.63-2.528.964-.023.009-.079.028-.138.048a2.052,2.052,0,0,0-.609.261c0,.014.024.051.041.072a.389.389,0,0,0,.075.078Zm37.765.447h0a.923.923,0,0,1-.395.1,22.3,22.3,0,0,0,.861,2.332l.181.2.009.01c.086.095.175.193.262.291-.179-.573-.361-1.151-.546-1.743L40.05,34.8l-.256-.818Zm-7.542-.489h0c-.014.12-.03.242-.044.35-.01.076-.02.151-.029.227.447.676.92,1.383,1.406,2.1-.023-.053-.045-.108-.067-.161L33.512,36c-.03-.074-.057-.14-.086-.207-.214-.479-.477-.972-.731-1.449l0-.009c-.146-.274-.3-.557-.439-.838Zm10.186,2.077a.814.814,0,0,1,.341.073,8.6,8.6,0,0,1-.86-2.358,1.979,1.979,0,0,1,.029-.763c-.068.088-.139.175-.208.26l0,0c-.087.108-.178.219-.263.331l.379,1.207.03.1q.184.585.367,1.169A.958.958,0,0,1,42.438,35.571Zm-28.589-.6-.027.037-.024.033-.007.01.319.153,0-.012,0-.012-.269-.208Zm3.238-1.932h0l-.121.29-.534,1.282.418.323.028.022.041-.256c.032-.2.063-.395.094-.592.032-.352.057-.711.075-1.069Zm12.785.91h0c.015.086.029.173.043.258l.006.04.013.078a1.046,1.046,0,0,1,.231.067l-.135-.205-.074-.111Zm-17.846-.893c-.755.088-1.423.148-2.044.183L11.8,34.1l.04.019.134.064.286-.482a1.183,1.183,0,0,1-.238-.65Zm18.648-6.629h0c-.382,1.16-.758,2.374-1.118,3.607l.341.538c.218.345.444.7.67,1.051a43.257,43.257,0,0,0,.106-5.2Zm-14.845,2.6c-1.807.4-3.562.849-5.217,1.326-.986.285-2.029.61-3.189.994a29.406,29.406,0,0,0,7.328-1.239.785.785,0,0,1,.23-.034.857.857,0,0,1,.091,0l.452-.628.3-.424Zm19.556-1.947c-.049.019-.1.037-.147.054s-.1.035-.146.054c.53,1.413,1.041,2.687,1.564,3.893l.074.079.01.01c.037.039.083.087.125.135l.053-.1,0-.008c.044-.08.088-.163.141-.243a.847.847,0,0,1,.172-.184l-.9-1.8-.279-.556-.672-1.342Zm8.556-2.718c-1.489,1.012-2.918,2.053-4.248,3.094l.083.256,0,.013c.03.092.059.183.088.275q.1.317.2.634l.021.068q.1.309.194.618l.2-.182.012-.011c.1-.09.2-.183.3-.272a21.07,21.07,0,0,1,3.145-4.494ZM32.472,25.4h0c.079,1.244.107,2.4.086,3.529a1.121,1.121,0,0,1,.424.231l.068.062,0,0,0,0,.052.048a1.255,1.255,0,0,1,.6-.145c.046,0,.094,0,.141.006-.2-.516-.4-1.05-.576-1.509a.967.967,0,0,1-.432-1.155c-.085-.235-.168-.475-.248-.707ZM20.645,28.1h0c-.294.049-.628.1-.952.162.006.019.012.037.019.055a.469.469,0,0,1,.033.124c.011.113.02.231.028.326s.014.175.022.262c.294-.159.563-.306.82-.451l.01-.163q.009-.158.019-.315Zm6.5-19.723h0c.3,2.3.5,4.652.569,6.978.871,2.567.744,5.34.621,8.023l0,.047c-.068,1.489-.172,3-.308,4.5l.021.01a.839.839,0,0,1,.158.089c.7-2.291,1.391-4.322,2.111-6.208a.956.956,0,0,1,.764-.588c-.615-1.936-1.214-3.905-1.792-5.81l-.243-.8-.071-.227v0c-.028-.088-.055-.176-.082-.265l-.568-1.133L27.78,11.9a.846.846,0,0,1,.112-1c-.05-.16-.1-.323-.149-.481-.057-.185-.128-.416-.2-.634-.049-.154-.1-.346-.16-.567V9.21C27.316,8.955,27.239,8.666,27.147,8.373ZM39.495,25.255l-.156.076-.028.014-.017.008-.256.124.014.04v0l.019.056c.1-.081.211-.162.314-.24Zm-5.3-.549h0l.086.243.065.183.035-.024.012-.008-.14-.281-.02-.039Zm-8.812-15.4h0c-.258,3.873-.4,7.856-.413,11.84.227-2.32.441-4.381.652-6.3a.9.9,0,0,1,.192-.45C25.737,12.747,25.592,11.035,25.383,9.308Zm3.354-1.864h0c.373.966.677,1.983.971,2.967l.006.02c.1.351.213.714.323,1.066.057.185.115.373.17.555l0,.013,0,.015.122.4,1.835,2.948.868,1.394a1.433,1.433,0,0,1,.254-.44,1.053,1.053,0,0,1,.79-.4.867.867,0,0,1,.235.032l-3.34-5.13-.293-.45L29.631,8.817,28.9,7.7Zm-5.1.043c-.012.057-.025.115-.038.172v0c-.014.06-.028.123-.041.185-.4,2.046-.727,4.16-.966,6.286-.012.109-.021.219-.03.326v.007c-.008.1-.016.192-.025.283a1.042,1.042,0,0,1,.7-.263c.09-2.333.224-4.687.4-7Zm2.152-2.98h.028a3.093,3.093,0,0,1,1.378.579,19.7,19.7,0,0,0-1.319-1.8c-.025.247-.047.5-.068.742v0l-.006.064c-.012.136-.024.272-.037.408h.024ZM8.381,55.145A1.315,1.315,0,0,1,7.2,54.4a1.8,1.8,0,0,1,.285-1.851A16.819,16.819,0,0,1,8.572,51.2a16.115,16.115,0,0,1,2.155-2.015,1.463,1.463,0,0,1,1.217-.77,1.032,1.032,0,0,1,.578.174,1.342,1.342,0,0,1,.453,1.38,2.363,2.363,0,0,1-.457.951c-.719.961-1.478,1.867-2.126,2.627-.213.251-.433.505-.67.777-.036.042-.073.085-.109.127l0,0a2.467,2.467,0,0,1-.4.411A1.393,1.393,0,0,1,8.381,55.145ZM13.02,19.571a.656.656,0,0,1-.29-.066,11.455,11.455,0,0,1-3.858-2.971,11.354,11.354,0,0,1-1.359-2.043,2.265,2.265,0,0,1-.326-1.226,1.252,1.252,0,0,1,.975-1.147.764.764,0,0,1,.187-.023.933.933,0,0,1,.7.314A37.638,37.638,0,0,0,11.7,15.3c.182.178.38.353.59.539a4.3,4.3,0,0,1,1.753,2.492,1.034,1.034,0,0,1-.283.849A1,1,0,0,1,13.02,19.571ZM41.533,8.855a1.287,1.287,0,0,1-.44-.074,1.1,1.1,0,0,1-.608-.523.374.374,0,0,1-.02-.052c0-.012-.008-.023-.012-.034a.963.963,0,0,1-.121-.807,19.993,19.993,0,0,1,1.492-3.651,8.369,8.369,0,0,1,1.063-1.475,3.078,3.078,0,0,1,1.546-1.116,1.079,1.079,0,0,1,.2-.019,1.166,1.166,0,0,1,1.115.92,3.186,3.186,0,0,1,.007.888v.016A7.436,7.436,0,0,1,45.4,4.657a7.805,7.805,0,0,1-1.815,2.953,5.757,5.757,0,0,1-1.355,1.073A1.508,1.508,0,0,1,41.533,8.855Z" transform="translate(590.236 829.674)" fill="#fff" stroke="rgba(0,0,0,0)" stroke-width="1"/>
      <path id="Subtraction_20" data-name="Subtraction 20" d="M49.763,119.6h0a23.92,23.92,0,0,1-6.657-5.9,25.573,25.573,0,0,1-6.978.914h0A41.991,41.991,0,0,1,23.4,112.4C10.709,108.327,2.323,99.641.389,88.57a25.673,25.673,0,0,1-.347-5.913,23.816,23.816,0,0,1,1-5.589A21.927,21.927,0,0,1,3.3,72.043a20.337,20.337,0,0,1,3.431-4.219A34.258,34.258,0,0,1,1.783,56.242a32.4,32.4,0,0,1-.4-12.406c1.34-7.842,5.815-14.443,12.939-19.089a27.816,27.816,0,0,1,6.341-3.127,19.488,19.488,0,0,1,6.157-1.05,16.349,16.349,0,0,1,3.5.374,27.916,27.916,0,0,1,1.034-4.606,26.353,26.353,0,0,1,2.937-6.355A21.789,21.789,0,0,1,40.1,3.873,23.8,23.8,0,0,1,49.763,0V3.975a18.253,18.253,0,0,0-13.05,9.491A23.413,23.413,0,0,0,34.506,19.5a18.209,18.209,0,0,0-.4,2.72c0,.021,0,.043,0,.064V22.3a15.6,15.6,0,0,1,3.545,2.487,15.21,15.21,0,0,1,2.552,3.1,12.931,12.931,0,0,1,1.484,3.32,8.855,8.855,0,0,1,.338,3.154A5.441,5.441,0,0,1,37.359,39.5a13.427,13.427,0,0,1-2.295.215,6.549,6.549,0,0,1-5.718-2.658c-2.253-3.208-1.333-8.49-.165-12.356a12.566,12.566,0,0,0-2.384-.225A19.156,19.156,0,0,0,16.451,28.02,24.348,24.348,0,0,0,5.228,44.5a30.332,30.332,0,0,0,4.61,20.948,20.385,20.385,0,0,1,7.316-2.728,14,14,0,0,1,2.354-.208c5.68,0,8.652,3.841,8.653,7.636,0,3.4-2.512,6.834-7.312,6.834A13.372,13.372,0,0,1,16.1,76a15.544,15.544,0,0,1-3.583-1.983,21.962,21.962,0,0,1-3.382-3.095C4.93,75.05,3.1,81.395,4.236,87.9c1.675,9.591,9.094,17.167,20.356,20.784a38.209,38.209,0,0,0,11.532,2.021,22.655,22.655,0,0,0,4.833-.494,16.217,16.217,0,0,1-1.583-5.713,10.85,10.85,0,0,1,.8-5.164,8.39,8.39,0,0,1,6.615-4.949,8.618,8.618,0,0,1,1.337-.107,7.424,7.424,0,0,1,1.638.178v4.15a2.641,2.641,0,0,0-1.565-.431,5.136,5.136,0,0,0-.8.067,4.49,4.49,0,0,0-3.655,2.669c-.932,2.112-.583,5.112.936,8.024a11.317,11.317,0,0,0,5.081-4.59v5.942a16.833,16.833,0,0,1-2.855,1.9,19.655,19.655,0,0,0,2.855,2.689V119.6ZM19.508,66.412a10.086,10.086,0,0,0-1.694.152,16.6,16.6,0,0,0-5.558,1.984,14.577,14.577,0,0,0,5.241,3.81,9.556,9.556,0,0,0,3.353.713c2.511,0,3.406-1.513,3.406-2.928C24.253,68.346,22.768,66.412,19.508,66.412ZM32.847,26.061h0a22.439,22.439,0,0,0-.983,5.343,5.754,5.754,0,0,0,.678,3.408c.3.428.889,1,2.521,1a9.31,9.31,0,0,0,1.617-.157,1.566,1.566,0,0,0,1.444-1.636,7.024,7.024,0,0,0-1.188-3.982,11.463,11.463,0,0,0-4.09-3.973Z" transform="translate(591 442.633)" fill="#fff" stroke="rgba(0,0,0,0)" stroke-width="1"/>
    </g>
    <g id="Group_835" data-name="Group 835">
      <g id="Group_666" data-name="Group 666" transform="translate(0 1510.071)">
        <g id="Group_19" data-name="Group 19" transform="translate(0 0)" clip-path="url(#clip-path-3)">
          <path id="Path_4961" data-name="Path 4961" d="M93.11,23.182c-2.712-1.618-6.086-.748-8.871.182a42.406,42.406,0,0,0-8.873,4.2A50.151,50.151,0,0,0,74.153,15.32,50.834,50.834,0,0,0,72.1,8.532,22.071,22.071,0,0,0,69.042,2.48C66.2-1.059,61.659-.442,58.323,2.031,55,4.492,52.914,8.312,51.248,12c-1.535,3.4-2.8,6.945-4.627,10.2A19.225,19.225,0,0,0,35.84,9.343a13.666,13.666,0,0,0-10.1-.587C22.29,10.04,20.406,13.24,19.376,16.6c-1.287,4.2-2.191,8.543-3.185,12.832-2.544-2.406-5.838-4.248-9.393-3.116C2.8,27.588.767,31.632.242,35.539c-.551,4.1-.414,8.923,3.2,11.612,3.738,2.785,8.85,2.365,13.251,2.455l15.437.314c2.514.052,5.041.027,7.547.251a44.077,44.077,0,0,0,6.981.313,60.782,60.782,0,0,1,7.4.076c2.4.127,4.753.035,7.155-.044,3.233-.106,6.485.606,9.719.776a103.881,103.881,0,0,0,11.011.016,41.011,41.011,0,0,0,4.373-.423,8.286,8.286,0,0,0,2.755-.788,1.035,1.035,0,0,0,.543-.414c3.768-5.38,5.174-12.144,5.979-18.553.359-2.858.315-6.281-2.476-7.947m-.02,9.946c-.273,1.779-.6,3.55-1.044,5.3A30.3,30.3,0,0,1,87.952,48.2c-1.419.719-3.481.739-5.041.857-2.87.217-5.757.232-8.633.165a76.344,76.344,0,0,1-8.121-.543A29.878,29.878,0,0,0,61,48.34c-2.195.087-4.348.155-6.544.04-2.22-.116-4.439-.249-6.663-.157a46.079,46.079,0,0,1-6.537-.108c-4.552-.447-9.147-.389-13.717-.482q-6.957-.141-13.915-.283c-3.7-.078-8.9-.193-10.7-4.145-.937-2.05-.786-4.68-.562-6.868a10.332,10.332,0,0,1,2.576-6.325,5.586,5.586,0,0,1,5.5-1.648,11.913,11.913,0,0,1,5.511,3.985c.49.559,1.67.529,1.875-.317q1.431-5.92,2.861-11.84c.74-3.049,1.556-6.582,4.243-8.534,2.544-1.847,6.1-1.7,8.95-.717a16.381,16.381,0,0,1,7.313,5.2,16.855,16.855,0,0,1,3.738,9.31,1.111,1.111,0,0,0,1.978.444c4.284-6.062,5.51-13.827,10.207-19.613,2.109-2.6,6.481-6,9.657-3.021,1.425,1.337,2.183,3.354,2.9,5.125a46.62,46.62,0,0,1,2.084,6.384,48.426,48.426,0,0,1,1.324,14.767,1.115,1.115,0,0,0,1.8.945c3.2-2.2,17.763-10.8,18.651-2.545a20.555,20.555,0,0,1-.447,5.2" transform="translate(0 0)" fill="#fff"/>
        </g>
      </g>
      <g id="Group_670" data-name="Group 670" transform="translate(0 1162.24)">
        <g id="Group_17" data-name="Group 17" transform="translate(0 0)" clip-path="url(#clip-path-4)">
          <path id="Path_4954" data-name="Path 4954" d="M15.956,7.185a8.26,8.26,0,0,0,.838-2.108,9.531,9.531,0,0,0,.2-1.193,2.442,2.442,0,0,0-.16-1.455,1.531,1.531,0,0,0-1.683-.758,1.1,1.1,0,0,0-1.337.2,13.633,13.633,0,0,0-2.227,4.044,2.524,2.524,0,0,0,.262,2.594,2.139,2.139,0,0,0,2.531.39,3.986,3.986,0,0,0,1.578-1.714" transform="translate(-4.838 -0.654)" fill="#fff"/>
          <path id="Path_4955" data-name="Path 4955" d="M37.64,17.121a1.569,1.569,0,0,0-.732.028L36.9,17.14a1.184,1.184,0,0,0-1.592.417,14.335,14.335,0,0,0-2.359,5.506,4.779,4.779,0,0,0,.271,3.092,1.962,1.962,0,0,0,2.963.417,7.788,7.788,0,0,0,2.784-5.239,5.525,5.525,0,0,0-.159-3.307,1.753,1.753,0,0,0-1.165-.905" transform="translate(-13.985 -7.237)" fill="#fff"/>
          <path id="Path_4956" data-name="Path 4956" d="M71.152.262c-.044.028-.076.065-.117.095a1.216,1.216,0,0,0-.6.289A7.852,7.852,0,0,0,68,5.181a5.5,5.5,0,0,0,.138,2.878,2.136,2.136,0,0,0,2.95,1.084,4.569,4.569,0,0,0,1.864-2,8.408,8.408,0,0,0,.97-2.632,7.141,7.141,0,0,0,.038-2.887A1.933,1.933,0,0,0,71.152.262" transform="translate(-28.922 0)" fill="#fff"/>
          <path id="Path_4957" data-name="Path 4957" d="M103.951,16.545a1.388,1.388,0,0,0-.358.052,1.023,1.023,0,0,0-1.094.289,8.98,8.98,0,0,0-1.679,3.283,6.634,6.634,0,0,0-.262,1.759,1.787,1.787,0,0,0,1.379,1.822c1.668.305,2.577-1.467,3.074-2.764a7.566,7.566,0,0,0,.417-1.793,2.934,2.934,0,0,0-.216-1.836,1.531,1.531,0,0,0-1.261-.811" transform="translate(-42.848 -7.05)" fill="#fff"/>
          <path id="Path_4958" data-name="Path 4958" d="M83.831,51.225a1.118,1.118,0,0,0-1.264.244,12.256,12.256,0,0,0-2.657,5.381,7.717,7.717,0,0,0-.178,3.111,1.918,1.918,0,0,0,2.786,1.32c1.9-.861,2.946-2.964,3.373-4.9.129-.582.212-1.173.29-1.764a4.406,4.406,0,0,0,0-1.718,2.157,2.157,0,0,0-2.347-1.676" transform="translate(-33.932 -21.788)" fill="#fff"/>
          <path id="Path_4959" data-name="Path 4959" d="M50.48,43.944c-.036.034-.064.081-.1.118a1.27,1.27,0,0,0-.2.191,1.064,1.064,0,0,0-.565.291,4.791,4.791,0,0,0-.695.914A10.96,10.96,0,0,0,46.485,50.5c-.2,1.094-.353,2.446.811,3.07a2.646,2.646,0,0,0,3.007-.78A8.143,8.143,0,0,0,51.836,50.2a12.2,12.2,0,0,0,.8-2.8,14.869,14.869,0,0,0,.169-1.554,2.9,2.9,0,0,0-.223-1.687,1.364,1.364,0,0,0-2.1-.215" transform="translate(-19.749 -18.556)" fill="#fff"/>
          <path id="Path_4960" data-name="Path 4960" d="M4.318,48.814a1.159,1.159,0,0,0-1.35.193A10.38,10.38,0,0,0,0,56.395a3.149,3.149,0,0,0,.6,1.877,2.025,2.025,0,0,0,2.215.666c1.41-.452,2.235-2.044,2.74-3.327a16.324,16.324,0,0,0,.856-3.877,3.555,3.555,0,0,0-.065-1.9,1.746,1.746,0,0,0-2.035-1.024" transform="translate(0 -20.743)" fill="#fff"/>
        </g>
      </g>
      <path id="Subtraction_38" data-name="Subtraction 38" d="M7864.506,1842.686a27.517,27.517,0,0,1-7.006-.98v-2.45c.19.056.4.114.627.176l0,0-.076-.059-.006,0-.021-.016c-.03-.023-.07-.053-.108-.085a.708.708,0,0,1-.284-.56l-.111-.041-.016-.006v-11.649a23.376,23.376,0,0,0,1.076-4.561c.025-.157.051-.312.077-.466l0,.006,0,.006c-.037.06-.076.122-.113.178l-.034.056c-.043.069-.092.148-.136.226a18.435,18.435,0,0,0-.861,1.729v-16.826c1.514-1.643,2.974-3.105,4.463-4.471-.314-.164-.649-.342-.988-.542-1.2,1.182-2.365,2.423-3.475,3.688v-10.408a32.809,32.809,0,0,1,4.348-.978.925.925,0,0,1,.145-.012.865.865,0,0,1,.592.234c.584-.039,1.176-.063,1.627-.079.41-.016.816-.044,1.2-.071l.036,0c.549-.039,1.118-.079,1.673-.079a6.552,6.552,0,0,1,2.788.522,24.6,24.6,0,0,1,3.724,2.222l.006,0,.063.043.027.018c.421.286.856.582,1.285.856a17.87,17.87,0,0,1,4.637,3.782,22.939,22.939,0,0,1,1.935,2.915c1.052-.1,1.938-.16,2.786-.193.688-.028,1.387-.042,2.08-.042a54.1,54.1,0,0,1,14.478,1.972l.109.03.009,0c2.109.586,4.5,1.251,5.271,3.559a5.175,5.175,0,0,1,.258,1.579v.127a8.79,8.79,0,0,1-1.591,4.614,20.521,20.521,0,0,1-4.979,4.9,75.671,75.671,0,0,1-6.389,4.312,79.666,79.666,0,0,1-11.441,5.7,29.351,29.351,0,0,1-5.5,6.659,18.181,18.181,0,0,1-4.489,2.885,17.828,17.828,0,0,1-5.141,1.427A20.849,20.849,0,0,1,7864.506,1842.686Zm3.122-2.54-.117.047-.023.009-.065.026c-.1.041-.21.089-.327.131-.175.065-.37.13-.613.2a10.1,10.1,0,0,0,2.139-.218c-.277-.064-.6-.13-.994-.2Zm-8.981-3.082c-.056,0-.113.01-.169.016l-.027,0-.238.023-.069.007a15.547,15.547,0,0,0,1.917.583c-.541-.231-1-.438-1.413-.631Zm12.68-1.728c-.353.318-.728.639-1.145.98-.024.065-.049.129-.073.193l-.011.029q-.042.111-.084.222a.586.586,0,0,1-.063.112l0,.009c-.006.008-.012.016-.018.026l.062-.026.1-.044.012-.005c.366-.161.744-.328,1.107-.509C7871.248,1835.957,7871.285,1835.652,7871.327,1835.336Zm-11.779-.1h0l-.176.026-.3.043a.025.025,0,0,1,0,.012l0,.015a.089.089,0,0,1,0,.015l.09-.01.124-.012.01,0,.08-.008.025,0,.377-.039v-.068l-.1.015-.1.015Zm15.126-1.105h0l-.012,0c-.063.019-.127.037-.19.054l-.012,0-.01,0-.263.075-.094.026c-.028.059-.058.12-.087.178l-.012.025-.05.1,0,.01c-.026.049-.052.1-.08.157.056-.037.113-.073.169-.108l.163-.1.22-.141.31-.2a.676.676,0,0,1-.048-.087Zm.806-2.23h0c-.116.034-.233.067-.351.1l-.02.046-.028.066-.029.069-.02.044-.022.048.06-.018.06-.018.043-.014.064-.02.053-.016.032-.047.036-.052.006-.01c.04-.057.079-.117.117-.177Zm-7.327-12.1h0c-.013.025-.027.049-.041.073l-.022.038-.014.022c-.278.808-.551,1.642-.813,2.478a.7.7,0,0,1,0,.589c-.291.733-.53,1.339-.754,1.915a55.157,55.157,0,0,0-1.32,5.838c-.013.085-.026.172-.038.257l-.006.043c-.008.062-.017.124-.026.187l-.007.049.534-1.51,1.08-3.05q.548-1.551,1.1-3.1l.111-.316a6.727,6.727,0,0,1,.106-2.865l0-.016.018-.1.019-.108c.024-.135.049-.275.07-.413v-.006Zm8.169,2.2h0c-1.054,3.142-1.814,5.775-2.393,8.284l.059-.059.049-.05.06-.062c.625-1.542,1.2-3.081,1.871-4.919l.027-.077.015-.043.029-.082.014-.039.027-.075.02-.055.029-.078.019-.052,0-.067c.011-.177.021-.356.03-.528v-.008l0-.012c.021-.393.04-.747.069-1.1s.051-.686.069-.976Zm6.012,5.062h0c-.084.326-.173.643-.266.943l.006,0c.031-.011.063-.022.095-.036l.01,0,.066-.025.014-.005.075-.028c.111-.228.227-.481.365-.8l-.006,0h-.053a.961.961,0,0,1-.306-.05Zm-3.559-4.877h0c-.3.948-.632,1.931-1.022,3-.042.55-.113,1.374-.256,2.175.292-.918.56-1.916.82-3.052.17-.744.327-1.493.458-2.127Zm9.2-15.3a51.557,51.557,0,0,0-5.236.268,28.8,28.8,0,0,1,3.169,11.247,20.628,20.628,0,0,1-1.4,8.671,78.384,78.384,0,0,0,7.84-3.635c2.942-1.578,7.164-4.121,9.858-7.973l.06-.085c1.021-1.459,2.728-3.9,1.127-5.439-1.275-1.229-3.313-1.621-5.112-1.966l-.008,0-.688-.133A48.342,48.342,0,0,0,7887.973,1806.889Zm-6.8,17.333c-.274.839-.576,1.671-.9,2.47l0-.006,0-.006,0,0c.251-.368.476-.71.667-1.016.09-.478.164-.962.218-1.439Zm-5.34-10.245h0l-.732,2.31,0,.01c-.94,2.968-1.785,5.639-2.6,8.278-.064.207-.135.438-.208.688l0,.015c-.017.055-.033.109-.05.164q-.037.119-.072.238c.374-.8.81-1.739,1.224-2.685.114-.258.225-.522.332-.777l.019-.046.013-.03.047-.113c.328-.891.622-1.654.927-2.4.3-.854.529-1.575.72-2.27a24.068,24.068,0,0,0,.572-2.667c-.042-.193-.1-.393-.143-.569l0-.014-.018-.063-.018-.068Zm-12.94,6.213h0c-.149.362-.306.761-.538,1.377-.005.034-.011.068-.017.1l-.005.032,0,.014-.013.08c-.018.1-.033.192-.05.3-.012.083-.023.169-.034.248,0,.033-.009.066-.014.1s-.009.066-.014.1c.117-.405.236-.813.348-1.2l.136-.465.2-.693Zm7.763-4.649c-.006.026-.012.053-.018.081l0,.01a.6.6,0,0,0-.016.071c-.269,1.244-.511,2.512-.72,3.768-.012.069-.022.139-.032.206l0,.022-.027.18,0,.014c.237-.687.44-1.39.573-1.859C7870.509,1817.194,7870.592,1816.355,7870.66,1815.541Zm10.047-8.643h0c.3.6.59,1.208.852,1.806a29.463,29.463,0,0,1,2.371,9.419.721.721,0,0,1,.288.181,21.836,21.836,0,0,0-.3-2.572A30.015,30.015,0,0,0,7880.707,1806.9Zm-.372,5.584h0a14.709,14.709,0,0,1-.024,1.751.5.5,0,0,1-.02.075c0,.007,0,.011,0,.016a.2.2,0,0,0-.007.028c-.014.393-.039.809-.076,1.238-.018.191-.042.378-.068.586l-.015.113c-.008.059-.016.119-.024.181,0-.01.005-.021.008-.031s0-.021.008-.031l.009-.035.009-.034a5.235,5.235,0,0,1,.6-1.4l-.03-.192-.008-.055-.005-.035C7880.574,1813.946,7880.463,1813.215,7880.335,1812.482Zm-11.41-3.2h0c-.395.816-.731,1.629-1.131,2.607-.406,1-.809,2.045-1.268,3.3a43.892,43.892,0,0,1,2.905-5.187l-.119-.169-.035-.05-.086-.124-.022-.03-.043-.063-.068-.1-.025-.035c-.035-.05-.071-.1-.107-.15Zm-2.941.305h0c-.627.845-1.242,1.729-1.879,2.7a.77.77,0,0,1,.085.6c-.051.19-.1.382-.133.528l0,.01-.008.028c-.027.116-.057.229-.082.325.292-.6.509-1.042.75-1.524.227-.456.457-.915.685-1.37l.156-.312.2-.4.01-.018.123-.246.1-.327Zm8.039-3.98h0a1.665,1.665,0,0,0-.859.994,13.647,13.647,0,0,1,.817,1.125,10,10,0,0,1,1.3,2.833,1.528,1.528,0,0,1,.617.226l-.172-1.014c-.114-.681-.232-1.384-.35-2.092l-.083-.494c-.145-.312-.3-.651-.55-1.169-.219-.133-.453-.268-.716-.411Zm-12.884.405c-.883.877-1.714,1.736-2.468,2.554a1.067,1.067,0,0,1-.009.294,6.315,6.315,0,0,1-.52,1.587l.066-.073,0-.006c.254-.288.526-.594.8-.887C7859.662,1808.394,7860.319,1807.324,7861.139,1806.011Zm11.533,2.786h0c0,.26-.014.519-.024.783l-.007.187v.02c0,.071,0,.142-.008.212l0,.1v.006c0,.069-.006.138-.008.207l.074-.256.04-.137.071-.252a.9.9,0,0,1,.175-.331c-.1-.184-.2-.365-.308-.536Zm-9.4-1.234c-.04.036-.078.071-.115.107l-.034.032-.083.076-.029.027-.125.119,0,0-.536,1.2C7862.6,1808.708,7862.939,1808.149,7863.269,1807.562Zm7.455-1.153-.012.012a.2.2,0,0,0-.032.036,2.387,2.387,0,0,1-.169.21l-.009.011c-.042.048-.08.091-.113.138a9.889,9.889,0,0,0-.578.839c.059.08.116.16.174.24l.068.1.087.12c.1.139.2.283.307.429l.092-.128,0-.007.035-.049.024-.034c.044-.062.1-.14.154-.213a.885.885,0,0,1,.111-.119l.028-.08c.019-.054.037-.1.056-.158l.006-.02,0-.1,0-.048c-.009-.16-.019-.34-.038-.513,0-.045-.022-.144-.046-.268l0-.016-.01-.052c-.015-.079-.031-.161-.044-.236l-.024-.024-.007-.007-.012-.013,0,0-.01-.011-.01-.01Zm.086-2.212h0c.07.056.142.12.22.193l.073.065.014.012.062.054a1.69,1.69,0,0,1,.863.7,3.891,3.891,0,0,1,.333-.417C7871.928,1804.612,7871.416,1804.413,7870.81,1804.2Zm-5.5-1.331h0a14.416,14.416,0,0,1,2.343,2.074l.114-.125.015-.016.01-.01.03-.034c.044-.049.1-.107.146-.159a.741.741,0,0,1,.292-.182A16.905,16.905,0,0,0,7865.309,1802.866Zm-1.046,1.327h0l-.007.011-.009.014c-.064.1-.13.2-.192.306l-.04.062-.111.179a2.291,2.291,0,0,1,.7-.339c-.073-.055-.153-.108-.224-.154l0,0c-.027-.02-.053-.037-.078-.054l-.033-.021Zm7.94-1.194h0c.459.18.908.367,1.335.554l-.125-.252-.1-.2a.921.921,0,0,1-.3.054.668.668,0,0,1-.157-.016c-.124-.026-.247-.054-.371-.082l-.022,0-.03-.006-.128-.028-.024-.005Zm-4.93-6.713c-.125,0-.252.005-.375.01h-.006l-.082,0c.337.129.667.269.98.415.8.369,1.574.8,2.326,1.208l.007,0c.594.326,1.331.731,2.048,1.079.313.151.656.31.95.446a18.225,18.225,0,0,1,3.219,1.766,11.725,11.725,0,0,1,2.308,2.328,10.975,10.975,0,0,0-1.72-1.881,27.9,27.9,0,0,0-3.449-2.369l-.081-.05-.036-.022c-.373-.23-.757-.468-1.127-.705-.189-.121-.382-.25-.553-.365l-.155-.1-.007-.005a7.892,7.892,0,0,0-4.171-1.757C7867.322,1796.285,7867.3,1796.285,7867.272,1796.285Zm-1.891,2.842a21.53,21.53,0,0,1,2.567.153c.249.03.471.06.718.1-.433-.166-.923-.351-1.639-.617-.3-.114-.624-.224-.978-.339a15.644,15.644,0,0,0-3.587-.472c-.107,0-.209,0-.312,0a12.844,12.844,0,0,0-3.8.931c.328-.027.65-.04.957-.04a16.2,16.2,0,0,1,2.619.236c.032-.024.063-.049.095-.074l.046-.037.01-.008.078-.061.059-.046a.873.873,0,0,1,.557-.2.938.938,0,0,1,.844.548C7864.188,1799.15,7864.783,1799.127,7865.382,1799.127Zm19.8-.943a2.775,2.775,0,0,1-2.232-1.447,3.134,3.134,0,0,1-.236-3.022,2.619,2.619,0,0,1,.992-1.081,2.723,2.723,0,0,1,1.7-1.123,2.833,2.833,0,0,1,.514-.05,2.314,2.314,0,0,1,2.08,1.2,3.461,3.461,0,0,1-.078,3.153,3.669,3.669,0,0,1-2.153,2.282A2.075,2.075,0,0,1,7885.179,1798.184Zm-19.311-11.3a3.63,3.63,0,0,1-.563-.046,3.038,3.038,0,0,1-2.475-2.157,4.62,4.62,0,0,1,2.927-4.83,3.351,3.351,0,0,1,1.551-.421,2.682,2.682,0,0,1,.421.034,2.593,2.593,0,0,1,1.574.945,3.305,3.305,0,0,1,.71,1.708,4.554,4.554,0,0,1-1.353,3.528A3.9,3.9,0,0,1,7865.868,1786.886Z" transform="translate(-7858 -1277)" fill="#fff" stroke="rgba(0,0,0,0)" stroke-width="1"/>
      <path id="Subtraction_25" data-name="Subtraction 25" d="M0,169.791H0v-3.924c3.695-6.311,2.948-13.677,2.225-20.8-.183-1.809-.373-3.679-.478-5.469a40.165,40.165,0,0,1,1.8-14.672c.658-2.087,1.447-4.171,2.21-6.185A86.158,86.158,0,0,0,8.623,110.3a83.312,83.312,0,0,0,2.164-15.957c.233-3.566.46-7.193.68-10.7l.006-.1.047-.75q.088-1.412.177-2.825l-.261.173-.027.018-.307.2c-.161.107-.326.22-.484.33a8.2,8.2,0,0,1-2.245,1.225,3.467,3.467,0,0,1-.983.148,2.452,2.452,0,0,1-1.854-.771,3.612,3.612,0,0,1-.723-2.974,7.191,7.191,0,0,1,1.307-2.939,20.218,20.218,0,0,1,2.13-2.463,26.984,26.984,0,0,1,3.611-3.068,15.713,15.713,0,0,1-4.834-2.3,1.13,1.13,0,0,1-.865-.187l-.6-.4-.111-.075c-1.281-.864-2.607-1.757-3.9-2.656C1.017,63.856.494,63.482,0,63.119V60.288c2.021,1.542,4.171,2.983,6.25,4.378l.045.03.49.328a1.028,1.028,0,0,1,.285-.041.979.979,0,0,1,.137.01,1.105,1.105,0,0,1,.541.244A13.1,13.1,0,0,0,12.088,67.5a17.819,17.819,0,0,0,5.334.8c4.553,0,9.508-1.626,14.726-4.834a3.959,3.959,0,0,1-.74-2.921,3.535,3.535,0,0,1,.469-2.321,6.394,6.394,0,0,1,1.341-2.652,7.614,7.614,0,0,1,4.425-2.2,4.827,4.827,0,0,1,.614-.039,4.115,4.115,0,0,1,3.3,1.481,35.348,35.348,0,0,0,4.364-8.977,55.906,55.906,0,0,0,1.507-5.808,3.887,3.887,0,0,1-2.229.391,4.161,4.161,0,0,1-1.244.347,5.463,5.463,0,0,1-.63.036,6.53,6.53,0,0,1-3.794-1.278,5.6,5.6,0,0,1-2.184-4.084,9.176,9.176,0,0,1,.838-4.68A8.292,8.292,0,0,1,41.7,27.059a10.754,10.754,0,0,1,4.989-1.31h.035a1.232,1.232,0,0,1,1.116.6,3.041,3.041,0,0,1,1.093-.238,1.589,1.589,0,0,1,.749.174,13.832,13.832,0,0,0-2.092-7.916A31.968,31.968,0,0,0,41,10.54a38.634,38.634,0,0,0-4.611-3.195,4.712,4.712,0,0,1-.141,1.589c-.019.088-.036.16-.055.226-.042.136-.094.266-.139.376-.03.069-.059.137-.094.2-.022.047-.043.1-.062.141a2.14,2.14,0,0,1-.123.259,2.629,2.629,0,0,1-1.149,1.151,3.5,3.5,0,0,1-2.525,1.77,6.8,6.8,0,0,1-1.462.154,7.223,7.223,0,0,1-4.92-1.838,4.751,4.751,0,0,1-1.554-3.1,4.234,4.234,0,0,1,1.1-3.168,1.39,1.39,0,0,1,.381-.29A5.079,5.079,0,0,1,26,3.939a6.3,6.3,0,0,1,.413-.666,31,31,0,0,0-5.21-.791c-1.956-.124-3.756-.185-5.5-.185-1.78,0-3.517.066-5.163.2A38.689,38.689,0,0,0,.668,4.3c-.221.079-.445.162-.668.246V2.163A32.974,32.974,0,0,1,5.613.756,63.961,63.961,0,0,1,15.587,0c.412,0,.832,0,1.246.011a57.622,57.622,0,0,1,6.859.451l.366.052a30.957,30.957,0,0,1,4.659,1.029A41.9,41.9,0,0,1,38.957,6.2a30.419,30.419,0,0,1,8.258,7.565c2.014,2.74,3.873,5.477,4.475,8.822a24.688,24.688,0,0,1-.032,7.857l-.023.162c-.082.574-.177,1.168-.291,1.817-.591,3.348-1.3,6.756-2.121,10.13a42.251,42.251,0,0,1-4.057,10.792,32.45,32.45,0,0,1-7.539,9.033,39.2,39.2,0,0,1-10.119,6.087,27.121,27.121,0,0,1-9.551,2.109,23.532,23.532,0,0,1,3.44,4.242c1.412,2.363,1.832,4.4,1.248,6.058A3.072,3.072,0,0,1,21.3,82.553a3.974,3.974,0,0,1-2.025.508,5.749,5.749,0,0,1-2.129-.424A8.255,8.255,0,0,1,13.975,80.3c-.088,1.449-.175,2.952-.252,4.278-.286,4.923-.581,10.013-1.035,15a69.351,69.351,0,0,1-1.573,10.167,81.812,81.812,0,0,1-3.059,9.372c-1.931,5.13-4.119,10.945-4.129,17.21a84.325,84.325,0,0,0,.591,8.7,85.462,85.462,0,0,1,.591,8.592,32.522,32.522,0,0,1-.7,6.953,22.127,22.127,0,0,1-2.488,6.506A19.233,19.233,0,0,1,0,169.79ZM13.661,76.185a1.012,1.012,0,0,1,1.026.69,5.768,5.768,0,0,0,3.147,3.56,3.583,3.583,0,0,0,1.425.344A1.213,1.213,0,0,0,20.6,79.453a7.688,7.688,0,0,0-1.774-4.365,34.483,34.483,0,0,0-3.639-4.065,1.548,1.548,0,0,1-.308-.437l-.027.022a.355.355,0,0,1-.048.036,21.221,21.221,0,0,0-7.121,6.575A2.745,2.745,0,0,0,7.1,79.493a.393.393,0,0,0,.389.294,1.968,1.968,0,0,0,.849-.345l.053-.031c1.044-.618,2.069-1.324,3.059-2.007l0,0c.483-.333.982-.677,1.479-1.008A1.324,1.324,0,0,1,13.661,76.185Zm25.1-18.3h0a1.077,1.077,0,0,1-.2.408l-.535.667.006.009v0l.008.011c.357-.345.717-.715,1.1-1.13a1.215,1.215,0,0,1-.3.035Zm1.255-1.286a1.417,1.417,0,0,1-.007.271c.024-.029.048-.059.071-.088l0,0,0,0,.044-.055A.839.839,0,0,1,40.013,56.594ZM27.821,5.5h0l-.029.117c-.026.121-.057.306-.082.495h.046a3.824,3.824,0,0,1,.993-1.934h-.068l-.055,0,0,0-.014.012s-.024.028-.081.088l-.039.048-.02.024c-.08.1-.162.2-.237.3-.048.068-.086.125-.12.18.021-.033.022-.033.023-.034a.825.825,0,0,1-.057.107l-.053.114c-.049.1-.1.211-.141.321-.029.076-.055.149-.079.225l.012-.049,0-.02ZM15.486,55.087c-.215,0-.43-.009-.64-.028-.1-.009-.206-.021-.315-.036a6.573,6.573,0,0,1-3.871-2.045,4.893,4.893,0,0,1-1.114-1.915,5.107,5.107,0,0,1-.179-2.1,6.463,6.463,0,0,1,1.938-3.817,10.339,10.339,0,0,1,7.27-2.649c.161,0,.325,0,.487.009a.918.918,0,0,1,.628.3,4.136,4.136,0,0,1,1.834.593,4.243,4.243,0,0,1,1.44,1.587,5.407,5.407,0,0,1,.613,2.067,10,10,0,0,1-.541,4.353c-.632,1.552-2.286,2.24-3.614,2.792A10.232,10.232,0,0,1,15.486,55.087Zm-2.115-2.86h0a4.74,4.74,0,0,0,.681.324,4.192,4.192,0,0,0,1.46.252,8.548,8.548,0,0,0,3.213-.8c.1-.042.2-.084.308-.128l.006,0A4.328,4.328,0,0,0,20.7,50.9a2.1,2.1,0,0,0,.423-1.033,7.4,7.4,0,0,1-1,.77c-.046.054-.094.106-.141.156a2.715,2.715,0,0,0-.208.24,1.092,1.092,0,0,1-.892.425,1.237,1.237,0,0,1-.288-.034c-.029.011-.057.024-.084.037s-.064.03-.1.042a1.186,1.186,0,0,1-.416.075h-.042l-.188.172,0,0c-.119.11-.242.223-.369.332a.978.978,0,0,1-.647.235,1.247,1.247,0,0,1-.9-.4,3.729,3.729,0,0,1-1.664.442A2.593,2.593,0,0,1,13.371,52.227Zm2.588-5.367h0l-.037.027-.035.025a5.688,5.688,0,0,0-1.1,1.21,4.476,4.476,0,0,0-.485.97,6.932,6.932,0,0,0,1.4-1.726c.081-.142.161-.3.256-.508Zm3.072-1.818c-.123,0-.253.006-.386.017a2.076,2.076,0,0,1,.035.705l.079-.047c.146-.088.3-.179.451-.255a1.034,1.034,0,0,1,.461-.115.984.984,0,0,1,.718.334.865.865,0,0,1,.19-.02c.035,0,.071,0,.111.006a1.591,1.591,0,0,0-.667-.471,2.5,2.5,0,0,0-.5-.121A3.521,3.521,0,0,0,19.031,45.042ZM16.824,34.7a9.56,9.56,0,0,1-1.323-.093,9.942,9.942,0,0,1-2.377-.642c-.883-.361-3.006-1.407-3.644-3.317-.485-1.45.214-3,2.076-4.607.125-.107.264-.217.439-.344a6.171,6.171,0,0,1,3.158-1.529,7.119,7.119,0,0,1,1.225-.1c2.691,0,5.827,1.4,6.614,4.068a4.714,4.714,0,0,1,.1,2.256,4.862,4.862,0,0,1-.959,2.051,6.254,6.254,0,0,1-4.095,2.177A8.859,8.859,0,0,1,16.824,34.7Zm.91-3.027-.021.01-.025.011a5.2,5.2,0,0,1-1.078.34c-.133.092-.284.2-.438.285a.428.428,0,0,1-.059.027l-.044.018a7.3,7.3,0,0,0,.774.042,6.221,6.221,0,0,0,1.5-.177A4.2,4.2,0,0,0,19,32a1.314,1.314,0,0,1-.408.066A1.1,1.1,0,0,1,17.735,31.675Zm3.153-2.52h0a4.26,4.26,0,0,1-.716.887,1.232,1.232,0,0,1,0,.893,1.008,1.008,0,0,1-.484.514,1.092,1.092,0,0,1-.375.4,3.57,3.57,0,0,0,.756-.539,3.053,3.053,0,0,0,.762-1.26,2.355,2.355,0,0,0,.053-.9Zm-5.436-2.328a3.274,3.274,0,0,0-.431.028,1.615,1.615,0,0,1,.353.107c.017-.018.033-.037.048-.056s.044-.054.07-.079Z" transform="translate(0 837.325)" fill="#fff" stroke="rgba(0,0,0,0)" stroke-width="1"/>
    </g>
  </g>
</svg>
