<svg xmlns="http://www.w3.org/2000/svg" xmlns:xlink="http://www.w3.org/1999/xlink" width="181.058" height="241.454" viewBox="0 0 181.058 241.454">
  <defs>
    <clipPath id="clip-path">
      <rect id="Rectangle_249" data-name="Rectangle 249" width="177.103" height="90.569" fill="#91e523"/>
    </clipPath>
    <clipPath id="clip-path-2">
      <rect id="Rectangle_247" data-name="Rectangle 247" width="57.147" height="38.466" fill="#ff55fb"/>
    </clipPath>
    <clipPath id="clip-path-3">
      <rect id="Rectangle_248" data-name="Rectangle 248" width="64.311" height="105.5" fill="#ff55fb"/>
    </clipPath>
  </defs>
  <g id="Group_759" data-name="Group 759" transform="translate(-430.071 -2921.143)">
    <g id="Group_731" data-name="Group 731" transform="translate(430.071 3072.028)">
      <g id="Group_48" data-name="Group 48" transform="translate(0 0)" clip-path="url(#clip-path)">
        <path id="Path_5074" data-name="Path 5074" d="M28.59,80.457a105.32,105.32,0,0,1-13.081-1.374.949.949,0,0,1-.308-1.77c-.506-.816.237-1.762.5-2.55,1.2-2.8,2.5-5.562,3.872-8.285A200.99,200.99,0,0,1,31.833,45.167c4.222-5.451,10.837-20.775,19.185-18.039C62.106,32.866,78.5,65.369,81.693,77.747c.406,3.748-19.952,1.462-23.324,1.925-9.939-.336-19.849.872-29.779.784M32,78.6c7.93-.272,15.848-.951,23.79-.834,7.978-.185,16.076.794,23.995-.273a152.673,152.673,0,0,0-18.11-36.132c-3.339-4.509-6.34-9.948-11.516-12.544-6.27-1.364-11.548,10.147-14.8,14.389-7.172,10.8-13.821,22.183-18.643,34.172A93.7,93.7,0,0,0,32,78.6" transform="translate(-0.158 -0.287)" fill="#91e523" fill-rule="evenodd"/>
        <path id="Path_5075" data-name="Path 5075" d="M80.789,77.56a.951.951,0,0,1,.942-.942c3.823-.031,7.634-.4,11.453-.569,8.926-.456,17.792-1.637,26.69-2.42,8.5-.977,25.729.38,32.5-3.922a.911.911,0,0,1,.051-.089l-.024.036-.029.044c.413-2.534-1.6-4.966-2.367-7.325a160.5,160.5,0,0,1-6.765-16.762c-4.453-11.433-7.889-23.809-16.36-33.046C121.994,7.516,115.9,1.1,108.192,2.49,100.684,7.2,95.9,17.668,90.844,24.882c-5.732,9.59-12.37,18.647-17.943,28.313a.971.971,0,0,1-1.547.982c-1.273-1.691,1.337-4.04,2.029-5.614,7.911-11.8,15.229-23.98,23.064-35.826,3.21-4.314,6.084-9.577,11.082-12.01,10.77-2.067,19.244,8.423,25.082,16.08,6.641,10.248,9.971,22.22,14.331,33.532,1.392,3.733,3,7.378,4.667,10.994,1.017,2.745,3.031,5.474,2.716,8.5-1.837,5.829-24.486,4.866-30.313,5.423-11.033.65-21.906,2.368-32.951,2.79-1.683-.224-10.554,1.53-10.271-.486" transform="translate(-0.762 -0.004)" fill="#91e523" fill-rule="evenodd"/>
        <path id="Path_5076" data-name="Path 5076" d="M47.463,45.965c-2.412-1.679-1.909-5.476-3.277-7.91-2.375,1.435-4.406,4.394-7.3,4.556-2-.7-.517-3.424.036-4.747.38-.749,1.559-.982,1.93-.109.26.968-.857,1.632-.9,2.636,8.265-6.409,7.142-5.833,10.073,3.607,2.721-4.26,3.64-10.451,8.361-3.215.742-1.145.349-4.2,2.166-4.046a.951.951,0,0,1,.658,1.16c-.645,1.715-.942,6.2-3.732,4.63-1.064-.911-1.628-2.288-2.721-3.179-1.809,1.757-2.042,6.919-5.293,6.618" transform="translate(-0.385 -0.387)" fill="#91e523" fill-rule="evenodd"/>
        <path id="Path_5077" data-name="Path 5077" d="M96.4,22.48c-1.875-1.3.81-8.2,1.5-10.148.724-1.522,2.933-.095,1.579,1.046a42.9,42.9,0,0,0-1.781,6.6c7.338-9.3,7.428-11.686,15.1-.688.872-1.954.6-7.313,4.075-4.885,1.975,1.459,3.078,4.505,5.469,5.212,1.063-1.81-.508-4.677,1.34-6.058,2.075-.774,3.156,2.21,4.87,2.54.55-.842-.284-2.574,1.176-2.657,2.2.086.861,8.568-5.08,2.109.221,2.713-.293,7.767-4.17,5.385-1.894-1.461-3.129-3.6-4.919-5.164-2.37,14.285-6.623-2.905-10.667-1.742l.038-.025.054-.028C102.9,15.39,98.9,23.664,96.4,22.48" transform="translate(-1.028 -0.125)" fill="#91e523" fill-rule="evenodd"/>
        <path id="Path_5078" data-name="Path 5078" d="M108.627,75.083c-.7-7.964-1.117-15.945-1.329-23.937-.081-.738-.069-1.811.921-1.822,1.587.219.75,2.449,1.026,3.559.113,3.035.2,6.07.347,9.1.194,4.379.581,8.513.9,12.84a.943.943,0,0,1-1.867.256" transform="translate(-1.151 -0.529)" fill="#91e523" fill-rule="evenodd"/>
        <path id="Path_5079" data-name="Path 5079" d="M101.882,61.257a.95.95,0,0,1-.338-1.289c2.019-3.367,4.249-6.614,6.125-10.065.743-1.961,2.752-.225,1.412,1.372-1.738,3.065-3.695,6-5.52,9.013-.319.63-.894,1.429-1.678.968" transform="translate(-1.089 -0.526)" fill="#91e523" fill-rule="evenodd"/>
        <path id="Path_5080" data-name="Path 5080" d="M104.862,65.012c-1.381-1.378,2.387-3.611,2.6-5.211a.943.943,0,0,1,1.818.5c-.343,1.027-3.208,5.839-4.422,4.711" transform="translate(-1.122 -0.634)" fill="#91e523" fill-rule="evenodd"/>
        <path id="Path_5081" data-name="Path 5081" d="M104.821,71.073c-1.147-1.31,1.223-2.707,1.7-3.927.819-.753.952-2.754,2.312-2.547,1.672.745-.208,2.6-.735,3.574-.936.907-1.652,3.7-3.273,2.9" transform="translate(-1.122 -0.693)" fill="#91e523" fill-rule="evenodd"/>
        <path id="Path_5082" data-name="Path 5082" d="M114.581,58.479c-1.073-.483-6.608-7.344-5.423-8.322a.951.951,0,0,1,1.695.553,48.126,48.126,0,0,0,4.6,6.259.95.95,0,0,1-.875,1.51" transform="translate(-1.17 -0.534)" fill="#91e523" fill-rule="evenodd"/>
        <path id="Path_5083" data-name="Path 5083" d="M113.092,64.983c-.863-1.435-7.473-6.175-4.484-7.38a.953.953,0,0,1,1.073.882,9.5,9.5,0,0,0,.687.87c.743,1.32,5.287,4.311,4.057,5.628a.949.949,0,0,1-1.333,0" transform="translate(-1.158 -0.618)" fill="#91e523" fill-rule="evenodd"/>
        <path id="Path_5084" data-name="Path 5084" d="M114.208,70.475c-1.921-1.417-4.529-2.818-5.23-5.234-.021-1.243,1.978-1.357,1.955-.056,1.107,1.863,3.385,2.642,4.66,4.227a.95.95,0,0,1-1.385,1.063" transform="translate(-1.17 -0.689)" fill="#91e523" fill-rule="evenodd"/>
        <path id="Path_5085" data-name="Path 5085" d="M128.062,75.432c-1.655.068-.8-4.761-1.183-6.064a6.945,6.945,0,0,1-6.444-8.858c.344-1.5,1.63-2.6,2.2-3.927-1.224-2.469,1.468-6.365,4.108-4.412.925,1.243.748,2.971,1,4.439.388,3.707.665,7.447.912,11.148a.923.923,0,0,1,.243.509.957.957,0,0,1-.164.666c-.2,1.389,1.2,6.438-.675,6.5m-1.308-7.962c-.375-4.642-.528-9.335-1.35-13.922-1.936.291-.659,2.5-.947,3.7-.605,1.436-1.98,2.506-2.29,4.094a5.039,5.039,0,0,0,4.587,6.129" transform="translate(-1.29 -0.554)" fill="#91e523" fill-rule="evenodd"/>
        <path id="Path_5086" data-name="Path 5086" d="M126.386,69.968a.943.943,0,0,1,.5-1.817c1.94.485,4.581.268,5.766-1.533-2.5-2.138,2.974-4.967-2.2-6.711-1.045-.848-.019-2.069.048-3.1.21-3.185-2.556-2.95-4.666-1.874a.949.949,0,0,1-.535-1.788c4.21-2.5,8.514.75,6.688,5.426,2.908.9,3.209,4.252,1.862,6.6,3.042,3.648-4.785,6.007-7.461,4.8" transform="translate(-1.339 -0.561)" fill="#91e523" fill-rule="evenodd"/>
        <path id="Path_5087" data-name="Path 5087" d="M6.789,80.575C5.354,80.116-.047,81.318,0,79.531c-.068-1.794,5.693-.671,7.046-.822a.943.943,0,0,1-.256,1.867" transform="translate(0 -0.842)" fill="#91e523" fill-rule="evenodd"/>
        <path id="Path_5088" data-name="Path 5088" d="M13.495,87.336c.5-2.259,6.869-1.391,8.805-1.55a.943.943,0,0,1,0,1.885,37.006,37.006,0,0,0-6.775.274c-.761.324-1.961.6-2.03-.608" transform="translate(-0.145 -0.92)" fill="#91e523" fill-rule="evenodd"/>
        <path id="Path_5089" data-name="Path 5089" d="M31.2,86.29c-.884-2.7,10.333-2.111,12.128-2.178a.943.943,0,0,1,0,1.885,59.724,59.724,0,0,0-6.314.1c-1.219.09-2.432.249-3.637.456-.739.128-1.756.7-2.177-.263" transform="translate(-0.334 -0.902)" fill="#91e523" fill-rule="evenodd"/>
        <path id="Path_5090" data-name="Path 5090" d="M43.5,90.871c-.532-2.191,4-1.33,5.307-1.681,1.367.219,6.047-1.07,6.132.76a.954.954,0,0,1-.943.943c-2.348.042-4.694.141-6.994.287-1.114-.166-2.8.865-3.5-.309" transform="translate(-0.466 -0.954)" fill="#91e523" fill-rule="evenodd"/>
        <path id="Path_5091" data-name="Path 5091" d="M65.349,85.085c-.048-1.885,7.226-.874,8.765-1.063a.943.943,0,0,1,0,1.885c-2.336-.08-4.677-.087-7.011.059-.729.143-1.742.082-1.754-.88" transform="translate(-0.701 -0.9)" fill="#91e523" fill-rule="evenodd"/>
        <path id="Path_5092" data-name="Path 5092" d="M87.823,91.529c-2.6-.077-5.209-.077-7.815-.077a.951.951,0,0,1-.942-.943c-.367-1.8,7.337-.633,8.757-.865a.943.943,0,0,1,0,1.885" transform="translate(-0.849 -0.96)" fill="#91e523" fill-rule="evenodd"/>
        <path id="Path_5093" data-name="Path 5093" d="M94.785,85.193c-1.32.343-2-1.6-.573-1.888,1.459.364,5.969-1.033,6.219.612.171,1.853-4.369,1.019-5.646,1.275" transform="translate(-1.003 -0.891)" fill="#91e523" fill-rule="evenodd"/>
        <path id="Path_5094" data-name="Path 5094" d="M105.421,90.085c-.942-2.554,9.512-2.113,11.24-2.4a.949.949,0,0,1,.942.943c-.259,1.654-2.846.735-3.926,1.067-2.033.141-4.075.3-6.086.64-.733.144-1.747.708-2.169-.25" transform="translate(-1.131 -0.941)" fill="#91e523" fill-rule="evenodd"/>
        <path id="Path_5095" data-name="Path 5095" d="M124.72,83.58c-3.127-.026-6.256-.021-9.383-.021a.943.943,0,0,1,0-1.885c3.127,0,6.256,0,9.383.021a.943.943,0,0,1,0,1.885" transform="translate(-1.228 -0.876)" fill="#91e523" fill-rule="evenodd"/>
        <path id="Path_5096" data-name="Path 5096" d="M137.9,88.523c-1.573-.345-11.666.72-10.688-1.551.253-.919,1.226-.7,1.922-.577,2.917.161,5.844.2,8.766.243a.943.943,0,0,1,0,1.885" transform="translate(-1.365 -0.926)" fill="#91e523" fill-rule="evenodd"/>
        <path id="Path_5097" data-name="Path 5097" d="M148.585,81.863c-2.551-.149-5.109-.327-7.663-.359a.948.948,0,0,1-.958-1.4c1.021-1.044,2.9-.211,4.235-.366,1.312.35,5.163-.514,5.327,1.187a.946.946,0,0,1-.942.942" transform="translate(-1.501 -0.853)" fill="#91e523" fill-rule="evenodd"/>
        <path id="Path_5098" data-name="Path 5098" d="M148.98,87.88c-.347-2.07,7.751-1.183,9.351-1.539a.943.943,0,0,1,0,1.885c-2.228.064-4.455.146-6.68.287-.9-.033-2.414.68-2.671-.632" transform="translate(-1.599 -0.926)" fill="#91e523" fill-rule="evenodd"/>
        <path id="Path_5099" data-name="Path 5099" d="M162.141,79.137c-1.234-.04-2.474-.059-3.7-.164a.949.949,0,0,1-.448-1.679c1.271-.454,2.795.064,4.152-.042a.943.943,0,0,1,0,1.885" transform="translate(-1.692 -0.827)" fill="#91e523" fill-rule="evenodd"/>
        <path id="Path_5100" data-name="Path 5100" d="M166.847,85.882a.957.957,0,0,1-.5-1.236c.524-.938,1.9-.628,2.8-.9,1.284.091,3.674-1.329,4.241.344-.037,1.67-2.493,1.062-3.615,1.468a14.349,14.349,0,0,1-2.927.321" transform="translate(-1.785 -0.893)" fill="#91e523" fill-rule="evenodd"/>
        <path id="Path_5101" data-name="Path 5101" d="M178.037,77.627c-1.295-.35-5.77.463-5.793-1.2.187-1.881,4.4-.439,5.793-.688a.943.943,0,0,1,0,1.885" transform="translate(-1.849 -0.809)" fill="#91e523" fill-rule="evenodd"/>
        <path id="Path_5102" data-name="Path 5102" d="M162.855,19.551c-10.724-3.16.119-15.5,1.68-11.477.821-1.477,2.871.165,3.8.836,4.389,4.185.616,11.932-5.476,10.642m1.436-1.812c3.773.1,5.362-5,2.766-7.443-.681-.846-2.326-.658-2.575-1.8-.142.494-.665.589-1.085.754a6.868,6.868,0,0,0-2.435,2.235,3.83,3.83,0,0,0,3.329,6.254" transform="translate(-1.698 -0.078)" fill="#91e523" fill-rule="evenodd"/>
        <path id="Path_5103" data-name="Path 5103" d="M163.845,3.26c-.359-.833.347-1.724.461-2.569a.954.954,0,0,1,1.159-.658c1.143.36.509,1.609.293,2.4-.044,1-1.233,1.854-1.913.823" transform="translate(-1.758 0.001)" fill="#91e523" fill-rule="evenodd"/>
        <path id="Path_5104" data-name="Path 5104" d="M170.434,6.342c-.726-.539-.248-1.457.394-1.82.7-.528,1.522-1.888,2.465-1.036.781.827-.249,1.593-.853,2.118-.543.481-1.241,1.321-2.006.738" transform="translate(-1.826 -0.034)" fill="#91e523" fill-rule="evenodd"/>
        <path id="Path_5105" data-name="Path 5105" d="M173.545,12.486c.166-1.207,1.781-1.416,2.7-1.888a.943.943,0,0,1,.733,1.736c-1.082.23-3.086,2.163-3.434.151m1.827.3.027-.06,0,0c.008-.04.017-.081.025-.122v0c0-.023,0-.046,0-.068a1,1,0,0,1-.053.243" transform="translate(-1.863 -0.112)" fill="#91e523" fill-rule="evenodd"/>
        <path id="Path_5106" data-name="Path 5106" d="M173.342,21.992c-.87-.762-2.567-2.96-.558-3.352,1.048.1,1.053,1.491,1.89,2.019.866.86-.482,2.206-1.333,1.333" transform="translate(-1.845 -0.2)" fill="#91e523" fill-rule="evenodd"/>
        <path id="Path_5107" data-name="Path 5107" d="M164.758,28.2c-.1-.977-.567-2.985.972-2.924,1.268.243.6,1.776.894,2.668a.943.943,0,0,1-1.867.256" transform="translate(-1.767 -0.271)" fill="#91e523" fill-rule="evenodd"/>
        <path id="Path_5108" data-name="Path 5108" d="M157.481,27.383c-1.251-.636-.059-2,.289-2.868.335-.818,1.362-1.884,2.16-.943.618.8-.378,1.407-.646,2.114-.393.723-.7,2.125-1.8,1.7" transform="translate(-1.684 -0.249)" fill="#91e523" fill-rule="evenodd"/>
        <path id="Path_5109" data-name="Path 5109" d="M150.052,19.662c-.745-1.319,3.662-2.945,3.909-1.395.238.894-.656,1.217-1.359,1.347-.813.262-2,1.188-2.549.047" transform="translate(-1.61 -0.189)" fill="#91e523" fill-rule="evenodd"/>
        <path id="Path_5110" data-name="Path 5110" d="M152.2,13.087c-.969-.485-3.339-.907-2.713-2.4.877-1.212,2.176.406,3.214.581a.943.943,0,0,1-.5,1.817" transform="translate(-1.604 -0.109)" fill="#91e523" fill-rule="evenodd"/>
        <path id="Path_5111" data-name="Path 5111" d="M157.874,7.041c-.947-.242-2.935-2.79-1.647-3.526,1.006-.583,1.531.789,1.947,1.387.94.726,1.243,2.063-.3,2.139" transform="translate(-1.672 -0.036)" fill="#91e523" fill-rule="evenodd"/>
        <path id="Path_5112" data-name="Path 5112" d="M25.621,79.587c-1.825-.468,1.094-5.462,1.284-6.85.8-1.477,2.322-8.217,4.392-7.364a.947.947,0,0,1,.338,1.289c-1.693,2.744-2.64,5.9-3.733,8.895-.689,1.117-.586,4.229-2.282,4.03" transform="translate(-0.269 -0.7)" fill="#91e523" fill-rule="evenodd"/>
        <path id="Path_5113" data-name="Path 5113" d="M30.974,80.084c-1.566-.71.07-2.732.279-3.89.476-.981.968-3.465,2.486-2.6,1.073.872-1.1,3.289-1.208,4.59-.295.765-.412,2.178-1.557,1.9" transform="translate(-0.325 -0.787)" fill="#91e523" fill-rule="evenodd"/>
        <path id="Path_5114" data-name="Path 5114" d="M36.044,79.056c-1.285-.552-.078-3.175,1.177-2.443,1.063.62,0,2.948-1.177,2.443" transform="translate(-0.381 -0.82)" fill="#91e523" fill-rule="evenodd"/>
        <path id="Path_5115" data-name="Path 5115" d="M74.718,62.264c-1.626-.507,1.454-5.426,1.677-6.779.774-1.3,2.835-8.306,4.593-7.277a.953.953,0,0,1,.337,1.289A54.624,54.624,0,0,0,78,56.547c-.8,1.2-1.55,6.377-3.281,5.717" transform="translate(-0.797 -0.516)" fill="#91e523" fill-rule="evenodd"/>
        <path id="Path_5116" data-name="Path 5116" d="M77.322,67.2c-2.232-.425,2.737-8.6,3.307-10.066a.943.943,0,0,1,1.627.952c-.824,1.457-1.511,2.987-2.2,4.513-.789,1.033-1.326,5.09-2.739,4.6" transform="translate(-0.824 -0.608)" fill="#91e523" fill-rule="evenodd"/>
        <path id="Path_5117" data-name="Path 5117" d="M80.587,72.075c-1.567-.92.879-3.592,1.221-4.856a.947.947,0,0,1,1.289-.337c.73.415.428,1.254.069,1.82-.82,1.005-.887,3.735-2.579,3.373" transform="translate(-0.86 -0.716)" fill="#91e523" fill-rule="evenodd"/>
      </g>
    </g>
    <g id="Group_729" data-name="Group 729" transform="translate(477.212 2921.143)">
      <g id="Group_45" data-name="Group 45" transform="matrix(0.799, 0.602, -0.602, 0.799, 23.149, 0)">
        <g id="Group_44" data-name="Group 44" transform="translate(0 0)" clip-path="url(#clip-path-2)">
          <path id="Path_5069" data-name="Path 5069" d="M.249,35.221C-1.528,34.778,6.777,26.26,7.474,25,14.517,16.065,22.668,8.069,30.851.186c.575-.576,1.511.319.908.909-7.5,7.237-14.994,14.555-21.606,22.625-2.543,3.249-5.294,6.329-7.807,9.6-.675.567-1.034,2.273-2.1,1.9" transform="translate(0 0)" fill="#ff55fb" fill-rule="evenodd"/>
          <path id="Path_5070" data-name="Path 5070" d="M.168,35.518a.7.7,0,0,1,.5-1.173c7-4.382,13.346-9.662,20.07-14.43,5.315-3.706,10.946-6.968,16.306-10.585C36.258,8.045,34.93,7.182,34,6,33.355,5.061,29.648.821,31.056.055c.689-.27.919.519,1.143,1a23.9,23.9,0,0,0,2.947,4.3c2.029,2.311,5.376,4.055.964,6.172-6.623,4.179-13.345,8.249-19.56,13.026,4.9-2.813,9.742-5.731,14.751-8.351,3.027-1.512,5.989-3.617,9.407-4.043,1.979.166,3.346,2.01,5.02,2.928,2.2,1.48,4.513,2.763,6.747,4.181,2.278,1.618,8.125,3.739,1.61,4.434C39.944,27.3,25.9,31.372,11.487,33.776c-2.879.59-5.581,1.271-8.438,1.686-.925-.007-2.1.615-2.882.056m3.154-1.4c7.444-1.488,14.9-2.864,22.324-4.462,9.814-2.234,19.454-5.192,29.264-7.4-3.129-1.9-6.263-3.789-9.358-5.74-2.046-1.006-3.844-3.923-6.34-2.736-6.227,2.579-11.979,6.139-17.82,9.469C15.3,26.753,9.2,30.261,3.322,34.121" transform="translate(0.076 0.258)" fill="#ff55fb" fill-rule="evenodd"/>
          <path id="Path_5071" data-name="Path 5071" d="M39.107,12.219c-8.642-.642-17.293-1.025-25.947-1.459q-4.142-.244-8.283-.5C3.76,9.976.173,10.592,0,9.278a.646.646,0,0,1,.935-.57c3.111.286,6.178.377,9.287.592q15.53.795,31.052,1.714c1.144-1.9.66-4.5.823-6.661C42.31,3.414,41.51,0,42.726,0s.453,3.51.655,4.44c-.156,2.4.307,5.208-1.025,7.315-.8.939-2.177.451-3.249.464" transform="translate(0.406 26.132)" fill="#ff55fb" fill-rule="evenodd"/>
          <path id="Path_5072" data-name="Path 5072" d="M0,4.354A33.453,33.453,0,0,0,.09.642.646.646,0,0,1,.733,0c1.062.144.551,1.638.656,2.384-.122.785.113,1.729-.291,2.424A.647.647,0,0,1,0,4.354" transform="translate(36.52 9.765)" fill="#ff55fb" fill-rule="evenodd"/>
        </g>
      </g>
      <g id="Group_47" data-name="Group 47" transform="translate(53.895 34.448) rotate(-9)">
        <g id="Group_46" data-name="Group 46" clip-path="url(#clip-path-3)">
          <path id="Path_5073" data-name="Path 5073" d="M.953,2.941C8.7,1.034,17.081.848,24.64,3.669A25.931,25.931,0,0,1,39.922,18.522a19.949,19.949,0,0,1,1.134,10.257,10.324,10.324,0,0,1-2.062,5.032,7.59,7.59,0,0,1-4.91,2.4,22.889,22.889,0,0,1-5.693.045,2.909,2.909,0,0,1-2.259-1.157,3.416,3.416,0,0,1-.278-2.48c.787-3.634,4.659-5.767,8.084-6.174,4.24-.5,8.7.812,12.549,2.515A39.294,39.294,0,0,1,56.874,35.6a17.076,17.076,0,0,1,5.621,9.946,31.264,31.264,0,0,1-.707,11.886c-.864,3.921-1.944,7.982-4.233,11.337-2.064,3.026-5.522,5.524-9.327,5.341a5.446,5.446,0,0,1-4.083-2.014,2.863,2.863,0,0,1,.364-3.822c2.346-2.261,6.013-1.569,8.491.016,6.829,4.369,6.941,13.925,4.105,20.688a25.529,25.529,0,0,1-14.083,13.734,24,24,0,0,1-4.841,1.3c-.97.157-.558,1.632.407,1.476A26.666,26.666,0,0,0,56.777,92.965c4.195-6.915,5.516-16.924-.095-23.469-2.386-2.783-6.1-4.795-9.826-4.03-3.17.649-6.071,3.668-4.283,6.99,1.872,3.48,6.634,3.738,9.9,2.417,4.076-1.649,6.793-5.224,8.445-9.182a47.353,47.353,0,0,0,3.208-13.019A22.61,22.61,0,0,0,62.294,40c-2.02-3.99-5.688-6.906-9.372-9.29a37.707,37.707,0,0,0-12.769-5.406c-4.351-.893-9.107-.7-12.691,2.207a8.691,8.691,0,0,0-3.084,4.694,4.436,4.436,0,0,0,1.606,4.853c1.675,1.063,4.133.862,6.033.821a12.866,12.866,0,0,0,6.007-1.328c3.634-2.017,4.725-6.535,4.8-10.4.146-8-4.4-15.544-10.715-20.209C24.987.685,15.6-.7,6.98.3A52,52,0,0,0,.546,1.465C-.41,1.7-.006,3.177.953,2.941" transform="translate(0 0)" fill="#ff55fb"/>
        </g>
      </g>
    </g>
  </g>
</svg>
