<svg xmlns="http://www.w3.org/2000/svg" xmlns:xlink="http://www.w3.org/1999/xlink" width="336.681" height="351.818" viewBox="0 0 336.681 351.818">
  <defs>
    <clipPath id="clip-path">
      <rect id="Rectangle_247" data-name="Rectangle 247" width="93.339" height="62.827" fill="#ff55fb"/>
    </clipPath>
    <clipPath id="clip-path-2">
      <rect id="Rectangle_248" data-name="Rectangle 248" width="105.039" height="172.313" fill="#ff55fb"/>
    </clipPath>
    <clipPath id="clip-path-3">
      <rect id="Rectangle_249" data-name="Rectangle 249" width="262.55" height="134.266" fill="#91e523"/>
    </clipPath>
  </defs>
  <g id="Group_95" data-name="Group 95" transform="translate(-908.893 -4884.012)">
    <g id="Group_45" data-name="Group 45" transform="matrix(0.799, 0.602, -0.602, 0.799, 946.702, 4884.012)">
      <g id="Group_44" data-name="Group 44" transform="translate(0 0)" clip-path="url(#clip-path)">
        <path id="Path_5069" data-name="Path 5069" d="M.406,57.526c-2.9-.723,10.662-14.635,11.8-16.689C23.71,26.239,37.024,13.179,50.388.3c.939-.941,2.468.522,1.483,1.484C39.621,13.608,27.382,25.56,16.583,38.742,12.429,44.048,7.936,49.08,3.831,54.423c-1.1.926-1.689,3.713-3.425,3.1" transform="translate(0 0)" fill="#ff55fb" fill-rule="evenodd"/>
        <path id="Path_5070" data-name="Path 5070" d="M.387,58.394a1.145,1.145,0,0,1,.82-1.915C12.641,49.321,23.005,40.7,33.988,32.91c8.681-6.053,17.878-11.38,26.633-17.288-1.288-2.1-3.457-3.509-4.971-5.446-1.059-1.527-7.113-8.452-4.814-9.7,1.125-.441,1.5.848,1.867,1.633a39.036,39.036,0,0,0,4.814,7.031c3.313,3.775,8.78,6.622,1.575,10.081C48.275,26.043,37.3,32.69,27.145,40.492c8.006-4.595,15.911-9.36,24.093-13.64,4.944-2.47,9.782-5.907,15.365-6.6,3.233.271,5.466,3.283,8.2,4.783,3.586,2.417,7.371,4.512,11.02,6.829,3.721,2.643,13.27,6.107,2.63,7.242-23.1,5.866-46.03,12.52-69.578,16.445-4.7.963-9.115,2.076-13.781,2.754-1.511-.011-3.432,1-4.707.091m5.152-2.282C17.7,53.681,29.879,51.434,42,48.823c16.029-3.648,31.774-8.48,47.8-12.094-5.11-3.1-10.229-6.189-15.285-9.375-3.342-1.642-6.278-6.407-10.355-4.469C53.986,27.1,44.591,32.913,35.051,38.351,25.1,44.078,15.141,49.808,5.539,56.112" transform="translate(0.011 0.039)" fill="#ff55fb" fill-rule="evenodd"/>
        <path id="Path_5071" data-name="Path 5071" d="M64.475,58.73C50.36,57.681,36.231,57.055,22.1,56.346q-6.765-.4-13.528-.813C6.742,55.065.885,56.072.6,53.926A1.056,1.056,0,0,1,2.129,53c5.081.467,10.091.615,15.169.968q25.364,1.3,50.718,2.8c1.868-3.1,1.078-7.349,1.344-10.879.347-1.536-.959-7.1,1.027-7.111s.74,5.733,1.07,7.252c-.255,3.914.5,8.506-1.674,11.947-1.31,1.533-3.556.736-5.307.758" transform="translate(0.061 3.909)" fill="#ff55fb" fill-rule="evenodd"/>
        <path id="Path_5072" data-name="Path 5072" d="M54.187,21.6a54.639,54.639,0,0,0,.146-6.063,1.055,1.055,0,0,1,1.049-1.048c1.735.234.9,2.675,1.071,3.894-.2,1.281.184,2.825-.476,3.959a1.057,1.057,0,0,1-1.791-.741" transform="translate(5.463 1.461)" fill="#ff55fb" fill-rule="evenodd"/>
      </g>
    </g>
    <g id="Group_47" data-name="Group 47" transform="translate(996.919 4940.276) rotate(-9)">
      <g id="Group_46" data-name="Group 46" clip-path="url(#clip-path-2)">
        <path id="Path_5073" data-name="Path 5073" d="M1.556,4.8C14.215,1.689,27.9,1.384,40.244,5.992c11.222,4.188,20.72,12.945,24.961,24.26A32.582,32.582,0,0,1,67.057,47a16.863,16.863,0,0,1-3.368,8.218,12.4,12.4,0,0,1-8.02,3.912,37.386,37.386,0,0,1-9.3.074,4.751,4.751,0,0,1-3.69-1.889,5.58,5.58,0,0,1-.454-4.05c1.286-5.935,7.609-9.419,13.2-10.084,6.925-.823,14.217,1.326,20.5,4.108A64.179,64.179,0,0,1,92.892,58.141a27.89,27.89,0,0,1,9.181,16.244c1.1,6.428.237,13.1-1.154,19.413-1.411,6.4-3.175,13.037-6.913,18.517-3.371,4.942-9.019,9.022-15.234,8.723a8.9,8.9,0,0,1-6.669-3.289,4.676,4.676,0,0,1,.6-6.243c3.831-3.693,9.821-2.563,13.868.026,11.154,7.136,11.336,22.744,6.705,33.789a41.7,41.7,0,0,1-23,22.431,39.2,39.2,0,0,1-7.907,2.131c-1.584.256-.912,2.665.665,2.411,12.3-1.984,23.279-9.86,29.706-20.455,6.851-11.295,9.01-27.642-.155-38.332-3.9-4.545-9.956-7.831-16.049-6.583-5.177,1.06-9.915,5.991-7,11.417,3.057,5.684,10.836,6.106,16.168,3.948,6.658-2.694,11.095-8.532,13.793-15a77.342,77.342,0,0,0,5.24-21.264c.753-7,.236-14.32-2.99-20.693-3.3-6.517-9.29-11.279-15.308-15.173a61.586,61.586,0,0,0-20.856-8.829c-7.106-1.458-14.874-1.139-20.729,3.6A14.2,14.2,0,0,0,39.815,52.6c-.641,2.91-.052,6.228,2.623,7.926,2.736,1.736,6.75,1.408,9.854,1.341A21.014,21.014,0,0,0,62.1,59.7c5.936-3.295,7.718-10.673,7.834-16.981.239-13.062-7.193-25.388-17.5-33.008C40.812,1.118,25.481-1.139,11.4.492A84.938,84.938,0,0,0,.891,2.392c-1.561.384-.9,2.8.665,2.411" fill="#ff55fb"/>
      </g>
    </g>
    <g id="Group_49" data-name="Group 49" transform="translate(983.024 5093.565)">
      <g id="Group_48" data-name="Group 48" transform="translate(0 7.999)" clip-path="url(#clip-path-3)">
        <path id="Path_5074" data-name="Path 5074" d="M35.288,106.343A156.129,156.129,0,0,1,15.9,104.306a1.407,1.407,0,0,1-.456-2.624c-.749-1.21.352-2.612.738-3.781,1.783-4.153,3.707-8.245,5.74-12.282A297.96,297.96,0,0,1,40.1,54.026c6.259-8.081,16.066-30.8,28.441-26.743,16.437,8.507,40.747,56.691,45.475,75.042.6,5.557-29.577,2.168-34.577,2.854-14.734-.5-29.425,1.292-44.146,1.163m5.06-2.751c11.756-.4,23.494-1.409,35.268-1.236,11.828-.274,23.831,1.178,35.571-.4A226.332,226.332,0,0,0,84.339,48.386c-4.95-6.685-9.4-14.748-17.072-18.6-9.3-2.022-17.119,15.042-21.947,21.331C34.687,67.133,24.83,84.007,17.682,101.78a138.9,138.9,0,0,0,22.666,1.811" transform="translate(6.862 12.506)" fill="#91e523" fill-rule="evenodd"/>
        <path id="Path_5075" data-name="Path 5075" d="M85.508,114.756a1.409,1.409,0,0,1,1.4-1.4c5.668-.045,11.317-.59,16.978-.843,13.233-.676,26.376-2.427,39.568-3.587,12.6-1.449,38.142.563,48.184-5.815a1.337,1.337,0,0,1,.076-.132l-.035.053-.043.065c.612-3.756-2.366-7.362-3.509-10.858a237.924,237.924,0,0,1-10.028-24.849c-6.6-16.949-11.7-35.3-24.254-48.99-7.248-7.482-16.288-17-27.709-14.934-11.13,6.979-18.223,22.5-25.717,33.2-8.5,14.217-18.338,27.643-26.6,41.973a1.44,1.44,0,0,1-2.294,1.456C69.632,77.586,73.5,74.1,74.528,71.77,86.256,54.278,97.1,36.221,108.719,18.659c4.759-6.4,9.019-14.2,16.428-17.8,15.966-3.064,28.529,12.486,37.183,23.837,9.845,15.192,14.781,32.94,21.244,49.71,2.063,5.533,4.447,10.938,6.919,16.3,1.508,4.07,4.494,8.114,4.027,12.6-2.723,8.641-36.3,7.214-44.938,8.04-16.356.964-32.475,3.511-48.849,4.136-2.495-.331-15.647,2.269-15.226-.72" transform="translate(33.129 0.217)" fill="#91e523" fill-rule="evenodd"/>
        <path id="Path_5076" data-name="Path 5076" d="M53.056,50.7c-3.575-2.489-2.83-8.117-4.859-11.727-3.521,2.128-6.532,6.514-10.826,6.753-2.961-1.041-.767-5.076.053-7.038.563-1.11,2.311-1.456,2.861-.161.386,1.434-1.27,2.42-1.332,3.908,12.253-9.5,10.587-8.647,14.932,5.347,4.034-6.315,5.4-15.493,12.4-4.766,1.1-1.7.518-6.223,3.212-6a1.409,1.409,0,0,1,.975,1.72c-.956,2.543-1.4,9.2-5.532,6.863-1.578-1.351-2.414-3.392-4.034-4.713-2.682,2.6-3.027,10.257-7.846,9.811" transform="translate(16.736 16.865)" fill="#91e523" fill-rule="evenodd"/>
        <path id="Path_5077" data-name="Path 5077" d="M96.717,27.7c-2.779-1.931,1.2-12.156,2.226-15.044,1.074-2.257,4.348-.141,2.341,1.55a63.6,63.6,0,0,0-2.64,9.778C109.523,10.2,109.657,6.654,121.033,22.96c1.292-2.9.883-10.841,6.041-7.242,2.927,2.163,4.562,6.679,8.107,7.727,1.577-2.684-.754-6.934,1.987-8.981,3.077-1.147,4.678,3.276,7.22,3.766.815-1.248-.421-3.816,1.744-3.939,3.265.128,1.276,12.7-7.531,3.127.327,4.021-.434,11.514-6.182,7.982-2.808-2.166-4.639-5.334-7.292-7.655-3.514,21.177-9.819-4.307-15.814-2.583l.056-.037c.026-.015.054-.028.081-.041-3.1,2.1-9.027,14.366-12.733,12.611" transform="translate(44.672 5.445)" fill="#91e523" fill-rule="evenodd"/>
        <path id="Path_5078" data-name="Path 5078" d="M109.283,87.512c-1.035-11.806-1.656-23.638-1.97-35.486-.12-1.094-.1-2.685,1.365-2.7,2.352.324,1.112,3.631,1.521,5.277.167,4.5.3,9,.515,13.5.287,6.492.861,12.62,1.336,19.034a1.4,1.4,0,0,1-2.767.38" transform="translate(50.046 23.013)" fill="#91e523" fill-rule="evenodd"/>
        <path id="Path_5079" data-name="Path 5079" d="M102.107,67.156a1.409,1.409,0,0,1-.5-1.911c2.993-4.992,6.3-9.805,9.079-14.921,1.1-2.907,4.08-.333,2.093,2.034-2.577,4.543-5.478,8.9-8.183,13.362-.472.934-1.326,2.119-2.487,1.436" transform="translate(47.315 22.876)" fill="#91e523" fill-rule="evenodd"/>
        <path id="Path_5080" data-name="Path 5080" d="M105.008,67.851c-2.047-2.043,3.539-5.353,3.86-7.726a1.4,1.4,0,0,1,2.7.742c-.509,1.522-4.756,8.656-6.555,6.984" transform="translate(48.782 27.587)" fill="#91e523" fill-rule="evenodd"/>
        <path id="Path_5081" data-name="Path 5081" d="M104.97,74.2c-1.7-1.942,1.813-4.012,2.515-5.822,1.214-1.116,1.411-4.083,3.427-3.776,2.478,1.1-.308,3.853-1.09,5.3-1.387,1.345-2.449,5.48-4.853,4.3" transform="translate(48.76 30.132)" fill="#91e523" fill-rule="evenodd"/>
        <path id="Path_5082" data-name="Path 5082" d="M117.278,62.669c-1.591-.716-9.8-10.888-8.04-12.337a1.41,1.41,0,0,1,2.512.82,71.35,71.35,0,0,0,6.824,9.279,1.409,1.409,0,0,1-1.3,2.238" transform="translate(50.851 23.233)" fill="#91e523" fill-rule="evenodd"/>
        <path id="Path_5083" data-name="Path 5083" d="M115.627,68.547c-1.279-2.128-11.078-9.154-6.648-10.94a1.413,1.413,0,0,1,1.591,1.308,14.078,14.078,0,0,0,1.018,1.289c1.1,1.956,7.837,6.391,6.014,8.343a1.406,1.406,0,0,1-1.975,0" transform="translate(50.312 26.872)" fill="#91e523" fill-rule="evenodd"/>
        <path id="Path_5084" data-name="Path 5084" d="M116.732,73.474c-2.848-2.1-6.714-4.178-7.754-7.76-.031-1.843,2.932-2.012,2.9-.084,1.641,2.762,5.019,3.917,6.909,6.267a1.409,1.409,0,0,1-2.053,1.577" transform="translate(50.844 29.98)" fill="#91e523" fill-rule="evenodd"/>
        <path id="Path_5085" data-name="Path 5085" d="M131.877,86.91c-2.454.1-1.182-7.059-1.754-8.99-6.616.048-11.448-6.9-9.553-13.132.51-2.223,2.417-3.856,3.267-5.822-1.814-3.661,2.176-9.436,6.091-6.541,1.371,1.842,1.109,4.4,1.48,6.58.575,5.5.986,11.04,1.352,16.527a1.368,1.368,0,0,1,.361.755,1.419,1.419,0,0,1-.243.987c-.3,2.059,1.785,9.544-1,9.635m-1.939-11.8c-.556-6.881-.783-13.838-2-20.639-2.87.431-.977,3.71-1.4,5.485-.9,2.129-2.936,3.715-3.4,6.069-.968,4.344,2.241,8.977,6.8,9.085" transform="translate(56.059 24.094)" fill="#91e523" fill-rule="evenodd"/>
        <path id="Path_5086" data-name="Path 5086" d="M127.163,78.5a1.4,1.4,0,0,1,.742-2.694c2.876.719,6.792.4,8.549-2.273-3.709-3.169,4.408-7.364-3.265-9.949-1.549-1.257-.028-3.067.07-4.6.311-4.722-3.79-4.373-6.918-2.778a1.407,1.407,0,0,1-.793-2.65c6.242-3.713,12.621,1.112,9.915,8.044,4.312,1.335,4.757,6.3,2.76,9.778,4.51,5.409-7.094,8.9-11.061,7.119" transform="translate(58.216 24.39)" fill="#91e523" fill-rule="evenodd"/>
        <path id="Path_5087" data-name="Path 5087" d="M10.065,81.577C7.937,80.9-.07,82.679,0,80.029c-.1-2.659,8.44-.994,10.445-1.219a1.4,1.4,0,0,1-.38,2.767" transform="translate(0 36.625)" fill="#91e523" fill-rule="evenodd"/>
        <path id="Path_5088" data-name="Path 5088" d="M13.495,88.1c.735-3.35,10.184-2.062,13.054-2.3a1.4,1.4,0,0,1,0,2.794A54.861,54.861,0,0,0,16.5,89c-1.128.481-2.907.892-3.009-.9" transform="translate(6.296 40.007)" fill="#91e523" fill-rule="evenodd"/>
        <path id="Path_5089" data-name="Path 5089" d="M31.225,87.347c-1.311-4,15.318-3.13,17.98-3.229a1.4,1.4,0,0,1,0,2.794,88.549,88.549,0,0,0-9.361.15c-1.807.133-3.6.37-5.391.676-1.1.189-2.6,1.034-3.228-.39" transform="translate(14.534 39.238)" fill="#91e523" fill-rule="evenodd"/>
        <path id="Path_5090" data-name="Path 5090" d="M43.521,91.8c-.789-3.248,5.923-1.971,7.868-2.492,2.027.324,8.965-1.587,9.091,1.126a1.415,1.415,0,0,1-1.4,1.4c-3.48.062-6.959.21-10.369.425-1.651-.246-4.15,1.282-5.193-.458" transform="translate(20.275 41.501)" fill="#91e523" fill-rule="evenodd"/>
        <path id="Path_5091" data-name="Path 5091" d="M65.349,85.649c-.072-2.794,10.712-1.295,12.994-1.577a1.4,1.4,0,0,1,0,2.794c-3.463-.119-6.934-.129-10.393.088-1.081.213-2.583.122-2.6-1.305" transform="translate(30.489 39.153)" fill="#91e523" fill-rule="evenodd"/>
        <path id="Path_5092" data-name="Path 5092" d="M92.054,92.515c-3.861-.114-7.723-.114-11.586-.114a1.41,1.41,0,0,1-1.4-1.4c-.544-2.666,10.877-.939,12.982-1.282a1.4,1.4,0,0,1,0,2.794" transform="translate(36.882 41.75)" fill="#91e523" fill-rule="evenodd"/>
        <path id="Path_5093" data-name="Path 5093" d="M95.445,86.2c-1.956.509-2.961-2.374-.849-2.8,2.163.54,8.849-1.531,9.219.908.254,2.747-6.476,1.511-8.37,1.89" transform="translate(43.585 38.77)" fill="#91e523" fill-rule="evenodd"/>
        <path id="Path_5094" data-name="Path 5094" d="M105.45,91.243c-1.4-3.787,14.1-3.133,16.663-3.558a1.407,1.407,0,0,1,1.4,1.4c-.384,2.452-4.219,1.09-5.821,1.582-3.014.21-6.041.44-9.022.949-1.087.214-2.59,1.05-3.216-.371" transform="translate(49.157 40.91)" fill="#91e523" fill-rule="evenodd"/>
        <path id="Path_5095" data-name="Path 5095" d="M129.688,84.5c-4.636-.038-9.274-.031-13.91-.031a1.4,1.4,0,0,1,0-2.794c4.636,0,9.274-.007,13.91.031a1.4,1.4,0,0,1,0,2.794" transform="translate(53.384 38.106)" fill="#91e523" fill-rule="evenodd"/>
        <path id="Path_5096" data-name="Path 5096" d="M143.088,89.6c-2.332-.512-17.3,1.068-15.845-2.3.375-1.362,1.817-1.037,2.85-.855,4.325.239,8.663.29,13,.361a1.4,1.4,0,0,1,0,2.794" transform="translate(59.32 40.255)" fill="#91e523" fill-rule="evenodd"/>
        <path id="Path_5097" data-name="Path 5097" d="M152.807,82.972c-3.782-.221-7.573-.485-11.36-.532a1.405,1.405,0,0,1-1.42-2.081c1.513-1.547,4.3-.312,6.278-.543,1.945.519,7.654-.763,7.9,1.76a1.4,1.4,0,0,1-1.4,1.4" transform="translate(65.24 37.122)" fill="#91e523" fill-rule="evenodd"/>
        <path id="Path_5098" data-name="Path 5098" d="M148.985,88.623c-.515-3.068,11.49-1.754,13.862-2.282a1.4,1.4,0,0,1,0,2.794c-3.3.1-6.6.217-9.9.425-1.34-.048-3.578,1.008-3.96-.937" transform="translate(69.502 40.283)" fill="#91e523" fill-rule="evenodd"/>
        <path id="Path_5099" data-name="Path 5099" d="M164.317,80.118c-1.829-.059-3.668-.088-5.491-.243a1.407,1.407,0,0,1-.664-2.489c1.885-.673,4.143.1,6.155-.062a1.4,1.4,0,0,1,0,2.794" transform="translate(73.543 35.974)" fill="#91e523" fill-rule="evenodd"/>
        <path id="Path_5100" data-name="Path 5100" d="M167.121,87.14a1.419,1.419,0,0,1-.744-1.832c.777-1.39,2.816-.931,4.155-1.33,1.9.135,5.447-1.97,6.287.51-.054,2.476-3.7,1.575-5.359,2.176-1.443.07-2.918.708-4.34.475" transform="translate(77.578 38.852)" fill="#91e523" fill-rule="evenodd"/>
        <path id="Path_5101" data-name="Path 5101" d="M180.832,78.679c-1.92-.519-8.554.686-8.588-1.775.277-2.788,6.525-.651,8.588-1.019a1.4,1.4,0,0,1,0,2.794" transform="translate(80.361 35.201)" fill="#91e523" fill-rule="evenodd"/>
        <path id="Path_5102" data-name="Path 5102" d="M165.114,25.473c-15.9-4.684.176-22.979,2.49-17.015,1.217-2.19,4.256.245,5.627,1.239,6.507,6.2.914,17.688-8.117,15.776m2.129-2.687c5.593.145,7.949-7.419,4.1-11.034-1.009-1.254-3.448-.975-3.817-2.668-.21.732-.986.873-1.609,1.118a10.182,10.182,0,0,0-3.609,3.313,5.678,5.678,0,0,0,4.935,9.272" transform="translate(73.797 3.395)" fill="#91e523" fill-rule="evenodd"/>
        <path id="Path_5103" data-name="Path 5103" d="M163.894,4.833c-.532-1.235.515-2.556.683-3.809A1.415,1.415,0,0,1,166.3.049c1.694.534.755,2.385.434,3.564-.065,1.48-1.827,2.748-2.836,1.22" transform="translate(76.395 0)" fill="#91e523" fill-rule="evenodd"/>
        <path id="Path_5104" data-name="Path 5104" d="M170.61,7.852c-1.076-.8-.368-2.16.584-2.7,1.032-.783,2.257-2.8,3.655-1.535,1.159,1.226-.37,2.361-1.264,3.14-.805.713-1.839,1.958-2.974,1.094" transform="translate(79.346 1.499)" fill="#91e523" fill-rule="evenodd"/>
        <path id="Path_5105" data-name="Path 5105" d="M173.545,13.436c.246-1.789,2.64-2.1,4-2.8a1.4,1.4,0,0,1,1.087,2.574c-1.6.34-4.574,3.206-5.09.224m2.709.449.04-.089,0,0c.012-.059.025-.12.037-.18v.006c0-.034,0-.067.006-.1a1.481,1.481,0,0,1-.079.361" transform="translate(80.968 4.907)" fill="#91e523" fill-rule="evenodd"/>
        <path id="Path_5106" data-name="Path 5106" d="M174.065,23.609c-1.289-1.129-3.806-4.388-.827-4.969,1.553.144,1.56,2.21,2.8,2.993,1.283,1.274-.714,3.27-1.975,1.975" transform="translate(80.173 8.697)" fill="#91e523" fill-rule="evenodd"/>
        <path id="Path_5107" data-name="Path 5107" d="M164.828,29.608c-.148-1.449-.84-4.425,1.442-4.335,1.88.361.893,2.632,1.326,3.955a1.4,1.4,0,0,1-2.767.38" transform="translate(76.801 11.791)" fill="#91e523" fill-rule="evenodd"/>
        <path id="Path_5108" data-name="Path 5108" d="M157.75,29.4c-1.855-.943-.088-2.971.428-4.252.5-1.213,2.019-2.792,3.2-1.4.917,1.188-.56,2.085-.958,3.134-.582,1.072-1.038,3.15-2.672,2.515" transform="translate(73.212 10.827)" fill="#91e523" fill-rule="evenodd"/>
        <path id="Path_5109" data-name="Path 5109" d="M150.093,20.64c-1.1-1.955,5.429-4.366,5.794-2.068.353,1.326-.972,1.8-2.015,2-1.206.389-2.971,1.761-3.779.07" transform="translate(69.968 8.228)" fill="#91e523" fill-rule="evenodd"/>
        <path id="Path_5110" data-name="Path 5110" d="M153.561,14.46c-1.437-.719-4.95-1.345-4.021-3.555,1.3-1.8,3.226.6,4.765.861a1.4,1.4,0,0,1-.744,2.694" transform="translate(69.696 4.779)" fill="#91e523" fill-rule="evenodd"/>
        <path id="Path_5111" data-name="Path 5111" d="M158.871,8.81c-1.4-.359-4.351-4.136-2.442-5.227,1.492-.864,2.27,1.17,2.886,2.056,1.393,1.076,1.842,3.058-.444,3.171" transform="translate(72.691 1.575)" fill="#91e523" fill-rule="evenodd"/>
        <path id="Path_5112" data-name="Path 5112" d="M25.909,86.48c-2.706-.694,1.622-8.1,1.9-10.154,1.189-2.19,3.442-12.181,6.511-10.917a1.4,1.4,0,0,1,.5,1.911c-2.509,4.068-3.914,8.744-5.533,13.186-1.021,1.656-.868,6.27-3.383,5.975" transform="translate(11.674 30.466)" fill="#91e523" fill-rule="evenodd"/>
        <path id="Path_5113" data-name="Path 5113" d="M31.3,83.3c-2.322-1.053.1-4.051.414-5.766.705-1.455,1.434-5.137,3.685-3.851,1.591,1.292-1.631,4.876-1.791,6.8C33.169,81.622,33,83.717,31.3,83.3" transform="translate(14.138 34.253)" fill="#91e523" fill-rule="evenodd"/>
        <path id="Path_5114" data-name="Path 5114" d="M36.309,80.3c-1.905-.818-.116-4.706,1.745-3.621,1.577.92,0,4.37-1.745,3.621" transform="translate(16.56 35.685)" fill="#91e523" fill-rule="evenodd"/>
        <path id="Path_5115" data-name="Path 5115" d="M74.946,69.1c-2.411-.752,2.156-8.044,2.486-10.05,1.147-1.929,4.2-12.313,6.809-10.788a1.413,1.413,0,0,1,.5,1.911A80.978,80.978,0,0,0,79.81,60.62c-1.185,1.777-2.3,9.453-4.865,8.475" transform="translate(34.64 22.444)" fill="#91e523" fill-rule="evenodd"/>
        <path id="Path_5116" data-name="Path 5116" d="M77.6,72.276c-3.309-.631,4.058-12.749,4.9-14.922a1.4,1.4,0,0,1,2.412,1.411c-1.222,2.16-2.239,4.428-3.254,6.69C80.489,66.986,79.694,73,77.6,72.276" transform="translate(35.807 26.442)" fill="#91e523" fill-rule="evenodd"/>
        <path id="Path_5117" data-name="Path 5117" d="M80.838,74.641c-2.323-1.364,1.3-5.325,1.81-7.2a1.4,1.4,0,0,1,1.911-.5c1.082.616.635,1.86.1,2.7-1.216,1.49-1.315,5.538-3.823,5" transform="translate(37.356 31.146)" fill="#91e523" fill-rule="evenodd"/>
      </g>
    </g>
  </g>
</svg>
