<svg id="Group_2" data-name="Group 2" xmlns="http://www.w3.org/2000/svg" xmlns:xlink="http://www.w3.org/1999/xlink" width="181.789" height="73.605" viewBox="0 0 181.789 73.605">
  <defs>
    <clipPath id="clip-path">
      <rect id="Rectangle_36" data-name="Rectangle 36" width="181.789" height="73.605" fill="none"/>
    </clipPath>
  </defs>
  <g id="Group_1" data-name="Group 1" clip-path="url(#clip-path)">
    <path id="Path_1" data-name="Path 1" d="M5.812,284.52a.365.365,0,0,0,0-.729.365.365,0,0,0,0,.729" transform="translate(-4.134 -214.861)" fill="#ff97f8"/>
    <path id="Path_2" data-name="Path 2" d="M456.28,66a32.766,32.766,0,1,1,32.766,32.766A32.766,32.766,0,0,1,456.28,66" transform="translate(-345.454 -25.163)" fill="#ff55fb"/>
    <path id="Path_3" data-name="Path 3" d="M6.729,41.927a23.806,23.806,0,0,1,7.405.479,17.593,17.593,0,0,1,3.408,1.233,7.208,7.208,0,0,1,3.881,4.881,12.046,12.046,0,0,1-.239,7.174A8.292,8.292,0,0,1,14,61.56c-1.369.172-2.757.192-4.137.272-.479.028-.96.014-1.439.041-1.143.064-1.352.277-1.388,1.445-.018.592.015,1.186,0,1.779a10.862,10.862,0,0,1-.1,1.434,1.907,1.907,0,0,1-1.93,1.785,22.474,22.474,0,0,1-2.708.009C1.051,68.253.55,67.639.658,66.371.754,65.247.937,64.128,1,63A92.84,92.84,0,0,0,.089,44c-.025-.167-.061-.334-.076-.5-.07-.8.125-1.115.9-1.256a18.226,18.226,0,0,1,2.431-.3c1.126-.051,2.256-.013,3.385-.013m-.465,5.061c-.029.294-.065.486-.064.678q.021,3.595.054,7.19a6.356,6.356,0,0,0,.086,1.009c.141.82.36,1.1,1.2,1.171a22.632,22.632,0,0,0,3.2.027,7.064,7.064,0,0,0,3.294-.98,4.216,4.216,0,0,0,2.226-3.992,4.694,4.694,0,0,0-2.432-3.933,10.2,10.2,0,0,0-7.564-1.17" transform="translate(0 -31.682)" fill="#91e523"/>
    <path id="Path_4" data-name="Path 4" d="M353.785,73.981c.133-.3.261-.609.4-.91a2.072,2.072,0,0,1,2.593-1.347,14.1,14.1,0,0,1,1.944.585c1.148.425,1.417,1.033,1,2.18a27.633,27.633,0,0,0-1.46,5.65,22.843,22.843,0,0,0,.171,8.174,4.492,4.492,0,0,1,.1.669,1.382,1.382,0,0,1-1.131,1.643,21.108,21.108,0,0,1-3.261.465,1.737,1.737,0,0,1-1.89-1.378c-.064-.179-.134-.355-.221-.582-.311.191-.571.352-.833.51a8.853,8.853,0,0,1-7.737.814,6.838,6.838,0,0,1-4.245-3.779,12.827,12.827,0,0,1-.1-10.531,7.12,7.12,0,0,1,3.423-3.628,10.651,10.651,0,0,1,7.408-.923,5.914,5.914,0,0,1,3.351,2.013,3.049,3.049,0,0,1,.282.508l.213-.133m-2.542,7.228a3.542,3.542,0,0,0-2.236-3.381,3.242,3.242,0,0,0-3.651,1.062,3.734,3.734,0,0,0-.8,3.174,3.294,3.294,0,0,0,4.683,2.519,3.694,3.694,0,0,0,2.008-3.374" transform="translate(-255.925 -53.985)" fill="#91e523"/>
    <path id="Path_5" data-name="Path 5" d="M91.191,81.89a9.7,9.7,0,1,1,9.639,9.759,9.761,9.761,0,0,1-9.639-9.759m13.081-.527a4.455,4.455,0,0,0-1.338-3.266,2.89,2.89,0,0,0-4.17.1,4.792,4.792,0,0,0-.06,6.276,2.886,2.886,0,0,0,4.4,0,4.573,4.573,0,0,0,1.164-3.116" transform="translate(-69.041 -54.667)" fill="#91e523"/>
    <path id="Path_6" data-name="Path 6" d="M181.686,83.6a2.725,2.725,0,0,0,1.644,1.452,5.732,5.732,0,0,0,4.377-.107c.518-.219,1-.521,1.5-.78a9.363,9.363,0,0,1,1.061-.523,1.57,1.57,0,0,1,2,.646,4.147,4.147,0,0,1,.7,2.655,2.563,2.563,0,0,1-1.3,1.981,9,9,0,0,1-3.388,1.27,10.258,10.258,0,0,1-8.811-2.212,10.031,10.031,0,0,1-2.077-12.5,8.448,8.448,0,0,1,5.536-4.4,7.941,7.941,0,0,1,7.916,2.271,8.5,8.5,0,0,1,2.4,4.31c.48,2.409-.6,4.267-2.981,4.8-1.867.419-3.787.606-5.688.864-.915.124-1.84.176-2.886.272m-.194-4.708c1.725-.143,3.287-.265,4.847-.408a2.99,2.99,0,0,0,.812-.218c.477-.189.559-.4.385-.846a3.072,3.072,0,0,0-4.407-1.371,4.188,4.188,0,0,0-1.638,2.843" transform="translate(-133.317 -53.62)" fill="#91e523"/>
    <path id="Path_7" data-name="Path 7" d="M262.59,70.4c-.046.612-.064,1.036-.111,1.457a1.589,1.589,0,0,1-1.446,1.613,7.35,7.35,0,0,0-1.591.53c-.7.368-.748.77-.2,1.336.391.4.852.738,1.275,1.111a26.13,26.13,0,0,1,2.074,1.866,5.308,5.308,0,0,1-.4,7.962,6.631,6.631,0,0,1-5.788,1.743,3.124,3.124,0,0,1-2.658-2.518,7.834,7.834,0,0,1-.226-1.757A1.23,1.23,0,0,1,255,82.416c.476.043.944.189,1.42.223a3.613,3.613,0,0,0,1.167-.082A.629.629,0,0,0,258,81.514a4.9,4.9,0,0,0-.861-1.033c-.513-.484-1.086-.9-1.6-1.381a6.2,6.2,0,0,1-.771-8.627,7.842,7.842,0,0,1,4.583-3c2.048-.469,3.238.514,3.242,2.6V70.4" transform="translate(-191.829 -50.997)" fill="#91e523"/>
    <path id="Path_8" data-name="Path 8" d="M310.759,72.463a14.013,14.013,0,0,1,1.417.075,1.754,1.754,0,0,1,1.643,1.571,9.026,9.026,0,0,1,.061,1.937c-.137,2.226-.387,4.449-.447,6.676-.055,2.028.082,4.061.135,6.091a10.187,10.187,0,0,1,.023,1.267,1.38,1.38,0,0,1-1.426,1.394,17.247,17.247,0,0,1-3.024-.274,1.513,1.513,0,0,1-1.3-1.641,9.3,9.3,0,0,1,.06-1.268,59.491,59.491,0,0,0-.12-12.432c-.065-.618-.13-1.236-.166-1.856-.051-.892.266-1.3,1.18-1.439.555-.084,1.126-.063,1.962-.1" transform="translate(-232.895 -54.862)" fill="#91e523"/>
    <path id="Path_9" data-name="Path 9" d="M314.689,38.812a5.512,5.512,0,0,1-.566,1.053,3.586,3.586,0,0,1-.984.784q-1.56.931-3.155,1.8c-1.191.651-1.759.533-2.657-.487-.279-.317-.576-.619-.847-.943-.461-.552-.477-1.02.052-1.481,1.444-1.259,2.884-2.527,4.4-3.7,1.193-.927,2.143-.676,2.951.629a4.474,4.474,0,0,1,.811,2.343" transform="translate(-231.778 -26.714)" fill="#ff55fb"/>
    <path id="Path_10" data-name="Path 10" d="M7.052,174.953a3,3,0,1,1-3-3,3,3,0,0,1,3,3" transform="translate(-0.794 -130.186)" fill="#a0e650"/>
    <path id="Path_11" data-name="Path 11" d="M168.5,218.391c-.277.147-.515.277-.756.4a8.231,8.231,0,0,1-6.126.723,6.906,6.906,0,0,1-4.985-4.681,10.779,10.779,0,0,1-.166-6.39c1.466-5.377,8.292-7.833,12.646-4.724.127.09.268.159.444.262.076-.165.134-.283.186-.4a1.477,1.477,0,0,1,1.869-1.043c.108.017.216.037.322.062,1.522.368,1.944.918,1.852,2.492-.08,1.366-.191,2.729-.29,4.094a47.988,47.988,0,0,0,.073,7.871c.172,1.868-.371,2.538-2.224,2.835-1.417.227-1.984-.06-2.844-1.5m-.325-7.545a3.137,3.137,0,0,0-3.208-3.148,3.376,3.376,0,0,0-3.277,3.424,3.13,3.13,0,0,0,3.168,3.1,3.361,3.361,0,0,0,3.317-3.378" transform="translate(-118.156 -153.204)" fill="#ff55fb"/>
    <path id="Path_12" data-name="Path 12" d="M39.786,201.684c.273-.229.493-.417.717-.6a7.586,7.586,0,0,1,3.488-1.736A5.243,5.243,0,0,1,49.612,202a8.384,8.384,0,0,1,.987,3.449c.183,2.265.332,4.532.493,6.8.064.9.138,1.8.178,2.7a5.674,5.674,0,0,1-.067,1.227,1.612,1.612,0,0,1-1.532,1.47,22.212,22.212,0,0,1-3.114.051,1.607,1.607,0,0,1-1.654-1.915c.055-.9.226-1.791.339-2.687a17.227,17.227,0,0,0,.115-5.072,6.088,6.088,0,0,0-.373-1.339,2.112,2.112,0,0,0-2.742-1.3,2.539,2.539,0,0,0-1.819,1.642,8.266,8.266,0,0,0-.485,2.312c-.053,1.419.034,2.844.074,4.266.022.793.113,1.587.087,2.378a1.539,1.539,0,0,1-1.719,1.665,11.3,11.3,0,0,1-2.042-.137,1.487,1.487,0,0,1-1.352-1.669,3.252,3.252,0,0,1,.031-.491,32.537,32.537,0,0,0-.474-10.942c-.128-.7-.3-1.393-.428-2.092a1.212,1.212,0,0,1,.733-1.554,15.032,15.032,0,0,1,2.726-.866c1.212-.237,1.761.2,2.067,1.4.026.1.072.2.144.387" transform="translate(-25.796 -150.857)" fill="#ff55fb"/>
    <path id="Path_13" data-name="Path 13" d="M241.086,201.684c.273-.229.493-.417.717-.6a7.586,7.586,0,0,1,3.488-1.736A5.243,5.243,0,0,1,250.912,202a8.384,8.384,0,0,1,.987,3.449c.183,2.265.332,4.532.493,6.8.064.9.138,1.8.178,2.7a5.671,5.671,0,0,1-.067,1.227,1.612,1.612,0,0,1-1.532,1.47,22.212,22.212,0,0,1-3.114.051,1.607,1.607,0,0,1-1.654-1.915c.055-.9.226-1.791.339-2.687a17.227,17.227,0,0,0,.115-5.072,6.09,6.09,0,0,0-.373-1.339,2.112,2.112,0,0,0-2.742-1.3,2.539,2.539,0,0,0-1.819,1.642,8.264,8.264,0,0,0-.485,2.312c-.053,1.419.034,2.844.074,4.266.022.793.113,1.587.087,2.378a1.539,1.539,0,0,1-1.719,1.665,11.3,11.3,0,0,1-2.042-.137,1.487,1.487,0,0,1-1.352-1.669,3.252,3.252,0,0,1,.031-.491,32.537,32.537,0,0,0-.474-10.942c-.128-.7-.3-1.393-.428-2.092a1.212,1.212,0,0,1,.733-1.554,15.032,15.032,0,0,1,2.726-.866c1.212-.237,1.761.2,2.067,1.4.025.1.072.2.144.387" transform="translate(-178.202 -150.857)" fill="#ff55fb"/>
    <path id="Path_14" data-name="Path 14" d="M311.229,192.87c-.353-.087-.588-.153-.827-.2a1.731,1.731,0,0,1-1.441-1.4,7.7,7.7,0,0,1-.18-1.788,1.718,1.718,0,0,1,1.557-1.813l.568-.13c0-.573-.006-1.138,0-1.7a14.29,14.29,0,0,1,.057-1.881,1.669,1.669,0,0,1,1.852-1.585c.6-.018,1.2-.054,1.8-.045a1.818,1.818,0,0,1,1.9,2.134c-.047.572-.093,1.147-.092,1.721,0,1.107.2,1.272,1.325,1.191.327-.024.652-.086.98-.1a5.144,5.144,0,0,1,1.062.031,1.651,1.651,0,0,1,1.4,1.324,4.014,4.014,0,0,1-.1,2.267,2.325,2.325,0,0,1-1.92,1.593c-.483.091-.978.115-1.466.177-.768.1-1.01.3-1.126,1.064a13.067,13.067,0,0,0,.021,4.251,3.312,3.312,0,0,0,.1.4c.378,1.231.9,1.471,2.087.964a6.719,6.719,0,0,1,.991-.387,1.375,1.375,0,0,1,1.763,1.041,3.515,3.515,0,0,1-2.53,4.463,9.216,9.216,0,0,1-3.991.069,3.832,3.832,0,0,1-3.02-2.5,10,10,0,0,1-.658-2.7c-.128-1.687-.094-3.387-.124-5.082-.008-.432,0-.864,0-1.376" transform="translate(-233.779 -138.036)" fill="#ff55fb"/>
    <path id="Path_15" data-name="Path 15" d="M109.968,177.178c.128-.889.2-1.709.372-2.508a10.245,10.245,0,0,1,.659-2.191,6.316,6.316,0,0,1,5.734-3.735,1.975,1.975,0,0,1,2.249,1.61c.153.5.28,1,.416,1.5a1.513,1.513,0,0,1-.146,1.1,1.47,1.47,0,0,1-1.248.9,3.264,3.264,0,0,0-2.839,2.87c-.074.558.029.7.578.727.492.021.985-.009,1.477.005a1.528,1.528,0,0,1,1.732,1.384c.02.079.042.159.06.239.416,1.85-.3,2.835-2.2,2.985-1.084.085-1.325-.132-1.268,1.431.092,2.514.3,5.023.453,7.534a8.419,8.419,0,0,1,.015,1.227,1.625,1.625,0,0,1-1.4,1.6,16.256,16.256,0,0,1-2.771.205,1.487,1.487,0,0,1-1.493-1.287,6.827,6.827,0,0,1-.161-1.462c-.019-2.188-.009-4.377-.019-6.566a15.119,15.119,0,0,0-.073-1.556c-.069-.641-.118-.659-.744-.749a2.832,2.832,0,0,1-.712-.162,1.217,1.217,0,0,1-.734-1.021,13.311,13.311,0,0,1-.13-2.042,1.805,1.805,0,0,1,1.6-1.89l.6-.153" transform="translate(-81.588 -127.752)" fill="#ff55fb"/>
    <path id="Path_16" data-name="Path 16" d="M402.989,188.878c-.07-.76-.146-1.52-.209-2.281a8.805,8.805,0,0,1-.035-.946,2.622,2.622,0,0,1,2.454-2.868,9.622,9.622,0,0,1,1.491-.149,1.467,1.467,0,0,1,1.7,1.533c.148,1.651.255,3.306.414,4.956a32.2,32.2,0,0,0,2.278,9.321c.29.7.512,1.607,1.677,1.978a1.048,1.048,0,0,0,.339.05c1.619-.034,1.921.807,2,2.061.032.472.066.947.053,1.419-.018.663-.143.777-.789.89a3.905,3.905,0,0,1-.487.053c-1.413.068-1.618.164-3.1.183a5.363,5.363,0,0,1-3.545-1.591,10.252,10.252,0,0,1-2.345-4.08,35.224,35.224,0,0,1-1.671-7.776c-.1-.916-.147-1.837-.218-2.755h-.011" transform="translate(-304.92 -138.274)" fill="#ff55fb"/>
    <path id="Path_17" data-name="Path 17" d="M5.411,203.421a12.914,12.914,0,0,1,1.309.069,1.62,1.62,0,0,1,1.518,1.451,8.321,8.321,0,0,1,.057,1.789c-.126,2.056-.358,4.109-.413,6.166-.05,1.873.076,3.751.125,5.626a9.431,9.431,0,0,1,.021,1.171,1.274,1.274,0,0,1-1.317,1.288,15.909,15.909,0,0,1-2.793-.253,1.4,1.4,0,0,1-1.2-1.515,8.623,8.623,0,0,1,.055-1.171,54.926,54.926,0,0,0-.111-11.482c-.06-.571-.12-1.142-.153-1.715-.048-.823.246-1.2,1.09-1.329.513-.077,1.04-.059,1.812-.095" transform="translate(-1.896 -154.012)" fill="#ff55fb"/>
    <path id="Path_18" data-name="Path 18" d="M374,203.421a12.915,12.915,0,0,1,1.309.069,1.62,1.62,0,0,1,1.518,1.451,8.323,8.323,0,0,1,.057,1.789c-.126,2.056-.358,4.109-.413,6.166-.05,1.873.076,3.751.125,5.626a9.436,9.436,0,0,1,.021,1.171,1.274,1.274,0,0,1-1.317,1.288,15.909,15.909,0,0,1-2.793-.253,1.4,1.4,0,0,1-1.2-1.515,8.614,8.614,0,0,1,.055-1.171,54.926,54.926,0,0,0-.111-11.482c-.06-.571-.12-1.142-.153-1.715-.048-.823.246-1.2,1.09-1.329.513-.077,1.04-.059,1.812-.095" transform="translate(-280.959 -154.012)" fill="#ff55fb"/>
    <path id="Path_19" data-name="Path 19" d="M376.707,174.953a3,3,0,1,1-3-3,3,3,0,0,1,3,3" transform="translate(-280.663 -130.186)" fill="#a0e650"/>
    <path id="Path_20" data-name="Path 20" d="M534.3,52.808a3.117,3.117,0,0,0-4.137,2.03,1.65,1.65,0,0,0,.552,2.042,1.569,1.569,0,0,0,1.985-.145c.253-.19.489-.4.755-.624a1.729,1.729,0,0,1,.011,2.3,4.865,4.865,0,0,1-5.511,2.062,10.73,10.73,0,0,1-2.983-1.374c-1.674-1.186-3.257-2.509-4.819-3.843-2.294-1.958-4.49-4.034-6.812-5.957a34.5,34.5,0,0,0-13.6-7.181c-.991-.25-1.128-.476-1.206-1.5a2.273,2.273,0,0,1,.433-1.617c.377.356.666.676,1,.936a4.749,4.749,0,0,0,4.855.836,2.926,2.926,0,0,0,1.1-4.99,4.792,4.792,0,0,0-3.2-1.437c-.45-.034-.9-.062-1.563-.108a5.262,5.262,0,0,1,4.349-2.5c.429-.017.864.06,1.291.026a1.364,1.364,0,0,0,1.4-1.2,1.344,1.344,0,0,0-1.226-1.369c-3.912-.7-8.164,1.968-8.823,5.783a2.757,2.757,0,0,1-.471,1.3,6.307,6.307,0,0,0-1.615,4.623,3.551,3.551,0,0,1-.1.637c-8.4.375-14.8,3.878-18.2,11.884-.452-.1-.78-.153-1.1-.247-1.652-.488-3.3-.991-4.953-1.475a4.645,4.645,0,0,0-1.121-.223.878.878,0,0,0-.822,1.442,6,6,0,0,0,.988,1.032c1.4,1.3,2.824,2.589,4.222,3.9a7.582,7.582,0,0,1,.707.907c-.5.251-.873.449-1.255.633-1.165.56-2.339,1.1-3.5,1.677-.523.259-1.026.577-.97,1.281.043.544.474.877,1.387,1.021.709.112,1.43.144,2.142.241.84.114,1.676.261,2.293.359a54.792,54.792,0,0,0,1.728,6.009A24.184,24.184,0,0,0,490.3,83.162l1.555.706a22.389,22.389,0,0,0,18.486-1.138,48.394,48.394,0,0,0,9.3-6.474,92.353,92.353,0,0,0,10.14-10.368,10.71,10.71,0,0,1,3.578-2.993,6.85,6.85,0,0,0,3.842-4.928,4.428,4.428,0,0,0-2.89-5.158M504.2,37.916c-1.125.918-2.168.671-3.029-.809,1.249-.182,2.3-.3,3.029.809M475.858,62.167l-2.336-.3a6.57,6.57,0,0,1,2.446-1.311Zm.79-5.347A19.325,19.325,0,0,1,473.593,54l3.533,1.013-.479,1.8M526.682,64.4a76.019,76.019,0,0,1-13.936,13,24.683,24.683,0,0,1-9.326,4.285,18.856,18.856,0,0,1-12.02-1.7c-6.69-3.237-11.076-8.41-11.943-15.922a17.512,17.512,0,0,1,4.249-14.026,15.611,15.611,0,0,1,9.927-4.963,16.338,16.338,0,0,1,8.417,1.261,31.053,31.053,0,0,1,7.141,3.95,81.058,81.058,0,0,1,8.325,7.052,29.24,29.24,0,0,0,5.444,4.437c1.273.742,2.615,1.363,4.063,2.109a5.054,5.054,0,0,1-.341.512" transform="translate(-355.512 -22.028)"/>
    <path id="Path_21" data-name="Path 21" d="M557.426,113.279a5.025,5.025,0,0,1-.341.512,76,76,0,0,1-13.936,13,24.679,24.679,0,0,1-9.326,4.285,18.856,18.856,0,0,1-12.02-1.7c-6.69-3.238-11.076-8.41-11.943-15.922a17.512,17.512,0,0,1,4.249-14.026,15.613,15.613,0,0,1,9.927-4.963,16.343,16.343,0,0,1,8.417,1.261,31.06,31.06,0,0,1,7.141,3.95,81.083,81.083,0,0,1,8.325,7.052,29.221,29.221,0,0,0,5.444,4.437c1.273.741,2.615,1.363,4.063,2.109m-30.454-12.37a7.3,7.3,0,0,0-4.359,1.183,1.479,1.479,0,1,0,1.292,2.657c.4-.143.782-.363,1.188-.5a2.687,2.687,0,0,1,3.677,1.492,8.865,8.865,0,0,0,.633,1.121,1.649,1.649,0,0,0,2.257.554,1.592,1.592,0,0,0,.5-2.154,13.64,13.64,0,0,0-1.293-2.226,5.24,5.24,0,0,0-3.9-2.13" transform="translate(-385.914 -71.421)" fill="#91e523"/>
    <path id="Path_22" data-name="Path 22" d="M486.149,131.647l3.533,1.013-.478,1.8a19.307,19.307,0,0,1-3.055-2.816" transform="translate(-368.068 -99.671)" fill="#a0e650"/>
    <path id="Path_23" data-name="Path 23" d="M488.3,158.639c-.039.572-.069,1.009-.11,1.607l-2.336-.3a6.569,6.569,0,0,1,2.446-1.312" transform="translate(-367.848 -120.107)" fill="#a0e650"/>
    <path id="Path_24" data-name="Path 24" d="M564.383,121.368a5.24,5.24,0,0,1,3.9,2.13,13.649,13.649,0,0,1,1.293,2.226,1.592,1.592,0,0,1-.5,2.154,1.649,1.649,0,0,1-2.257-.554,8.858,8.858,0,0,1-.633-1.121,2.687,2.687,0,0,0-3.677-1.492c-.407.134-.784.354-1.189.5a1.479,1.479,0,1,1-1.292-2.657,7.3,7.3,0,0,1,4.359-1.183" transform="translate(-423.326 -91.88)"/>
    <path id="Path_25" data-name="Path 25" d="M639.2,22.537a9.889,9.889,0,0,0,2.582,4.561A3.305,3.305,0,1,0,644.41,22a9.889,9.889,0,0,0-5.213.538" transform="translate(-483.942 -16.567)" fill="#91e523"/>
    <path id="Path_26" data-name="Path 26" d="M640.8,8.608a9.89,9.89,0,0,0,4.608-2.5,3.305,3.305,0,1,0-5.047-2.726,9.888,9.888,0,0,0,.439,5.222" transform="translate(-484.71 0)" fill="#91e523"/>
    <path id="Path_27" data-name="Path 27" d="M627.168,13.058A9.888,9.888,0,0,0,624.759,8.4a3.305,3.305,0,1,0-2.821,5,9.89,9.89,0,0,0,5.229-.341" transform="translate(-468.358 -5.14)" fill="#91e523"/>
    <path id="Path_28" data-name="Path 28" d="M630.366,20.443a9.891,9.891,0,0,0-4.7,2.321,3.3,3.3,0,1,0,4.942,2.914,9.891,9.891,0,0,0-.243-5.235" transform="translate(-472.436 -15.478)" fill="#91e523"/>
    <path id="Path_29" data-name="Path 29" d="M642.586,22.267a2.009,2.009,0,1,1-1.482-2.424,2.009,2.009,0,0,1,1.482,2.424" transform="translate(-483.508 -14.981)" fill="#ff55fb"/>
  </g>
</svg>
