<svg xmlns="http://www.w3.org/2000/svg" xmlns:xlink="http://www.w3.org/1999/xlink" width="315.375" height="93.673" viewBox="0 0 315.375 93.673">
  <defs>
    <filter id="Rectangle_230" x="0" y="0" width="315.375" height="93.673" filterUnits="userSpaceOnUse">
      <feOffset dy="3" input="SourceAlpha"/>
      <feGaussianBlur stdDeviation="10" result="blur"/>
      <feFlood flood-opacity="0.161"/>
      <feComposite operator="in" in2="blur"/>
      <feComposite in="SourceGraphic"/>
    </filter>
    <clipPath id="clip-path">
      <rect id="Rectangle_264" data-name="Rectangle 264" width="30.969" height="20.496" fill="#fff"/>
    </clipPath>
  </defs>
  <g id="Group_834" data-name="Group 834" transform="translate(-162 -3524.172)">
    <g transform="matrix(1, 0, 0, 1, 162, 3524.17)" filter="url(#Rectangle_230)">
      <rect id="Rectangle_230-2" data-name="Rectangle 230" width="255.375" height="33.673" rx="16.837" transform="translate(30 27)" fill="#ff55fb"/>
    </g>
    <g id="Group_737" data-name="Group 737" transform="translate(-0.881 1789.536)">
      <text id="Ver_más" data-name="Ver más" transform="translate(310.017 1782.973)" fill="#fff" font-size="14" font-family="Brevia-Bold, Brevia" font-weight="700"><tspan x="0" y="0">Ver más</tspan></text>
      <g id="Group_76" data-name="Group 76" transform="translate(272.881 1766.681)">
        <g id="Group_75" data-name="Group 75" clip-path="url(#clip-path)">
          <path id="Path_5210" data-name="Path 5210" d="M14.318,12.409a16.271,16.271,0,0,1,6.772,2.517C22.7,15.96,27.2,18.8,23.816,20.911a29.386,29.386,0,0,1-5.623,2.11,22.609,22.609,0,0,1-6.884,1.492,10.842,10.842,0,0,1-6.257-1.682c-1.556-1-4.3-2.716-3.106-4.791C4.267,14,9.981,12.117,14.318,12.409c.953.064.949-1.419,0-1.483a15.234,15.234,0,0,0-9.64,2.547c-1.709,1.16-4.5,3.211-4.671,5.48-.143,1.883,1.943,3.457,3.259,4.436a12.782,12.782,0,0,0,8.442,2.6c3.531-.169,6.813-1.531,10.095-2.714,1.755-.632,4.6-1.353,5.073-3.514.5-2.277-2.243-4.092-3.774-5.233a18.4,18.4,0,0,0-8.783-3.6c-.944-.121-.935,1.363,0,1.483" transform="translate(0 -5.507)" fill="#fff"/>
          <path id="Path_5211" data-name="Path 5211" d="M14.123,11.687c-7.584,2.954-2.021,13.3,4.482,13.446a7.194,7.194,0,0,0,7.331-5.89c.423-3.1-.217-6.648-3.505-7.761-.906-.306-1.3,1.125-.394,1.43,2.5.844,2.75,3.807,2.429,6.032a5.729,5.729,0,0,1-5.861,4.706c-4.651-.124-10.142-8.175-4.087-10.533.879-.343.5-1.777-.394-1.43" transform="translate(-5.293 -5.785)" fill="#fff"/>
          <path id="Path_5212" data-name="Path 5212" d="M16.712,13.374a3.483,3.483,0,0,0-1.9,3.613c.381,1.555,2.162,1.945,3.546,1.764a3.55,3.55,0,0,0,3.1-2.46c.436-1.687-.778-2.665-2.222-3.151-.907-.3-1.3,1.127-.394,1.43.8.268,1.522.674,1.079,1.617A2.236,2.236,0,0,1,18.069,17.3c-.648.064-1.708.011-1.838-.81a2.154,2.154,0,0,1,1.23-1.839c.874-.376.12-1.653-.748-1.28" transform="translate(-7.458 -6.624)" fill="#fff"/>
          <path id="Path_5213" data-name="Path 5213" d="M22.923,21.684c-.969,1.324.477,2.961,1.88,2.951a2.242,2.242,0,0,0,2.2-2.99c-.608-1.337-2.7-2.029-3.338-.337-.224.6-.347,1.435.226,1.877.724.558,1.336-.063,1.885-.494l-1.165-.15.039-.251,1.382.374-.01-.4a.742.742,0,0,0-1.483,0l.01.4c.018.684,1.054,1.077,1.382.374a1.189,1.189,0,0,0-.039-1.246.757.757,0,0,0-1.165-.15,1.484,1.484,0,0,0-.273.243q.5.664.523.221c.033-.05.028-.317.1-.346.151-.063.466.294.528.394a.486.486,0,0,1,.075.452c-.291.89-1.948.466-1.479-.175.564-.771-.722-1.511-1.28-.748" transform="translate(-11.433 -10.271)" fill="#fff"/>
          <path id="Path_5214" data-name="Path 5214" d="M33.425,7.9A8.951,8.951,0,0,0,36.67,4.112c.388-.864-.89-1.619-1.28-.748a7.575,7.575,0,0,1-2.713,3.254c-.79.527-.048,1.812.748,1.28" transform="translate(-16.354 -1.506)" fill="#fff"/>
          <path id="Path_5215" data-name="Path 5215" d="M41.69,13.95a14.256,14.256,0,0,0,4.959-4.17c.529-.8-.755-1.541-1.281-.748a12.7,12.7,0,0,1-4.427,3.639.742.742,0,0,0,.748,1.28" transform="translate(-20.524 -4.396)" fill="#fff"/>
          <path id="Path_5216" data-name="Path 5216" d="M48.534,19.042c2.473-.093,5.641-.892,6.57-3.481.323-.9-1.109-1.287-1.43-.394-.666,1.857-3.453,2.329-5.14,2.392-.951.036-.956,1.519,0,1.483" transform="translate(-24.182 -7.414)" fill="#fff"/>
          <path id="Path_5217" data-name="Path 5217" d="M21.409,5.783c.685-1.512,1.523-4.427-.085-5.638-.762-.574-1.5.712-.748,1.28.265.2.13,1.216.106,1.529a6.227,6.227,0,0,1-.554,2.081c-.391.863.886,1.617,1.28.748" transform="translate(-10.142 0)" fill="#fff"/>
          <path id="Path_5218" data-name="Path 5218" d="M9.849,9.758a8.5,8.5,0,0,0-2-4.185C7.226,4.849,6.181,5.9,6.8,6.621a7.08,7.08,0,0,1,1.618,3.531c.157.939,1.586.541,1.43-.394" transform="translate(-3.343 -2.695)" fill="#fff"/>
        </g>
      </g>
    </g>
  </g>
</svg>
