<svg xmlns="http://www.w3.org/2000/svg" width="1367.999" height="1484.381" viewBox="0 0 1367.999 1484.381">
  <g id="Group_109" data-name="Group 109" transform="translate(0.999 -3408.23)">
    <rect id="Rectangle_231" data-name="Rectangle 231" width="1366" height="1400.459" transform="translate(0 3447.871)" fill="#ffe815"/>
    <path id="Subtraction_15" data-name="Subtraction 15" d="M3645.624,653.493h0l-19.358-2.537a23.316,23.316,0,0,0,4.454-.633c1.386-.342,3.123-.949,3.521-1.9a1.442,1.442,0,0,0-.473-1.561c-5.258-.035-5.606-.418-6.447-1.344a8.76,8.76,0,0,0-3.2-2.254,188.607,188.607,0,0,0,19.639-14.037,199.636,199.636,0,0,0,17.359-15.17l-10.557,2.96-2.232-3.051c-5.436,1.372-11.549,5.391-18.168,11.945a144.428,144.428,0,0,0-12.4,14.4l-.011.014-.058.075c-.4.524-.737.954-1.022,1.315a5.082,5.082,0,0,1-4.142-3.684,13.461,13.461,0,0,1,2.409-10.542c-.5-.036-.993-.055-1.476-.055a15.976,15.976,0,0,0-7.87,1.995,33.891,33.891,0,0,0-5.858,4.384l-.161.141,0,0a34.88,34.88,0,0,1-5.672,4.306,14.731,14.731,0,0,1-7.407,1.948,19.047,19.047,0,0,1-2.644-.193l5.424,2.557a9.686,9.686,0,0,1-2.142.179c-1.7,0-3.94-.2-5.742-.364h-.013l-.22-.021h-.014c-1.838-.165-3.737-.336-5.073-.336-1.159,0-1.8.13-1.949.4a.371.371,0,0,0,.045.386,13.654,13.654,0,0,1-2.91-5.7c-.585-2.419-.3-4.312.809-5.329l-13.23,8.946c1.031-.907,1.291-4.023,1.521-6.772v-.008c.162-1.945.3-3.625.686-4.225-.132-.013-.27-.021-.409-.021a5.908,5.908,0,0,0-4.048,1.946,12.263,12.263,0,0,0-2.705,4.182c-.829,2.148-.8,3.976.079,4.771a66.811,66.811,0,0,0-6.986-4.141c-2.282-1.18-3.323-1.718-8.117-6.35-.749.117-1.224.726-1.373,1.762a10.944,10.944,0,0,0,.812,4.948c.673,1.79,1.56,3.122,2.315,3.478a26.242,26.242,0,0,1-7.264,1.13,21.713,21.713,0,0,1-7.13-1.292c7.822-2.234,7.3-9.974,6.841-16.8v-.01c-.233-3.467-.453-6.742.451-8.933l-26.753,24.985c.96-1.537,3.484-9.7,3.416-10.681-.848,2.445-4.422,4.3-10.623,5.5a108.188,108.188,0,0,1-19.249,1.5,148.186,148.186,0,0,1-15.074-.729h2.095a.975.975,0,0,0,.422-1.1c-.485-1.309-4.518-2.457-8.631-2.457a13.462,13.462,0,0,0-5.72,1.067,2.056,2.056,0,0,1,2.06-1.1c.253,0,.533.015.8.029l.063,0h.008c.312.016.7.036,1.112.036h.072a6.777,6.777,0,0,0-3.808-1.3c-2.565,0-4.737,1.832-6.837,3.6l-.017.014c-2.093,1.767-4.257,3.594-6.781,3.594a7.074,7.074,0,0,1-4.341-1.725,26.834,26.834,0,0,0,3.016.188c2.91,0,4.96-.63,6.094-1.871a4.265,4.265,0,0,0,1-3.409c-2.325.827-5.637,1.023-8.84,1.213a52.724,52.724,0,0,0-6.864.693c-2.258.454-3.709,1.2-4.436,2.265a4.4,4.4,0,0,0-.208,4,21.681,21.681,0,0,0-3.829-1.242,8.7,8.7,0,0,1-3.206-1.216,3.081,3.081,0,0,1-.9-3.078l-17.508,5.013a2.347,2.347,0,0,0,1.124-2.26c-.16-.694-.911-1.6-3.578-1.994a16.325,16.325,0,0,0,2.309.16,33.708,33.708,0,0,0,9-1.589l.462-.129.207-.058a28.85,28.85,0,0,1,7.218-1.424,5.926,5.926,0,0,1,5.008,2.253,17.592,17.592,0,0,0-.391-4.985v-.006a11.6,11.6,0,0,1-.271-4.051,7.441,7.441,0,0,1,2.526-4.172,63.63,63.63,0,0,0-18.37,4.967,125.158,125.158,0,0,0-14.4,7.749l-.023.013,0,0-.057.034c-2.961,1.77-5.757,3.441-8.7,4.961l-16.327-4.354-.773,2.535-2.668-6.472c-.5.335-.977.68-1.328.932l-.024.017a5.913,5.913,0,0,1-2.2,1.268.346.346,0,0,1-.311-.162c-.4-.641.339-1.594,1.026-2.352a10.107,10.107,0,0,0-4.176,1.47c-.561-3.427,2.561-7.295,5.689-10.626l-.29-.254-.459-.4-.062-.054-.174-.152-.407-.355.1-.051.015-.008.011-.005c1.6-.8,3.247-1.625,4.676-2.386-.97,1.041-2.054,2.205-3.41,3.666,1.1.936,2.752,2.334,4.441,3.644a19.584,19.584,0,0,0,2.783-3.1,4.213,4.213,0,0,0,.938-2.929c-.154-1.035-.936-1.89-2.392-2.615-.711.461-1.635.954-2.36,1.331,1.373-1.511,2.758-3.209,2.61-4.358a1.288,1.288,0,0,0-.629-.928l-12.749,2.83a52.86,52.86,0,0,1,5.153,4.2l.034.03.011.009.121.106.644.563c-6.328,3.175-12.52,6.551-12.7,9.885-.067,1.262.759,2.456,2.456,3.547l-9.506-3.976c-9.16,4.918-9.727,5.094-16.666,7.249l-.072.022-.152.047c-1.656.515-3.716,1.156-6.326,2a3.366,3.366,0,0,1,.7-2.708c.625-1.073,1.215-2.086-.161-3.038a10.212,10.212,0,0,1-6,1.816c-3.433,0-6.937-1.375-10.212-2.861-.451-.2-.907-.414-1.311-.6l-.007,0-.26-.12c-2.667-1.232-4.969-2.3-6.593-2.3a2.1,2.1,0,0,0-2.176,1.525c-4.556.828-5.066,2.463-5.56,4.045a4,4,0,0,1-3,3.173l0-.012c.17-.485.455-1.3.13-1.8a1.093,1.093,0,0,0-.882-.43l-6.12,4.522a.915.915,0,0,1-.481-.663c-.024-.446.476-.875,1-1.328.579-.495,1.175-1,1.061-1.546-.121-.574-1.042-1.112-2.817-1.646-.581.162-1.2.337-1.9.535l-.175.05c-7.437,2.1-12.811,3.623-18.572,3.623a33.659,33.659,0,0,1-7.817-.944c-3.037.2-4.7.76-5.1,1.711-.431,1.044.751,2.391,1.8,3.579l0,.005c.871.993,1.621,1.848,1.376,2.39-.174.385-.857.573-2.086.573-.5,0-1.094-.031-1.78-.093q-.159-.345-.319-.7l-.014-.034a16.777,16.777,0,0,0-3.188-5.211,11.012,11.012,0,0,0-7.142-2.969,13.337,13.337,0,0,0-3.027,2.851l-.005.006c-1.386,1.649-2.695,3.206-6.881,4.215l.364-5.755c-.891.026-1.753.068-2.63.113h-.015l-.124.006c-1.087.054-2.113.106-3.048.106a8.073,8.073,0,0,1-3.777-.635,2.912,2.912,0,0,1-1.485-2.753,15.589,15.589,0,0,1-6.811,1.751,12.129,12.129,0,0,1-4.245-.781c-1.694.539-2.633,1.321-2.79,2.322-.432,2.788,5.2,6.773,8.922,9.41a27.073,27.073,0,0,1,3.039,2.316,39.681,39.681,0,0,0-9.565-3.031,29.143,29.143,0,0,1-6-1.738,13.191,13.191,0,0,1-5.151-4.219l8.034-1.458a22.767,22.767,0,0,0-8.787-2.092,13.545,13.545,0,0,0-5.907,1.37c-.287.131-.564.263-.809.38l0,0-.035.017a7.548,7.548,0,0,1-3.094,1.007c-1.73,0-3.4-1.427-5.755-4.927.4.032.815.049,1.234.049a17.01,17.01,0,0,0,5.74-.993c1.746-.655,2.9-1.527,3.258-2.456a2.086,2.086,0,0,0-.842-2.364l-8.5,2.939a.524.524,0,0,1-.1-.469c.121-.355.733-.553,1.325-.743.542-.176,1.053-.341,1.068-.607s-.428-.573-1.388-1a61.2,61.2,0,0,0-9.493,6.119l.105-.36-14.012.848c.738-.179,1.192-.577,1.157-1.017-.032-.421-.551-.911-1.91-1.023l-10.031,3c.846-.4,1.247-.842,1.19-1.317-.062-.519-.685-1.068-1.8-1.587a19.614,19.614,0,0,0-4.14-1.272,15.8,15.8,0,0,0-2.113-.151,9.627,9.627,0,0,0-5.147,1.334,12.731,12.731,0,0,0-3.182,2.937c-.242.3-.483.6-.69.866l-.01.012c-1.455,1.847-2.712,3.442-4.937,3.442a8.8,8.8,0,0,1-4.21-1.4c.108.009.22.014.333.014a3.432,3.432,0,0,0,1.249-.248l.006,0,.007,0a3.454,3.454,0,0,1,1.249-.246c.1,0,.216.005.337.015l-5.3-2.589a5.239,5.239,0,0,1-1.489,3.58,8.141,8.141,0,0,1-3.551,1.944c-2.9.872-6.78,1.019-10.529,1.161h-.01c-3.753.143-7.635.29-10.529,1.163a8.068,8.068,0,0,0-3.538,1.947,5.216,5.216,0,0,0-1.469,3.585c-2.414-1.572-3.324-2.426-3.248-3.045.081-.659,1.243-1.06,3.168-1.724l.011,0a40.077,40.077,0,0,0,8.644-3.923l-8.042-3.531a14.736,14.736,0,0,1,2.145-.138c.51,0,1.028.017,1.485.032h.027c.524.018,1,.033,1.484.033a12.053,12.053,0,0,0,4.135-.627,18.6,18.6,0,0,0-8.233-1.944,23.063,23.063,0,0,0-8.988,1.977,55.827,55.827,0,0,0-7.087,3.746c-.351.21-.759.453-1.148.681-1.516-.66-1.524-2.144-1.532-3.579a5.178,5.178,0,0,0-.473-2.692c-.518-.822-1.569-1.222-3.211-1.222a18.645,18.645,0,0,0-3.317.364c-3.833.6-5.917,1.489-6.371,2.706-.433,1.163.641,2.432,1.678,3.659l.007.007c.876,1.038,1.7,2.018,1.419,2.778-.219.591-1.1,1-2.7,1.252l-7.272-6.288a30.487,30.487,0,0,1-11.852,2.33,66.659,66.659,0,0,1-11.251-1.26l-.029-.005c-2.743-.47-5.58-.956-8.479-1.162-2.023.457-3.3,1.068-3.914,1.869a18.855,18.855,0,0,0-4.389-.5c-4.128,0-8.265,1.2-12.493,2.539l-.456.144-.006,0-.228.073c-3.793,1.2-7.376,2.342-10.622,2.342a11.268,11.268,0,0,1-2.675-.3.622.622,0,0,0,.309-.535c-.034-.807-1.811-1.866-3.53-2.89l-.015-.009a12.014,12.014,0,0,1-2.9-2.049l-14.225,3.912c5.026-1.438,5.53-4.129,6.065-6.978l0-.008c.1-.527.221-1.183.382-1.8a18.61,18.61,0,0,0-6.127,1.7l-.008,0a15.167,15.167,0,0,1-3.654,1.2l.007-.005c1.172-.829,2.385-1.687,2.356-2.633-.016-.544-.437-1.065-1.286-1.594q-1.329.539-2.658,1.074l-1,.4-.036.014-.122.049-.027.011c-3.7,1.493-7.532,3.037-11.286,4.607a11.3,11.3,0,0,0,4.3.952,36.715,36.715,0,0,0-3.733.4l-.025,0-.019,0a51.566,51.566,0,0,1-7.06.632,15.965,15.965,0,0,1-7.146-1.408,6.323,6.323,0,0,1,1.252-2.058,6.282,6.282,0,0,0,1.273-2.11,6.935,6.935,0,0,0,4.142,1.77c2.26,0,3.742-1.869,5.176-3.677l.214-.27.078-.1c-1.822.133-3.092.194-4,.194-1.171,0-1.764-.1-1.981-.344a.786.786,0,0,1-.094-.635c.071-.654.167-1.547-2.124-2.6a12.709,12.709,0,0,0-5.534,1.306,6.323,6.323,0,0,0-2.847,2.761,3.837,3.837,0,0,0,.366,4.081c-.8-.116-1.54-.227-2.16-.32l-.015,0a50.735,50.735,0,0,0-7.282-.767c-3.216,0-6.158.763-10.5,2.721l1.185-4.964-7.912,1.677,5.956-6.12a23.862,23.862,0,0,0-4.526-.54c-3.542,0-4.033,1.54-4.553,3.17l-.019.06-.036.11-.038.115a4.459,4.459,0,0,1-1.463,2.36,7.429,7.429,0,0,1-4.5,1.071,31.076,31.076,0,0,1-4.331-.361l-.489-4.343a14.733,14.733,0,0,0-5.7,3.435c-1.48,1.258-2.759,2.345-4.3,2.345a5.647,5.647,0,0,1-3.629-1.787c-.859.38-1.3.788-1.339,1.248-.074.813,1.118,1.624,2.27,2.408l.014.009c1.034.7,2.01,1.369,1.859,1.938-.191.709-2.146,1.179-6.155,1.477-3.345-2.546-10.355-4.044-13.214-4.57-.967.431-1.4.931-1.281,1.485.336,1.571,4.949,3.047,7.541,3.047h.061c-1.118.1-2.193.144-3.194.144-7.328,0-10.814-2.517-13.757-5.094-.227-.2-.454-.4-.673-.6l-.1-.085c-2.509-2.239-4.879-4.354-9.451-4.354a25.392,25.392,0,0,0-7.365,1.312c2.989,1.214,2.734,2.869,2.509,4.329a2.748,2.748,0,0,0,.3,2.357c.827.965,3.127,1.414,7.239,1.414.508,0,1.038-.007,1.577-.021a9.476,9.476,0,0,1-3.2.52,26.8,26.8,0,0,1-7.517-1.547l-.015,0-.043-.014-.011,0a27.041,27.041,0,0,0-7.647-1.561,9.639,9.639,0,0,0-5.388,1.543l4.667-5.665h-.082c-2.322,0-4.742,1.31-6.343,2.178l-.009,0-.009,0c-.41.222-.8.433-1.114.582l.145-4.287a12.689,12.689,0,0,1-8.63,3.011,36.762,36.762,0,0,1-4.349-.334l-.012,0-.141-.017-.034,0a33.079,33.079,0,0,0-3.818-.309c-2.437,0-5.185.535-7.084,4.5.609-1.494.74-2.467.4-2.975a1.249,1.249,0,0,0-1.123-.443,14.892,14.892,0,0,0-3.454.744l-.009,0-.021.006-.415.119-.079.023a18.106,18.106,0,0,1-4.7.881,4.4,4.4,0,0,1-2.493-.639c3.51-2.593,8.884-2.889,13.625-3.151,5.568-.307,10.376-.572,10.49-4.432a6.257,6.257,0,0,0-2.837-.666,13.344,13.344,0,0,0-2.846.4l-.018,0-.021,0a13.3,13.3,0,0,1-2.785.4,5.9,5.9,0,0,1-2.7-.638c2.148-.965,6.017-3.007,6.888-4.557a24.051,24.051,0,0,0-6.452-.937,20.9,20.9,0,0,0-7.641,1.472,46.9,46.9,0,0,0-6.239,3.118l-.008,0a30.691,30.691,0,0,1-6.795,3.162l13.518-1.975c-.043,1.75-.424,2.837-1.2,3.423a4.943,4.943,0,0,1-2.656.678c-1.8.138-3.834.294-5.283,2.937a11.5,11.5,0,0,0-5.214-1.265,20.319,20.319,0,0,0-4.983.79l-.141.036-.012,0a18.891,18.891,0,0,1-4.582.759,8.365,8.365,0,0,1-2.982-.532h.013a3.041,3.041,0,0,0,1.478-.346,3.047,3.047,0,0,1,1.192-.335c-.27.007-.5.009-.689.009-7.211,0-12.186-2.82-16.1-5.579-.861-.608-1.685-1.222-2.347-1.716l-.008-.005c-2.794-2.081-5-3.724-7.285-3.748a12.317,12.317,0,0,0-1.6-.1,21.673,21.673,0,0,0-7.241,1.383c-2.375.9-3.917,2.013-4.229,3.06-.21.705.131,1.355,1.015,1.932-.4.186-.585.323-.564.419.039.178.811.2,1.639.2.363,0,.777-.005,1.215-.011l.159,0,.321-.005c.448-.006,1.04-.013,1.642-.013a32.1,32.1,0,0,1,5.544.384c1.919.36,3.117,1,3.562,1.9.486.985.1,2.315-1.156,3.953a13.486,13.486,0,0,0-4.082-3.023,9.4,9.4,0,0,0-3.966-.839,26.073,26.073,0,0,0-7.007,1.377l-.016,0-.062.017-1.028.294a36.384,36.384,0,0,1-10.209,1.653,31.781,31.781,0,0,1-10.277-1.784c1.527-.818,2.313-1.6,2.4-2.385.112-.97-.836-1.8-1.752-2.6-.853-.749-1.658-1.456-1.545-2.213.088-.6.748-1.166,2.016-1.741a25.227,25.227,0,0,0-7.289,1.754,11.857,11.857,0,0,0-3.5,2.689l-.012.013-.048.047c-.422.418-.9.892-1.459,1.4l-3.2-3.244a25.151,25.151,0,0,0-5.945,5.745c-1.5,2.025-1.951,2.635-12.6,5.517.9-.46,1.333-.911,1.334-1.383,0-.874-1.525-1.667-3-2.434l-.011-.006c-1.451-.755-2.819-1.468-2.846-2.248-.012-.351.249-.684.8-1.018-.1,0-.22,0-.4,0a26.731,26.731,0,0,0-6.753.836,18.625,18.625,0,0,0-5.538,2.382l.563-.5a56.718,56.718,0,0,1-7.412.543,36.514,36.514,0,0,1-7.626-.8l-.263-.051-.161-.031a28.045,28.045,0,0,0-5.747-.7c-.5,0-1.014.018-1.533.052V606.654c2.162-.438,3.27-.937,3.489-1.569a1.093,1.093,0,0,0-.333-1.056c3.676,3.113,8.843,3.725,13.4,4.265,3.127.371,6.08.721,8.128,1.828,2.276,1.23,3.2,3.26,2.9,6.389.292.015.593.023.892.023,4.114,0,5.008-1.551,5.175-2.475a3.96,3.96,0,0,0-2.435-3.9c1.335.017,2.453.026,3.517.026,8.935,0,15.775-.695,22.258-4.151.955.425,2.812.624,5.844.624,2.853,0,6.519-.178,10.4-.367l.066,0h.046c3.167-.153,6.442-.312,9.826-.41,1.672-.035,3.185-.052,4.625-.052a94.875,94.875,0,0,1,14.391.889c4.725.74,8.058,1.932,10.188,3.644-2-1.68-2.783-2.635-2.622-3.192s1.24-.7,2.735-.9h.01a18.086,18.086,0,0,0,5.669-1.452l-6.021-5.068,13.315.246a12.756,12.756,0,0,1,2.45-.342c.652,0,.985.147,1.018.448.887.078,1.068.559,1.3,1.167.365.97.865,2.3,4.455,3.02.171,0,.339,0,.5,0,6.2,0,7.971-1.475,10.208-3.344l.015-.013a23.6,23.6,0,0,1,2.97-2.2l-1.478-.736,6.048-.639c.436.005.659.061.685.17.06.24-.843.722-1.987,1.332-2.052,1.1-4.86,2.594-4.627,3.965.175,1.029,2.1,1.834,5.72,2.394.008-.539,1.165-1.983,3.02-3.375,1.252-.939,3.72-2.513,6.189-2.513a4.554,4.554,0,0,1,2.974,1.028h-.284c-4.162,0-5.057,1.167-5.219,1.863-.237,1.008.745,2.313,2.336,3.1l10.537.128-4.3-6.5c1.295-.016,2.635-.023,3.987-.023,5.6,0,11.794.135,18.938.413,4.253.167,8.067.34,11.658.529l2.611.155.131.008,1.944.116,2.49.148,4.595.273c12.321.727,25.445,1.438,38.528,1.438,3.168,0,6.284-.042,9.262-.126.064,2.6,4.672,2.848,9.551,3.114,4.515.247,9.183.5,10.747,2.611a3.12,3.12,0,0,1,.405,2.746l-1.31-.795c-1.831.223-2.775.73-2.732,1.465.051.823,1.386,1.891,3.484,2.786a18.409,18.409,0,0,0,6.817,1.482,10.137,10.137,0,0,0,1.663-.128c-.963-.36-1.5-.8-1.631-1.35-.23-.945.788-2.071,1.771-3.16,1.014-1.122,2.063-2.282,1.686-3.207-.437-1.073-2.669-1.7-7.023-1.968l12.248-4.191a9.556,9.556,0,0,1,4.664-5.72,16.339,16.339,0,0,1,7.685-1.534,58.975,58.975,0,0,1,9,.86c1.768.283,3.541.6,5.418.939l.117.021c5.7,1.027,11.6,2.088,17.184,2.088a30.577,30.577,0,0,0,8.482-1.064,2.881,2.881,0,0,0-1.719,2.011,38.6,38.6,0,0,1,11.827-1.645A93.489,93.489,0,0,1,2994.2,599.1c.86.159,1.708.32,2.457.462l.017,0,.157.03a57.153,57.153,0,0,0,8.836,1.287,4,4,0,0,0,2.235-.467l1.806,4.454c9.151-4.509,13.12-6.339,19.51-6.339a97.409,97.409,0,0,1,13.816,1.471,2.206,2.206,0,0,1-.329.58c-.285.413-.609.88-.453,1.343.136.4.615.735,1.464,1.014l.041-.035c3.487-2.895,7.092-5.888,16.14-5.888,1.184,0,2.451.052,3.767.153l-.413,1.4,18.563-.683c.108,3.236,1.9,4.742,5.643,4.742a50.478,50.478,0,0,0,10.015-1.642l.677-.153a55.892,55.892,0,0,1,11.66-1.777,12.806,12.806,0,0,1,5.845,1.166,7.952,7.952,0,0,1,3.859,4.273c2.395-2.753,9.475-4.181,15.722-5.44h.006c2.794-.564,5.43-1.1,7.311-1.69-.088-.913.833-1.687,2.815-2.367a.85.85,0,0,1,.032.732c-.247.574-1.178,1.109-2.846,1.635a2.69,2.69,0,0,0,1.482,1.846,9.166,9.166,0,0,1,7.085-2.783c3.435,0,7.414,1.218,10.61,2.2l.011,0,.42.129.012,0c3.451,1.057,6.711,2.055,9.428,2.055a9.7,9.7,0,0,0,.99-.049c1.837-.629,2.834-1.37,3.047-2.265.312-1.314-1.121-2.781-2.507-4.2a13.6,13.6,0,0,0,6.886,1.623c4.321,0,8.957-1.357,13.323-2.823.7-.235,1.375-.466,2.182-.744,3.329-1.145,6.2-2.134,8.041-2.134a2.609,2.609,0,0,1,1.453.343c1.97.172,3.247.637,3.9,1.42.74.885.634,2.058.522,3.3a5.37,5.37,0,0,0,.521,3.66c5.149-.55,5.09-3.278,5.042-5.47-.022-1.038-.04-1.935.471-2.458a1.958,1.958,0,0,1,1.464-.466,19.789,19.789,0,0,1,6.011,1.575c-.43.145-.957.282-1.467.414l-.015,0-.007,0c-1.184.308-2.408.627-2.475,1.035-.022.128.07.258.28.4,2.379.509,5.506,3.519,8.817,6.706,3.953,3.8,8.037,7.735,11.206,7.735a3.271,3.271,0,0,0,1.6-.4l-3.749-2.51a10.905,10.905,0,0,1,3.429-.524c3.614,0,7.49,1.515,10.84,2.935l.811.345.309.132.068.03.014.006c2.989,1.28,5.57,2.386,7.506,2.386,1.811,0,2.832-.979,3.212-3.08l-.959-4.326c5.024,1.667,8.214,2.411,10.343,2.411a9.1,9.1,0,0,0,2.49-.362l.076-.019a10.03,10.03,0,0,1,2.75-.38c2.188,0,5.368.624,10.008,1.964l-.233.71c.515-.048,1.033-.072,1.539-.072a23.219,23.219,0,0,1,5.324.717l.242.056.241.056a16.948,16.948,0,0,0,3.665.588c2.124,0,3.635-1.047,5.055-3.5l-2.7-1c2.1-.073,3.853-.108,5.356-.108,3.239,0,5.335.159,8.235.378h.005c1.783.135,4,.3,7.052.471a12.083,12.083,0,0,1,4.593-.883,4.014,4.014,0,0,1,2.8.8c.213-2.146,3.567-3.234,9.966-3.234a134.585,134.585,0,0,1,15.4,1.22c.914.112,1.776.218,2.324.271-2.919.251-4.487.775-4.793,1.6-.325.876.742,1.965,1.872,3.118l.015.015.007.007c.262.268.56.571.825.862a17.2,17.2,0,0,1,3.748-2.885,7.572,7.572,0,0,1,3.633-.955c1.913,0,4.066.724,6.982,2.347.628-3.908,1.316-7.365,3.37-10.088,2.4-3.186,6.36-4.768,12.1-4.838-.518.267-1.1.5-1.667.722l-.027.01c-1.189.471-2.312.914-2.478,1.549a.9.9,0,0,0,.254.8,1.919,1.919,0,0,0,1.561.64,9.21,9.21,0,0,0,3.68-1.182l.052-.026c.557.685,0,1.275-.652,1.958-.778.823-1.66,1.754-.933,3.122a14.1,14.1,0,0,1,8.965-3.108,39.573,39.573,0,0,1,5.576.543l.4.057a48.347,48.347,0,0,0,7.083.619,31.6,31.6,0,0,0,5.453-.469c-1.163.594-1.79,1.182-1.916,1.8-.159.784.475,1.545,1.209,2.425a10.551,10.551,0,0,1,1.317,1.828c.269-1.649,1.136-2.451,2.649-2.451,1.672,0,3.9,1,5.686,1.8a12.63,12.63,0,0,0,3.919,1.364.879.879,0,0,0,.793-.343c.353-.521.167-1.665-.567-3.5,11.742,3.411,26.8,4.044,40.082,4.6,14.125.594,26.323,1.107,30.981,4.721a2.982,2.982,0,0,0,2.522,1.03,20.61,20.61,0,0,0,5.61-1.294,20.731,20.731,0,0,1,5.605-1.3l-.828,3.54c6.373-3.152,8.7-3.62,11.394-4.163,2.573-.519,5.488-1.108,12.492-4.059-2.5,1.66-3.656,3.026-3.642,4.3.019,1.779,2.341,3.389,5.374,5.308l10.167-7.071,1.428,5.573a11.634,11.634,0,0,1,5.217-1.139,32.042,32.042,0,0,1,7.4,1.183c2.495-3.347,8.4-4.4,13.612-5.328l.015,0c3.852-.687,7.177-1.281,8.351-2.671a5.021,5.021,0,0,0,4.949,3.273,18.029,18.029,0,0,0,2.672-.272l.011,0,.062-.01a17.031,17.031,0,0,1,2.533-.266c1.358,0,3.034.333,3.951,2.933a21.673,21.673,0,0,1,5.46-2.409c-1.194-2.259-1.615-4.3-1.075-5.2a1.1,1.1,0,0,1,1.011-.515,3.99,3.99,0,0,1,1.61.449,4.152,4.152,0,0,1,.517-.052h.024c.115-.007.245-.015.384-.034l-1.14-3.951a1.687,1.687,0,0,1,.261-1.244.639.639,0,0,1,.484-.19c1.068,0,3.107,1.713,5.469,3.7l.046.039.016.013c1.016.853,2.068,1.735,3.1,2.528a13.613,13.613,0,0,0-5.478-1.125,17.364,17.364,0,0,0-2.761.232l1.272,4.388a54.416,54.416,0,0,1,10.572-1.185h.209a15.128,15.128,0,0,1-3.813-2.31c1.168.508,2.287,1.108,3.274,1.637l.014.006c.4.213.845.454,1.288.682a10.322,10.322,0,0,1,1.409.1,2.05,2.05,0,0,1-.858.179h-.017a10.2,10.2,0,0,0,4.469,1.131,11.076,11.076,0,0,0,3.876-.763,17.793,17.793,0,0,0,8.707,2,61.869,61.869,0,0,0,12.319-1.747l.17-.036,1.348-.28a58.676,58.676,0,0,1,11.606-1.523c.154,0,.308,0,.458,0a19.963,19.963,0,0,1,11.337,3.442,10.08,10.08,0,0,0-4.071-1.013,2.7,2.7,0,0,0-2.336.917,67.287,67.287,0,0,1,14.988,2.394l.708.173.039.009.122.03.125.031c4.447,1.091,8.646,2.121,12.365,2.121a14.485,14.485,0,0,0,4.8-.732l-.089-4.047c7.479-1.084,13.675-1.912,19.66-1.912,1.669,0,3.237.062,4.793.191l.992-4.53a34.034,34.034,0,0,0,6.647.5c2.447,0,5.051-.115,7.807-.238l.331-.014h.008c2.462-.109,5.527-.245,8.4-.245a41.637,41.637,0,0,1,10.694,1.071c3.358.906,5.583,2.4,6.8,4.575.742-.815,2.013-1.211,3.884-1.211a43.8,43.8,0,0,1,7.7,1.074l.137.027a46.164,46.164,0,0,0,8.094,1.106,11.955,11.955,0,0,0,1.575-.1l1.075,3.569a41.727,41.727,0,0,0,8.321.865,56.663,56.663,0,0,0,8.872-.837l.135-.02.768-.116a34.505,34.505,0,0,0,9.554,3.4,48.308,48.308,0,0,0,9.644.877c3.87,0,7.82-.339,11.3-.638l.212-.018c3.749-.322,7.289-.626,10.821-.626,1.577,0,3.013.061,4.391.188l-.027,1.013,14.975-1.671a8.052,8.052,0,0,0-1.3.937s.006.006.014.006a4.475,4.475,0,0,0,.7-.264l.006,0,.017-.007.021-.009c.477-.2,1.13-.469,1.9-.74a14.579,14.579,0,0,1,4.689-.983,5.643,5.643,0,0,1,1.426.167,16.811,16.811,0,0,1,4.646-.588,30.133,30.133,0,0,1,12.745,3.039l9.259.7c-2.978.492-4.492,1.121-4.765,1.981s.725,1.858,1.886,3c1.246,1.232,2.658,2.628,2.611,4.115l6.48-2.834a1.15,1.15,0,0,1,.41.892c-.044.553-.653,1-1.19,1.4l-.006,0c-.476.349-.886.651-.83.953.053.283.518.534,1.463.791,1.692-.738,4.543-1.056,7.561-1.393l.013,0c4.764-.531,10.162-1.134,12.851-3.516-.364-.967-1.488-2-3.251-3a2.024,2.024,0,0,1-.4.139c-.008,0-.013,0-.014-.005-.007-.023.152-.134.272-.215-.073-.043-.134-.086-.193-.128l-.009-.006c-.056-.039-.106-.073-.165-.108l.1.036.04.015c.106.041.188.071.339.117a9.877,9.877,0,0,0,1.909-1.489,22.039,22.039,0,0,0,3.738.478c.722,0,1.148-.117,1.341-.368.224-.288.112-.72-.018-1.22v-.008a4.117,4.117,0,0,1-.182-1.162,19.413,19.413,0,0,0,9.045,4.785c2.787.794,5.42,1.544,7.872,4.748-.467-.807-.566-1.42-.305-1.872.378-.655,1.522-.961,3.6-.961,1.238,0,2.631.1,4.106.206l.059,0c1.457.1,2.964.214,4.334.214,2.505,0,3.917-.386,4.441-1.215a2.349,2.349,0,0,0-.165-2.307c2.612,3.509,3.633,3.518,4.454,3.526.75,0,1.292.008,2.7,2.723a17.108,17.108,0,0,0-4.494-.57c-5.253,0-10.852,2.06-15.791,3.877l-.008,0c-1.95.718-3.793,1.4-5.558,1.932l6.206,4.248a6.193,6.193,0,0,1-4.938,2.36c-2.239,0-4.6-.992-7.032-2.1l-.444-.2,0,0c-2.115-.966-4.112-1.879-5.747-1.879a3.289,3.289,0,0,0-1.433.3,6.011,6.011,0,0,1,2.615-.512,11.42,11.42,0,0,1,4.025.781,3.849,3.849,0,0,1,2.247,1.65l-.788-5.322a24.306,24.306,0,0,0-7.068-1.015c-5.472,0-10.715,1.7-15.34,3.194l-.044.014c-1.049.339-2.132.69-3.186,1.009,1.052.375,1.566.724,1.569,1.064.007.533-1.209,1-2.616,1.537-1.825.7-3.893,1.493-4.158,2.7a1.871,1.871,0,0,0,.7,1.66l5.337-.333a1.213,1.213,0,0,1,.432,1.1c-.244,1.122-2.575,2.021-4.829,2.89l-.014.005c-.749.289-1.457.561-2.114.852-7.581-2.477-18.811-3.284-28.719-4l-1.146-.082c-5.349-.387-10.084-.753-13.86-1.3-4.308-.628-6.871-1.418-8.064-2.487a10.584,10.584,0,0,0,4.613.847,22.117,22.117,0,0,0,8.146-1.562l-7.368-2.711a20.222,20.222,0,0,1,7.108,1.885l.012,0,.008,0a24.931,24.931,0,0,0,9.921,2.333,22.51,22.51,0,0,0,3.023-.21c-.355-1.288.418-2.7,1.237-4.185,1.452-2.642,3.1-5.637-.891-8.96a21.927,21.927,0,0,0-7.762-1.653c-3.886,0-6.7,1.569-9.679,3.229l-.026.015-.233.13c-.3.165-.585.326-.876.484a31.946,31.946,0,0,1-5.889,2.614,27.03,27.03,0,0,1-8.206,1.185,40.242,40.242,0,0,1-4.716-.294.931.931,0,0,1-.321.1.084.084,0,0,1-.08-.034c-.052-.086.067-.321.233-.646l0-.005a5.414,5.414,0,0,0,.576-1.5,1.492,1.492,0,0,0-.3-1.287c-.55-.65-1.811-.98-3.748-.98a26.189,26.189,0,0,0-2.684.158,54.792,54.792,0,0,0-19.067,6.956,25.193,25.193,0,0,0-5.991,5.056,11.406,11.406,0,0,0-2.708,5.556l.021-.009.009,0c3.772-1.111,10.084-2.97,14.6-2.97a8.6,8.6,0,0,1,3.671.651,3.037,3.037,0,0,1,1.789,2.285c-1.867.552-4.145,1.017-6.347,1.466l-.058.012h-.009c-5.333,1.085-10.848,2.207-11.6,4.683-.9-1.148-1.208-2-.939-2.61.44-.995,2.385-1.135,4.1-1.259,1.44-.1,2.8-.2,2.982-.8.143-.472-.466-1.232-1.864-2.322-.092,0-.185,0-.274,0a12.443,12.443,0,0,0-6.7,2.042l-.008,0-.01.006c-.5.281-1.01.572-1.511.8a1.838,1.838,0,0,0,.9-1.483c-.042-1.145-1.651-2.2-3.069-3.127l-.008-.005a8.029,8.029,0,0,1-1.984-1.564,119.915,119.915,0,0,1-17.544-2.5l-.279-.056-.079-.016-.951-.19h-.01c-2.263-.452-4.6-.919-7.095-1.337-3.432-.554-6.562-.943-9.851-1.224-.5-.736-2.023-2.968-1.345-4.59-5.909,1.109-14.445,7.011-16.6,11.482a3.28,3.28,0,0,0-.24,3,24,24,0,0,1-7.11-1.078q-.278-.083-.545-.166l-.076-.023-.007,0a14.431,14.431,0,0,0-4.65-.851,18.787,18.787,0,0,0-3.5.373c3.149,1.835,4.247,2.494,4.2,2.669-.01.036-.07.054-.186.054a8.012,8.012,0,0,1-.883-.1l-.078-.011-.35-.049a16.731,16.731,0,0,0-2.209-.172c-2.5,0-4.055.878-4.632,2.609-.407.021-.772.031-1.087.031-1.525,0-2.434-.216-2.861-.679a1.92,1.92,0,0,1-.282-1.551,2.035,2.035,0,0,0-1.127-2.437c-1.421.649-4.484,2.512-4.879,4.126-1.881-2.327.393-5.086,2.8-8.008,2.586-3.139,5.26-6.385,2.872-9.315-1.928-2.133-8.64-5.945-18.9-10.736-.2-.094-.352-.164-.436-.2l-.019-.009c-1.958,2.361-3.472,8.615-3.856,15.933a56.03,56.03,0,0,0,.31,10,19.993,19.993,0,0,0,2.216,7.531c-.175.626-.494.93-.974.931-.971,0-2.455-1.257-4.026-2.588l-.007-.006c-1.62-1.373-3.292-2.79-4.591-3.01a9.889,9.889,0,0,0-5.9-2.056,18.127,18.127,0,0,0-6.9,1.852l-.1.042a17.479,17.479,0,0,1-6.6,1.817,7.766,7.766,0,0,1-2.639-.451l6.254-2.946c-.306-.425-1.477-.66-3.3-.66-4.033,0-10.028,1.1-11.423,2.472-.023-.689.785-2.075,1.721-3.681l0-.007,0,0a30.368,30.368,0,0,0,2.529-5.018c.644-1.89.491-3.176-.466-3.929a25.12,25.12,0,0,0-3.083-.189,28.864,28.864,0,0,0-7.143.929,34.633,34.633,0,0,0-9.026,3.833c-5.319,3.221-8.819,7.4-8.707,10.4,2.366-.581,4.757-1.177,7.069-1.753l.233-.058.092-.024.054-.013.05-.012c4.725-1.177,9.612-2.395,14.449-3.536.09,2.391-3.435,3.5-7.166,4.669-4.12,1.295-8.38,2.633-8.265,5.82Zm-453.649-20.329c-1.265,0-2.294.914-3.337,2.965a2.441,2.441,0,0,0,2.2,1.078,13.5,13.5,0,0,0,4.925-1.542l.043-.02.01,0c.479-.217.931-.423,1.314-.571-.748-.282-1.441-.6-2.053-.889l-.009,0-.014-.007a8.216,8.216,0,0,0-3.031-1h-.048ZM3371.3,626.2a12.789,12.789,0,0,0-1.805.129,10.73,10.73,0,0,0,5.084,1.8,3.43,3.43,0,0,0,2.2-.727,13.7,13.7,0,0,0-5.265-1.2Zm507.423-9.662h0l0,0c0,.009.24.107,1.055.435.37.149.953.385,1.951.789a1.581,1.581,0,0,1,.284-.2c-1.237-.363-2.235-.691-2.772-.867-.323-.106-.493-.161-.514-.161Zm-319.931-4.421c-.68,0-1.012.067-1.111.218-.08.122-.006.294.088.513l0,.005a2.222,2.222,0,0,1,.218.764A5.9,5.9,0,0,1,3558.79,612.121Zm-813.824-10.4h0l-.129.148-.006.006c-.5.575-.981,1.118-.865,1.377.05.11.2.164.461.164a11.745,11.745,0,0,0,2.771-.613Zm857.3,48h-.115a12.892,12.892,0,0,1-3.044-.507c-.745-2.123-.879-3.361-.45-4.137.5-.9,1.722-1.174,3.578-1.6l.032-.007a38.486,38.486,0,0,0,3.816-1.025c-.32.223-.461.431-.432.638.076.527,1.267.926,2.527,1.349,1.322.445,2.688.9,2.8,1.538.045.242-.091.491-.417.76a9.859,9.859,0,0,0-3.122-.7c-1.454,0-1.819.816-2.2,1.68l-.018.04-.02.043-.04.089A2.7,2.7,0,0,1,3602.267,649.716Zm231.03-.215h0c-2.881-.065-4.313-.288-4.379-.682-.075-.435,1.476-1.022,3.118-1.644l.012,0c1.5-.57,3.06-1.159,3.42-1.662,2,.456,2.977.883,3,1.3.028.486-1.177.911-2.454,1.361l-.008,0a6.958,6.958,0,0,0-2.708,1.323Zm-774.64-.787h-.2c-.142,0-.3-.008-.478-.019-.266-1.536-.255-2.374.035-2.718a.567.567,0,0,1,.463-.194,5.7,5.7,0,0,1,1.909.688l.014.007c.3.14.592.277.912.418a12.541,12.541,0,0,0,3.736,1.091c-.853.078-1.74.213-2.521.332h-.006A26.509,26.509,0,0,1,3058.657,648.714Zm7.371-.674-.163,0c-.271,0-.545-.022-.813-.052.5-.044.94-.065,1.345-.065.289,0,.57.011.834.033A8.438,8.438,0,0,1,3066.029,648.04Zm910.284-.067h0c-.417-.216-.64-.454-.68-.729-.073-.5.479-1.034,1.012-1.55.458-.44.888-.854.906-1.223l-8.562,1.753c-.391-3.426,3.728-5.346,7.362-7.039,2.49-1.161,4.842-2.258,5.254-3.663a1.843,1.843,0,0,0-.3-1.556,8.209,8.209,0,0,1,2.563,2.118l.061.069.071.081v7.624a13.123,13.123,0,0,0-4.563,1.2,5.791,5.791,0,0,0-3.125,2.919Zm-253.921-.061c-2.008-.268-3.262-.748-3.727-1.428a1.2,1.2,0,0,1-.169-1,8.333,8.333,0,0,0,3.9,2.426Zm133.172-.415v0l1.169-5.543a12.793,12.793,0,0,1,.651,1.131,4.812,4.812,0,0,0,2.438,2.485l-4.258,1.928Zm-640.776-.452h0l-4.957-3.337.031,0c2.933.271,4.406.407,5.392,1.933l-.465,1.4ZM3001.945,644.7h0l3.61-4h0v0a1.864,1.864,0,0,1,.308-.782,1.067,1.067,0,0,0,.158.018h.009a.988.988,0,0,1,.2.027l-.668.737h0a3.665,3.665,0,0,0,.176,1.571c.157.6.306,1.17-.019,1.595C3005.289,644.408,3004.093,644.674,3001.945,644.7Zm942.722-.771-7.358-1.756,5.3.677,2.061,1.077h0Zm10.643-.667h0l-4.2-1.153,3.357-3.435.844,4.586Zm-440.915-.375h0l0,0,8.471-14.247,2.891,11.351a13.053,13.053,0,0,0-4.01-.825c-2.278,0-4.544,1.148-7.349,3.722Zm-659.431-.405h0c.329-.029.611-.056.89-.087A4.441,4.441,0,0,1,2854.964,642.477Zm751.128-.037h0a11.291,11.291,0,0,1,3.151-1.269,24.745,24.745,0,0,1-3.148,1.271Zm-475.3-.194h0l-1.472-.121-1.453-5.17,2.927,5.29Zm395.048-1.933h0l-.08-.328c.114.043.281.1.449.149a.856.856,0,0,0-.163.084.672.672,0,0,1-.2.1Zm399.921-1.053h0l-7.368-1.735c.019-.415.5-.608,1.5-.608a35.646,35.646,0,0,1,4.307.458l.03,0c1.254.177,2.55.359,3.847.487a25.148,25.148,0,0,1,4.787-.365c.46,0,.954.007,1.468.022a8.553,8.553,0,0,1-3.327.514c-.115,0-.232,0-.35,0-.755-.013-1.6-.068-2.577-.167-1.064.219-2.29.573-2.318,1.393Zm-791.971-1.836h0l3.283-1a13.414,13.414,0,0,1-3.282,1Zm27.425-.688h0c-.306-.024-.486-.111-.535-.258-.092-.276.272-.779,1.082-1.494l-.546,1.751Zm-14.3-1.162h-.094c-.112,0-.23-.007-.362-.018l1.4-.083A4.072,4.072,0,0,1,3146.911,635.574Zm684.14-.658-.151,0c-1.48-.026-2.553-.424-2.871-1.065a1.085,1.085,0,0,1,.2-1.154l8.51-.82a.883.883,0,0,1,.167.792c-.221.65-1.421,1.057-2.691,1.488l-.027.009c-.589.2-1.2.408-1.744.651A10.2,10.2,0,0,1,3831.05,634.916Zm-475.362-.14a25.282,25.282,0,0,1-6.325-2.643l6.326,2.641h0Zm572.383-.5h0a2.792,2.792,0,0,1,1.526-1.755,3.688,3.688,0,0,0-1.524,1.755Zm29.5-.485c-.085,0-.168,0-.25,0a4.118,4.118,0,0,1-3.015-.892,2.4,2.4,0,0,1-.56-1.837l.009,0a32.745,32.745,0,0,1,6.682-1.235c1.086,0,1.768.244,2.085.746.365.58.241,1.49-.379,2.784a3.11,3.11,0,0,0,.682.053h.164c-.609.045-1.215.1-1.8.153h-.006l-.039,0-.022,0C3959.846,633.682,3958.638,633.792,3957.574,633.792Zm10.967-.239h0a15.25,15.25,0,0,0-2.877-.239c-.46,0-.965.014-1.544.042a19.7,19.7,0,0,0,2.382-.5l.027-.007a8.407,8.407,0,0,1,1.7-.329c.239,0,.391.056.465.171.1.161.052.442-.147.859Zm-201.269-.18a4.858,4.858,0,0,1-.6-.551l.054,0,.08.007.032,0,.049,0,.054.005.022.034.006.01.048.07.051.075,0,.005a1.551,1.551,0,0,1,.2.33h0Zm-411.055-.455c-.953-.419-1.464-.869-1.52-1.335-.042-.345.163-.7.612-1.041a4.521,4.521,0,0,0,.91,2.375Zm357.433-.852h0l-2.119-.029,2.966-9.12-.846,9.148Zm-933.581-1.09h0c-.045,0-.07-.012-.076-.033-.029-.115.569-.532,1.686-1.175a2.826,2.826,0,0,0,.445.227l.016.007.008,0c.087.038.17.074.25.116A10.071,10.071,0,0,1,2780.068,630.977Zm1196.554-9.244h0l-3.094-1.623,4.342-1.877-1.246,3.5ZM3949,618.817h0c-.278-.144-.534-.291-.816-.455a8.615,8.615,0,0,0-5.066-1.359l6.261-.6c-.754.223-.616.912-.483,1.578v.01a3.733,3.733,0,0,1,.1.825Zm-45.292-.17-.172,0c-1.018-.017-1.581-.2-1.672-.53-.109-.4.474-1.013,1.642-1.732,1.659-1.022,4.43-2.161,5.754-2.161.353,0,.574.083.656.247.1.208-.016.543-.358,1-.121-.185-.233-.275-.344-.275-.272,0-.492.569-.747,1.228l-.033.086-.01.026c-.047.12-.094.242-.144.364-.339.838-.78,1.695-1.476,1.695a1.11,1.11,0,0,1-.514-.14A21.377,21.377,0,0,1,3903.71,618.647Zm17.876-.429a20.894,20.894,0,0,1-3.81-1.412,19.46,19.46,0,0,1,3.81,1.409Zm2.393-1.317-.157-.031-.383-.075-.067-.013h-.006c-.63-.123-1.282-.25-2.074-.435a12.9,12.9,0,0,1,1.986-.216c.511,0,.81.085.888.252C3924.224,616.506,3924.16,616.68,3923.978,616.9Zm-6.21-.1a23.684,23.684,0,0,0-4.971-.731c2.065.066,3.371.075,4.377.075a.12.12,0,0,0-.066.106c.006.132.234.321.661.547h0Zm-.59-.656h0a2.364,2.364,0,0,1,1.034-.187c.294,0,.525.029.525.065a.014.014,0,0,1,0,.008A4.887,4.887,0,0,1,3917.178,616.148Zm-94.944-.977h-.042c-1.326-.024-3.021-1.073-4.984-2.288l-.017-.01c-1.009-.625-2.052-1.271-3.2-1.877a35.9,35.9,0,0,1,10.187,2.936A2.169,2.169,0,0,1,3822.235,615.171Zm-18.356-3.809c-.292-.152-.578-.28-.831-.392a10.307,10.307,0,0,1-1.268-.646,10.826,10.826,0,0,1,5.2-1.369,14.749,14.749,0,0,1,7.01,2.042,28.508,28.508,0,0,0-3.542-.216,43.829,43.829,0,0,0-6.573.582Zm-1183.736-7.344c-.241-.2-.477-.422-.7-.646a4.653,4.653,0,0,1,.7.645Z" transform="translate(-2617.5 2818)" fill="#fff"/>
    <path id="Subtraction_16" data-name="Subtraction 16" d="M3869.055,659.112h0l-19.359-2.535a23.359,23.359,0,0,0,4.455-.634c1.385-.342,3.121-.949,3.521-1.9a1.439,1.439,0,0,0-.472-1.561c-5.256-.034-5.629-.445-6.446-1.344a8.785,8.785,0,0,0-3.2-2.255,188.684,188.684,0,0,0,19.638-14.036,199.3,199.3,0,0,0,17.357-15.17l-10.557,2.96-2.23-3.051c-5.435,1.372-11.549,5.391-18.171,11.947a144.554,144.554,0,0,0-12.4,14.4l-.01.013-.1.129-.185.24-.057.074c-.278.359-.518.669-.734.944a5.086,5.086,0,0,1-4.141-3.684,13.467,13.467,0,0,1,2.409-10.544c-.485-.036-.981-.055-1.474-.055a15.965,15.965,0,0,0-7.871,2,33.831,33.831,0,0,0-5.864,4.388l-.153.135a34.916,34.916,0,0,1-5.677,4.311,14.728,14.728,0,0,1-7.409,1.949,19.007,19.007,0,0,1-2.645-.194l5.425,2.557a9.672,9.672,0,0,1-2.144.18c-1.687,0-3.925-.2-5.723-.362h-.012l-.019,0-.2-.017c-1.944-.176-3.776-.343-5.113-.343-1.159,0-1.8.13-1.949.4a.372.372,0,0,0,.044.387,13.656,13.656,0,0,1-2.91-5.7c-.586-2.42-.3-4.313.809-5.329l-13.23,8.948c1.031-.909,1.291-4.023,1.521-6.771v-.014c.163-1.946.3-3.626.686-4.221a3.907,3.907,0,0,0-.409-.021,5.907,5.907,0,0,0-4.048,1.945,12.259,12.259,0,0,0-2.7,4.181c-.829,2.146-.8,3.974.079,4.771a66.655,66.655,0,0,0-6.976-4.136l-.013-.007c-2.28-1.179-3.32-1.717-8.115-6.349-.75.117-1.224.727-1.372,1.762a10.923,10.923,0,0,0,.813,4.947c.673,1.79,1.559,3.124,2.313,3.479a26.287,26.287,0,0,1-7.263,1.128,21.683,21.683,0,0,1-7.133-1.293c7.823-2.231,7.3-9.973,6.843-16.8-.233-3.471-.454-6.75.452-8.942l-26.753,24.985c.959-1.539,3.482-9.7,3.415-10.681-.847,2.446-4.422,4.3-10.623,5.5a108.174,108.174,0,0,1-19.249,1.5,147.889,147.889,0,0,1-15.073-.728h2.093a.97.97,0,0,0,.421-1.1c-.238-.644-1.3-1.261-3-1.736a21.941,21.941,0,0,0-5.629-.721,13.453,13.453,0,0,0-5.72,1.067,2.056,2.056,0,0,1,2.059-1.1c.256,0,.542.015.812.03l.057,0c.29.016.688.037,1.124.037h.067a6.774,6.774,0,0,0-3.808-1.3c-2.566,0-4.738,1.833-6.838,3.605l-.018.015,0,0c-2.092,1.763-4.255,3.587-6.776,3.587a7.071,7.071,0,0,1-4.34-1.725,26.676,26.676,0,0,0,3.014.188c2.911,0,4.962-.63,6.095-1.873a4.266,4.266,0,0,0,1-3.409c-2.33.829-5.64,1.025-8.841,1.214h-.017a52.762,52.762,0,0,0-6.847.691c-2.257.454-3.708,1.2-4.435,2.266a4.389,4.389,0,0,0-.207,4,21.652,21.652,0,0,0-3.82-1.238l-.013,0-.007,0a8.7,8.7,0,0,1-3.2-1.214,3.08,3.08,0,0,1-.9-3.077l-17.508,5.011a2.342,2.342,0,0,0,1.124-2.258c-.159-.694-.909-1.6-3.579-1.993a16.372,16.372,0,0,0,2.306.159,33.674,33.674,0,0,0,9-1.589l.207-.058.073-.02.039-.011.175-.049.175-.049.011,0a28.793,28.793,0,0,1,7.208-1.421,5.925,5.925,0,0,1,5.008,2.254,17.593,17.593,0,0,0-.39-4.987,11.608,11.608,0,0,1-.272-4.058,7.438,7.438,0,0,1,2.526-4.172,63.577,63.577,0,0,0-18.37,4.968,125.224,125.224,0,0,0-14.416,7.759l-.006,0c-2.973,1.779-5.781,3.459-8.759,5l-16.325-4.353-.774,2.533-2.669-6.473c-.47.319-.889.618-1.348.948a5.919,5.919,0,0,1-2.205,1.27.347.347,0,0,1-.311-.161c-.4-.642.34-1.594,1.027-2.351a10.1,10.1,0,0,0-4.175,1.467c-.561-3.425,2.56-7.292,5.688-10.623l-.826-.723-.01-.008-.26-.227-.3-.259.286-.143.011-.005c1.619-.811,3.146-1.575,4.506-2.3-1.32,1.417-2.452,2.635-3.408,3.666,1.29,1.1,2.827,2.391,4.442,3.643a19.569,19.569,0,0,0,2.781-3.1,4.22,4.22,0,0,0,.938-2.929c-.155-1.035-.937-1.89-2.391-2.614-.721.466-1.641.957-2.362,1.332,1.374-1.512,2.76-3.21,2.612-4.36a1.289,1.289,0,0,0-.628-.927l-12.75,2.829a53.407,53.407,0,0,1,5.214,4.252l.152.133.6.523c-6.327,3.174-12.519,6.55-12.7,9.886-.067,1.262.76,2.455,2.457,3.546l-9.507-3.975c-9.154,4.916-9.72,5.092-16.656,7.248l-.008,0c-1.593.495-3.775,1.172-6.552,2.067a3.361,3.361,0,0,1,.7-2.709c.625-1.072,1.215-2.084-.163-3.037a10.205,10.205,0,0,1-6,1.816c-3.437,0-6.939-1.375-10.211-2.861-.5-.225-.989-.451-1.461-.67l-.007,0-.111-.051-.007,0c-2.664-1.23-4.965-2.292-6.584-2.292a2.1,2.1,0,0,0-2.177,1.527c-4.556.826-5.066,2.462-5.559,4.045a4,4,0,0,1-3.005,3.173l0-.01c.171-.484.458-1.3.132-1.8a1.089,1.089,0,0,0-.883-.43l-6.12,4.522a.912.912,0,0,1-.48-.664c-.025-.449.478-.878,1.01-1.333.574-.493,1.169-1,1.054-1.542-.12-.574-1.042-1.112-2.817-1.646l-1.667.47-.4.113c-7.438,2.1-12.812,3.626-18.577,3.626a33.626,33.626,0,0,1-7.819-.945c-3.037.2-4.7.762-5.1,1.712-.432,1.044.752,2.392,1.8,3.581l.006.007c.868.989,1.618,1.844,1.371,2.387-.174.385-.856.573-2.084.573-.5,0-1.1-.031-1.781-.092-.088-.192-.176-.385-.264-.578l-.016-.036-.052-.116a16.775,16.775,0,0,0-3.188-5.21,11.005,11.005,0,0,0-7.143-2.969,13.29,13.29,0,0,0-3.026,2.85l-.005.006c-1.387,1.65-2.7,3.208-6.882,4.214l.365-5.753c-.862.025-1.694.066-2.5.106l-.131.007h-.043c-1.069.054-2.174.11-3.143.11a8.1,8.1,0,0,1-3.781-.634,2.916,2.916,0,0,1-1.486-2.754,15.6,15.6,0,0,1-6.812,1.751,12.154,12.154,0,0,1-4.244-.78c-1.7.54-2.634,1.321-2.789,2.321-.433,2.786,5.2,6.771,8.919,9.408a27.156,27.156,0,0,1,3.042,2.317,39.756,39.756,0,0,0-9.563-3.03l-.02,0a29.046,29.046,0,0,1-5.979-1.734,13.2,13.2,0,0,1-5.152-4.219l8.036-1.457a22.757,22.757,0,0,0-8.787-2.094,13.566,13.566,0,0,0-5.908,1.371c-.263.12-.515.24-.759.357l-.08.038-.01.006a7.525,7.525,0,0,1-3.093,1.005c-1.731,0-3.4-1.427-5.753-4.927.395.032.81.049,1.234.049a17.01,17.01,0,0,0,5.74-.993c1.745-.654,2.9-1.526,3.257-2.456a2.083,2.083,0,0,0-.842-2.363l-8.494,2.938a.517.517,0,0,1-.1-.469c.122-.356.735-.554,1.328-.745l.01,0c.535-.174,1.04-.338,1.055-.6s-.427-.575-1.388-1a61.357,61.357,0,0,0-9.492,6.119l.106-.359-14.012.847c.736-.178,1.191-.577,1.158-1.016-.033-.422-.552-.912-1.911-1.025l-10.03,3c.846-.4,1.246-.843,1.19-1.317-.062-.519-.685-1.068-1.8-1.587a19.607,19.607,0,0,0-4.139-1.273,15.724,15.724,0,0,0-2.112-.15,9.63,9.63,0,0,0-5.148,1.333,12.737,12.737,0,0,0-3.183,2.937c-.24.3-.479.6-.684.857l-.016.021c-1.457,1.848-2.714,3.443-4.937,3.443a8.794,8.794,0,0,1-4.211-1.4c.106.01.219.016.336.016a3.42,3.42,0,0,0,1.245-.248,3.444,3.444,0,0,1,1.263-.251c.112,0,.226.005.337.015l-5.3-2.589a5.227,5.227,0,0,1-1.489,3.579,8.121,8.121,0,0,1-3.549,1.944c-2.9.872-6.78,1.019-10.53,1.161h-.006c-3.757.143-7.638.292-10.532,1.163a8.066,8.066,0,0,0-3.538,1.948,5.214,5.214,0,0,0-1.469,3.585c-2.414-1.572-3.324-2.426-3.248-3.045.081-.658,1.241-1.059,3.164-1.722l.006,0a40.162,40.162,0,0,0,8.653-3.926l-8.044-3.531a14.746,14.746,0,0,1,2.148-.138c.474,0,.951.015,1.412.029h.128c.447.015.954.032,1.458.032a12.025,12.025,0,0,0,4.13-.627,18.606,18.606,0,0,0-8.232-1.943,23.063,23.063,0,0,0-8.987,1.977,55.83,55.83,0,0,0-7.086,3.743l-.031.019c-.385.23-.761.453-1.121.665-1.516-.661-1.524-2.145-1.532-3.58a5.158,5.158,0,0,0-.472-2.691c-.519-.822-1.569-1.221-3.212-1.221a18.689,18.689,0,0,0-3.316.364c-3.834.6-5.917,1.489-6.37,2.706-.433,1.162.639,2.431,1.676,3.658.881,1.04,1.712,2.021,1.428,2.785-.221.592-1.1,1-2.7,1.253l-7.271-6.289a30.477,30.477,0,0,1-11.853,2.33,66.682,66.682,0,0,1-11.271-1.264h-.005l-.022,0c-2.747-.469-5.586-.955-8.461-1.159-2.025.459-3.3,1.07-3.914,1.87a18.809,18.809,0,0,0-4.388-.5c-4.129,0-8.266,1.2-12.492,2.539l-.236.075-.236.075-.216.068c-3.8,1.205-7.38,2.344-10.626,2.344a11.273,11.273,0,0,1-2.673-.3.626.626,0,0,0,.31-.535c-.034-.806-1.812-1.865-3.531-2.89a12.115,12.115,0,0,1-2.909-2.057l-14.226,3.911c5.025-1.437,5.53-4.127,6.065-6.976v-.007c.11-.589.224-1.2.383-1.8a18.6,18.6,0,0,0-6.119,1.7l-.009,0a15.189,15.189,0,0,1-3.661,1.2c1.176-.832,2.392-1.69,2.365-2.64-.017-.544-.437-1.065-1.285-1.592l-1.383.558-.5.2-1.637.661c-3.808,1.533-7.745,3.119-11.614,4.739a11.316,11.316,0,0,0,4.3.952,36.808,36.808,0,0,0-3.74.4l-.014,0a51.591,51.591,0,0,1-7.08.634,15.964,15.964,0,0,1-7.149-1.409,6.35,6.35,0,0,1,1.252-2.056,6.279,6.279,0,0,0,1.272-2.111,6.94,6.94,0,0,0,4.143,1.77c2.26,0,3.743-1.869,5.177-3.677l.043-.055.249-.312c-1.832.133-3.1.193-3.994.193-1.173,0-1.766-.1-1.982-.345a.774.774,0,0,1-.095-.635c.07-.653.167-1.546-2.123-2.6a12.709,12.709,0,0,0-5.534,1.307,6.326,6.326,0,0,0-2.847,2.76,3.838,3.838,0,0,0,.366,4.081c-.745-.108-1.442-.212-2.056-.3l-.1-.015-.015,0a50.7,50.7,0,0,0-7.284-.768c-3.216,0-6.159.763-10.5,2.721l1.186-4.963-7.912,1.677,5.955-6.12a23.9,23.9,0,0,0-4.526-.541c-3.541,0-4.032,1.54-4.552,3.17l-.028.088c-.021.065-.042.132-.064.2a4.474,4.474,0,0,1-1.464,2.359,7.435,7.435,0,0,1-4.5,1.071,31,31,0,0,1-4.332-.362l-.488-4.343a14.728,14.728,0,0,0-5.7,3.434c-1.481,1.259-2.759,2.346-4.3,2.347a5.651,5.651,0,0,1-3.629-1.787c-.86.381-1.3.789-1.339,1.248-.073.816,1.12,1.626,2.273,2.41,1.04.707,2.022,1.375,1.869,1.944-.19.709-2.145,1.178-6.154,1.477-3.345-2.543-10.355-4.042-13.214-4.568-.967.431-1.4.931-1.281,1.484.334,1.571,4.948,3.047,7.54,3.047h.06c-1.12.1-2.194.143-3.191.143-7.331,0-10.817-2.517-13.759-5.094-.189-.165-.378-.333-.562-.5l-.035-.031-.134-.119-.038-.033c-2.51-2.24-4.88-4.355-9.453-4.355a25.362,25.362,0,0,0-7.364,1.313c2.99,1.214,2.734,2.869,2.509,4.329a2.748,2.748,0,0,0,.3,2.355c.827.965,3.127,1.414,7.239,1.414.492,0,1.023-.006,1.578-.019a9.491,9.491,0,0,1-3.2.52,26.828,26.828,0,0,1-7.532-1.552l-.044-.014a27.025,27.025,0,0,0-7.656-1.565,9.656,9.656,0,0,0-5.389,1.542l4.667-5.663h-.082c-2.324,0-4.743,1.312-6.344,2.179l-.005,0-.016.009c-.406.22-.79.428-1.108.578l.143-4.286a12.685,12.685,0,0,1-8.628,3.01,36.977,36.977,0,0,1-4.361-.336l-.141-.017-.032,0a33.144,33.144,0,0,0-3.822-.309c-2.437,0-5.185.535-7.083,4.5.609-1.495.741-2.468.4-2.974a1.247,1.247,0,0,0-1.122-.444,14.9,14.9,0,0,0-3.46.747l-.069.019-.45.13a18.048,18.048,0,0,1-4.7.881,4.407,4.407,0,0,1-2.493-.638c3.512-2.595,8.887-2.89,13.629-3.151h.007c5.562-.307,10.366-.573,10.479-4.432a6.24,6.24,0,0,0-2.836-.667,13.424,13.424,0,0,0-2.846.4l-.017,0a13.354,13.354,0,0,1-2.807.4,5.918,5.918,0,0,1-2.7-.636c2.148-.965,6.017-3.008,6.888-4.558a24.051,24.051,0,0,0-6.452-.937,20.9,20.9,0,0,0-7.641,1.473,46.938,46.938,0,0,0-6.245,3.12l-.007,0a30.709,30.709,0,0,1-6.789,3.16l13.517-1.975c-.043,1.749-.423,2.837-1.194,3.423a4.933,4.933,0,0,1-2.649.678h-.009c-1.795.137-3.83.291-5.281,2.937a11.5,11.5,0,0,0-5.215-1.267,20.267,20.267,0,0,0-4.977.791h-.006l-.135.033a18.913,18.913,0,0,1-4.6.764,8.33,8.33,0,0,1-2.982-.533h.012a3.051,3.051,0,0,0,1.476-.344,3.013,3.013,0,0,1,1.193-.337c-.267.007-.475.009-.692.009-7.21,0-12.184-2.821-16.1-5.581-.851-.6-1.646-1.192-2.348-1.715-2.8-2.085-5.007-3.73-7.292-3.753a12.321,12.321,0,0,0-1.6-.1,21.669,21.669,0,0,0-7.241,1.383c-2.376.9-3.917,2.013-4.229,3.059-.209.705.132,1.356,1.014,1.933-.4.186-.584.322-.563.419.04.179.814.2,1.646.2.392,0,.847-.006,1.357-.014l.331,0c.548-.007,1.086-.014,1.64-.014a32.159,32.159,0,0,1,5.544.384c1.92.361,3.119,1,3.563,1.9.486.984.1,2.314-1.157,3.953a13.494,13.494,0,0,0-4.082-3.024,9.428,9.428,0,0,0-3.967-.839,26.085,26.085,0,0,0-7.011,1.378l-.012,0-.185.053-.629.179-.125.036-.148.042a36.4,36.4,0,0,1-10.21,1.653,31.769,31.769,0,0,1-10.275-1.784c1.526-.818,2.312-1.6,2.4-2.385.112-.968-.834-1.8-1.749-2.6-.855-.749-1.662-1.457-1.549-2.217.089-.595.749-1.164,2.018-1.74a25.228,25.228,0,0,0-7.288,1.753,11.9,11.9,0,0,0-3.5,2.691l-.008.008c-.408.406-.916.912-1.512,1.449l-3.2-3.244a25.126,25.126,0,0,0-5.945,5.747c-1.5,2.024-1.948,2.634-12.6,5.517.9-.46,1.334-.912,1.335-1.383,0-.874-1.525-1.667-3-2.435-1.456-.757-2.831-1.472-2.858-2.254-.011-.35.25-.683.8-1.019-.148,0-.291,0-.405,0a26.653,26.653,0,0,0-6.752.837,18.594,18.594,0,0,0-5.536,2.38l.563-.5a56.775,56.775,0,0,1-7.408.543,36.571,36.571,0,0,1-7.631-.8l-.167-.032-.256-.05a27.994,27.994,0,0,0-5.748-.7,36.661,36.661,0,0,0-9.572,1.56l1.96,1.956a93.283,93.283,0,0,1-16.282,3.173c-2.658.307-5.523.564-8.758.784-2.659.2-5.505.381-8.957.559-2.311.119-4.664.227-7.073.336-9.45.429-19.218.873-27.8,2.24l7.287,1.2h-.051l-.145,0a30.377,30.377,0,0,0-4.788.717l-.011,0h-.007l-.035.007c-.573.113-1.052.206-1.507.292a46.565,46.565,0,0,1-8.434.978,16.068,16.068,0,0,1-5.8-.925,15.3,15.3,0,0,0,1.567-.434,10.732,10.732,0,0,1,2.849-.63,2.474,2.474,0,0,1,.4.03,7.408,7.408,0,0,0-2.884-3.614,12.308,12.308,0,0,0-6.431-2.19l-1.34,3.512-2.656-2.572c-1.747.06-2.717.331-2.966.826-.239.478.2,1.111.627,1.722s.864,1.248.625,1.724c-.249.5-1.218.767-2.962.829-2.831-4.089-9.561-4.653-16.411-4.653-1.737,0-3.544.039-5.292.077l-.132,0h-.066c-1.785.039-3.632.08-5.443.08a49.414,49.414,0,0,1-9.32-.675,13.192,13.192,0,0,1-6.809-3.06c-.576,1.075-.684,1.886-.329,2.48.762,1.279,3.536,1.29,6.219,1.3h.014c2.53.011,4.92.022,5.469,1.075.272.519.076,1.247-.6,2.225-.673-.242-1.263-.506-1.834-.76a18.874,18.874,0,0,0-7.537-1.839l2.7,4.173c-2.912-.165-5.737-.361-8.637-.6-2.413-.177-4.883-.382-7.552-.626q-2.944-.268-5.518-.52l-.04,0c-2.485-.24-5.05-.487-7.561-.7-5.208-.434-9.381-.627-13.532-.627-4.274,0-8.609.21-13.253.643l.659-.955a37.3,37.3,0,0,0-5.7-.518c-4.319,0-6.976,1.223-8.886,4.09-.967-.9-.324-1.647.3-2.373.41-.481.8-.934.7-1.4-.078-.366-.455-.7-1.15-1.029a12.406,12.406,0,0,1-9.49,3.977,20.562,20.562,0,0,1-2.786-.2V618.8a149.365,149.365,0,0,0,33.013,3.406c9.493,0,18.846-.693,26.742-1.371,5.063-.452,10.48-.927,15.8-1.338,4.329-.338,10.037-.757,15.805-1,3.6-.152,6.907-.227,10.117-.227a157.8,157.8,0,0,1,21.8,1.4c.758-.174,1.2-.468,1.309-.873.239-.871-1.033-2.081-1.961-2.966a9.724,9.724,0,0,0,4.579,1.672c1.9,0,2.674-1.472,3.422-2.9.66-1.255,1.342-2.552,2.785-2.893l12.733,7.427a3.5,3.5,0,0,0,1.794-2.055,3.74,3.74,0,0,0-.945-2.727,3.37,3.37,0,0,1-.75-1.617,88.3,88.3,0,0,1,10.353-.558c5.894,0,11.9.458,17.2.862h.013l.325.025h.005c5.548.423,10.789.823,15.859.823a51.186,51.186,0,0,0,15.556-1.988c2.808,1.247,2.938,2.731,3.053,4.041.129,1.456.24,2.712,4.151,3.1-1.823-1.272-2.611-2.3-2.41-3.153.406-1.713,4.767-2.345,8.984-2.957,3.671-.532,7.137-1.035,7.583-2.213a1.077,1.077,0,0,0-.326-1.076c3.678,3.113,8.843,3.725,13.4,4.264H2857c3.123.371,6.072.721,8.117,1.826,2.275,1.229,3.2,3.259,2.9,6.39.3.015.6.023.895.023,4.11,0,5-1.551,5.172-2.475a3.963,3.963,0,0,0-2.435-3.9c1.355.018,2.435.026,3.5.026,8.946,0,15.792-.694,22.272-4.151.957.425,2.814.623,5.846.623,2.859,0,6.536-.178,10.43-.367h.055c3.009-.146,6.419-.312,9.853-.412,1.655-.035,3.168-.052,4.626-.052a94.975,94.975,0,0,1,14.392.889c4.725.741,8.058,1.933,10.188,3.644-2-1.679-2.784-2.634-2.623-3.191s1.241-.7,2.736-.9h.006a18.055,18.055,0,0,0,5.674-1.452l-6.023-5.068,13.317.246a12.776,12.776,0,0,1,2.447-.341c.654,0,.987.146,1.02.448.886.078,1.068.558,1.3,1.165.366.971.867,2.3,4.455,3.023l.5,0c6.206,0,7.972-1.476,10.209-3.344a23.444,23.444,0,0,1,2.986-2.216l-1.479-.735,6.05-.638c.435,0,.659.06.685.17.059.239-.836.717-1.97,1.323l-.019.01c-2.051,1.1-4.857,2.595-4.625,3.964.176,1.03,2.1,1.835,5.72,2.394.009-.54,1.167-1.984,3.02-3.375,1.25-.938,3.716-2.513,6.189-2.513a4.558,4.558,0,0,1,2.975,1.029c-.1,0-.2,0-.288,0-4.157,0-5.053,1.166-5.217,1.861-.236,1.009.748,2.315,2.338,3.105l10.536.129-4.3-6.5c1.426-.016,2.763-.023,3.974-.023,5.7,0,11.718.131,18.953.413,4.278.169,8.091.342,11.657.529l5.16.307,2.926.174,3.684.219c12.325.727,25.453,1.438,38.528,1.438,3.171,0,6.288-.042,9.264-.125.064,2.6,4.67,2.847,9.546,3.114,4.516.247,9.187.5,10.751,2.61a3.129,3.129,0,0,1,.405,2.747l-1.312-.8c-1.831.224-2.775.731-2.731,1.465.05.824,1.385,1.891,3.485,2.786a18.4,18.4,0,0,0,6.82,1.483,10.145,10.145,0,0,0,1.66-.129c-.963-.359-1.5-.8-1.629-1.349-.231-.947.788-2.073,1.774-3.163,1.013-1.121,2.061-2.28,1.684-3.2-.437-1.073-2.668-1.7-7.023-1.968l12.246-4.192a9.561,9.561,0,0,1,4.665-5.72,16.333,16.333,0,0,1,7.684-1.534,58.984,58.984,0,0,1,9,.859c1.781.284,3.546.6,5.415.938l.016,0,.105.019c5.7,1.027,11.6,2.088,17.183,2.088a30.557,30.557,0,0,0,8.482-1.064,2.875,2.875,0,0,0-1.718,2.013,38.573,38.573,0,0,1,11.827-1.646,93.356,93.356,0,0,1,16.723,1.868c.871.16,1.708.319,2.632.5h.008l.014,0a57.034,57.034,0,0,0,8.813,1.284,3.991,3.991,0,0,0,2.235-.469l1.808,4.455c9.15-4.509,13.118-6.339,19.51-6.339a97.338,97.338,0,0,1,13.814,1.471,2.187,2.187,0,0,1-.324.575c-.287.415-.612.886-.457,1.349.135.4.614.734,1.463,1.013l.045-.036c3.484-2.894,7.085-5.887,16.133-5.887,1.184,0,2.452.052,3.769.154l-.413,1.4,18.565-.684c.108,3.236,1.9,4.742,5.642,4.742a50.464,50.464,0,0,0,10.014-1.642l.677-.153a56,56,0,0,1,11.663-1.776,12.809,12.809,0,0,1,5.844,1.165,7.953,7.953,0,0,1,3.857,4.272c2.4-2.75,9.469-4.178,15.71-5.437l.011,0,.022,0,.015,0c2.783-.562,5.412-1.093,7.281-1.684-.088-.9.859-1.7,2.813-2.367a.848.848,0,0,1,.034.732c-.248.575-1.178,1.109-2.846,1.633a2.682,2.682,0,0,0,1.481,1.846,9.174,9.174,0,0,1,7.086-2.783c3.445,0,7.424,1.221,10.622,2.2l.4.124.014,0c3.455,1.059,6.719,2.06,9.443,2.06a9.506,9.506,0,0,0,.99-.049c1.835-.628,2.832-1.369,3.046-2.264.312-1.315-1.121-2.781-2.508-4.2a13.6,13.6,0,0,0,6.886,1.623c4.318,0,8.955-1.357,13.323-2.823.74-.249,1.459-.5,2.193-.748,3.325-1.143,6.2-2.13,8.031-2.13a2.605,2.605,0,0,1,1.453.344c1.971.172,3.248.636,3.9,1.419.739.883.634,2.058.522,3.3a5.37,5.37,0,0,0,.52,3.661c5.148-.55,5.09-3.278,5.043-5.47-.023-1.039-.042-1.935.47-2.459a1.964,1.964,0,0,1,1.464-.466,19.75,19.75,0,0,1,6.011,1.574c-.435.145-.964.283-1.475.416l-.011,0c-1.185.309-2.41.628-2.477,1.035-.022.13.07.26.28.4,2.377.509,5.5,3.519,8.814,6.705l.005.005c3.951,3.8,8.035,7.733,11.2,7.733a3.275,3.275,0,0,0,1.6-.4l-3.75-2.51a10.922,10.922,0,0,1,3.429-.523c3.616,0,7.492,1.516,10.842,2.936q.587.248,1.159.495l.028.012c3,1.283,5.581,2.391,7.52,2.391,1.811,0,2.831-.979,3.211-3.079l-.958-4.327c5.023,1.669,8.213,2.413,10.342,2.413a9.074,9.074,0,0,0,2.495-.365l.071-.019a10.038,10.038,0,0,1,2.75-.379c2.189,0,5.369.624,10.008,1.964l-.232.71c.516-.048,1.035-.072,1.541-.072a23.179,23.179,0,0,1,5.321.717l.166.038.051.012.23.053.037.009a16.927,16.927,0,0,0,3.664.587c2.122,0,3.633-1.047,5.054-3.5l-2.7-1c2.114-.073,3.865-.108,5.351-.108,3.24,0,5.339.159,8.244.378,1.75.133,3.927.3,7.054.471a12.093,12.093,0,0,1,4.592-.883,4.018,4.018,0,0,1,2.8.8c.214-2.145,3.568-3.233,9.967-3.233a134.538,134.538,0,0,1,15.4,1.22l.084.01c.954.117,1.708.209,2.229.261-2.919.251-4.487.774-4.792,1.6-.324.876.743,1.965,1.874,3.118l.01.01c.292.3.577.589.835.874a17.176,17.176,0,0,1,3.747-2.886,7.58,7.58,0,0,1,3.634-.954c1.913,0,4.066.724,6.983,2.347.627-3.908,1.315-7.364,3.369-10.088,2.4-3.187,6.36-4.77,12.1-4.839-.523.271-1.115.505-1.687.732l-.007,0-.007,0c-1.185.47-2.3.914-2.47,1.546a.9.9,0,0,0,.254.8,1.919,1.919,0,0,0,1.562.64,9.353,9.353,0,0,0,3.685-1.186l.047-.023c.556.684,0,1.275-.651,1.959-.779.821-1.66,1.751-.932,3.122a14.1,14.1,0,0,1,8.966-3.108,39.578,39.578,0,0,1,5.556.54l.02,0,.4.058a48.5,48.5,0,0,0,7.084.618,31.611,31.611,0,0,0,5.452-.468c-1.162.594-1.79,1.181-1.916,1.8-.16.787.476,1.547,1.211,2.427a10.519,10.519,0,0,1,1.315,1.827c.269-1.65,1.136-2.452,2.649-2.452,1.673,0,3.9,1,5.686,1.8l.023.01a12.542,12.542,0,0,0,3.894,1.353.879.879,0,0,0,.792-.343c.353-.521.167-1.665-.566-3.5,11.733,3.409,26.788,4.043,40.071,4.6h.012c14.124.594,26.32,1.107,30.98,4.723a2.982,2.982,0,0,0,2.521,1.03,20.579,20.579,0,0,0,5.607-1.294h.008a20.647,20.647,0,0,1,5.6-1.3l-.828,3.542c6.371-3.151,8.7-3.621,11.4-4.165,2.57-.519,5.483-1.107,12.489-4.058-2.5,1.659-3.655,3.025-3.64,4.3.019,1.779,2.341,3.389,5.373,5.308l10.167-7.072,1.429,5.573a11.643,11.643,0,0,1,5.216-1.138,32.1,32.1,0,0,1,7.4,1.183c2.495-3.346,8.4-4.4,13.607-5.328h.008c3.858-.687,7.189-1.281,8.365-2.673a5.02,5.02,0,0,0,4.951,3.273,18,18,0,0,0,2.659-.269l.024,0,.059-.009a17.062,17.062,0,0,1,2.535-.265c1.358,0,3.034.333,3.951,2.93a21.72,21.72,0,0,1,5.46-2.408c-1.193-2.259-1.615-4.3-1.074-5.2a1.093,1.093,0,0,1,1.01-.516,4.006,4.006,0,0,1,1.611.449,4.2,4.2,0,0,1,.508-.051l.041,0c.119-.007.242-.015.376-.033l1.271,4.387a54.4,54.4,0,0,1,10.571-1.185h.211a15.118,15.118,0,0,1-3.814-2.31c1.151.5,2.227,1.075,3.266,1.632l.016.008.034.018.13.07c.417.224.766.41,1.129.6a10.114,10.114,0,0,1,1.408.1,2.04,2.04,0,0,1-.856.179h-.017a10.2,10.2,0,0,0,4.468,1.132,11.089,11.089,0,0,0,3.876-.764,17.793,17.793,0,0,0,8.707,2,61.853,61.853,0,0,0,12.319-1.748l.155-.034,1.364-.282a58.769,58.769,0,0,1,11.612-1.523c.151,0,.3,0,.453,0a19.962,19.962,0,0,1,11.337,3.443,10.107,10.107,0,0,0-4.071-1.013,2.7,2.7,0,0,0-2.337.917,67.31,67.31,0,0,1,14.987,2.4l.991.242c4.449,1.091,8.652,2.122,12.369,2.122a14.5,14.5,0,0,0,4.8-.732l-.089-4.048c7.485-1.084,13.685-1.912,19.663-1.912,1.657,0,3.224.063,4.79.191l.993-4.53a33.911,33.911,0,0,0,6.643.5c2.419,0,5.01-.114,7.751-.234l.079,0,.312-.015.053,0c2.457-.108,5.512-.241,8.347-.241a41.661,41.661,0,0,1,10.7,1.071,14.342,14.342,0,0,1,4.049,1.71v25.87c-5.183,2.484-10.05,6.577-11.574,9.732a3.273,3.273,0,0,0-.239,3,23.956,23.956,0,0,1-7.109-1.077l-.122-.037-.378-.115-.123-.038a14.441,14.441,0,0,0-4.656-.853,18.735,18.735,0,0,0-3.5.373c3.15,1.835,4.249,2.493,4.2,2.669-.009.036-.071.054-.184.054a8.047,8.047,0,0,1-.88-.1l-.033,0-.4-.056A16.734,16.734,0,0,0,3956.8,649a6.592,6.592,0,0,0-2.757.506,3.426,3.426,0,0,0-1.875,2.1c-.39.021-.755.032-1.087.032-1.527,0-2.436-.216-2.861-.68a1.906,1.906,0,0,1-.283-1.546v-.008a2.033,2.033,0,0,0-1.129-2.434c-1.42.65-4.482,2.513-4.878,4.127-1.88-2.327.392-5.086,2.8-8.006,2.588-3.14,5.263-6.386,2.875-9.319-1.934-2.137-8.653-5.952-18.919-10.743l-.066-.03-.254-.119,0,0-.113-.053c-1.958,2.363-3.472,8.617-3.855,15.933a55.88,55.88,0,0,0,.309,10,19.983,19.983,0,0,0,2.215,7.53c-.175.626-.494.93-.973.93-.974,0-2.459-1.259-4.032-2.592-1.619-1.372-3.292-2.79-4.592-3.011a9.886,9.886,0,0,0-5.9-2.056,18.1,18.1,0,0,0-6.888,1.849l-.01,0-.093.04a17.5,17.5,0,0,1-6.609,1.818,7.8,7.8,0,0,1-2.64-.45l6.255-2.946c-.306-.426-1.478-.661-3.3-.661-4.034,0-10.029,1.1-11.423,2.473-.024-.685.782-2.069,1.715-3.672l.006-.011,0-.008,0,0a30.314,30.314,0,0,0,2.527-5.016c.644-1.89.492-3.175-.467-3.929a25.091,25.091,0,0,0-3.086-.189,28.775,28.775,0,0,0-7.14.93,34.636,34.636,0,0,0-9.025,3.832c-5.322,3.222-8.82,7.4-8.707,10.4,2.52-.62,5.094-1.26,7.31-1.812l.115-.029.024-.006c4.748-1.183,9.658-2.406,14.5-3.548.09,2.391-3.435,3.5-7.166,4.668-4.12,1.3-8.38,2.635-8.264,5.82Zm-453.65-20.328c-1.264,0-2.293.915-3.336,2.966a2.434,2.434,0,0,0,2.2,1.077,13.481,13.481,0,0,0,4.912-1.536l.013-.006.047-.022.015-.007c.474-.215.922-.419,1.3-.567-.737-.279-1.394-.583-2.029-.878l-.033-.015a8.3,8.3,0,0,0-3.044-1.011Zm179.32-6.961a12.835,12.835,0,0,0-1.8.129,10.706,10.706,0,0,0,5.083,1.8,3.434,3.434,0,0,0,2.2-.729,13.728,13.728,0,0,0-5.265-1.2h-.219Zm187.5-14.082c-.681,0-1.013.068-1.111.219-.08.122-.006.294.089.513l0,.01a2.167,2.167,0,0,1,.215.758,5.914,5.914,0,0,1,.8-1.5Zm-813.824-10.4-.131.149c-.509.578-.988,1.123-.871,1.382.05.11.2.164.462.164a11.741,11.741,0,0,0,2.77-.611Zm857.3,48h-.113a12.937,12.937,0,0,1-3.044-.508c-.745-2.124-.879-3.361-.45-4.137.5-.9,1.723-1.175,3.579-1.6h.006a38.519,38.519,0,0,0,3.841-1.03c-.318.223-.46.431-.431.638.076.526,1.266.926,2.526,1.349,1.321.444,2.688.9,2.806,1.539.046.243-.091.491-.417.76a9.851,9.851,0,0,0-3.126-.707c-1.45,0-1.815.817-2.2,1.681l-.021.047-.006.013-.006.013c-.014.033-.029.066-.044.1A2.706,2.706,0,0,1,3825.694,655.336ZM2751.4,654.442h-.023c-.39-.006-.563-.154-.563-.48a3.376,3.376,0,0,0,.645.243l.019.006a4.78,4.78,0,0,1,.5.171A3.691,3.691,0,0,1,2751.4,654.442Zm530.694-.108-.2,0c-.153,0-.309-.008-.477-.019-.266-1.534-.255-2.372.036-2.719a.566.566,0,0,1,.463-.192,5.715,5.715,0,0,1,1.907.686l.006,0,.009,0,.015.007c.27.126.575.269.9.411a12.5,12.5,0,0,0,3.736,1.092c-.842.076-1.708.207-2.471.323l-.055.008-.038.006h-.007l-.024,0A26.188,26.188,0,0,1,3282.1,654.334Zm7.346-.675h-.146c-.263,0-.536-.022-.813-.052.5-.044.941-.065,1.35-.065.291,0,.57.011.829.032A8.578,8.578,0,0,1,3289.443,653.659Zm656.384-.128c-2.01-.268-3.265-.748-3.731-1.429a1.2,1.2,0,0,1-.17-1,8.334,8.334,0,0,0,3.9,2.426h0Zm-1172.35-.1-.709-.117a2.4,2.4,0,0,1,.709.115Zm664.74-.767-4.958-3.337.029,0c2.935.27,4.407.405,5.4,1.932l-.465,1.4Zm-212.843-2.351h0l3.613-4a3.658,3.658,0,0,0,.174,1.571c.157.6.306,1.168-.021,1.595C3228.719,650.027,3227.523,650.293,3225.374,650.313Zm512.453-1.812h0l8.471-14.248,2.891,11.352a13.084,13.084,0,0,0-4.012-.825c-2.276,0-4.542,1.148-7.348,3.722Zm-659.434-.4h0c.312-.027.6-.055.893-.086A4.666,4.666,0,0,1,3078.393,648.1Zm751.129-.039h0a11.326,11.326,0,0,1,3.152-1.27,24.519,24.519,0,0,1-3.151,1.271Zm-475.3-.193h0l-1.471-.123-1.455-5.169,2.927,5.29v0Zm-125.235-1.552v0a1.86,1.86,0,0,1,.307-.783,1.161,1.161,0,0,0,.141.018l.021,0h.01a.862.862,0,0,1,.191.027l-.667.737Zm520.285-.382h0l-.08-.328c.162.062.387.13.452.149a.758.758,0,0,0-.161.081A.686.686,0,0,1,3749.268,645.932Zm-392.051-2.887h0v0l3.286-1a13.417,13.417,0,0,1-3.283,1Zm27.425-.689h0c-.305-.024-.485-.111-.534-.258-.092-.276.273-.779,1.084-1.495l-.548,1.752Zm-14.3-1.161h-.094c-.139,0-.254-.009-.362-.018l1.4-.084A4.014,4.014,0,0,1,3370.341,641.195Zm208.773-.8a25.255,25.255,0,0,1-6.321-2.643l6.321,2.641Zm.535-1.855c-.952-.418-1.464-.867-1.522-1.335-.042-.345.164-.7.612-1.044a4.52,4.52,0,0,0,.911,2.378Zm357.432-.854h0l-2.12-.03,2.964-9.117-.844,9.146ZM3003.5,636.6h-.006c-.045,0-.071-.012-.076-.032-.03-.116.569-.533,1.687-1.175a2.886,2.886,0,0,0,.432.221l.01,0,.031.013c.076.034.162.072.244.116A10.042,10.042,0,0,1,3003.5,636.6Zm-159.925-26.956c-.254-.216-.491-.434-.7-.648a4.633,4.633,0,0,1,.705.647Zm991-1.139a13.6,13.6,0,0,0-5.478-1.126,17.436,17.436,0,0,0-2.761.232l-1.142-3.951a1.683,1.683,0,0,1,.263-1.243.636.636,0,0,1,.483-.189c1.069,0,3.109,1.714,5.47,3.7l.017.014.005,0C3832.4,606.758,3833.506,607.685,3834.571,608.5Z" transform="translate(-2617.499 4233)" fill="#fff" stroke="rgba(0,0,0,0)" stroke-width="1"/>
  </g>
</svg>
