<svg xmlns="http://www.w3.org/2000/svg" xmlns:xlink="http://www.w3.org/1999/xlink" width="451.393" height="827.827" viewBox="0 0 451.393 827.827">
  <defs>
    <clipPath id="clip-path">
      <rect id="Rectangle_209" data-name="Rectangle 209" width="54.825" height="45.704" fill="#fff"/>
    </clipPath>
    <clipPath id="clip-path-2">
      <rect id="Rectangle_211" data-name="Rectangle 211" width="38.121" height="37.198" fill="#fff"/>
    </clipPath>
    <clipPath id="clip-path-3">
      <rect id="Rectangle_214" data-name="Rectangle 214" width="67.261" height="36.142" fill="#fff"/>
    </clipPath>
    <clipPath id="clip-path-4">
      <rect id="Rectangle_213" data-name="Rectangle 213" width="43.999" height="27.892" fill="#fff"/>
    </clipPath>
  </defs>
  <g id="Group_845" data-name="Group 845" transform="translate(0.648 -273.689)">
    <g id="Group_838" data-name="Group 838" transform="translate(-0.148 274.189)">
      <g id="Group_837" data-name="Group 837">
        <rect id="Rectangle_378" data-name="Rectangle 378" width="450.148" height="801.996" transform="translate(0 11.709)" fill="#70e8ff"/>
        <path id="Subtraction_33" data-name="Subtraction 33" d="M411.821,20.783h0l-6.367-.833a7.7,7.7,0,0,0,1.465-.208c.456-.112,1.027-.312,1.158-.625a.474.474,0,0,0-.156-.513c-1.729-.011-1.852-.146-2.121-.442a2.875,2.875,0,0,0-1.052-.741,62.013,62.013,0,0,0,6.459-4.611,65.622,65.622,0,0,0,5.709-4.984l-3.473.972-.733-1a14.075,14.075,0,0,0-5.975,3.924,47.492,47.492,0,0,0-4.081,4.732l0,0c-.136.176-.253.328-.355.457a1.672,1.672,0,0,1-1.362-1.21,3.738,3.738,0,0,1,.087-2.028,3.761,3.761,0,0,1,.7-1.435c-.161-.012-.324-.018-.485-.018a5.257,5.257,0,0,0-2.589.655,11.125,11.125,0,0,0-1.928,1.442l-.052.045h0a11.5,11.5,0,0,1-1.866,1.414,4.852,4.852,0,0,1-2.436.639,6.267,6.267,0,0,1-.87-.063l1.784.84a3.2,3.2,0,0,1-.7.059c-.553,0-1.29-.066-1.883-.119h-.009l-.071-.007h-.009c-.634-.057-1.233-.11-1.667-.11-.381,0-.591.043-.641.131a.122.122,0,0,0,.015.127,4.491,4.491,0,0,1-.957-1.873,1.767,1.767,0,0,1,.266-1.751l-4.351,2.939c.339-.3.424-1.32.5-2.221v-.006A4.417,4.417,0,0,1,384,12.975a1.3,1.3,0,0,0-.135-.007,1.943,1.943,0,0,0-1.331.639,4.021,4.021,0,0,0-.889,1.374c-.273.705-.263,1.306.026,1.568a21.882,21.882,0,0,0-2.3-1.361A9.162,9.162,0,0,1,376.7,13.1c-.246.038-.4.238-.451.579a3.588,3.588,0,0,0,.267,1.626,2.179,2.179,0,0,0,.761,1.142,8.653,8.653,0,0,1-2.389.371,7.157,7.157,0,0,1-2.346-.425c2.574-.733,2.4-3.276,2.251-5.52a7.293,7.293,0,0,1,.148-2.938l-8.8,8.208a17.053,17.053,0,0,0,1.124-3.509c-.279.8-1.455,1.411-3.494,1.808a35.617,35.617,0,0,1-6.331.492,48.7,48.7,0,0,1-4.958-.24h.689a.319.319,0,0,0,.139-.361c-.079-.212-.429-.414-.988-.57a7.217,7.217,0,0,0-1.852-.237,4.434,4.434,0,0,0-1.881.35.676.676,0,0,1,.677-.36c.076,0,.158,0,.245.009h.048c.1.005.227.011.361.011h.023a2.229,2.229,0,0,0-1.252-.428,3.777,3.777,0,0,0-2.249,1.184l-.007.006a3.772,3.772,0,0,1-2.229,1.179,2.329,2.329,0,0,1-1.428-.567,8.828,8.828,0,0,0,.992.062,2.657,2.657,0,0,0,2-.615,1.4,1.4,0,0,0,.328-1.12,11.623,11.623,0,0,1-2.909.4h-.006a17.389,17.389,0,0,0-2.252.227,2.209,2.209,0,0,0-1.459.744,1.443,1.443,0,0,0-.068,1.315,7.145,7.145,0,0,0-1.256-.407h0a2.873,2.873,0,0,1-1.054-.4,1.012,1.012,0,0,1-.3-1.011l-5.759,1.647a.769.769,0,0,0,.37-.742c-.053-.228-.3-.527-1.177-.655a5.349,5.349,0,0,0,.759.053,11.077,11.077,0,0,0,2.959-.522l.2-.056.018-.005h0a9.486,9.486,0,0,1,2.371-.467,1.951,1.951,0,0,1,1.647.74,5.771,5.771,0,0,0-.129-1.638v0a3.8,3.8,0,0,1-.089-1.329,2.441,2.441,0,0,1,.831-1.371,20.946,20.946,0,0,0-6.042,1.632,41.226,41.226,0,0,0-4.74,2.548l0,0c-.979.585-1.9,1.138-2.881,1.642l-5.37-1.43-.255.832-.878-2.127c-.157.106-.3.21-.429.3l-.006,0-.009.007a1.948,1.948,0,0,1-.725.417.115.115,0,0,1-.1-.053c-.13-.21.112-.524.338-.773a3.325,3.325,0,0,0-1.374.483c-.184-1.126.843-2.4,1.871-3.49l-.384-.335-.015-.013-.06-.052.109-.055h0c.5-.251,1.019-.51,1.469-.75l-.217.233-.094.1-.81.87c.4.337.92.778,1.461,1.2a6.449,6.449,0,0,0,.915-1.018,1.382,1.382,0,0,0,.308-.962c-.051-.34-.308-.621-.786-.859-.186.12-.425.255-.777.438.452-.5.907-1.054.859-1.432a.423.423,0,0,0-.206-.3l-4.194.93a17.567,17.567,0,0,1,1.716,1.4h0l.079.069.012.011.04.035.112.1c-2.081,1.042-4.118,2.151-4.177,3.247-.022.415.25.807.808,1.165l-3.127-1.306a21.743,21.743,0,0,1-5.48,2.381h0l-.016.005c-.556.173-1.247.387-2.138.674a1.1,1.1,0,0,1,.229-.889c.206-.353.4-.686-.053-1a3.36,3.36,0,0,1-1.974.6,8.459,8.459,0,0,1-3.359-.94c-.188-.085-.375-.171-.518-.237h0l0,0a6.415,6.415,0,0,0-2.164-.752.692.692,0,0,0-.715.5c-1.5.272-1.666.809-1.828,1.329a1.315,1.315,0,0,1-.988,1.043l0,0c.056-.159.149-.424.042-.59a.361.361,0,0,0-.29-.142l-2.013,1.486a.3.3,0,0,1-.158-.218c-.008-.147.157-.288.331-.437.19-.162.386-.33.348-.508s-.343-.365-.926-.541l-.549.155-.133.038a22.492,22.492,0,0,1-6.109,1.191,11.078,11.078,0,0,1-2.572-.311c-1,.066-1.547.25-1.677.562-.142.342.247.785.59,1.176.287.327.535.609.454.787-.057.127-.282.188-.686.188-.16,0-.357-.01-.585-.03l-.109-.239a5.523,5.523,0,0,0-1.049-1.713,3.624,3.624,0,0,0-2.349-.976,4.379,4.379,0,0,0-1,.938,3.561,3.561,0,0,1-2.263,1.385l.12-1.891c-.288.008-.565.022-.834.035h-.058c-.364.018-.709.036-1.021.036a2.659,2.659,0,0,1-1.243-.209.957.957,0,0,1-.489-.9,5.134,5.134,0,0,1-2.24.575,3.99,3.99,0,0,1-1.4-.256c-.558.177-.867.434-.917.763-.142.916,1.709,2.225,2.934,3.091a8.962,8.962,0,0,1,1,.761,13.094,13.094,0,0,0-3.145-1h0a9.593,9.593,0,0,1-1.971-.571,4.336,4.336,0,0,1-1.694-1.386l2.643-.479a7.5,7.5,0,0,0-2.89-.688,4.465,4.465,0,0,0-1.943.45c-.1.045-.193.09-.275.13l0,0a2.478,2.478,0,0,1-1.018.331c-.569,0-1.117-.469-1.892-1.619.128.01.264.016.406.016a5.6,5.6,0,0,0,1.888-.326,1.744,1.744,0,0,0,1.072-.807.685.685,0,0,0-.277-.777l-2.795.966a.171.171,0,0,1-.034-.154c.04-.117.242-.182.436-.244.178-.057.345-.111.35-.2s-.14-.189-.456-.329a20.186,20.186,0,0,0-3.122,2.01l.035-.118-4.609.279c.242-.059.392-.19.381-.334s-.182-.3-.628-.336l-3.3.984c.278-.131.41-.277.392-.433s-.226-.351-.593-.522a6.451,6.451,0,0,0-1.362-.418,5.208,5.208,0,0,0-.694-.049,3.169,3.169,0,0,0-1.693.438,4.191,4.191,0,0,0-1.047.965c-.07.086-.142.177-.195.243l-.036.045c-.479.607-.892,1.13-1.623,1.13a2.9,2.9,0,0,1-1.385-.459c.036,0,.073,0,.111,0a1.122,1.122,0,0,0,.41-.082,1.148,1.148,0,0,1,.416-.082c.033,0,.07,0,.109,0l-1.742-.85a1.719,1.719,0,0,1-.49,1.176,2.682,2.682,0,0,1-1.168.638,15.058,15.058,0,0,1-3.465.381h0a15.018,15.018,0,0,0-3.462.382,2.656,2.656,0,0,0-1.164.64,1.714,1.714,0,0,0-.483,1.178c-.794-.516-1.093-.8-1.069-1s.409-.348,1.042-.566h0a13.178,13.178,0,0,0,2.844-1.289l-2.645-1.16a4.883,4.883,0,0,1,.707-.045c.173,0,.35.006.493.01h.021c.154,0,.314.01.472.01a3.96,3.96,0,0,0,1.359-.206,6.125,6.125,0,0,0-2.708-.638,7.6,7.6,0,0,0-2.956.65,18.369,18.369,0,0,0-2.326,1.228l-.005,0-.013.008-.364.216c-.5-.217-.5-.7-.5-1.176a1.694,1.694,0,0,0-.156-.884,1.154,1.154,0,0,0-1.057-.4,6.144,6.144,0,0,0-1.091.12c-1.26.2-1.946.489-2.1.889-.142.382.211.8.552,1.2l0,0c.289.341.561.664.468.913-.072.194-.362.329-.886.411l-2.392-2.066a10.036,10.036,0,0,1-3.9.765,21.939,21.939,0,0,1-3.709-.416h-.007c-.9-.154-1.838-.313-2.782-.38a2.222,2.222,0,0,0-1.287.614,6.2,6.2,0,0,0-1.444-.164,13.885,13.885,0,0,0-4.109.834l-.153.048-.012,0-.061.019a12.3,12.3,0,0,1-3.5.771,3.717,3.717,0,0,1-.879-.1.205.205,0,0,0,.1-.176c-.011-.265-.6-.613-1.16-.949l-.006,0a3.959,3.959,0,0,1-.952-.673l-4.679,1.285a2.4,2.4,0,0,0,1.995-2.291v0c.034-.183.073-.391.126-.593a6.137,6.137,0,0,0-2.015.558h0a4.991,4.991,0,0,1-1.2.393l0,0c.386-.273.785-.555.776-.866-.006-.179-.144-.35-.423-.523l-.966.389h0l-.14.056-.064.026h0l-.013.005c-1.243.5-2.529,1.018-3.789,1.544a3.723,3.723,0,0,0,1.416.313,12,12,0,0,0-1.228.132H179a17.021,17.021,0,0,1-2.329.208,5.257,5.257,0,0,1-2.351-.463,2.086,2.086,0,0,1,.411-.674v0a2.06,2.06,0,0,0,.418-.693,2.281,2.281,0,0,0,1.362.582c.743,0,1.231-.614,1.7-1.207l.034-.042.063-.079c-.6.044-1.021.064-1.314.064-.385,0-.58-.034-.651-.113a.253.253,0,0,1-.031-.206v0c.023-.214.055-.508-.7-.855a4.18,4.18,0,0,0-1.82.429,2.078,2.078,0,0,0-.936.907,1.259,1.259,0,0,0,.12,1.341l-.674-.1-.036-.006h0a16.734,16.734,0,0,0-2.4-.252,8,8,0,0,0-3.453.894l.39-1.631-2.6.551L166.167,13a7.854,7.854,0,0,0-1.488-.177c-1.165,0-1.326.506-1.5,1.041l-.006.019-.005.016-.019.059a1.463,1.463,0,0,1-.482.775,2.444,2.444,0,0,1-1.481.352,10.2,10.2,0,0,1-1.425-.119L159.6,13.54a4.844,4.844,0,0,0-1.875,1.128,2.378,2.378,0,0,1-1.413.771,1.857,1.857,0,0,1-1.194-.587c-.283.125-.427.259-.441.41-.024.268.368.534.747.792.342.232.665.452.615.639-.062.233-.705.387-2.024.485a12.331,12.331,0,0,0-4.347-1.5c-.318.142-.46.306-.421.488.11.516,1.627,1,2.48,1h.02c-.367.032-.72.047-1.05.047a6.085,6.085,0,0,1-4.525-1.674l-.253-.224a4.264,4.264,0,0,0-3.109-1.431,8.347,8.347,0,0,0-2.422.432c.983.4.9.942.826,1.421v0a.9.9,0,0,0,.1.773c.272.317,1.028.464,2.381.464.165,0,.34,0,.519-.007a3.124,3.124,0,0,1-1.054.171,8.834,8.834,0,0,1-2.478-.51l-.013,0h0a8.88,8.88,0,0,0-2.516-.514,3.173,3.173,0,0,0-1.772.507l1.535-1.861h-.026a4.733,4.733,0,0,0-2.089.717l-.008,0c-.139.075-.259.14-.362.188l.048-1.408a4.178,4.178,0,0,1-2.839.989,12.1,12.1,0,0,1-1.424-.109h-.01l-.046-.006a10.893,10.893,0,0,0-1.268-.1,2.309,2.309,0,0,0-2.329,1.48c.2-.491.244-.811.131-.977a.41.41,0,0,0-.369-.146,4.886,4.886,0,0,0-1.14.245h-.005l-.164.047a5.928,5.928,0,0,1-1.546.29,1.45,1.45,0,0,1-.821-.21c1.154-.852,2.922-.949,4.481-1.035h0c1.831-.1,3.412-.187,3.449-1.456a2.055,2.055,0,0,0-.933-.219,4.407,4.407,0,0,0-.928.131l-.008,0H129.7a4.389,4.389,0,0,1-.92.131,1.949,1.949,0,0,1-.89-.209,6.32,6.32,0,0,0,2.266-1.5,7.935,7.935,0,0,0-2.122-.307,6.892,6.892,0,0,0-2.513.483,15.452,15.452,0,0,0-2.044,1.019l-.01.006a10.076,10.076,0,0,1-2.236,1.039l4.446-.649a1.373,1.373,0,0,1-.393,1.125,1.63,1.63,0,0,1-.874.223,1.823,1.823,0,0,0-1.737.965,3.788,3.788,0,0,0-1.715-.416,6.674,6.674,0,0,0-1.639.26l-.045.011h0a6.226,6.226,0,0,1-1.507.249,2.742,2.742,0,0,1-.981-.175h0a1.006,1.006,0,0,0,.485-.113,1,1,0,0,1,.392-.11l-.227,0a8.792,8.792,0,0,1-5.3-1.833c-.274-.193-.537-.389-.77-.562l0,0a4.642,4.642,0,0,0-2.4-1.233,4.094,4.094,0,0,0-.527-.032,7.133,7.133,0,0,0-2.381.454c-.781.295-1.288.661-1.391,1.005-.069.232.043.445.334.635-.132.061-.192.106-.185.138.013.059.268.067.542.067.131,0,.284,0,.442,0h.112c.2,0,.378,0,.542,0a10.548,10.548,0,0,1,1.822.126c.63.119,1.024.329,1.171.625.16.323.032.76-.381,1.3a4.436,4.436,0,0,0-1.343-.993,3.094,3.094,0,0,0-1.3-.276,8.586,8.586,0,0,0-2.3.452l-.006,0-.038.011-.321.091a11.994,11.994,0,0,1-3.359.544,10.46,10.46,0,0,1-3.379-.586c.5-.268.76-.525.79-.784.037-.318-.275-.591-.576-.855l0,0c-.28-.246-.544-.477-.507-.726.029-.2.246-.383.664-.572a8.3,8.3,0,0,0-2.4.576,3.9,3.9,0,0,0-1.149.882l0,0-.006.006c-.142.141-.3.3-.494.473l-1.052-1.065a8.27,8.27,0,0,0-1.956,1.888c-.493.665-.642.866-4.145,1.812.295-.151.439-.3.439-.454,0-.287-.5-.548-.987-.8s-.931-.484-.94-.741c0-.115.081-.225.262-.335h-.134a8.785,8.785,0,0,0-2.22.275,6.116,6.116,0,0,0-1.821.782l.185-.165a18.682,18.682,0,0,1-2.438.179,12.05,12.05,0,0,1-2.509-.263l-.1-.019-.042-.008h0A9.219,9.219,0,0,0,73.994,15a12.063,12.063,0,0,0-3.147.512l.644.643A30.736,30.736,0,0,1,66.136,17.2c-.877.1-1.819.186-2.881.258-.869.067-1.8.125-2.946.184-.745.038-1.5.073-2.229.106h-.013l-.079,0h-.008a84.9,84.9,0,0,0-9.141.736l2.4.393h-.063a10.028,10.028,0,0,0-1.576.236l-.01,0-.5.1a15.374,15.374,0,0,1-2.775.322,5.286,5.286,0,0,1-1.907-.3,4.991,4.991,0,0,0,.514-.142h0a3.534,3.534,0,0,1,.936-.207.83.83,0,0,1,.132.01,2.43,2.43,0,0,0-.948-1.187,4.048,4.048,0,0,0-2.115-.72l-.44,1.154-.874-.844c-.574.02-.893.108-.975.271s.066.364.205.565.285.41.206.567-.4.252-.975.272c-.931-1.343-3.145-1.529-5.4-1.529-.585,0-1.2.013-1.786.026h-.024c-.586.013-1.191.026-1.785.026a16.245,16.245,0,0,1-3.065-.222,4.345,4.345,0,0,1-2.239-1c-.189.353-.224.62-.108.815.25.42,1.162.424,2.044.427h.005c.832,0,1.619.007,1.8.353.089.17.025.41-.2.731-.225-.081-.425-.171-.6-.25a6.219,6.219,0,0,0-2.48-.6l.888,1.371c-.976-.056-1.905-.12-2.841-.2-.829-.061-1.642-.129-2.484-.206-.631-.057-1.238-.116-1.774-.167h-.014l-.031,0h0l-.051,0h-.006c-.846-.081-1.644-.158-2.437-.224-1.71-.142-3.082-.206-4.45-.206-1.407,0-2.834.069-4.36.212L8.886,18a12.3,12.3,0,0,0-1.874-.17,3.116,3.116,0,0,0-2.923,1.344c-.317-.294-.107-.541.1-.779.135-.158.262-.307.229-.46-.026-.12-.149-.231-.378-.338A4.084,4.084,0,0,1,.917,18.9,6.687,6.687,0,0,1,0,18.833V7.54a44.083,44.083,0,0,0,4.635.78,53.876,53.876,0,0,0,6.224.338c3.123,0,6.2-.227,8.8-.45,1.657-.148,3.433-.3,5.2-.44,1.415-.111,3.284-.248,5.2-.329,1.186-.05,2.274-.074,3.327-.074a51.924,51.924,0,0,1,7.172.459c.249-.057.394-.154.431-.287.079-.286-.34-.684-.645-.974a3.2,3.2,0,0,0,1.506.55c.625,0,.879-.484,1.125-.951.217-.412.442-.839.916-.95l4.188,2.44a1.152,1.152,0,0,0,.59-.675,1.227,1.227,0,0,0-.311-.9,1.1,1.1,0,0,1-.247-.531,28.991,28.991,0,0,1,3.406-.184c1.939,0,3.914.15,5.657.283h0l.108.008c1.822.139,3.543.271,5.218.271a16.852,16.852,0,0,0,5.116-.653,1.364,1.364,0,0,1,1,1.328c.042.478.078.891,1.365,1.019-.6-.418-.859-.757-.793-1.037.133-.562,1.567-.77,2.953-.971h0c1.207-.175,2.348-.34,2.494-.727a.352.352,0,0,0-.107-.353,8.149,8.149,0,0,0,4.406,1.4h0a7.98,7.98,0,0,1,2.673.6,1.907,1.907,0,0,1,.953,2.1c.1,0,.194.007.293.007,1.353,0,1.647-.51,1.7-.813a1.3,1.3,0,0,0-.8-1.281c.434.005.8.008,1.152.008,2.942,0,5.194-.228,7.326-1.364a5.563,5.563,0,0,0,1.922.2c.944,0,2.156-.059,3.439-.121h.023c1.041-.05,2.117-.1,3.227-.135.558-.012,1.056-.017,1.524-.017a31.186,31.186,0,0,1,4.732.292,7.149,7.149,0,0,1,3.351,1.2c-.658-.552-.916-.865-.863-1.048s.408-.23.9-.3h0a5.942,5.942,0,0,0,1.866-.477l-1.981-1.665,4.38.081a4.2,4.2,0,0,1,.8-.112c.215,0,.324.048.335.147.292.026.352.184.427.384.12.319.285.755,1.465.992h.164a4.2,4.2,0,0,0,3.358-1.1,7.718,7.718,0,0,1,.982-.728l-.486-.242,1.99-.209c.143,0,.217.02.225.056.019.079-.277.237-.653.437-.675.36-1.6.852-1.522,1.3.058.338.691.6,1.882.787a2.579,2.579,0,0,1,.994-1.109,3.734,3.734,0,0,1,2.035-.825,1.5,1.5,0,0,1,.978.338h-.094c-1.368,0-1.662.383-1.716.611-.078.332.246.761.769,1.02L130.16,5l-1.413-2.135c.452-.005.9-.008,1.317-.008,1.842,0,3.878.045,6.224.136,1.4.055,2.655.112,3.835.174l1.539.091.853.051,1.48.088c4.059.239,8.382.473,12.677.473,1.043,0,2.066-.014,3.043-.041.021.853,1.536.935,3.141,1.023,1.485.081,3.021.165,3.535.857a1.024,1.024,0,0,1,.133.9l-.431-.261c-.6.073-.913.24-.9.481.016.27.456.621,1.146.915a6.06,6.06,0,0,0,2.242.487,3.369,3.369,0,0,0,.547-.042c-.317-.118-.492-.264-.536-.443-.076-.31.259-.68.583-1.038s.678-.75.555-1.054c-.144-.352-.878-.558-2.31-.646l4.028-1.377a3.141,3.141,0,0,1,1.534-1.879,5.382,5.382,0,0,1,2.528-.5,19.44,19.44,0,0,1,2.959.282c.593.095,1.187.2,1.815.314h0a32.792,32.792,0,0,0,5.654.686,10.067,10.067,0,0,0,2.79-.35.949.949,0,0,0-.565.661,12.706,12.706,0,0,1,3.89-.54,30.84,30.84,0,0,1,5.5.613l.69.129.027.005.127.024.02,0h0a18.773,18.773,0,0,0,2.907.423,1.315,1.315,0,0,0,.735-.154l.595,1.463c3.01-1.481,4.315-2.083,6.417-2.083a32.079,32.079,0,0,1,4.544.483.723.723,0,0,1-.108.19c-.094.136-.2.29-.15.442.045.133.2.242.482.333l.015-.012a7.062,7.062,0,0,1,5.306-1.934c.39,0,.807.017,1.239.05l-.135.461,6.106-.225c.035,1.063.625,1.558,1.856,1.558a16.619,16.619,0,0,0,3.29-.538h0l.223-.05a18.433,18.433,0,0,1,3.837-.584,4.218,4.218,0,0,1,1.922.383,2.614,2.614,0,0,1,1.269,1.4c.787-.9,3.115-1.373,5.168-1.787h.009c.918-.185,1.785-.36,2.4-.554a.881.881,0,0,0,.487.606,3.019,3.019,0,0,1,2.331-.914,12.839,12.839,0,0,1,3.493.723l.138.042h0a11.648,11.648,0,0,0,3.1.675,3.153,3.153,0,0,0,.326-.016c.6-.207.932-.45,1-.744.1-.432-.369-.913-.824-1.379a4.48,4.48,0,0,0,2.265.533,14.376,14.376,0,0,0,4.382-.927c.255-.086.505-.172.719-.245h0a10.274,10.274,0,0,1,2.641-.7.859.859,0,0,1,.478.113,1.854,1.854,0,0,1,1.284.467,1.415,1.415,0,0,1,.172,1.085,1.759,1.759,0,0,0,.171,1.2c1.693-.18,1.674-1.077,1.659-1.8-.007-.341-.014-.636.155-.808a.646.646,0,0,1,.482-.153A6.5,6.5,0,0,1,272.8.627c-.141.047-.314.092-.481.135h-.009c-.389.1-.792.206-.813.34-.007.042.023.085.092.131.783.167,1.811,1.156,2.9,2.2,1.3,1.249,2.643,2.541,3.685,2.541a1.075,1.075,0,0,0,.527-.132l-1.233-.824a3.6,3.6,0,0,1,1.128-.172,9.7,9.7,0,0,1,3.566.964l.233.1.02.009.137.059a7.49,7.49,0,0,0,2.474.785c.6,0,.931-.321,1.056-1.012l-.315-1.422a12.215,12.215,0,0,0,3.4.792,2.975,2.975,0,0,0,.821-.12L290.008,5a3.291,3.291,0,0,1,.9-.125,13.075,13.075,0,0,1,3.292.645l-.076.233c.166-.016.336-.024.5-.024a7.654,7.654,0,0,1,1.753.236l.118.027.042.01a5.555,5.555,0,0,0,1.205.193,1.849,1.849,0,0,0,1.662-1.15l-.889-.327c.69-.024,1.266-.036,1.761-.036,1.059,0,1.749.052,2.7.124H303c.582.044,1.306.1,2.315.154a3.978,3.978,0,0,1,1.51-.29,1.323,1.323,0,0,1,.921.262c.07-.7,1.173-1.062,3.278-1.062a44.3,44.3,0,0,1,5.057.4h.019l.041.005h0c.3.037.543.066.708.082-.96.082-1.476.254-1.576.526-.107.288.245.646.617,1.025l.013.014,0,0c.087.089.177.18.259.271a5.639,5.639,0,0,1,1.233-.948,2.494,2.494,0,0,1,1.2-.314,4.853,4.853,0,0,1,2.3.771A7.255,7.255,0,0,1,322,2.4c.79-1.047,2.092-1.567,3.98-1.59-.171.088-.367.166-.556.24-.392.155-.761.3-.816.509a.3.3,0,0,0,.083.264.633.633,0,0,0,.514.21,3.087,3.087,0,0,0,1.212-.389l.016-.008c.183.225,0,.419-.215.644-.256.269-.546.575-.306,1.025a4.64,4.64,0,0,1,2.949-1.022,13.041,13.041,0,0,1,1.832.178l.134.019a15.957,15.957,0,0,0,2.33.2,10.4,10.4,0,0,0,1.794-.154c-.382.2-.589.388-.63.591-.053.258.156.508.4.8a3.441,3.441,0,0,1,.433.6.821.821,0,0,1,.871-.806,5.389,5.389,0,0,1,1.87.592,4.129,4.129,0,0,0,1.288.448.289.289,0,0,0,.261-.113c.116-.171.055-.547-.186-1.15C343.118,4.612,348.071,4.82,352.441,5c4.646.2,8.658.364,10.19,1.551a.981.981,0,0,0,.829.339,6.774,6.774,0,0,0,1.842-.424h0a6.822,6.822,0,0,1,1.844-.426l-.272,1.163a12.7,12.7,0,0,1,3.747-1.368A18.508,18.508,0,0,0,374.733,4.5c-.822.545-1.2.994-1.2,1.412.006.584.77,1.113,1.767,1.744l3.344-2.324.47,1.831a3.835,3.835,0,0,1,1.716-.374,10.72,10.72,0,0,1,2.433.388c.821-1.1,2.762-1.445,4.475-1.75h0c1.269-.226,2.365-.421,2.751-.878a1.651,1.651,0,0,0,1.628,1.075,5.967,5.967,0,0,0,.882-.09l.019,0a5.649,5.649,0,0,1,.835-.087,1.246,1.246,0,0,1,1.3.963,7.152,7.152,0,0,1,1.8-.791,2.142,2.142,0,0,1-.354-1.707.36.36,0,0,1,.332-.169,1.314,1.314,0,0,1,.53.147,1.37,1.37,0,0,1,.168-.017h.007c.041,0,.083,0,.129-.011l-.375-1.3a.554.554,0,0,1,.086-.409.209.209,0,0,1,.159-.062c.352,0,1.022.563,1.8,1.214l.018.015h0c.335.281.681.571,1.022.831a4.485,4.485,0,0,0-1.8-.37,5.7,5.7,0,0,0-.908.076l.418,1.441a17.916,17.916,0,0,1,3.478-.389h.068a4.987,4.987,0,0,1-1.254-.759c.379.165.734.354,1.076.538l.006,0c.156.084.286.153.423.224a3.352,3.352,0,0,1,.464.033.671.671,0,0,1-.282.059h-.006a3.365,3.365,0,0,0,1.47.372,3.649,3.649,0,0,0,1.275-.251,5.859,5.859,0,0,0,2.864.658,20.345,20.345,0,0,0,4.049-.574h0l.132-.027.061-.013.305-.063a19.341,19.341,0,0,1,3.818-.5h.149a6.568,6.568,0,0,1,3.729,1.13,3.322,3.322,0,0,0-1.339-.333.889.889,0,0,0-.769.3,22.142,22.142,0,0,1,4.93.787l.169.041.029.007.128.031a18.154,18.154,0,0,0,4.069.7,4.767,4.767,0,0,0,1.578-.24l-.029-1.33a45.744,45.744,0,0,1,6.467-.628c.544,0,1.06.02,1.576.063l.327-1.488a11.188,11.188,0,0,0,2.185.165c.8,0,1.656-.038,2.565-.078h.017l.1,0h.007c.81-.035,1.818-.08,2.756-.08a16.97,16.97,0,0,1,2.72.182,5.553,5.553,0,0,1,2.13.733v8.5a11.431,11.431,0,0,0-2.469,1.616,4.735,4.735,0,0,0-1.435,1.819.934.934,0,0,0,.019.747A7.928,7.928,0,0,1,443.4,16.9l-.169-.051-.025-.008-.011,0a4.747,4.747,0,0,0-1.532-.28,6.179,6.179,0,0,0-1.151.122,6.338,6.338,0,0,1,1.382.877c0,.012-.024.018-.061.018a2.635,2.635,0,0,1-.287-.032h-.009l-.1-.014-.036,0a5.5,5.5,0,0,0-.727-.057c-.821,0-1.333.288-1.523.857-.131.007-.251.01-.358.01-.5,0-.8-.071-.94-.223a.631.631,0,0,1-.093-.511.668.668,0,0,0-.371-.8c-.467.214-1.475.827-1.6,1.356-.618-.765.129-1.671.92-2.63.851-1.032,1.731-2.1.946-3.061-.636-.7-2.845-1.955-6.221-3.528l-.1-.048-.039-.018,0,0c-.644.776-1.142,2.831-1.268,5.234a18.374,18.374,0,0,0,.1,3.284,6.566,6.566,0,0,0,.729,2.474c-.058.206-.163.305-.32.305-.32,0-.807-.412-1.324-.849l0,0a4.181,4.181,0,0,0-1.51-.989,3.252,3.252,0,0,0-1.94-.676,5.961,5.961,0,0,0-2.268.609l-.032.013a5.742,5.742,0,0,1-2.173.6,2.568,2.568,0,0,1-.868-.148l2.057-.968c-.1-.14-.486-.217-1.085-.217-1.327,0-3.3.362-3.757.812a3.6,3.6,0,0,1,.565-1.207v0a9.97,9.97,0,0,0,.834-1.652c.212-.621.161-1.043-.154-1.291a8.331,8.331,0,0,0-1.015-.062,9.511,9.511,0,0,0-2.348.3,11.4,11.4,0,0,0-2.969,1.259c-1.75,1.059-2.9,2.431-2.863,3.416.822-.2,1.694-.418,2.394-.593l.041-.01.042-.01c1.551-.386,3.156-.785,4.742-1.159.03.785-1.129,1.149-2.357,1.534-1.355.425-2.757.864-2.719,1.912ZM262.608,14.105c-.416,0-.755.3-1.1.974a.8.8,0,0,0,.723.354,4.438,4.438,0,0,0,1.618-.506h0c.17-.078.322-.146.45-.2-.247-.093-.475-.2-.676-.293a2.727,2.727,0,0,0-1-.333Zm58.983-2.287a4.232,4.232,0,0,0-.594.043,3.53,3.53,0,0,0,1.672.59,1.13,1.13,0,0,0,.724-.239,4.513,4.513,0,0,0-1.732-.393h-.07Zm61.668-4.626c-.224,0-.333.022-.365.072s0,.1.03.17a.726.726,0,0,1,.071.251A1.94,1.94,0,0,1,383.259,7.192ZM115.58,3.775l-.044.049,0,0c-.166.189-.323.367-.284.452.016.036.066.054.152.054a3.857,3.857,0,0,0,.911-.2ZM397.56,19.543h-.038a4.245,4.245,0,0,1-1-.167c-.245-.7-.289-1.1-.148-1.359.163-.295.566-.386,1.177-.524a12.842,12.842,0,0,0,1.266-.339c-.1.073-.152.141-.142.209.025.173.417.3.831.443h0c.433.146.882.3.92.5.015.08-.03.162-.137.25a3.25,3.25,0,0,0-1.028-.232c-.477,0-.6.268-.724.552l0,.009-.019.043,0,0A.889.889,0,0,1,397.56,19.543ZM44.211,19.249H44.2c-.128,0-.185-.051-.185-.158a1.149,1.149,0,0,0,.215.081h0a1.56,1.56,0,0,1,.165.056A1.192,1.192,0,0,1,44.211,19.249Zm174.55-.036h-.067c-.051,0-.1,0-.157-.006-.088-.5-.084-.78.011-.893a.186.186,0,0,1,.152-.063,1.878,1.878,0,0,1,.628.226c.094.044.194.091.3.139a4.154,4.154,0,0,0,1.229.358c-.273.024-.551.066-.82.107l-.01,0-.011,0h-.007A8.665,8.665,0,0,1,218.76,19.214Zm2.416-.221h-.047c-.084,0-.171-.007-.268-.017.164-.015.309-.022.446-.022.094,0,.185,0,.272.01A2.807,2.807,0,0,1,221.177,18.992Zm215.9-.042c-.661-.088-1.074-.246-1.228-.47a.393.393,0,0,1-.055-.328,2.743,2.743,0,0,0,1.284.8h0Zm-385.6-.033-.233-.039a.8.8,0,0,1,.234.038h0Zm218.644-.252h0l-1.63-1.1h.009c.965.089,1.45.133,1.774.635l-.153.46ZM200.1,17.893h0l1.188-1.315a1.2,1.2,0,0,0,.056.513v0c.052.2.1.384-.007.524C201.2,17.8,200.811,17.886,200.1,17.893Zm168.553-.6h0l2.785-4.681.951,3.73a4.311,4.311,0,0,0-1.319-.271,3.669,3.669,0,0,0-2.417,1.222Zm-216.9-.133h0l.294-.028A1.526,1.526,0,0,1,151.759,17.165Zm247.059-.013h0a3.7,3.7,0,0,1,1.036-.417A8.1,8.1,0,0,1,398.818,17.152Zm-156.335-.064h0l-.484-.04-.478-1.7.962,1.738Zm-41.192-.51h0a.613.613,0,0,1,.1-.257.355.355,0,0,0,.052.006.317.317,0,0,1,.067.009l-.219.242Zm171.129-.125h0l-.026-.107c.049.018.113.038.144.048h0a.232.232,0,0,0-.055.027.231.231,0,0,1-.067.031ZM243.469,15.5h0l1.081-.327A4.39,4.39,0,0,1,243.469,15.5Zm9.02-.226h0c-.1-.008-.159-.037-.175-.085-.03-.091.09-.256.356-.491l-.18.575Zm-4.7-.381h-.03c-.039,0-.078,0-.119-.006l.46-.027A1.348,1.348,0,0,1,247.785,14.9Zm68.669-.263a8.3,8.3,0,0,1-2.078-.868l2.078.867Zm.176-.609c-.313-.138-.482-.286-.5-.439-.014-.113.054-.229.2-.342a1.482,1.482,0,0,0,.3.78h0Zm117.565-.28h0l-.7-.01.976-3-.278,3.005Zm-307.069-.358h0c-.015,0-.023,0-.025-.01-.007-.026.084-.115.555-.386a.953.953,0,0,0,.145.074l0,0,.006,0c.029.012.055.024.082.038A3.314,3.314,0,0,1,127.126,13.386Zm-52.6-8.856c-.081-.069-.159-.141-.232-.213a1.523,1.523,0,0,1,.233.212ZM246.351,2.345h0c-.029-.3.274-.553.926-.777a.278.278,0,0,1,.011.241c-.082.189-.388.364-.936.537Z" transform="translate(0.329 805.978)" fill="#fff" stroke="rgba(0,0,0,0)" stroke-width="1"/>
        <path id="Subtraction_31" data-name="Subtraction 31" d="M338.578,20.783h0l-6.373-.833a7.682,7.682,0,0,0,1.466-.208c.456-.112,1.028-.311,1.16-.625a.474.474,0,0,0-.156-.513c-1.731-.012-1.853-.146-2.122-.442a2.884,2.884,0,0,0-1.053-.74,62.094,62.094,0,0,0,6.464-4.611,65.668,65.668,0,0,0,5.713-4.983L340.2,8.8l-.734-1a14.084,14.084,0,0,0-5.979,3.923,47.46,47.46,0,0,0-4.084,4.734h0c-.137.178-.256.331-.356.458a1.672,1.672,0,0,1-1.363-1.211,3.735,3.735,0,0,1,.088-2.028,3.754,3.754,0,0,1,.7-1.435c-.165-.012-.329-.019-.486-.019a5.264,5.264,0,0,0-2.59.656,11.154,11.154,0,0,0-1.929,1.442l-.051.045a11.482,11.482,0,0,1-1.869,1.416,4.858,4.858,0,0,1-2.439.64,6.283,6.283,0,0,1-.87-.063l1.786.84a3.2,3.2,0,0,1-.7.059c-.559,0-1.3-.067-1.893-.12l-.072-.006h0c-.636-.057-1.237-.111-1.675-.111-.382,0-.592.043-.642.131a.122.122,0,0,0,.014.127A4.492,4.492,0,0,1,314.1,15.4a1.766,1.766,0,0,1,.266-1.751l-4.354,2.939c.339-.3.425-1.322.5-2.225v0a4.424,4.424,0,0,1,.226-1.388,1.31,1.31,0,0,0-.135-.007,1.946,1.946,0,0,0-1.332.639,4.03,4.03,0,0,0-.891,1.374c-.273.7-.262,1.305.026,1.567a21.946,21.946,0,0,0-2.3-1.36,9.165,9.165,0,0,1-2.672-2.086c-.246.038-.4.238-.452.579a3.582,3.582,0,0,0,.267,1.625,2.18,2.18,0,0,0,.761,1.142,8.643,8.643,0,0,1-2.391.371,7.157,7.157,0,0,1-2.348-.425.251.251,0,0,0-.055.028.218.218,0,0,1-.067.031h0l-.027-.108c.04.014.1.033.149.049,2.576-.733,2.4-3.277,2.253-5.52a7.276,7.276,0,0,1,.148-2.938l-8.806,8.208a17.041,17.041,0,0,0,1.125-3.51c-.279.8-1.456,1.412-3.5,1.808a35.639,35.639,0,0,1-6.335.492A48.793,48.793,0,0,1,279.2,14.7h.69a.318.318,0,0,0,.139-.361c-.079-.212-.43-.415-.988-.57a7.219,7.219,0,0,0-1.853-.237,4.437,4.437,0,0,0-1.882.35.678.678,0,0,1,.678-.36c.075,0,.157,0,.243.009h.043c.119.006.236.012.367.012h.024a2.232,2.232,0,0,0-1.253-.428,3.781,3.781,0,0,0-2.251,1.184l-.006.006h0a3.768,3.768,0,0,1-2.23,1.178,2.33,2.33,0,0,1-1.428-.567,8.843,8.843,0,0,0,.993.062,2.66,2.66,0,0,0,2.006-.615,1.4,1.4,0,0,0,.329-1.12,11.662,11.662,0,0,1-2.911.4,17.325,17.325,0,0,0-2.258.227,2.212,2.212,0,0,0-1.461.744,1.441,1.441,0,0,0-.068,1.314,7.129,7.129,0,0,0-1.251-.405l-.01,0a2.865,2.865,0,0,1-1.055-.4,1.012,1.012,0,0,1-.3-1.011l-5.763,1.646a.769.769,0,0,0,.37-.742c-.053-.228-.3-.527-1.178-.655a5.379,5.379,0,0,0,.76.053,11.112,11.112,0,0,0,2.962-.523l.22-.061.007,0a9.493,9.493,0,0,1,2.369-.465,1.951,1.951,0,0,1,1.648.74,5.768,5.768,0,0,0-.128-1.638,3.792,3.792,0,0,1-.09-1.333,2.44,2.44,0,0,1,.831-1.371,20.965,20.965,0,0,0-6.046,1.632,41.113,41.113,0,0,0-4.746,2.55h0l-.008,0h0c-.979.584-1.9,1.135-2.871,1.634l-5.374-1.43-.254.833-.878-2.126c-.156.105-.3.207-.442.31l0,0a1.948,1.948,0,0,1-.725.416.114.114,0,0,1-.1-.053c-.131-.211.112-.524.338-.772a3.335,3.335,0,0,0-1.375.483c-.184-1.126.843-2.4,1.873-3.491l-.176-.153-.023-.02-.1-.09-.024-.021-.133-.116.094-.047,0,0,.019-.01,0,0c.523-.262,1.017-.509,1.459-.744l-1.122,1.2c.583.5,1.034.866,1.462,1.2a6.422,6.422,0,0,0,.916-1.018,1.381,1.381,0,0,0,.309-.962c-.051-.34-.308-.621-.787-.859-.187.12-.434.259-.777.437.452-.5.908-1.055.859-1.432a.424.424,0,0,0-.207-.3l-4.2.929a17.434,17.434,0,0,1,1.7,1.383l.012.01.027.024.186.162.007.006.031.027c-2.083,1.043-4.121,2.153-4.18,3.248-.022.415.25.807.809,1.165l-3.129-1.306a21.738,21.738,0,0,1-5.487,2.382h0l-.012,0c-.522.162-1.238.384-2.14.674a1.1,1.1,0,0,1,.23-.889c.206-.353.4-.685-.053-1a3.368,3.368,0,0,1-1.976.6,8.466,8.466,0,0,1-3.361-.94l-.484-.222-.037-.017a6.436,6.436,0,0,0-2.169-.754.692.692,0,0,0-.716.5c-1.5.272-1.667.809-1.83,1.329a1.316,1.316,0,0,1-.989,1.042l0,0c.056-.159.15-.425.042-.59a.361.361,0,0,0-.29-.141l-2.015,1.486a.3.3,0,0,1-.158-.218c-.008-.147.157-.288.331-.437.19-.162.386-.329.348-.507s-.343-.365-.927-.541l-.649.183-.031.009a22.538,22.538,0,0,1-6.115,1.191,11.111,11.111,0,0,1-2.574-.31c-1,.066-1.548.25-1.678.562-.142.343.247.786.591,1.176.287.326.535.608.454.787-.058.126-.282.188-.687.188-.165,0-.362-.01-.586-.03-.037-.079-.073-.16-.11-.24a5.514,5.514,0,0,0-1.049-1.712,3.629,3.629,0,0,0-2.351-.975,4.39,4.39,0,0,0-1,.938,3.563,3.563,0,0,1-2.266,1.385l.12-1.891c-.3.009-.6.024-.863.037h-.027c-.366.018-.711.035-1.025.035a2.661,2.661,0,0,1-1.244-.208.956.956,0,0,1-.489-.9,5.137,5.137,0,0,1-2.242.575,4,4,0,0,1-1.4-.256c-.558.178-.867.434-.918.763-.142.915,1.71,2.224,2.936,3.091a8.941,8.941,0,0,1,1,.761,13.074,13.074,0,0,0-3.146-1l-.008,0a9.565,9.565,0,0,1-1.968-.57,4.337,4.337,0,0,1-1.7-1.386l2.644-.479a7.508,7.508,0,0,0-2.892-.688,4.468,4.468,0,0,0-1.944.45c-.084.038-.166.078-.239.112l-.04.019h0a2.479,2.479,0,0,1-1.016.33c-.57,0-1.119-.469-1.894-1.619.13.01.267.016.407.016a5.6,5.6,0,0,0,1.889-.326,1.744,1.744,0,0,0,1.072-.807.684.684,0,0,0-.277-.777l-2.8.966a.169.169,0,0,1-.034-.154c.04-.117.242-.182.436-.245.178-.057.346-.111.35-.2s-.141-.189-.457-.329a20.224,20.224,0,0,0-3.125,2.01l.035-.118-4.612.278c.243-.058.392-.189.381-.334s-.182-.3-.629-.337l-3.3.984c.278-.132.41-.277.392-.433s-.226-.351-.593-.522a6.483,6.483,0,0,0-1.362-.418,5.212,5.212,0,0,0-.7-.049,3.174,3.174,0,0,0-1.694.438,4.175,4.175,0,0,0-1.048.965c-.067.081-.133.165-.192.239l-.009.012-.03.037c-.479.607-.893,1.131-1.625,1.131a2.9,2.9,0,0,1-1.386-.459c.038,0,.075,0,.111,0a1.116,1.116,0,0,0,.408-.081h0a1.14,1.14,0,0,1,.415-.082c.033,0,.068,0,.11,0l-1.743-.85a1.717,1.717,0,0,1-.49,1.176,2.679,2.679,0,0,1-1.169.638,15.091,15.091,0,0,1-3.464.382h0a15.075,15.075,0,0,0-3.468.382,2.659,2.659,0,0,0-1.165.64A1.714,1.714,0,0,0,152,19.51c-.795-.516-1.094-.8-1.069-1s.409-.348,1.043-.566l0,0a13.214,13.214,0,0,0,2.844-1.288l-2.647-1.16a4.836,4.836,0,0,1,.706-.045c.161,0,.321.005.475.01h.024c.174.006.331.01.487.01a3.973,3.973,0,0,0,1.36-.205,6.133,6.133,0,0,0-2.71-.639,7.609,7.609,0,0,0-2.958.65,18.422,18.422,0,0,0-2.325,1.226l-.007,0-.025.015-.019.011-.005,0-.33.195c-.5-.217-.5-.7-.5-1.176a1.7,1.7,0,0,0-.156-.884,1.156,1.156,0,0,0-1.057-.4,6.155,6.155,0,0,0-1.091.119c-1.262.2-1.948.489-2.1.889-.143.382.211.8.552,1.2.29.342.563.665.47.915-.072.194-.363.329-.887.411l-2.393-2.066a10.052,10.052,0,0,1-3.9.765,21.985,21.985,0,0,1-3.712-.415l-.012,0c-.9-.154-1.835-.313-2.779-.38A2.227,2.227,0,0,0,128,16.32a6.215,6.215,0,0,0-1.445-.164,13.892,13.892,0,0,0-4.112.834l-.025.008-.2.063h0a12.328,12.328,0,0,1-3.5.77,3.731,3.731,0,0,1-.88-.1.2.2,0,0,0,.1-.176c-.011-.265-.6-.613-1.161-.949a3.968,3.968,0,0,1-.959-.676l-4.683,1.285a2.4,2.4,0,0,0,2-2.291v0c.037-.2.074-.4.126-.592a6.133,6.133,0,0,0-2.018.559,5,5,0,0,1-1.2.394c.387-.273.787-.555.778-.867-.005-.178-.143-.35-.423-.523l-.873.352-.293.118c-1.247.5-2.536,1.019-3.815,1.554a3.738,3.738,0,0,0,1.416.313,12.16,12.16,0,0,0-1.236.133h0a17,17,0,0,1-2.328.208,5.262,5.262,0,0,1-2.352-.463,2.071,2.071,0,0,1,.411-.674v0a2.06,2.06,0,0,0,.419-.694,2.285,2.285,0,0,0,1.364.582c.744,0,1.232-.614,1.7-1.208l.1-.121c-.6.044-1.02.064-1.315.064-.386,0-.581-.034-.652-.113a.255.255,0,0,1-.031-.208c.023-.215.055-.508-.7-.856a4.19,4.19,0,0,0-1.821.429,2.078,2.078,0,0,0-.937.907,1.258,1.258,0,0,0,.12,1.341l-.684-.1-.027,0a16.718,16.718,0,0,0-2.4-.253A8.011,8.011,0,0,0,93,16.091l.39-1.631-2.6.551L92.745,13a7.877,7.877,0,0,0-1.489-.177c-1.165,0-1.327.506-1.5,1.041l0,.006-.028.088a1.463,1.463,0,0,1-.482.775,2.451,2.451,0,0,1-1.483.352,10.227,10.227,0,0,1-1.426-.119l-.161-1.427A4.854,4.854,0,0,0,84.3,14.668a2.376,2.376,0,0,1-1.414.771,1.861,1.861,0,0,1-1.195-.587c-.283.125-.427.259-.441.41-.024.268.368.534.748.792.342.232.665.452.615.639-.063.233-.706.387-2.026.485a12.339,12.339,0,0,0-4.349-1.5c-.318.142-.46.306-.421.488.11.516,1.628,1,2.481,1h.02c-.367.032-.72.047-1.051.047a6.093,6.093,0,0,1-4.528-1.674l-.18-.159-.066-.058-.007-.007a4.267,4.267,0,0,0-3.111-1.43,8.37,8.37,0,0,0-2.424.431c.984.4.9.943.826,1.422a.9.9,0,0,0,.1.774c.272.317,1.029.464,2.383.464.171,0,.346,0,.519-.006a3.139,3.139,0,0,1-1.055.171,8.846,8.846,0,0,1-2.48-.51l-.013,0a8.918,8.918,0,0,0-2.52-.514,3.18,3.18,0,0,0-1.774.507l1.536-1.861h-.027a4.741,4.741,0,0,0-2.089.716l-.008,0,0,0c-.133.072-.258.139-.36.187l.048-1.408a4.182,4.182,0,0,1-2.841.989,12.1,12.1,0,0,1-1.435-.11l-.046-.006a10.918,10.918,0,0,0-1.269-.1,2.311,2.311,0,0,0-2.331,1.48c.2-.491.244-.811.132-.977a.411.411,0,0,0-.37-.146,4.919,4.919,0,0,0-1.142.246l-.057.016-.01,0-.043.012-.016,0-.043.012a5.945,5.945,0,0,1-1.547.29h0a1.447,1.447,0,0,1-.818-.21c1.155-.853,2.924-.95,4.485-1.035,1.832-.1,3.415-.187,3.452-1.456a2.06,2.06,0,0,0-.934-.219,4.418,4.418,0,0,0-.937.132h-.007a4.4,4.4,0,0,1-.922.131,1.949,1.949,0,0,1-.89-.209,6.334,6.334,0,0,0,2.267-1.5,7.937,7.937,0,0,0-2.124-.307,6.9,6.9,0,0,0-2.515.484,15.5,15.5,0,0,0-2.053,1.023l0,0h0a10.093,10.093,0,0,1-2.235,1.038l4.449-.648a1.372,1.372,0,0,1-.393,1.125,1.632,1.632,0,0,1-.875.223,1.824,1.824,0,0,0-1.738.964A3.8,3.8,0,0,0,47.5,15.1a6.7,6.7,0,0,0-1.638.259h0l-.043.011a6.233,6.233,0,0,1-1.514.251,2.744,2.744,0,0,1-.982-.175h0a1,1,0,0,0,.486-.113.991.991,0,0,1,.392-.11c-.1,0-.178,0-.228,0a8.8,8.8,0,0,1-5.3-1.833c-.262-.184-.507-.366-.743-.542l-.03-.022a4.644,4.644,0,0,0-2.4-1.233,4.09,4.09,0,0,0-.527-.032,7.147,7.147,0,0,0-2.383.454c-.782.3-1.29.662-1.392,1.006-.069.232.043.445.334.635-.132.061-.193.106-.186.138.013.059.268.067.542.067.133,0,.293,0,.445,0l.11,0c.143,0,.334,0,.54,0a10.577,10.577,0,0,1,1.825.127c.632.118,1.026.329,1.173.625.16.324.032.76-.38,1.3a4.441,4.441,0,0,0-1.344-.993,3.1,3.1,0,0,0-1.306-.275,8.608,8.608,0,0,0-2.309.453h0l-.03.009-.009,0-.32.091a12.007,12.007,0,0,1-3.361.543h0a10.469,10.469,0,0,1-3.379-.586c.5-.269.761-.525.791-.784.036-.318-.275-.591-.576-.854-.281-.246-.547-.479-.51-.728.029-.2.246-.383.664-.572a8.308,8.308,0,0,0-2.4.576,3.915,3.915,0,0,0-1.15.882l0,0c-.136.134-.3.3-.5.479L18.81,13.078a8.267,8.267,0,0,0-1.957,1.888c-.493.665-.642.866-4.148,1.812.3-.151.439-.3.439-.455,0-.287-.5-.548-.988-.8s-.932-.484-.941-.741c0-.115.082-.224.262-.334h-.135a8.8,8.8,0,0,0-2.221.275,6.134,6.134,0,0,0-1.822.782l.185-.164a18.685,18.685,0,0,1-2.438.178,12.063,12.063,0,0,1-2.511-.263l-.046-.009-.018,0-.019,0L2.4,15.229A9.242,9.242,0,0,0,.5,15c-.161,0-.33.006-.5.017V5.4c.711-.144,1.076-.307,1.149-.515a.358.358,0,0,0-.11-.347,8.164,8.164,0,0,0,4.412,1.4,8,8,0,0,1,2.675.6,1.906,1.906,0,0,1,.953,2.1c.1.005.2.008.294.008,1.354,0,1.648-.51,1.7-.813a1.3,1.3,0,0,0-.8-1.281c.457.005.812.008,1.149.008,2.946,0,5.2-.228,7.335-1.364a5.552,5.552,0,0,0,1.923.2c.951,0,2.163-.059,3.446-.121h.006c.99-.048,2.112-.1,3.243-.135.546-.012,1.044-.017,1.523-.017a31.291,31.291,0,0,1,4.737.292,7.152,7.152,0,0,1,3.354,1.2c-.659-.552-.916-.866-.863-1.049s.409-.23.9-.3h0A5.945,5.945,0,0,0,38.9,4.789L36.914,3.124,41.3,3.2a4.215,4.215,0,0,1,.806-.112c.215,0,.325.048.336.147.291.026.351.184.427.384.121.319.286.755,1.466.992H44.5a4.206,4.206,0,0,0,3.36-1.1,7.75,7.75,0,0,1,.984-.729l-.487-.242,1.991-.209c.143,0,.217.02.226.055.02.079-.278.237-.654.438-.676.36-1.6.852-1.523,1.3.057.338.691.6,1.883.787a2.576,2.576,0,0,1,.994-1.109,3.742,3.742,0,0,1,2.037-.826,1.5,1.5,0,0,1,.979.338h-.094c-1.369,0-1.664.383-1.718.612-.078.331.246.76.769,1.02L56.712,5,55.3,2.863c.46-.005.9-.007,1.308-.007,1.85,0,3.89.044,6.239.136,1.371.054,2.626.111,3.837.174l.451.027,1.035.061,2.388.142c4.052.239,8.369.472,12.679.472,1.048,0,2.074-.014,3.052-.041.021.853,1.537.936,3.143,1.023,1.486.081,3.023.165,3.538.857a1.024,1.024,0,0,1,.133.9l-.431-.261c-.6.073-.914.24-.9.481.016.271.456.621,1.147.915a6.068,6.068,0,0,0,2.244.487,3.359,3.359,0,0,0,.547-.042c-.317-.118-.493-.263-.537-.443-.076-.311.259-.68.582-1.037h0c.334-.368.678-.749.554-1.053C96.166,5.3,95.431,5.1,94,5.008l4.031-1.377a3.142,3.142,0,0,1,1.535-1.879,5.386,5.386,0,0,1,2.53-.5,19.464,19.464,0,0,1,2.961.282c.577.092,1.153.2,1.763.3l.057.01a32.881,32.881,0,0,0,5.658.686,10.092,10.092,0,0,0,2.792-.349.948.948,0,0,0-.566.661,12.722,12.722,0,0,1,3.893-.541,30.846,30.846,0,0,1,5.5.613l.693.13.15.028.021,0a18.83,18.83,0,0,0,2.911.423,1.315,1.315,0,0,0,.735-.153l.6,1.463c3.011-1.481,4.317-2.082,6.421-2.082a32.138,32.138,0,0,1,4.548.483.728.728,0,0,1-.109.191c-.094.136-.2.289-.149.441.044.132.2.241.482.333l.014-.011a7.068,7.068,0,0,1,5.31-1.935c.386,0,.8.017,1.241.05l-.136.46L153,2.517c.035,1.063.625,1.558,1.857,1.558a16.628,16.628,0,0,0,3.293-.539h0l.224-.05a18.431,18.431,0,0,1,3.839-.584,4.22,4.22,0,0,1,1.923.383,2.614,2.614,0,0,1,1.27,1.4c.789-.9,3.119-1.373,5.175-1.787h0c.918-.185,1.786-.359,2.4-.555-.029-.3.274-.554.927-.777a.278.278,0,0,1,.011.24c-.081.189-.388.364-.937.537a.884.884,0,0,0,.487.607,3.022,3.022,0,0,1,2.333-.915,12.847,12.847,0,0,1,3.5.723l.136.042h0a11.669,11.669,0,0,0,3.105.676,3.213,3.213,0,0,0,.325-.016c.6-.206.933-.45,1-.744.1-.432-.369-.914-.825-1.379a4.484,4.484,0,0,0,2.266.533A14.407,14.407,0,0,0,189.7.946c.242-.081.479-.162.72-.245A10.28,10.28,0,0,1,193.07,0a.858.858,0,0,1,.478.113,1.854,1.854,0,0,1,1.285.466A1.413,1.413,0,0,1,195,1.661v0a1.759,1.759,0,0,0,.171,1.2c1.695-.18,1.676-1.076,1.66-1.8v0c-.007-.34-.013-.633.155-.8a.646.646,0,0,1,.482-.153,6.5,6.5,0,0,1,1.978.517c-.148.049-.336.1-.488.137-.391.1-.795.206-.817.341-.007.043.023.085.092.13.783.167,1.811,1.156,2.9,2.2l0,0c1.3,1.248,2.644,2.539,3.686,2.539a1.076,1.076,0,0,0,.527-.133l-1.235-.824a3.6,3.6,0,0,1,1.129-.172,9.722,9.722,0,0,1,3.569.964l.389.166a7.5,7.5,0,0,0,2.477.787c.6,0,.932-.322,1.058-1.012l-.316-1.421a12.233,12.233,0,0,0,3.4.792,3,3,0,0,0,.821-.119L216.676,5a3.3,3.3,0,0,1,.9-.124,13.1,13.1,0,0,1,3.295.645l-.077.233c.169-.016.34-.023.507-.023a7.71,7.71,0,0,1,1.752.236l.132.03.028.006a5.578,5.578,0,0,0,1.205.193,1.852,1.852,0,0,0,1.664-1.15l-.89-.327c.693-.024,1.269-.036,1.761-.036,1.057,0,1.742.051,2.691.123l.023,0h.006c.621.047,1.324.1,2.316.154a3.992,3.992,0,0,1,1.512-.29,1.323,1.323,0,0,1,.921.262c.07-.7,1.174-1.062,3.28-1.062a44.336,44.336,0,0,1,5.067.4h.006c.308.038.578.071.76.089-.961.082-1.477.254-1.578.526-.107.287.244.645.615,1.023l0,0c.093.095.19.193.278.29a5.634,5.634,0,0,1,1.233-.948,2.5,2.5,0,0,1,1.2-.314,4.858,4.858,0,0,1,2.3.771A7.256,7.256,0,0,1,248.693,2.4c.791-1.047,2.094-1.567,3.982-1.59-.168.087-.361.163-.547.237l-.008,0h0c-.392.155-.761.3-.816.509a.3.3,0,0,0,.083.264.634.634,0,0,0,.514.21,3.037,3.037,0,0,0,1.212-.389l.016-.008c.183.225,0,.419-.215.644-.256.27-.546.576-.307,1.026a4.648,4.648,0,0,1,2.951-1.021,13.09,13.09,0,0,1,1.837.179l.132.019a16.012,16.012,0,0,0,2.33.2,10.417,10.417,0,0,0,1.8-.154c-.383.2-.589.388-.631.591-.053.258.156.508.4.8a3.446,3.446,0,0,1,.433.6.821.821,0,0,1,.872-.805,5.384,5.384,0,0,1,1.869.591h.005a4.148,4.148,0,0,0,1.287.447.29.29,0,0,0,.261-.112c.116-.171.055-.547-.187-1.15C269.827,4.612,274.782,4.82,279.155,5c4.649.2,8.664.363,10.2,1.551a.983.983,0,0,0,.83.338,6.773,6.773,0,0,0,1.846-.425l.006,0a6.818,6.818,0,0,1,1.84-.424L293.6,7.205a12.707,12.707,0,0,1,3.75-1.368h0a18.531,18.531,0,0,0,4.11-1.333c-.822.545-1.2.994-1.2,1.412.006.584.77,1.113,1.769,1.744l3.346-2.323.47,1.831a3.84,3.84,0,0,1,1.718-.374A10.717,10.717,0,0,1,310,7.182c.821-1.1,2.765-1.445,4.48-1.75,1.27-.226,2.368-.421,2.754-.878a1.653,1.653,0,0,0,1.629,1.075,5.944,5.944,0,0,0,.883-.09l.019,0h.007a5.576,5.576,0,0,1,.828-.087,1.246,1.246,0,0,1,1.3.963,7.146,7.146,0,0,1,1.8-.791,2.139,2.139,0,0,1-.354-1.707.359.359,0,0,1,.332-.169,1.32,1.32,0,0,1,.53.148,1.381,1.381,0,0,1,.171-.017h.008c.04,0,.081-.005.125-.011l.418,1.441a18,18,0,0,1,3.482-.389h.067a4.977,4.977,0,0,1-1.255-.759c.374.162.724.349,1.063.531l.016.008c.131.07.282.151.427.226a3.351,3.351,0,0,1,.464.033.676.676,0,0,1-.285.059h0a3.363,3.363,0,0,0,1.471.372,3.649,3.649,0,0,0,1.276-.251,5.863,5.863,0,0,0,2.866.658,20.393,20.393,0,0,0,4.055-.575l.5-.1a19.333,19.333,0,0,1,3.822-.5h.149a6.578,6.578,0,0,1,3.732,1.131,3.328,3.328,0,0,0-1.34-.333.89.89,0,0,0-.769.3A22.148,22.148,0,0,1,349.6,6.5l.242.059.074.018.007,0h0a18.192,18.192,0,0,0,4.07.7,4.774,4.774,0,0,0,1.58-.24l-.03-1.329a45.765,45.765,0,0,1,6.471-.628c.546,0,1.062.02,1.578.063l.327-1.488a11.226,11.226,0,0,0,2.187.165c.793,0,1.647-.038,2.55-.077h.028l.1,0h.009c.81-.036,1.817-.08,2.756-.08a13.756,13.756,0,0,1,3.521.352,3.394,3.394,0,0,1,2.239,1.5,1.665,1.665,0,0,1,1.278-.4,14.431,14.431,0,0,1,2.531.352l.047.009h0a15.226,15.226,0,0,0,2.662.363,3.892,3.892,0,0,0,.518-.032l.354,1.173a13.779,13.779,0,0,0,2.739.284,18.681,18.681,0,0,0,2.921-.275l.049-.007.228-.034.019,0c-.09-.047-.182-.089-.275-.13a3.329,3.329,0,0,1-.416-.211,3.569,3.569,0,0,1,1.713-.45,4.854,4.854,0,0,1,2.307.67,9.419,9.419,0,0,0-1.166-.071,14.435,14.435,0,0,0-2.164.192,11.369,11.369,0,0,0,3.145,1.117,15.939,15.939,0,0,0,3.175.288c1.274,0,2.573-.111,3.72-.21l.069-.006h.012c1.231-.105,2.394-.2,3.551-.2.522,0,.994.02,1.446.062l-.009.332,4.928-.549a2.7,2.7,0,0,0-.427.308s0,0,.005,0a1.507,1.507,0,0,0,.23-.086h0c.158-.066.375-.156.635-.247a4.809,4.809,0,0,1,1.543-.323,1.847,1.847,0,0,1,.47.055,5.532,5.532,0,0,1,1.529-.193,9.94,9.94,0,0,1,4.2,1l3.047.231c-.98.162-1.479.368-1.568.65s.239.611.621.987c.41.4.874.863.859,1.352l2.133-.931a.376.376,0,0,1,.135.293c-.014.183-.216.331-.394.461-.157.115-.291.214-.273.313s.17.176.481.26a10.131,10.131,0,0,1,2.488-.458h0c1.568-.174,3.345-.372,4.231-1.155a2.289,2.289,0,0,0-1.07-.984.648.648,0,0,1-.132.046s0,0,0,0,.032-.031.09-.071a.68.68,0,0,1-.064-.042h0c-.017-.012-.035-.024-.055-.036l.025.009h0l.011,0,0,0h0c.032.012.059.023.112.038a3.172,3.172,0,0,0,.628-.489,7.247,7.247,0,0,0,1.231.157c.238,0,.378-.038.442-.121s.037-.235,0-.4v0a1.33,1.33,0,0,1-.06-.382,6.391,6.391,0,0,0,2.979,1.572,4.261,4.261,0,0,1,2.589,1.559c-.154-.265-.186-.466-.1-.615.124-.215.5-.316,1.185-.316.4,0,.86.033,1.343.067h.028c.48.035.977.07,1.427.07.825,0,1.289-.127,1.461-.4a.769.769,0,0,0-.054-.758c.86,1.153,1.2,1.156,1.466,1.158.247,0,.426,0,.889.895a5.652,5.652,0,0,0-1.479-.187,15.9,15.9,0,0,0-5.2,1.274h0c-.644.236-1.251.46-1.828.634l2.042,1.4a2.041,2.041,0,0,1-1.626.775,5.936,5.936,0,0,1-2.314-.689l-.143-.065h0l0,0a5.224,5.224,0,0,0-1.891-.616,1.085,1.085,0,0,0-.471.1,1.985,1.985,0,0,1,.861-.168,3.758,3.758,0,0,1,1.325.256,1.266,1.266,0,0,1,.74.542l-.26-1.749a8.01,8.01,0,0,0-2.327-.334,16.561,16.561,0,0,0-5.047,1.049h0l-.01,0-.009,0c-.36.116-.7.226-1.043.33.346.123.515.238.516.35,0,.175-.4.327-.859.5h0c-.6.23-1.279.49-1.366.886a.615.615,0,0,0,.23.545l1.757-.109a.4.4,0,0,1,.142.363c-.081.369-.848.664-1.59.949l0,0c-.236.091-.48.184-.7.279-2.5-.813-6.192-1.078-9.455-1.312h-.007l-.369-.026c-1.76-.127-3.317-.247-4.562-.428a5.568,5.568,0,0,1-2.655-.817,3.493,3.493,0,0,0,1.518.278,7.3,7.3,0,0,0,2.682-.513l-2.426-.891a6.671,6.671,0,0,1,2.342.62,8.224,8.224,0,0,0,3.27.768,7.437,7.437,0,0,0,.995-.069,2,2,0,0,1,.406-1.372l0,0c.478-.868,1.019-1.851-.294-2.943a7.223,7.223,0,0,0-2.554-.543,6.25,6.25,0,0,0-3.185,1.061l-.034.019-.341.188a10.515,10.515,0,0,1-1.939.858,8.918,8.918,0,0,1-2.7.389,13.2,13.2,0,0,1-1.552-.1.3.3,0,0,1-.105.033.027.027,0,0,1-.026-.012c-.018-.028.021-.1.075-.21v0h0a1.783,1.783,0,0,0,.189-.493.5.5,0,0,0-.1-.423,1.666,1.666,0,0,0-1.234-.322,8.575,8.575,0,0,0-.883.052,18.061,18.061,0,0,0-6.276,2.285,8.3,8.3,0,0,0-1.972,1.661,3.747,3.747,0,0,0-.891,1.826l.006,0a19.778,19.778,0,0,1,4.81-.977,2.834,2.834,0,0,1,1.208.214,1,1,0,0,1,.589.751c-.614.181-1.363.333-2.086.481l-.021,0h0c-1.756.357-3.572.725-3.82,1.538-.3-.377-.4-.658-.309-.857.145-.327.785-.373,1.349-.413.475-.034.923-.066.983-.261.047-.155-.154-.4-.614-.763h-.091a4.1,4.1,0,0,0-2.2.671h0c-.163.093-.333.188-.5.265a.6.6,0,0,0,.3-.487c-.014-.377-.544-.723-1.011-1.028a2.636,2.636,0,0,1-.656-.516,39.42,39.42,0,0,1-5.775-.821l-.279-.055-.046-.009-.1-.019-.036-.007h-.007c-.736-.146-1.5-.3-2.306-.433-1.127-.182-2.158-.31-3.243-.4-.165-.242-.666-.977-.443-1.508-1.945.364-4.754,2.3-5.465,3.772a1.073,1.073,0,0,0-.079.985,7.923,7.923,0,0,1-2.34-.354l-.194-.059-.01,0a4.763,4.763,0,0,0-1.533-.28,6.2,6.2,0,0,0-1.152.122c1.037.6,1.4.819,1.383.877,0,.012-.023.018-.061.018a2.6,2.6,0,0,1-.285-.032h-.005l-.141-.02a5.5,5.5,0,0,0-.727-.057c-.821,0-1.334.288-1.525.857-.129.007-.25.01-.358.01-.5,0-.8-.071-.941-.223a.63.63,0,0,1-.093-.51.668.668,0,0,0-.371-.8c-.449.2-1.477.83-1.606,1.355-.619-.765.13-1.671.922-2.631.851-1.031,1.732-2.1.946-3.06-.638-.7-2.849-1.956-6.228-3.529l-.056-.026-.007,0-.081-.038c-.644.776-1.143,2.83-1.269,5.235a18.339,18.339,0,0,0,.1,3.284,6.56,6.56,0,0,0,.729,2.474c-.058.206-.162.306-.32.306-.321,0-.809-.414-1.327-.852a4.188,4.188,0,0,0-1.512-.989,3.257,3.257,0,0,0-1.941-.676,5.968,5.968,0,0,0-2.27.609l-.033.014a5.747,5.747,0,0,1-2.173.6,2.566,2.566,0,0,1-.869-.148l2.059-.968c-.1-.14-.487-.217-1.086-.217-1.327,0-3.3.362-3.76.812a3.6,3.6,0,0,1,.563-1.2l0-.007a9.907,9.907,0,0,0,.834-1.652c.212-.621.162-1.043-.153-1.29a8.321,8.321,0,0,0-1.017-.062,9.494,9.494,0,0,0-2.349.3,11.41,11.41,0,0,0-2.971,1.259c-1.751,1.059-2.9,2.432-2.866,3.416.678-.166,1.37-.338,2.04-.5l.048-.012.336-.083.02-.005c1.558-.387,3.169-.788,4.781-1.168.029.786-1.131,1.149-2.359,1.534-1.356.425-2.758.865-2.72,1.912ZM189.256,14.1c-.416,0-.755.3-1.1.974a.8.8,0,0,0,.723.354,4.446,4.446,0,0,0,1.619-.505l.011,0c.16-.073.311-.142.442-.192-.24-.09-.464-.194-.662-.285l-.016-.007h0l0,0a2.711,2.711,0,0,0-1-.329h-.016Zm59.023-2.287a4.184,4.184,0,0,0-.592.042,3.53,3.53,0,0,0,1.673.59,1.131,1.131,0,0,0,.724-.239,4.52,4.52,0,0,0-1.732-.393h-.073ZM415.3,8.644s.088.039.347.144l.023.009.618.249a.543.543,0,0,1,.093-.064c-.382-.113-.7-.216-.889-.278l-.006,0-.012,0h0C415.375,8.666,415.31,8.644,415.3,8.644ZM310,7.192h0c-.224,0-.333.022-.366.071s0,.1.03.17a.728.728,0,0,1,.071.251A1.92,1.92,0,0,1,310,7.192ZM42.121,3.774l-.044.049c-.167.189-.325.368-.286.453.016.036.066.054.152.054a3.845,3.845,0,0,0,.911-.2ZM324.306,19.543h-.038a4.259,4.259,0,0,1-1-.167c-.245-.7-.289-1.1-.148-1.359.163-.295.567-.386,1.178-.524a12.813,12.813,0,0,0,1.266-.338c-.1.073-.151.141-.142.209.025.173.417.3.831.443h0c.434.146.883.3.921.5.015.08-.03.162-.138.25a3.243,3.243,0,0,0-1.028-.232c-.478,0-.6.268-.726.552l-.01.024-.015.033A.89.89,0,0,1,324.306,19.543Zm76.044-.071c-.948-.022-1.419-.095-1.442-.224s.487-.336,1.027-.541a3.5,3.5,0,0,0,1.129-.547c.657.15.98.29.988.428.009.16-.388.3-.809.447a2.3,2.3,0,0,0-.894.436h0Zm-254.975-.258h-.065c-.067,0-.116,0-.157-.006-.088-.5-.084-.78.012-.893a.185.185,0,0,1,.152-.064,1.863,1.863,0,0,1,.622.223l.007,0,0,0c.08.037.189.088.3.137a4.154,4.154,0,0,0,1.226.358c-.278.026-.569.07-.826.109h0A8.738,8.738,0,0,1,145.375,19.214Zm2.424-.222h-.052c-.087,0-.176-.007-.264-.016.16-.015.3-.022.442-.022.095,0,.186,0,.272.01A2.738,2.738,0,0,1,147.8,18.992Zm299.627-.022h0c-.137-.07-.21-.148-.224-.239-.024-.165.158-.34.334-.51l0,0c.149-.144.289-.279.3-.4l-2.819.576c-.128-1.126,1.227-1.756,2.424-2.313.82-.381,1.594-.741,1.729-1.2a.605.605,0,0,0-.1-.511,2.706,2.706,0,0,1,.842.694l0,0,.011.013.032.036v2.505a4.318,4.318,0,0,0-1.5.393,1.9,1.9,0,0,0-1.028.959Zm-83.578-.02c-.661-.088-1.075-.246-1.228-.469a.4.4,0,0,1-.055-.329,2.741,2.741,0,0,0,1.284.8h0Zm43.833-.137h0l.385-1.821a4.2,4.2,0,0,1,.214.369v0a1.579,1.579,0,0,0,.8.816l-1.4.634Zm-210.915-.148h0l-1.631-1.1h.01c.965.089,1.45.133,1.775.635l-.153.46Zm-70.058-.772h0l1.188-1.315a1.2,1.2,0,0,0,.057.513v0c.052.2.1.384-.006.524C127.808,17.8,127.414,17.886,126.707,17.893Zm310.3-.254-2.422-.577,1.744.222.678.354Zm3.5-.219h0l-1.382-.379,1.1-1.128.278,1.507ZM295.383,17.3h0l2.788-4.681.952,3.73a4.307,4.307,0,0,0-1.32-.271,3.672,3.672,0,0,0-2.418,1.222ZM78.327,17.165h0c.1-.008.191-.017.294-.028A1.476,1.476,0,0,1,78.327,17.165Zm247.238-.012h0a3.719,3.719,0,0,1,1.038-.417,8.233,8.233,0,0,1-1.037.418Zm-156.449-.064h0l-.484-.04-.479-1.7.963,1.738Zm-41.222-.51h0a.606.606,0,0,1,.1-.257.349.349,0,0,0,.053.006h0a.34.34,0,0,1,.063.009l-.219.242Zm302.89-.471-2.426-.57c.006-.136.164-.2.5-.2a11.719,11.719,0,0,1,1.412.15h.007l.022,0h.009c.4.057.823.116,1.241.156-.35.073-.752.191-.761.458Zm1.724-.4H432.4c-.247,0-.523-.022-.847-.055a8.239,8.239,0,0,1,1.575-.12c.151,0,.314,0,.482.007A2.824,2.824,0,0,1,432.509,15.706ZM170.1,15.5h0l1.081-.327a4.43,4.43,0,0,1-1.08.328Zm9.027-.226h0c-.1-.008-.159-.036-.176-.085-.03-.091.09-.257.356-.491l-.18.576Zm-4.708-.382h-.03c-.041,0-.08,0-.119-.006l.461-.028A1.314,1.314,0,0,1,174.422,14.9ZM399.61,14.68h-.048c-.48-.009-.841-.143-.945-.35a.356.356,0,0,1,.064-.379l2.8-.269a.288.288,0,0,1,.054.26c-.072.213-.467.347-.885.489-.2.067-.4.135-.583.217A3.41,3.41,0,0,1,399.61,14.68Zm-156.467-.046a8.312,8.312,0,0,1-2.082-.868l2.082.868h0Zm188.4-.165h0a.919.919,0,0,1,.5-.577,1.216,1.216,0,0,0-.5.576Zm9.708-.159h-.08a1.355,1.355,0,0,1-.993-.294.785.785,0,0,1-.185-.6l.006,0,.013,0a10.734,10.734,0,0,1,2.184-.4c.358,0,.582.08.686.245.12.191.079.49-.125.915a1.02,1.02,0,0,0,.224.017h.054c-.2.015-.407.034-.589.05l-.02,0h-.023C441.992,14.276,441.6,14.311,441.255,14.311Zm3.613-.078h0a5.062,5.062,0,0,0-.949-.078c-.153,0-.319,0-.506.014A6.618,6.618,0,0,0,444.2,14a2.8,2.8,0,0,1,.564-.11c.079,0,.129.018.153.056s.017.145-.049.282Zm-66.249-.059a1.549,1.549,0,0,1-.2-.181l.024,0h.005l.026,0h.012l.022,0,.02.03.006.01.011.017.009.014a.505.505,0,0,1,.063.1h0Zm-135.3-.149c-.313-.138-.482-.285-.5-.438-.014-.114.054-.229.2-.342a1.484,1.484,0,0,0,.3.78Zm117.651-.28h0l-.7-.01.976-3-.278,3.005ZM53.675,13.386h0c-.014,0-.023,0-.025-.01-.01-.038.187-.175.555-.386a.961.961,0,0,0,.145.073l0,0c.031.014.059.026.087.041A3.3,3.3,0,0,1,53.675,13.386ZM447.528,10.35h0l-1.019-.533,1.429-.616-.41,1.15Zm-9.092-.958h0c-.089-.046-.174-.095-.268-.149A2.842,2.842,0,0,0,436.5,8.8l2.061-.2c-.248.074-.2.3-.159.519a1.279,1.279,0,0,1,.035.274Zm-14.91-.056h-.055c-.335-.006-.52-.065-.55-.174-.036-.131.156-.333.54-.57a4.977,4.977,0,0,1,1.894-.71c.116,0,.189.027.216.082s-.005.179-.118.328c-.04-.061-.077-.091-.113-.091-.09,0-.163.188-.247.406-.022.059-.042.11-.06.154-.112.275-.257.557-.486.557a.369.369,0,0,1-.169-.046A7.159,7.159,0,0,1,423.526,9.336Zm5.885-.142a6.88,6.88,0,0,1-1.253-.463,6.417,6.417,0,0,1,1.253.463Zm.788-.432-.12-.024h-.007l-.042-.008c-.2-.039-.43-.083-.715-.149a4.188,4.188,0,0,1,.653-.071c.168,0,.267.028.292.083S430.259,8.689,430.2,8.762Zm-2.044-.032a7.839,7.839,0,0,0-1.638-.24c.682.022,1.1.025,1.384.025h.059a.041.041,0,0,0-.022.036c0,.043.077.1.217.179Zm-.194-.216h0a.779.779,0,0,1,.34-.061.365.365,0,0,1,.173.022v0A1.6,1.6,0,0,1,427.961,8.514Zm-31.249-.321H396.7a4,4,0,0,1-1.641-.752c-.334-.207-.68-.42-1.058-.62a11.835,11.835,0,0,1,3.353.965A.712.712,0,0,1,396.712,8.194ZM1.035,4.53C.954,4.461.876,4.39.8,4.317a1.523,1.523,0,0,1,.233.212Zm326.192-.374a4.493,4.493,0,0,0-1.8-.369,5.778,5.778,0,0,0-.909.076l-.376-1.3a.554.554,0,0,1,.087-.409.209.209,0,0,1,.159-.062c.352,0,1.023.562,1.8,1.214C326.525,3.593,326.878,3.888,327.227,4.156Z" fill="#fff" stroke="rgba(0,0,0,0)" stroke-width="1"/>
      </g>
    </g>
    <g id="Group_843" data-name="Group 843">
      <g id="Group_664" data-name="Group 664" transform="translate(387.628 1047.317)">
        <g id="Group_9" data-name="Group 9" transform="translate(0 0)" clip-path="url(#clip-path)">
          <path id="Path_4943" data-name="Path 4943" d="M54.74,20.14c-.437-3.447-2.779-6.409-6.39-6.713-3.726-.314-7.175,1.994-9.771,4.419a43,43,0,0,0-6.042,7.349,53.6,53.6,0,0,0-.361-9.43c-.52-4.047-1.268-8.478-3.188-12.127-.763-1.45-1.953-3.167-3.65-3.563-1.844-.431-3.644,1.112-4.75,2.409C18.073,5.429,16.48,9.354,15.032,12.9a68.061,68.061,0,0,0-3.06,9.468,19.17,19.17,0,0,0-2.091-4.721C8.737,15.845,5.2,11.629,3,14.517a7.387,7.387,0,0,0-.922,2.276Q1.63,18.2,1.282,19.634A46.5,46.5,0,0,0,.3,25.162a45.125,45.125,0,0,0,.111,11.3,44.225,44.225,0,0,0,1.067,5.423c.382,1.439.922,2.913,2.447,3.456,1.68.6,3.838.269,5.59.265q3.107-.007,6.213-.053,12.324-.181,24.63-.96a5.513,5.513,0,0,0,3.611-1.165,1.051,1.051,0,0,0,1.284-.355,64.438,64.438,0,0,0,6.387-11.018c1.642-3.629,3.616-7.834,3.1-11.919M3.206,40.457A43.293,43.293,0,0,1,2.93,21.585a78.727,78.727,0,0,0,.647,20.342c-.148-.485-.255-.99-.371-1.471M38.661,25.7c.723-1.061,1.46-2.111,2.231-3.138.256-.341,1.455-2.089,2.488-3.276-1.314,2.958-2.58,5.937-3.754,8.952.085-.431.169-.866.261-1.293A1.048,1.048,0,0,0,38.661,25.7m-.426-4.618a22.56,22.56,0,0,1,4.537-4,18.357,18.357,0,0,0-1.705,1.987c-.934,1.161-1.828,2.353-2.7,3.559a1.1,1.1,0,0,0-.467-1.14c.116-.133.221-.275.34-.4M36.616,32.539c-.036.167-.071.334-.108.5-.439,2.041-.794,3.851-2.768,4.919-.05.027-.106.046-.156.072-.069-.008-.139-.013-.207-.024l3.239-5.468m-2.9,7.646a.487.487,0,0,1-.254.185.179.179,0,0,1-.119-.028q.189-.076.373-.157M32.078,29.541c-.081.239-.158.48-.231.721a1.113,1.113,0,0,0-.68.16c-.025-.147-.05-.293-.074-.441a1.093,1.093,0,0,0,.985-.441M25.87,2.692a8.452,8.452,0,0,1,1.523,2.266,35.208,35.208,0,0,1,2.758,10.805,52.933,52.933,0,0,1,.3,10.462l-.1-.594a.975.975,0,0,0,.043-.422q-.1-.952-.2-1.906-.554-5.351-1.108-10.7a1.1,1.1,0,0,0-.8-.962,36.642,36.642,0,0,0-2.566-7.029c-.045-.747-.114-1.492-.226-2.229a2.7,2.7,0,0,1,.373.309M20.406,6.338a14.4,14.4,0,0,1,1.96-2.818A39.28,39.28,0,0,0,20.9,8.712c-.251,1.125-.492,2.252-.733,3.379-.188.347-.364.7-.52,1.063-.017-.48-.025-.96-.05-1.44a1.062,1.062,0,0,0-1.463-.911c.7-1.517,1.453-3.011,2.275-4.466M18.794,29.343c.17-.925.34-1.85.514-2.774,0,.4-.014.8-.036,1.209a23.365,23.365,0,0,1-1.483,7.337q.594-2.872,1.005-5.773m-.037,8.539a10.843,10.843,0,0,1-.983,2.281c-.036.06-.083.112-.12.171l-.494.008a14.055,14.055,0,0,0,1.6-2.46M17.394,18.435q.137-.636.289-1.266A90.309,90.309,0,0,1,16.791,29.1c-.42,2.278-.838,4.557-1.231,6.839a1.089,1.089,0,0,0,1.247,1.251,13.7,13.7,0,0,1-.885,1.408,39.657,39.657,0,0,1-1.016-3.85,44.435,44.435,0,0,0,.209-4.8c.312-1.652.623-3.3.948-4.953.431-2.189.862-4.378,1.331-6.559m-1.738-1.452c-.057.246-.121.49-.175.738-.433,2-.831,4-1.224,6-.041-.146-.078-.291-.123-.436a1.09,1.09,0,0,0-.206-.379c.489-2,1.06-3.978,1.727-5.925M12.93,39.947a3.97,3.97,0,0,0,.436-.317,1.074,1.074,0,0,0,.612-.215c.1.294.2.586.305.874l-.046,0c-.551-.035-1.112.036-1.42-.279.037-.02.076-.039.113-.06M12.293,33.8c.008.03.018.062.026.094-.066.346-.126.693-.178,1.04q-.294-2.037-.759-4.043c.339.958.651,1.926.911,2.909M4.881,36.42c-.227-2.4-.329-4.815-.326-7.227a57.655,57.655,0,0,1,.326,7.227m.211-18.845a1.126,1.126,0,0,0-1.048-.289c.032-.1.06-.2.094-.306.1-.295.2-.987.43-1.2.962-.857,2.989,2.013,3.4,2.629A16.1,16.1,0,0,1,9.6,21.656a7.794,7.794,0,0,0-3.9-4.1.833.833,0,0,0-.6.02M8.8,24.711a1.717,1.717,0,0,0-.349-.139q-.053-.43-.106-.859c.036.081.074.165.11.243.116.251.23.5.345.754M10.72,43.582c-1.743.008-3.511.081-5.253-.008a.981.981,0,0,0,.263-.378c.2-.569.363-1.14.5-1.712a.949.949,0,0,0,1.531-.8q-.4-5.355-.8-10.71-.1-1.4-.209-2.8.183,1.355.392,2.706c.522,3.331,1.186,6.638,1.965,9.918a2.117,2.117,0,0,0-.213.235,1.047,1.047,0,0,0-.158,1.226c1.434,2.094,4.059,2.231,6.1,1.1l.359,0a1.8,1.8,0,0,0,2.511.857,3.744,3.744,0,0,0,.883-.729.916.916,0,0,0,.7.716c.323.088.649.159.974.23q-4.774.113-9.549.141m9.269-3.3c.03-.066.062-.133.09-.2.1-.224.188-.455.279-.684a2.7,2.7,0,0,0,.276.861l-.645.019m5.738-.333a7.773,7.773,0,0,1-2.607-.185,2.809,2.809,0,0,0-.464-1.311q-.13-3.892.043-7.785a43.885,43.885,0,0,0,1.095-10.921c-.044-1.077-1.8-1.449-1.987-.269-.215,1.383-.394,2.769-.553,4.158-.129-1.627-.352-3.282-.41-4.919l0-.016c.4-1.965.824-3.924,1.243-5.884.357-.648.747-1.283,1.1-1.953a10.8,10.8,0,0,0,.552-1.194q.275,13.29,0,26.583a.946.946,0,0,0,1.287.924c.155.775.33,1.547.552,2.312a.978.978,0,0,0,.143.292l0,.14c0,.011,0,.019,0,.029m2.455-14.4c.006-.193.012-.385.018-.577q.06.351.119.7a.955.955,0,0,0-.137-.125m.449,7.466a38.639,38.639,0,0,0,.1-4.941l0,.015q.441,2.595.882,5.189a5.8,5.8,0,0,0-.295,3.669,4,4,0,0,0,.364.837q-.21.255-.438.485a51.685,51.685,0,0,1-.61-5.254m11.855,9.633c-1.109.106-2.283.055-3.327.115q-2.7.154-5.4.279c-.764.035-1.528.062-2.292.094.068-.02.137-.033.2-.053a.985.985,0,0,0,.712-.911.911.911,0,0,0,.823-.494l.266-.448a1.966,1.966,0,0,0,1.514,1.23,2.457,2.457,0,0,0,2.371-1.215c.023.814,1.08,1.478,1.7.738l2.18-2.584-.071.379a1.075,1.075,0,0,0,1.476,1.174c-.094.2-.186.394-.28.59a1.009,1.009,0,0,0,.125,1.107m.988-9.027-2.523,2.99c.979-2.386,2.161-4.691,3.353-6.985a.978.978,0,0,0-.118-1.13q.091-.227.181-.455c.784-1.967,1.555-3.942,2.354-5.9C45.348,20.6,46.086,19,47.6,18.17c1.142-.627.122-2.374-1.021-1.747-.155.085-.3.181-.445.277a1.031,1.031,0,0,0-.276-.251,2.042,2.042,0,0,0-1.233-.322,9.714,9.714,0,0,1,1.877-.585,4.971,4.971,0,0,1,5.3,2.164,1.6,1.6,0,0,0-.139-.116c-1.833-1.27-3.553,1.943-4.313,3.145a38.775,38.775,0,0,0-2.97,5.941c-.913,2.209-1.7,4.469-2.529,6.711a.793.793,0,0,0-.371.236m5.494.248L44.529,38.5q-.61,1.158-1.219,2.316a3.287,3.287,0,0,1-1.026,1.4c1.884-3.7,3.794-7.418,6.036-10.915q-.677,1.283-1.352,2.567m-1.2-3.844Q44.411,33,43.019,35.961c.833-2.132,1.589-4.3,2.4-6.438a52.449,52.449,0,0,1,2.307-5.353c.445-.872.927-1.726,1.456-2.551.127-.2.265-.388.4-.582a66.034,66.034,0,0,1-3.807,8.99m6.834-6.4a.94.94,0,0,0-1.181.154c-.465.529-.906,1.074-1.345,1.621a26.858,26.858,0,0,0,2.081-6.942.547.547,0,0,0-.01-.127,6.5,6.5,0,0,1,.6,2.094,10.832,10.832,0,0,1-.149,3.2" transform="translate(0 0)" fill="#fff"/>
        </g>
      </g>
      <g id="Group_660" data-name="Group 660" transform="translate(403.655 856.938)">
        <g id="Group_13" data-name="Group 13" transform="translate(0 0)" clip-path="url(#clip-path-2)">
          <path id="Path_4947" data-name="Path 4947" d="M12.117,7.929a.969.969,0,0,0-.229-1.75A4.755,4.755,0,0,1,8.041,1.034.8.8,0,0,0,7.2.12.831.831,0,0,0,5.917.691,8.486,8.486,0,0,1,.682,7.231a.967.967,0,0,0,0,1.847c3.512.958,5.2,4.4,5.734,7.742a.948.948,0,0,0,1.05.686.974.974,0,0,0,.83-.941c.374-3.114.878-6.854,3.821-8.636" transform="translate(0 0)" fill="#fff"/>
          <path id="Path_4948" data-name="Path 4948" d="M53.618,37.667a6.614,6.614,0,0,1-4.04-6.913c.083-.707-.522-1-1.076-.887a.881.881,0,0,0-1.324.569,12.249,12.249,0,0,1-5.222,7.5.97.97,0,0,0,.229,1.75c3.712.861,4.992,4.771,4.775,8.186a.962.962,0,0,0,1.881.255c.687-3.327,1.563-7.217,5.005-8.711.84-.365.444-1.492-.229-1.75" transform="translate(-16.201 -11.612)" fill="#fff"/>
        </g>
      </g>
      <path id="Subtraction_21" data-name="Subtraction 21" d="M27.433,49.621a1.225,1.225,0,0,1-.816-.316,2.715,2.715,0,0,1-.648-1.339l-.008-.029-.019-.069a17.041,17.041,0,0,1-.533-3.5c-.007-.1-.017-.216-.028-.336v-.006a5.283,5.283,0,0,1,0-1.43,1.046,1.046,0,0,1,.833-.931l.013,0h.011a.635.635,0,0,1,.241-.1.6.6,0,0,1,.12-.012.661.661,0,0,1,.655.524c.189,1.373.423,2.737.694,4.053.12.581.25,1.169.387,1.748.123.519.262,1.107-.227,1.512A1.042,1.042,0,0,1,27.433,49.621ZM13.468,47.58a1.13,1.13,0,0,1-.991-.7,5.442,5.442,0,0,1-.313-2.627c.007-.178.014-.362.017-.533.015-.987.078-2.044.207-3.429.058-.623.126-1.273.187-1.848v0c.179-1.707.363-3.472.391-5.218a20.038,20.038,0,0,0-.227-3.534c-.012-.076-.023-.168-.035-.274v0c-.054-.473-.128-1.121-.453-1.315a2.657,2.657,0,0,0-1.091-.2c-.179-.009-.348-.018-.482-.039a35.054,35.054,0,0,1-6.926-1.79c-.172-.064-.347-.127-.532-.193l-.008,0A8.936,8.936,0,0,1,.774,24.728,1.824,1.824,0,0,1,0,23.377v-.013a1.116,1.116,0,0,1,.38-.829,3.384,3.384,0,0,1,1.229-.615c.129-.045.252-.087.37-.132.583-.225,1.184-.445,1.785-.656,1.2-.42,2.391-.8,3.548-1.133a62.49,62.49,0,0,1,6.966-1.555,55.88,55.88,0,0,1,.369-9.325c.2-1.572.474-3.19.82-4.81.18-.845.378-1.675.587-2.467A2.987,2.987,0,0,1,16.942.166.737.737,0,0,1,17.4,0h0a.583.583,0,0,1,.341.107A10.236,10.236,0,0,1,20.16,2.8c.528.788,1.051,1.6,1.558,2.382l.008.013c.234.362.476.736.717,1.106l3.313,5.088,1.123,1.725A59.234,59.234,0,0,1,34.96,10.6v1.349c-.288.068-.584.14-.88.215a56.83,56.83,0,0,0-7.163,2.333.809.809,0,0,1-.3.062.687.687,0,0,1-.584-.35l-.247-.378c.219.449.427.908.62,1.366l4.042-1.855a.754.754,0,0,1,.314-.074.6.6,0,0,1,.574.446.705.705,0,0,1-.292.8l0,0-.013.009-.155.106c.708-.385,1.348-.732,2-1.072.756-.393,1.438-.729,2.085-1.026v2.6c-.816.649-1.51,1.251-2.122,1.841.443-.313.845-.588,1.228-.842a.547.547,0,0,1,.305-.1.521.521,0,0,1,.09.008l.086-.063.413-.3v1.62l-.078.057-1.179.863c-.858.807-1.7,1.668-2.5,2.559.579-.516,1.2-1.04,1.842-1.555.372-.3.754-.6,1.122-.889l.014-.011.012-.01c.25-.2.508-.4.762-.6v1.67c-.307.241-.635.5-.954.755-.75.6-1.632,1.321-2.482,2.122-.058.055-.124.112-.187.167a2.6,2.6,0,0,0-.462.474c-.177.264-.09.46.019.708l.04.091c.259.608.55,1.2.8,1.691.591,1.166,1.248,2.321,1.883,3.437l0,0c.445.783.906,1.592,1.339,2.4v2.939c-.239-.523-.513-1.082-.838-1.706.277.747.551,1.512.838,2.339v5.831A7.688,7.688,0,0,1,33.5,39.82a64.522,64.522,0,0,1-10.673-8.882A56.03,56.03,0,0,1,16.865,44.5C16.342,45.359,14.711,47.58,13.468,47.58Zm-.192-20.332h0a1.521,1.521,0,0,1,.342.479,8.656,8.656,0,0,1,.536,2.651l.016.169a25.111,25.111,0,0,1,.1,3.107c-.044,1.626-.215,3.27-.382,4.86v.006c-.048.46-.1.936-.144,1.4-.086.878-.19,2.036-.233,3.2-.021.566-.026,1.089-.017,1.6,0,.041,0,.122-.007.216-.016.385-.046,1.1.1,1.2a.1.1,0,0,0,.057.016c.245,0,.857-.631,1.073-.874a8.8,8.8,0,0,0,.825-1.139c.5-.79,1.014-1.673,1.613-2.778a55.3,55.3,0,0,0,4.729-11.909.561.561,0,0,1,.158-.261c-.12-.146-.235-.3-.344-.463a65.441,65.441,0,0,1-3.9,10.909.657.657,0,0,1-.6.427.665.665,0,0,1-.449-.18c-.6,1.459-1.172,2.787-1.756,4.061a.714.714,0,0,1-.657.419.638.638,0,0,1-.467-.191.625.625,0,0,1-.154-.483c.183-2.713.486-5.631.953-9.185a37.948,37.948,0,0,1,.071-5.656H14.7a.687.687,0,0,1-.7-.678c-.006-.264-.022-.53-.037-.788,0-.073-.009-.145-.013-.216a.584.584,0,0,1-.376.126.749.749,0,0,1-.213-.031l-.052-.008h0l-.026,0Zm3.33,2.812h0c-.1.724-.208,1.446-.306,2.146-.1,1.107-.168,2.23-.237,3.378a.592.592,0,0,1-.274.461c-.172,1.383-.312,2.61-.427,3.752.552-1.336,1.08-2.69,1.569-4.025l-.053,0a.658.658,0,0,1-.653-.667,20.993,20.993,0,0,1,.427-5.011.308.308,0,0,1-.03-.023l-.017-.014Zm8.156-.008h0l.258.254.006.006,0,0c.152.15.308.306.465.456,1.137,1.086,2.293,2.128,3.435,3.1,1.754,1.489,3.614,2.936,5.53,4.3-.192-.414-.408-.841-.662-1.3a.619.619,0,0,1-.151.02.482.482,0,0,1-.191-.039,13.26,13.26,0,0,1-5.075-4.162C27.191,31.772,25.973,30.885,24.762,30.053Zm.093-6.185h0c.2.522.42,1.036.642,1.53a30.954,30.954,0,0,0,3.569,6.038c.056.074.114.147.171.218l.005.006.082.1c.881.682,1.759,1.391,2.612,2.106-.359-.527-.73-1.059-1.09-1.574l0,0c-.607-.869-1.235-1.767-1.816-2.667a.542.542,0,0,1-.16.025.525.525,0,0,1-.434-.25c-.015-.022-.03-.045-.046-.069s-.032-.05-.048-.073h0v0l0-.011a37.41,37.41,0,0,1-2.695-4.59C25.406,24.418,25.157,24.167,24.855,23.867Zm-5.055.806c-.563,2.257-1.1,4.673-1.73,7.832l.039-.115.006-.017.006-.016c.02-.06.041-.122.061-.183.519-2.02,1.1-4.074,1.773-6.279-.049-.468-.1-.857-.153-1.222ZM30.673,29.36h0a.768.768,0,0,1-.208.126c.224.338.466.7.721,1.063l-.3-.7-.008-.019-.2-.47Zm-8.357-3.506c-.052.294-.11.6-.173.914.456.283.914.575,1.4.891-.373-.541-.752-1.1-1.228-1.805Zm-6.054,1.085a.813.813,0,0,1,.291.054c.094-1.428.195-2.836.3-4.183-.111.643-.2,1.176-.278,1.679,0,.089,0,.179,0,.267V24.8c0,.1,0,.2,0,.3a.581.581,0,0,1-.15.406c-.065.457-.129.941-.189,1.439h.03ZM1.425,23.559h0c.08.168.389.3.594.383l.1.044a33.329,33.329,0,0,0,6.062,2.061c.519.124,1.058.237,1.6.337a16.318,16.318,0,0,1-1.92-.846L7,25.257l-.287-.093c-1.1-.357-2.344-.761-3.54-1.148a.593.593,0,0,1-.434-.6.706.706,0,0,1,.513-.665c.158-.043.319-.08.475-.116l.007,0,.224-.053a.722.722,0,0,1,.052-.147l-.164.056-.005,0c-.066.022-.134.045-.2.069-.59.214-1.188.442-1.776.678l-.1.034a1.442,1.442,0,0,0-.428.183c0,.01.017.036.029.051a.273.273,0,0,0,.053.055Zm26.531.314h0a.648.648,0,0,1-.277.067,15.666,15.666,0,0,0,.605,1.639l.127.141.006.007c.061.066.123.135.184.2-.126-.4-.253-.809-.384-1.224l-.081-.259-.18-.575Zm-5.3-.343h0c-.01.084-.021.17-.031.246-.007.053-.014.106-.02.16.314.475.647.972.988,1.476-.016-.037-.032-.076-.047-.113l0-.01c-.021-.052-.04-.1-.061-.145-.151-.337-.335-.683-.513-1.018l0-.006c-.1-.192-.208-.391-.308-.589Zm7.156,1.459a.572.572,0,0,1,.24.052,6.045,6.045,0,0,1-.6-1.657,1.39,1.39,0,0,1,.02-.536c-.048.062-.1.123-.146.182l0,0c-.061.076-.125.154-.185.233l.266.848.021.067L29.68,25A.673.673,0,0,1,29.813,24.989ZM9.729,24.567l-.019.026-.017.023-.005.007.224.107,0-.008,0-.008-.189-.146ZM12,23.21h0l-.085.2-.375.9.294.227.02.015.029-.18c.022-.139.044-.277.066-.416.022-.247.04-.5.052-.751Zm8.982.639h0c.011.06.021.122.03.181l0,.028.009.055a.735.735,0,0,1,.162.047l-.1-.144-.052-.078ZM8.448,23.221c-.53.062-1,.1-1.436.129l1.28.609.028.013.094.045.2-.339a.831.831,0,0,1-.167-.457Zm13.1-4.657h0c-.269.815-.533,1.668-.785,2.534l.24.378c.153.242.312.493.471.738a30.389,30.389,0,0,0,.074-3.65ZM11.119,20.39c-1.269.283-2.5.6-3.665.932-.693.2-1.426.429-2.241.7a20.659,20.659,0,0,0,5.148-.871.551.551,0,0,1,.162-.024.6.6,0,0,1,.064,0l.317-.441.214-.3Zm13.738-1.368-.1.038-.1.038c.372.993.732,1.888,1.1,2.735l.052.055.007.007c.026.027.058.061.088.095l.037-.067,0-.006c.031-.056.062-.115.1-.17a.6.6,0,0,1,.121-.13l-.632-1.261-.2-.391-.472-.943Zm6.011-1.91c-1.046.711-2.05,1.442-2.985,2.174l.058.18,0,.009.062.193q.071.223.14.446l.015.048.136.434.141-.128.008-.008c.069-.063.141-.129.212-.191a14.8,14.8,0,0,1,2.21-3.157Zm-8.056.731h0c.055.874.075,1.685.061,2.479a.787.787,0,0,1,.3.162l.047.043,0,0,0,0,.037.034a.882.882,0,0,1,.425-.1c.032,0,.066,0,.1,0-.143-.363-.284-.737-.4-1.06a.679.679,0,0,1-.3-.812c-.06-.165-.118-.334-.174-.5ZM14.5,19.738h0c-.207.034-.441.073-.669.114,0,.013.009.026.014.039a.329.329,0,0,1,.023.087c.008.079.014.162.02.229s.01.123.015.184c.207-.112.4-.215.576-.317l.007-.114q.006-.111.013-.221ZM19.072,5.882h0c.214,1.619.348,3.268.4,4.9a15.3,15.3,0,0,1,.436,5.636l0,.033c-.048,1.046-.121,2.11-.217,3.161l.015.007a.59.59,0,0,1,.111.063c.492-1.609.977-3.036,1.483-4.361a.672.672,0,0,1,.537-.413c-.432-1.36-.853-2.744-1.259-4.081l-.171-.561-.05-.159v0c-.019-.062-.039-.124-.058-.186l-.4-.8-.382-.763a.594.594,0,0,1,.079-.7c-.035-.112-.07-.227-.1-.338-.04-.13-.09-.292-.138-.445-.035-.108-.071-.243-.112-.4v0C19.19,6.291,19.136,6.088,19.072,5.882Zm8.674,11.86-.11.054-.02.01-.012.006-.18.087.01.028v0l.013.04.221-.169Zm-3.723-.386h0l.061.171.045.129.025-.017.008-.006-.1-.2-.014-.028ZM17.832,6.539h0c-.181,2.721-.279,5.519-.29,8.318.16-1.63.31-3.078.458-4.428a.631.631,0,0,1,.135-.316C18.081,8.955,17.979,7.753,17.832,6.539Zm2.356-1.309h0c.262.679.475,1.393.682,2.084l0,.014c.074.246.15.5.227.749.04.13.08.262.119.39l0,.009,0,.01.086.282L22.6,10.84l.609.979a1.007,1.007,0,0,1,.179-.309.74.74,0,0,1,.555-.281.609.609,0,0,1,.165.023l-2.347-3.6-.206-.316-.741-1.137-.511-.784Zm-3.58.03c-.008.04-.018.081-.027.12v0c-.01.042-.02.086-.028.13-.282,1.437-.511,2.923-.679,4.416-.009.076-.015.154-.021.229v.005c-.006.071-.011.135-.018.2a.732.732,0,0,1,.494-.185c.063-1.639.157-3.293.28-4.916ZM18.12,3.166h.02a2.173,2.173,0,0,1,.968.407,13.838,13.838,0,0,0-.927-1.263c-.017.174-.033.35-.048.521v0l0,.045c-.009.1-.017.191-.026.287h.017ZM5.888,38.741a.924.924,0,0,1-.832-.525,1.265,1.265,0,0,1,.2-1.3,11.817,11.817,0,0,1,.765-.945,11.321,11.321,0,0,1,1.514-1.415,1.028,1.028,0,0,1,.855-.541.725.725,0,0,1,.406.122.943.943,0,0,1,.318.969,1.66,1.66,0,0,1-.321.668c-.505.675-1.038,1.312-1.493,1.845-.15.176-.3.355-.471.546l-.076.089,0,0a1.733,1.733,0,0,1-.284.289A.978.978,0,0,1,5.888,38.741ZM9.147,13.749a.461.461,0,0,1-.2-.046,8.047,8.047,0,0,1-2.71-2.087,7.976,7.976,0,0,1-.955-1.435,1.591,1.591,0,0,1-.229-.862.88.88,0,0,1,.685-.806A.537.537,0,0,1,5.865,8.5a.655.655,0,0,1,.489.221A26.442,26.442,0,0,0,8.223,10.75c.128.125.267.248.415.378a3.02,3.02,0,0,1,1.232,1.751.727.727,0,0,1-.2.6A.7.7,0,0,1,9.147,13.749ZM29.178,6.221a.9.9,0,0,1-.309-.052.771.771,0,0,1-.427-.367.263.263,0,0,1-.014-.037l-.008-.024a.677.677,0,0,1-.085-.567,14.045,14.045,0,0,1,1.048-2.565,5.879,5.879,0,0,1,.747-1.036A2.162,2.162,0,0,1,31.215.789a.758.758,0,0,1,.143-.014.819.819,0,0,1,.783.647,2.238,2.238,0,0,1,.005.624v.011a5.224,5.224,0,0,1-.25,1.215,5.483,5.483,0,0,1-1.275,2.075,4.045,4.045,0,0,1-.952.754A1.06,1.06,0,0,1,29.178,6.221Z" transform="translate(415.04 578.888)" fill="#fff" stroke="rgba(0,0,0,0)" stroke-width="1"/>
      <path id="Subtraction_20" data-name="Subtraction 20" d="M34.96,84.021h0a16.8,16.8,0,0,1-4.676-4.147,17.966,17.966,0,0,1-4.9.642h0a29.5,29.5,0,0,1-8.94-1.551C7.523,76.1,1.632,70,.274,62.222A18.036,18.036,0,0,1,.03,58.068a16.731,16.731,0,0,1,.7-3.927,15.4,15.4,0,0,1,1.585-3.53,14.287,14.287,0,0,1,2.41-2.964,24.067,24.067,0,0,1-3.474-8.136A22.761,22.761,0,0,1,.969,30.8a19.784,19.784,0,0,1,9.09-13.41,19.542,19.542,0,0,1,4.455-2.2,13.691,13.691,0,0,1,4.325-.738,11.485,11.485,0,0,1,2.456.263,19.611,19.611,0,0,1,.726-3.236,18.513,18.513,0,0,1,2.063-4.465,15.307,15.307,0,0,1,4.085-4.293A16.717,16.717,0,0,1,34.96,0V2.792A12.823,12.823,0,0,0,25.791,9.46a16.448,16.448,0,0,0-1.55,4.242,12.792,12.792,0,0,0-.285,1.911c0,.015,0,.03,0,.045v.006a10.956,10.956,0,0,1,2.49,1.747,10.686,10.686,0,0,1,1.793,2.176,9.084,9.084,0,0,1,1.042,2.333,6.221,6.221,0,0,1,.238,2.216,3.822,3.822,0,0,1-3.271,3.612,9.433,9.433,0,0,1-1.612.151,4.6,4.6,0,0,1-4.017-1.868c-1.583-2.253-.937-5.964-.116-8.68a8.828,8.828,0,0,0-1.675-.158,13.458,13.458,0,0,0-7.268,2.491A17.1,17.1,0,0,0,3.673,31.259,21.309,21.309,0,0,0,6.911,45.975a14.321,14.321,0,0,1,5.139-1.917,9.833,9.833,0,0,1,1.654-.146c3.99,0,6.078,2.7,6.079,5.365a4.809,4.809,0,0,1-5.137,4.8,9.394,9.394,0,0,1-3.336-.683A10.92,10.92,0,0,1,8.793,52a15.429,15.429,0,0,1-2.376-2.174A13.367,13.367,0,0,0,2.976,61.751c1.177,6.738,6.389,12.06,14.3,14.6a26.843,26.843,0,0,0,8.1,1.42,15.915,15.915,0,0,0,3.4-.347,11.393,11.393,0,0,1-1.112-4.014,7.623,7.623,0,0,1,.561-3.628,5.894,5.894,0,0,1,4.647-3.477,6.054,6.054,0,0,1,.94-.075,5.215,5.215,0,0,1,1.151.125v2.916a1.855,1.855,0,0,0-1.1-.3,3.607,3.607,0,0,0-.56.047,3.154,3.154,0,0,0-2.568,1.875,6.775,6.775,0,0,0,.657,5.637A7.95,7.95,0,0,0,34.96,73.3v4.174a11.826,11.826,0,0,1-2.006,1.333A13.808,13.808,0,0,0,34.96,80.7V84.02ZM13.7,46.656a7.086,7.086,0,0,0-1.19.107,11.664,11.664,0,0,0-3.9,1.394,10.241,10.241,0,0,0,3.682,2.676,6.713,6.713,0,0,0,2.355.5c1.764,0,2.393-1.063,2.393-2.057C17.039,48.015,15.995,46.656,13.7,46.656Zm9.371-28.348h0a15.764,15.764,0,0,0-.691,3.754,4.042,4.042,0,0,0,.477,2.394c.211.3.625.7,1.771.7a6.54,6.54,0,0,0,1.136-.11,1.1,1.1,0,0,0,1.014-1.15,4.935,4.935,0,0,0-.834-2.8,8.053,8.053,0,0,0-2.874-2.791Z" transform="translate(415.04 306.983)" fill="#fff" stroke="rgba(0,0,0,0)" stroke-width="1"/>
    </g>
    <g id="Group_844" data-name="Group 844">
      <g id="Group_666" data-name="Group 666" transform="translate(0.352 1056.879)">
        <g id="Group_19" data-name="Group 19" transform="translate(0 0)" clip-path="url(#clip-path-3)">
          <path id="Path_4961" data-name="Path 4961" d="M65.412,16.286c-1.905-1.137-4.276-.525-6.232.128a29.791,29.791,0,0,0-6.234,2.948,35.232,35.232,0,0,0-.852-8.6,35.713,35.713,0,0,0-1.443-4.769A15.506,15.506,0,0,0,48.5,1.743c-2-2.487-5.186-2.053-7.53-.316s-3.8,4.413-4.97,7c-1.078,2.389-1.968,4.879-3.251,7.163a13.506,13.506,0,0,0-7.574-9.031,9.6,9.6,0,0,0-7.1-.413c-2.422.9-3.745,3.15-4.469,5.51-.9,2.949-1.539,6-2.238,9.015-1.787-1.69-4.1-2.984-6.6-2.189C1.967,19.381.539,22.222.17,24.967c-.387,2.883-.291,6.268,2.245,8.158,2.626,1.956,6.217,1.662,9.309,1.725l10.845.221c1.766.036,3.541.019,5.3.176a30.965,30.965,0,0,0,4.9.22,42.7,42.7,0,0,1,5.2.053c1.689.089,3.339.024,5.026-.031,2.271-.074,4.556.425,6.828.545a72.979,72.979,0,0,0,7.736.011,28.812,28.812,0,0,0,3.072-.3,5.82,5.82,0,0,0,1.935-.554.727.727,0,0,0,.382-.291c2.647-3.779,3.635-8.532,4.2-13.034.252-2.008.221-4.412-1.74-5.583M65.4,23.274c-.192,1.25-.425,2.494-.734,3.72a21.288,21.288,0,0,1-2.876,6.866,10.008,10.008,0,0,1-3.541.6c-2.016.152-4.045.163-6.065.116a53.632,53.632,0,0,1-5.7-.381,20.99,20.99,0,0,0-3.621-.237c-1.542.061-3.054.109-4.6.028-1.559-.081-3.119-.175-4.681-.111a32.371,32.371,0,0,1-4.593-.076c-3.2-.314-6.426-.273-9.637-.339q-4.887-.1-9.775-.2c-2.6-.055-6.25-.136-7.519-2.912a9.678,9.678,0,0,1-.4-4.825,7.258,7.258,0,0,1,1.809-4.443,3.924,3.924,0,0,1,3.866-1.158,8.369,8.369,0,0,1,3.872,2.8c.344.393,1.173.372,1.317-.223q1-4.159,2.01-8.318c.52-2.142,1.093-4.624,2.981-5.995C19.3,6.891,21.8,7,23.8,7.685a11.508,11.508,0,0,1,5.137,3.651,11.841,11.841,0,0,1,2.626,6.54.78.78,0,0,0,1.39.312c3.009-4.259,3.871-9.714,7.171-13.779C41.607,2.584,44.678.192,46.91,2.286a9.949,9.949,0,0,1,2.041,3.6,32.751,32.751,0,0,1,1.464,4.485,34.02,34.02,0,0,1,.93,10.374.783.783,0,0,0,1.264.664c2.248-1.544,12.479-7.586,13.1-1.788a14.441,14.441,0,0,1-.314,3.652" transform="translate(0 0)" fill="#fff"/>
        </g>
      </g>
      <g id="Group_670" data-name="Group 670" transform="translate(0.352 812.521)">
        <g id="Group_17" data-name="Group 17" transform="translate(0 0)" clip-path="url(#clip-path-4)">
          <path id="Path_4954" data-name="Path 4954" d="M14.586,5.5a5.8,5.8,0,0,0,.589-1.481,6.7,6.7,0,0,0,.138-.838A1.715,1.715,0,0,0,15.2,2.163a1.075,1.075,0,0,0-1.182-.532.77.77,0,0,0-.939.14,9.578,9.578,0,0,0-1.564,2.841A1.773,1.773,0,0,0,11.7,6.434a1.5,1.5,0,0,0,1.778.274,2.8,2.8,0,0,0,1.109-1.2" transform="translate(-6.776 -0.916)" fill="#fff"/>
          <path id="Path_4955" data-name="Path 4955" d="M36.206,17.08a1.1,1.1,0,0,0-.514.019l-.008-.006a.832.832,0,0,0-1.118.293,10.071,10.071,0,0,0-1.657,3.868,3.357,3.357,0,0,0,.191,2.172,1.378,1.378,0,0,0,2.082.293,5.471,5.471,0,0,0,1.956-3.681,3.881,3.881,0,0,0-.112-2.323,1.232,1.232,0,0,0-.818-.636" transform="translate(-19.588 -10.136)" fill="#fff"/>
          <path id="Path_4956" data-name="Path 4956" d="M70.178.184C70.147.2,70.124.23,70.1.251a.854.854,0,0,0-.424.2A5.516,5.516,0,0,0,67.962,3.64a3.867,3.867,0,0,0,.1,2.022,1.5,1.5,0,0,0,2.073.762,3.21,3.21,0,0,0,1.309-1.405,5.907,5.907,0,0,0,.681-1.849,5.017,5.017,0,0,0,.027-2.028A1.358,1.358,0,0,0,70.178.184" transform="translate(-40.51 0)" fill="#fff"/>
          <path id="Path_4957" data-name="Path 4957" d="M102.941,16.545a.975.975,0,0,0-.251.037.719.719,0,0,0-.768.2,6.309,6.309,0,0,0-1.18,2.307,4.66,4.66,0,0,0-.184,1.236,1.255,1.255,0,0,0,.969,1.28c1.172.214,1.81-1.031,2.16-1.942a5.315,5.315,0,0,0,.293-1.26,2.061,2.061,0,0,0-.152-1.29,1.075,1.075,0,0,0-.886-.57" transform="translate(-60.016 -9.874)" fill="#fff"/>
          <path id="Path_4958" data-name="Path 4958" d="M82.582,51.2a.785.785,0,0,0-.888.172,8.61,8.61,0,0,0-1.867,3.781,5.421,5.421,0,0,0-.125,2.185,1.347,1.347,0,0,0,1.957.927,4.789,4.789,0,0,0,2.369-3.441c.09-.409.149-.824.2-1.239a3.1,3.1,0,0,0,0-1.207A1.516,1.516,0,0,0,82.582,51.2" transform="translate(-47.527 -30.517)" fill="#fff"/>
          <path id="Path_4959" data-name="Path 4959" d="M49.25,43.826c-.025.024-.045.057-.07.083a.892.892,0,0,0-.139.134.747.747,0,0,0-.4.2,3.366,3.366,0,0,0-.488.642,7.7,7.7,0,0,0-1.713,3.546c-.14.768-.248,1.718.57,2.157a1.859,1.859,0,0,0,2.112-.548A5.72,5.72,0,0,0,50.2,48.221a8.568,8.568,0,0,0,.561-1.968,10.445,10.445,0,0,0,.119-1.092,2.035,2.035,0,0,0-.156-1.185.958.958,0,0,0-1.477-.151" transform="translate(-27.661 -25.99)" fill="#fff"/>
          <path id="Path_4960" data-name="Path 4960" d="M3.034,48.774a.814.814,0,0,0-.949.135A7.292,7.292,0,0,0,0,54.1a2.212,2.212,0,0,0,.423,1.318,1.423,1.423,0,0,0,1.556.468,3.708,3.708,0,0,0,1.925-2.337,11.468,11.468,0,0,0,.6-2.723,2.5,2.5,0,0,0-.046-1.332,1.226,1.226,0,0,0-1.43-.719" transform="translate(0 -29.054)" fill="#fff"/>
        </g>
      </g>
      <path id="Subtraction_38" data-name="Subtraction 38" d="M4.922,44.437A19.334,19.334,0,0,1,0,43.748V42.027c.134.039.277.08.44.124l0,0-.053-.042,0,0-.015-.011c-.021-.016-.049-.037-.076-.06a.5.5,0,0,1-.2-.393l-.078-.029-.011,0V33.423a16.427,16.427,0,0,0,.755-3.2l.054-.328,0,0,0,0c-.026.042-.053.086-.08.125L.7,30.065c-.031.049-.064.1-.1.159A12.894,12.894,0,0,0,0,31.438V19.618c1.063-1.154,2.089-2.182,3.135-3.141-.221-.115-.456-.24-.694-.381C1.6,16.927.78,17.8,0,18.687V11.375a23.032,23.032,0,0,1,3.054-.687.65.65,0,0,1,.1-.008.608.608,0,0,1,.416.165c.41-.027.826-.044,1.143-.056.288-.011.574-.031.842-.05l.025,0c.386-.027.785-.055,1.175-.055a4.6,4.6,0,0,1,1.959.367,17.288,17.288,0,0,1,2.616,1.561l0,0,.044.03.019.013c.3.2.6.409.9.6a12.557,12.557,0,0,1,3.258,2.657,16.122,16.122,0,0,1,1.359,2.048c.739-.069,1.361-.112,1.957-.135.483-.019.974-.029,1.461-.029a38.008,38.008,0,0,1,10.171,1.386l.077.021.006,0c1.482.412,3.162.879,3.7,2.5a3.65,3.65,0,0,1,.181,1.11V22.9a6.178,6.178,0,0,1-1.118,3.241,14.414,14.414,0,0,1-3.5,3.443,53.159,53.159,0,0,1-4.489,3.029,55.946,55.946,0,0,1-8.038,4.006A20.623,20.623,0,0,1,13.47,41.3a12.772,12.772,0,0,1-3.154,2.027,12.521,12.521,0,0,1-3.612,1A14.643,14.643,0,0,1,4.922,44.437Zm2.193-1.784-.082.033-.016.007-.046.019c-.068.029-.147.063-.23.092-.123.046-.26.091-.431.144a7.1,7.1,0,0,0,1.5-.153c-.194-.045-.423-.091-.7-.141ZM.806,40.487c-.039,0-.08.007-.119.011H.668L.5,40.516l-.049,0a10.909,10.909,0,0,0,1.347.41c-.38-.162-.7-.307-.992-.443Zm8.908-1.214c-.248.224-.511.449-.8.688-.017.045-.034.091-.052.136l-.008.021c-.02.052-.04.1-.059.156a.4.4,0,0,1-.044.079l0,.006-.012.018.043-.018.068-.031.009,0c.257-.113.522-.23.778-.357C9.658,39.709,9.684,39.5,9.713,39.273Zm-8.275-.067h0l-.123.018-.214.03a.019.019,0,0,1,0,.008.076.076,0,0,1,0,.011.053.053,0,0,1,0,.01l.064-.007.087-.008h.007l.056-.006.018,0,.265-.027v-.047l-.071.01-.071.01Zm10.626-.776h0l-.008,0-.134.038-.009,0-.007,0-.185.053-.066.018c-.02.042-.041.084-.061.125l-.009.017-.035.071,0,.007c-.018.035-.036.069-.056.11l.119-.076.114-.072.154-.1.218-.14a.513.513,0,0,1-.034-.061Zm.566-1.567h0l-.246.07-.014.032-.02.046-.021.048-.014.031-.015.033.042-.013.042-.012.031-.01.045-.014.037-.011.022-.033.025-.037,0-.007c.028-.04.055-.082.082-.124Zm-5.147-8.5h0l-.029.051-.016.027-.01.015c-.2.568-.387,1.154-.571,1.741a.494.494,0,0,1,0,.414c-.2.515-.372.94-.529,1.345a38.764,38.764,0,0,0-.927,4.1c-.009.06-.018.121-.026.18l0,.03c-.005.043-.012.087-.018.132l-.005.034.375-1.061.759-2.143q.385-1.089.771-2.178l.078-.222a4.723,4.723,0,0,1,.074-2.013l0-.011.013-.073.013-.076c.017-.095.034-.193.049-.29v0Zm5.739,1.545h0c-.74,2.207-1.274,4.057-1.681,5.82l.041-.041.034-.035.042-.043c.439-1.083.843-2.165,1.314-3.456l.019-.054.011-.03.021-.057.009-.027.019-.053.014-.038.02-.055L13.1,31.8l0-.047c.008-.124.015-.25.021-.371v-.014c.014-.276.028-.525.049-.775s.036-.482.049-.686Zm4.223,3.556h0c-.059.229-.122.452-.187.662l0,0,.067-.025h.007l.046-.017.01,0,.052-.019c.078-.16.159-.338.256-.56h-.042a.675.675,0,0,1-.215-.035Zm-2.5-3.426h0c-.21.666-.445,1.357-.718,2.111-.029.386-.08.965-.18,1.528.2-.645.393-1.346.576-2.144.12-.522.23-1.049.322-1.494Zm6.462-10.749a36.206,36.206,0,0,0-3.679.188,20.23,20.23,0,0,1,2.226,7.9,14.485,14.485,0,0,1-.98,6.092,55.109,55.109,0,0,0,5.508-2.554,19.719,19.719,0,0,0,6.925-5.6l.042-.06c.717-1.025,1.916-2.74.792-3.821a7.06,7.06,0,0,0-3.591-1.381l-.006,0-.484-.093A33.96,33.96,0,0,0,21.407,19.289ZM16.633,31.465c-.193.59-.4,1.174-.63,1.736l0,0,0,0,0,0c.177-.259.335-.5.469-.714.064-.336.115-.676.154-1.011Zm-3.751-7.2h0l-.515,1.623V25.9c-.66,2.085-1.254,3.961-1.827,5.816-.045.145-.095.308-.146.484l0,.011-.035.115-.051.167c.263-.565.569-1.222.86-1.886.08-.181.158-.367.233-.546l.013-.032L11.418,30l.033-.079c.23-.626.437-1.162.651-1.687.211-.6.372-1.106.506-1.595a16.962,16.962,0,0,0,.4-1.874c-.029-.136-.067-.276-.1-.4l0-.01-.013-.045-.012-.047ZM3.791,28.633h0c-.1.254-.215.535-.378.967l-.012.072,0,.022,0,.01-.009.056c-.012.067-.024.135-.035.213-.008.059-.016.118-.024.174,0,.023-.006.046-.009.07s-.006.047-.01.07l.245-.841.1-.327.142-.487Zm5.454-3.266c0,.018-.008.038-.012.057v.007a.379.379,0,0,0-.011.05c-.189.874-.359,1.765-.506,2.647-.008.049-.015.1-.022.145l0,.015-.019.127,0,.01c.166-.483.31-.977.4-1.306C9.139,26.528,9.2,25.938,9.245,25.367ZM16.3,19.295h0c.214.421.415.848.6,1.269a20.7,20.7,0,0,1,1.666,6.617.508.508,0,0,1,.2.127,15.227,15.227,0,0,0-.213-1.807A21.078,21.078,0,0,0,16.3,19.295Zm-.261,3.923h0a10.376,10.376,0,0,1-.017,1.23.3.3,0,0,1-.014.053.055.055,0,0,1,0,.011.168.168,0,0,0-.005.019c-.009.276-.028.569-.053.87-.012.134-.029.266-.048.411l-.01.079c-.006.042-.011.084-.017.127,0-.007,0-.014.006-.021l.005-.022.006-.025.006-.024a3.685,3.685,0,0,1,.418-.986l-.021-.135-.006-.038,0-.025C16.21,24.246,16.132,23.732,16.042,23.218ZM8.026,20.968h0c-.277.573-.514,1.145-.794,1.832s-.568,1.436-.891,2.317a30.831,30.831,0,0,1,2.041-3.644L8.3,21.355l-.025-.035-.061-.087L8.2,21.211l-.031-.045L8.12,21.1,8.1,21.074l-.075-.106Zm-2.066.214h0c-.44.594-.872,1.215-1.32,1.9a.54.54,0,0,1,.06.424c-.036.134-.068.268-.093.371v.007L4.6,23.9c-.019.081-.04.161-.057.229.2-.422.358-.732.527-1.071.159-.32.32-.643.481-.962l.11-.219.14-.28.007-.012.086-.173.067-.23Zm5.647-2.8h0a1.17,1.17,0,0,0-.6.7,9.627,9.627,0,0,1,.574.79,7.015,7.015,0,0,1,.91,1.991,1.073,1.073,0,0,1,.434.159l-.121-.712c-.08-.479-.163-.972-.246-1.469L12.5,19.5c-.1-.219-.214-.457-.387-.821-.154-.094-.318-.188-.5-.289Zm-9.051.285c-.62.616-1.2,1.22-1.733,1.794a.761.761,0,0,1-.006.206,4.438,4.438,0,0,1-.365,1.115L.5,21.735l0,0c.178-.2.37-.417.559-.623C1.518,20.346,1.98,19.594,2.556,18.671Zm8.1,1.957h0c0,.183-.01.365-.017.55l-.005.131v.014c0,.05,0,.1-.006.149l0,.068v0c0,.048,0,.1-.006.145l.052-.18.028-.1.05-.177A.626.626,0,0,1,10.874,21c-.068-.129-.141-.256-.216-.376Zm-6.606-.867c-.028.025-.054.05-.08.075l-.024.023-.058.054-.02.019-.088.083,0,0-.376.845C3.582,20.566,3.821,20.174,4.052,19.761Zm5.237-.81-.008.008a.129.129,0,0,0-.022.025,1.727,1.727,0,0,1-.119.148l-.006.008c-.03.034-.056.064-.08.1a6.945,6.945,0,0,0-.405.59L8.771,20l.048.067.061.085c.071.1.144.2.216.3l.064-.09,0,0,.025-.035L9.2,20.3c.031-.044.07-.1.108-.149a.6.6,0,0,1,.078-.084l.019-.056c.013-.038.026-.074.039-.111l0-.014,0-.071,0-.034c-.006-.112-.013-.239-.026-.36,0-.031-.016-.1-.033-.188l0-.011-.007-.037c-.01-.056-.021-.113-.031-.166L9.334,19l-.005-.005-.008-.009,0,0-.007-.007L9.3,18.966ZM9.35,17.4h0c.049.04.1.084.154.136l.052.045.009.008.043.038a1.187,1.187,0,0,1,.607.491,2.747,2.747,0,0,1,.234-.293C10.136,17.689,9.776,17.549,9.35,17.4Zm-3.864-.935h0A10.121,10.121,0,0,1,7.132,17.92l.08-.088.01-.011.007-.007.021-.024c.031-.035.068-.075.1-.111a.521.521,0,0,1,.2-.128A11.876,11.876,0,0,0,5.486,16.462Zm-.735.932h0l-.005.008-.007.01c-.045.07-.091.143-.135.215l-.028.043L4.5,17.8a1.612,1.612,0,0,1,.491-.238c-.051-.039-.107-.076-.157-.108l0,0-.055-.038-.023-.015Zm5.578-.839h0c.322.127.638.258.938.389l-.088-.177-.067-.138a.645.645,0,0,1-.21.038.475.475,0,0,1-.111-.011L10.53,16.6l-.015,0-.021,0-.09-.02-.017,0ZM6.865,11.839c-.088,0-.177,0-.263.007h0l-.057,0c.236.091.468.189.688.291.56.259,1.106.559,1.634.849l.005,0c.417.229.935.514,1.439.758.219.106.461.218.667.314A12.809,12.809,0,0,1,13.236,15.3a8.247,8.247,0,0,1,1.621,1.635,7.706,7.706,0,0,0-1.208-1.321,19.618,19.618,0,0,0-2.423-1.664l-.057-.035-.025-.016c-.262-.162-.532-.329-.792-.5-.132-.085-.268-.176-.388-.256l-.109-.073-.005,0a5.545,5.545,0,0,0-2.93-1.234Zm-1.328,2a15.128,15.128,0,0,1,1.8.107c.175.021.331.042.5.068-.3-.117-.648-.247-1.152-.434-.214-.08-.438-.158-.687-.238a10.985,10.985,0,0,0-2.52-.332l-.219,0A9.023,9.023,0,0,0,.6,13.664c.23-.019.457-.028.672-.028a11.388,11.388,0,0,1,1.84.166l.067-.052.032-.026.007-.006.055-.043.041-.033A.614.614,0,0,1,3.7,13.5a.659.659,0,0,1,.593.385C4.7,13.852,5.116,13.835,5.537,13.835Zm13.908-.662a1.95,1.95,0,0,1-1.568-1.016,2.2,2.2,0,0,1-.166-2.123,1.84,1.84,0,0,1,.7-.76A1.913,1.913,0,0,1,19.6,8.485a2,2,0,0,1,.361-.035,1.625,1.625,0,0,1,1.461.843,2.43,2.43,0,0,1-.055,2.215,2.578,2.578,0,0,1-1.512,1.6A1.458,1.458,0,0,1,19.445,13.173ZM5.878,5.236a2.55,2.55,0,0,1-.4-.032A2.134,2.134,0,0,1,3.744,3.689a2.881,2.881,0,0,1,.8-2.516A2.9,2.9,0,0,1,5.8.3,2.354,2.354,0,0,1,6.89,0a1.9,1.9,0,0,1,.3.024A1.821,1.821,0,0,1,8.292.687a2.321,2.321,0,0,1,.5,1.2A3.2,3.2,0,0,1,7.84,4.366,2.74,2.74,0,0,1,5.878,5.236Z" transform="translate(0 348.994)" fill="#fff" stroke="rgba(0,0,0,0)" stroke-width="1"/>
      <path id="Subtraction_25" data-name="Subtraction 25" d="M0,119.281H0v-2.757c2.6-4.433,2.071-9.608,1.563-14.613-.129-1.271-.262-2.585-.336-3.842A28.217,28.217,0,0,1,2.492,87.762c.463-1.466,1.017-2.93,1.552-4.345a60.527,60.527,0,0,0,2.014-5.931,58.528,58.528,0,0,0,1.52-11.21c.164-2.505.323-5.054.478-7.518l0-.067.033-.527q.062-.992.124-1.985l-.183.122-.019.013-.216.144c-.113.075-.229.155-.34.232a5.758,5.758,0,0,1-1.577.86,2.436,2.436,0,0,1-.691.1,1.723,1.723,0,0,1-1.3-.542,2.538,2.538,0,0,1-.508-2.089A5.052,5.052,0,0,1,4.3,52.957a14.2,14.2,0,0,1,1.5-1.731,18.957,18.957,0,0,1,2.537-2.156,11.038,11.038,0,0,1-3.4-1.615.794.794,0,0,1-.608-.132l-.422-.284-.078-.053c-.9-.607-1.831-1.234-2.738-1.866C.714,44.86.347,44.6,0,44.343V42.354c1.42,1.083,2.93,2.1,4.391,3.075l.031.021.344.231a.722.722,0,0,1,.2-.029.688.688,0,0,1,.1.007.776.776,0,0,1,.38.172,9.2,9.2,0,0,0,3.049,1.591,12.518,12.518,0,0,0,3.747.564,20.061,20.061,0,0,0,10.346-3.4,2.782,2.782,0,0,1-.52-2.052,2.483,2.483,0,0,1,.33-1.631,4.492,4.492,0,0,1,.942-1.863A5.349,5.349,0,0,1,26.445,37.5a3.391,3.391,0,0,1,.431-.027A2.891,2.891,0,0,1,29.2,38.513a24.833,24.833,0,0,0,3.066-6.307,39.275,39.275,0,0,0,1.059-4.081,2.731,2.731,0,0,1-1.566.275,2.923,2.923,0,0,1-.874.244,3.838,3.838,0,0,1-.443.025,4.587,4.587,0,0,1-2.666-.9A3.937,3.937,0,0,1,26.238,24.9a6.446,6.446,0,0,1,.589-3.288,5.825,5.825,0,0,1,2.467-2.605,7.555,7.555,0,0,1,3.505-.92h.025a.866.866,0,0,1,.784.419,2.137,2.137,0,0,1,.768-.167,1.116,1.116,0,0,1,.526.123A9.717,9.717,0,0,0,33.432,12.9,22.458,22.458,0,0,0,28.8,7.4,27.141,27.141,0,0,0,25.561,5.16a3.31,3.31,0,0,1-.1,1.116c-.013.062-.025.112-.039.159-.03.1-.066.187-.1.264-.021.049-.041.1-.066.143s-.03.068-.043.1a1.5,1.5,0,0,1-.086.182,1.847,1.847,0,0,1-.807.809,2.461,2.461,0,0,1-1.774,1.243,4.776,4.776,0,0,1-1.027.108,5.075,5.075,0,0,1-3.456-1.291,3.338,3.338,0,0,1-1.092-2.176,2.974,2.974,0,0,1,.77-2.226.977.977,0,0,1,.268-.2,3.568,3.568,0,0,1,.251-.62,4.429,4.429,0,0,1,.29-.468,21.777,21.777,0,0,0-3.66-.556c-1.374-.087-2.639-.13-3.866-.13-1.25,0-2.471.046-3.627.138A27.18,27.18,0,0,0,.469,3.024C.314,3.079.156,3.138,0,3.2V1.52A23.165,23.165,0,0,1,3.944.531,44.934,44.934,0,0,1,10.95,0c.29,0,.584,0,.876.008a40.48,40.48,0,0,1,4.819.317L16.9.361a21.748,21.748,0,0,1,3.273.723,29.436,29.436,0,0,1,7.193,3.273,21.37,21.37,0,0,1,5.8,5.314,15.151,15.151,0,0,1,3.144,6.2,17.344,17.344,0,0,1-.023,5.52l-.016.114c-.058.4-.124.821-.2,1.276-.415,2.352-.917,4.746-1.49,7.117a29.682,29.682,0,0,1-2.85,7.581,22.8,22.8,0,0,1-5.3,6.346A27.539,27.539,0,0,1,19.324,48.1a19.053,19.053,0,0,1-6.71,1.481,16.531,16.531,0,0,1,2.417,2.98c.992,1.66,1.287,3.092.877,4.256a2.158,2.158,0,0,1-.947,1.179,2.792,2.792,0,0,1-1.423.357,4.039,4.039,0,0,1-1.5-.3,5.8,5.8,0,0,1-2.224-1.641c-.062,1.018-.123,2.074-.177,3.005-.2,3.459-.408,7.034-.727,10.538a48.72,48.72,0,0,1-1.1,7.143A57.474,57.474,0,0,1,5.66,83.683c-1.356,3.6-2.894,7.689-2.9,12.091a59.24,59.24,0,0,0,.415,6.114,60.038,60.038,0,0,1,.415,6.036,22.848,22.848,0,0,1-.488,4.884,15.545,15.545,0,0,1-1.748,4.571A13.512,13.512,0,0,1,0,119.281Zm9.6-65.76a.711.711,0,0,1,.721.485,4.052,4.052,0,0,0,2.211,2.5,2.517,2.517,0,0,0,1,.241.852.852,0,0,0,.942-.931,5.4,5.4,0,0,0-1.246-3.066,24.225,24.225,0,0,0-2.557-2.856,1.087,1.087,0,0,1-.216-.307l-.019.015a.249.249,0,0,1-.034.025,14.908,14.908,0,0,0-5,4.619,1.928,1.928,0,0,0-.408,1.6.276.276,0,0,0,.273.206,1.382,1.382,0,0,0,.6-.242l.037-.022c.734-.434,1.453-.93,2.149-1.41l0,0c.339-.234.69-.476,1.039-.708A.93.93,0,0,1,9.6,53.521ZM27.228,40.662h0a.757.757,0,0,1-.14.287l-.376.469,0,.006h0l.005.008c.251-.243.5-.5.773-.793a.853.853,0,0,1-.208.024Zm.882-.9a1,1,0,0,1,0,.191l.05-.062,0,0,0,0,.031-.039A.59.59,0,0,1,28.11,39.759Zm-8.565-35.9h0l-.02.082c-.019.085-.04.215-.058.347H19.5a2.686,2.686,0,0,1,.7-1.358h-.088l-.01.009s-.017.019-.057.062l-.028.033L20,3.056c-.056.067-.114.137-.167.212-.033.048-.06.088-.084.127.015-.023.016-.023.016-.024a.58.58,0,0,1-.04.075l-.037.08c-.034.073-.07.148-.1.226-.021.053-.039.1-.056.158l.008-.034,0-.014ZM10.879,38.7c-.151,0-.3-.007-.45-.02-.07-.006-.145-.015-.221-.025a4.618,4.618,0,0,1-2.719-1.437,3.437,3.437,0,0,1-.783-1.345A3.588,3.588,0,0,1,6.581,34.4a4.54,4.54,0,0,1,1.361-2.682,7.263,7.263,0,0,1,5.107-1.861c.113,0,.228,0,.342.006a.645.645,0,0,1,.441.211,2.905,2.905,0,0,1,1.288.417A2.981,2.981,0,0,1,16.133,31.6a3.8,3.8,0,0,1,.431,1.452,7.022,7.022,0,0,1-.38,3.058,4.174,4.174,0,0,1-2.539,1.962A7.188,7.188,0,0,1,10.879,38.7ZM9.393,36.691h0a3.331,3.331,0,0,0,.479.228A2.945,2.945,0,0,0,10.9,37.1a6,6,0,0,0,2.257-.563l.217-.09,0,0a3.04,3.04,0,0,0,1.163-.685,1.477,1.477,0,0,0,.3-.725,5.2,5.2,0,0,1-.7.541c-.032.038-.066.074-.1.109a1.907,1.907,0,0,0-.146.169.767.767,0,0,1-.627.3.869.869,0,0,1-.2-.024c-.02.008-.04.017-.059.026s-.045.021-.068.03a.833.833,0,0,1-.292.052h-.029l-.132.121,0,0c-.084.077-.17.157-.259.233a.687.687,0,0,1-.455.165.876.876,0,0,1-.635-.284,2.62,2.62,0,0,1-1.169.311A1.822,1.822,0,0,1,9.393,36.691Zm1.818-3.77h0l-.026.019-.025.018a4,4,0,0,0-.774.85,3.145,3.145,0,0,0-.341.681,4.87,4.87,0,0,0,.986-1.212c.057-.1.113-.21.18-.357Zm2.158-1.277c-.086,0-.178,0-.271.012a1.458,1.458,0,0,1,.025.5l.055-.033c.1-.062.208-.126.317-.179a.727.727,0,0,1,.324-.081.691.691,0,0,1,.5.235.608.608,0,0,1,.133-.014c.025,0,.05,0,.078,0a1.118,1.118,0,0,0-.469-.331,1.755,1.755,0,0,0-.353-.085A2.473,2.473,0,0,0,13.369,31.643Zm-1.55-7.265a6.716,6.716,0,0,1-.93-.066,6.984,6.984,0,0,1-1.67-.451,4.441,4.441,0,0,1-2.56-2.33c-.34-1.019.15-2.108,1.458-3.237.088-.075.186-.152.309-.242a4.335,4.335,0,0,1,2.218-1.074,5,5,0,0,1,.861-.072c1.891,0,4.094.982,4.647,2.858a3.312,3.312,0,0,1,.071,1.585,3.416,3.416,0,0,1-.674,1.441,4.394,4.394,0,0,1-2.877,1.53A6.223,6.223,0,0,1,11.819,24.378Zm.64-2.126-.015.007-.017.008a3.652,3.652,0,0,1-.758.239c-.093.065-.2.139-.308.2a.3.3,0,0,1-.042.019l-.031.013a5.126,5.126,0,0,0,.544.03,4.37,4.37,0,0,0,1.052-.124,2.951,2.951,0,0,0,.465-.163.923.923,0,0,1-.287.046A.775.775,0,0,1,12.459,22.252Zm2.215-1.77h0a2.992,2.992,0,0,1-.5.623.866.866,0,0,1,0,.627.708.708,0,0,1-.34.361.767.767,0,0,1-.263.284A2.508,2.508,0,0,0,14.1,22a2.145,2.145,0,0,0,.535-.885,1.654,1.654,0,0,0,.037-.631Zm-3.819-1.635a2.3,2.3,0,0,0-.3.019,1.134,1.134,0,0,1,.248.076l.034-.039c.015-.018.031-.038.049-.055Z" transform="translate(0 584.262)" fill="#fff" stroke="rgba(0,0,0,0)" stroke-width="1"/>
    </g>
  </g>
</svg>
