<svg xmlns="http://www.w3.org/2000/svg" xmlns:xlink="http://www.w3.org/1999/xlink" width="303" height="116" viewBox="0 0 303 116">
  <g id="Group_83" data-name="Group 83" transform="translate(-514 -4683)">
    <g transform="matrix(1, 0, 0, 1, 514, 4683)" filter="url(#Rectangle_230)">
      <rect id="Rectangle_230-2" data-name="Rectangle 230" width="243" height="56" rx="28" transform="translate(30 27)" fill="#ff55fb"/>
    </g>
    <text id="Ver_más" data-name="Ver más" transform="translate(644 4746)" fill="#fff" font-size="25" font-family="Brevia-Bold, Brevia" font-weight="700"><tspan x="0" y="0">Ver más</tspan></text>
    <g id="Group_76" data-name="Group 76" transform="translate(576 4718)">
      <g id="Group_75" data-name="Group 75" transform="translate(0 0)" clip-path="url(#clip-path)">
        <path id="Path_5210" data-name="Path 5210" d="M23.752,13.41a26.992,26.992,0,0,1,11.234,4.175c2.67,1.715,10.139,6.428,4.522,9.928-2.616,1.629-6.438,2.5-9.327,3.5a37.506,37.506,0,0,1-11.42,2.476A17.986,17.986,0,0,1,8.38,30.7C5.8,29.043,1.251,26.194,3.227,22.751c3.852-6.707,13.33-9.825,20.524-9.341,1.58.107,1.574-2.354,0-2.46A25.271,25.271,0,0,0,7.76,15.176C4.925,17.1.3,20.5.011,24.267-.226,27.391,3.235,30,5.418,31.626a21.2,21.2,0,0,0,14,4.308c5.857-.28,11.3-2.54,16.746-4.5,2.912-1.049,7.624-2.244,8.415-5.83.831-3.777-3.721-6.789-6.261-8.68a30.528,30.528,0,0,0-14.57-5.97c-1.566-.2-1.551,2.262,0,2.46" transform="translate(0 -1.96)" fill="#fff"/>
        <path id="Path_5211" data-name="Path 5211" d="M16.532,11.851c-12.581,4.9-3.352,22.067,7.435,22.305,5.8.128,11.373-4,12.162-9.771.7-5.139-.36-11.029-5.815-12.875-1.5-.508-2.148,1.866-.654,2.372,4.139,1.4,4.562,6.316,4.029,10.006A9.5,9.5,0,0,1,23.967,31.7c-7.715-.206-16.824-13.562-6.781-17.473,1.459-.568.824-2.948-.654-2.372" transform="translate(-1.884 -2.059)" fill="#fff"/>
        <path id="Path_5212" data-name="Path 5212" d="M18.006,13.556a5.777,5.777,0,0,0-3.152,5.994c.632,2.58,3.586,3.226,5.883,2.927a5.889,5.889,0,0,0,5.138-4.08c.724-2.8-1.29-4.421-3.687-5.227-1.5-.506-2.149,1.87-.654,2.372,1.321.444,2.526,1.118,1.789,2.683a3.71,3.71,0,0,1-3.068,1.85c-1.075.107-2.833.018-3.05-1.343-.182-1.145,1.086-2.64,2.041-3.051,1.451-.623.2-2.743-1.241-2.124" transform="translate(-2.655 -2.358)" fill="#fff"/>
        <path id="Path_5213" data-name="Path 5213" d="M23.131,22.59c-1.608,2.2.792,4.913,3.118,4.9,2.5-.018,4.779-2.5,3.657-4.96-1.009-2.218-4.479-3.366-5.537-.559-.372.987-.575,2.381.376,3.114,1.2.925,2.216-.1,3.127-.82l-1.932-.249.064-.416,2.292.621-.017-.658a1.231,1.231,0,0,0-2.46,0l.017.658c.03,1.134,1.748,1.786,2.293.621a1.973,1.973,0,0,0-.064-2.067,1.257,1.257,0,0,0-1.932-.249,2.461,2.461,0,0,0-.453.4q.834,1.1.868.367c.054-.083.047-.526.16-.573.25-.1.773.488.876.654a.806.806,0,0,1,.124.75c-.483,1.477-3.232.773-2.453-.29.936-1.278-1.2-2.507-2.124-1.241" transform="translate(-4.07 -3.656)" fill="#fff"/>
        <path id="Path_5214" data-name="Path 5214" d="M34.141,11.141A14.849,14.849,0,0,0,39.523,4.86c.644-1.433-1.476-2.685-2.124-1.241a12.566,12.566,0,0,1-4.5,5.4c-1.31.874-.08,3.006,1.241,2.124" transform="translate(-5.821 -0.536)" fill="#fff"/>
        <path id="Path_5215" data-name="Path 5215" d="M42.418,17.414c3.138-1.847,6.179-3.833,8.227-6.918.877-1.323-1.252-2.556-2.125-1.241-1.8,2.713-4.594,4.417-7.344,6.036a1.231,1.231,0,0,0,1.241,2.124" transform="translate(-7.306 -1.565)" fill="#fff"/>
        <path id="Path_5216" data-name="Path 5216" d="M49.006,21.929c4.1-.155,9.358-1.479,10.9-5.775.535-1.492-1.84-2.135-2.372-.654-1.105,3.081-5.728,3.863-8.526,3.969-1.578.06-1.586,2.52,0,2.46" transform="translate(-8.608 -2.639)" fill="#fff"/>
        <path id="Path_5217" data-name="Path 5217" d="M22.3,9.593c1.137-2.508,2.527-7.344-.14-9.354C20.9-.713,19.669,1.421,20.919,2.363c.44.331.216,2.017.176,2.536a10.33,10.33,0,0,1-.918,3.452c-.649,1.431,1.47,2.683,2.124,1.241" transform="translate(-3.61 0)" fill="#fff"/>
        <path id="Path_5218" data-name="Path 5218" d="M11.983,12.675A14.107,14.107,0,0,0,8.666,5.733C7.63,4.532,5.9,6.279,6.927,7.473A11.744,11.744,0,0,1,9.611,13.33c.26,1.558,2.631.9,2.372-.654" transform="translate(-1.19 -0.959)" fill="#fff"/>
      </g>
    </g>
  </g>
</svg>
