<svg xmlns="http://www.w3.org/2000/svg" xmlns:xlink="http://www.w3.org/1999/xlink" width="1368.151" height="1366" viewBox="0 0 1368.151 1366">
  <defs>
    <clipPath id="clip-path">
      <rect id="Rectangle_260" data-name="Rectangle 260" width="132.758" height="131.072" fill="#70e8ff"/>
    </clipPath>
    <clipPath id="clip-path-2">
      <rect id="Rectangle_254" data-name="Rectangle 254" width="130.194" height="171.354" fill="#ffe815"/>
    </clipPath>
    <clipPath id="clip-path-3">
      <rect id="Rectangle_259" data-name="Rectangle 259" width="109.611" height="158.456" fill="#ffe815"/>
    </clipPath>
  </defs>
  <g id="Group_101" data-name="Group 101" transform="translate(1.15 -2042)">
    <rect id="Rectangle_286" data-name="Rectangle 286" width="1368" height="1366" transform="translate(-1 2042)" fill="#fff"/>
    <path id="Subtraction_17" data-name="Subtraction 17" d="M2703.811,657.777a11.2,11.2,0,0,1-9.525-4.77,14.58,14.58,0,0,1-2.238-4.917,10.94,10.94,0,0,1,.559-6.545,17.118,17.118,0,0,1,5.416-7.518,13.677,13.677,0,0,1,4.384-2.233,18.048,18.048,0,0,1-2.413-4.635,9.667,9.667,0,0,1-.537-5.244,7.627,7.627,0,0,1,2.311-4.131c2.019-1.912,5.231-2.965,9.044-2.965a24.7,24.7,0,0,1,3.67.289c.019-.058.04-.119.062-.181a3.322,3.322,0,0,0,.2-.81q.017-.21.033-.431l.009-.116a27.208,27.208,0,0,1,.55-4.187,84.2,84.2,0,0,1-2.7-13.767,62.59,62.59,0,0,1,.167-15.526,45.511,45.511,0,0,1,6.992-18.837,44.436,44.436,0,0,1,8.031-9.067,55.239,55.239,0,0,1,11.744-7.656l.351-.171a88.088,88.088,0,0,1,22.422-7,74.721,74.721,0,0,1,13.237-1.246c11.235,0,21.2,2.944,29.6,8.75a52.658,52.658,0,0,1,12.658,12.478,68.53,68.53,0,0,1,10.623,22.509h.234a12.1,12.1,0,0,1,3.553.541c3.48,1.074,5.635,3.215,6.405,6.365.789,3.239-.256,7.011-1.271,9.606a28.111,28.111,0,0,1,4.175.475,14.672,14.672,0,0,1,6.858,3.015c2.714,2.444,3.348,5.82,1.885,10.034a9.573,9.573,0,0,1-6.832,6.323,15.885,15.885,0,0,1-4.2.517,27.724,27.724,0,0,1-6.142-.764,13.71,13.71,0,0,1-.967,7.122,11.922,11.922,0,0,1-5.76,5.8l-.3.146c-.387.184-.8.363-1.24.53a11.32,11.32,0,0,1-4.031.789,9.842,9.842,0,0,1-3.635-.705,18.381,18.381,0,0,1-5.72-4.147l-.045-.043-.381-.366a3.268,3.268,0,0,0-.7-.479l-.023-.013-.129-.073a20.721,20.721,0,0,1-5.674,4.912,11.11,11.11,0,0,1-5.345,1.543c-.087,0-.174,0-.258,0a7.629,7.629,0,0,1-4.473-1.551,9.653,9.653,0,0,1-3.083-4.275,18.092,18.092,0,0,1-1.28-5.066,13.726,13.726,0,0,1-4.759,1.245c-.358.027-.723.041-1.085.041a17.73,17.73,0,0,1-7.959-2.057,10.948,10.948,0,0,1-4.768-4.52,14.561,14.561,0,0,1-1.594-5.163,10.913,10.913,0,0,1,2.753-8.687,14.789,14.789,0,0,1,8.693-4.746,16.111,16.111,0,0,1,2.7-.223,18.318,18.318,0,0,1,3.374.318,23.53,23.53,0,0,1,3.349-5.107,19.756,19.756,0,0,1,5.254-4.359,23.358,23.358,0,0,0-3.185-6.319c-4.4-6.2-13.071-9.9-23.184-9.9-10.438,0-19.929,3.979-25.388,10.643-4.723,5.766-6.3,13.379-4.568,22.017a18.053,18.053,0,0,1,5.153-4.055,10.342,10.342,0,0,1,4.542-1.115,9.73,9.73,0,0,1,4.764,1.3c3.9,2.177,5.665,5.121,5.26,8.752a14.719,14.719,0,0,1-3.117,6.81,28.238,28.238,0,0,1-2.8,3.13c2.482,1.266,5.769,3.394,7.332,6.335,1.517,2.864,1.33,5.9-.556,9.012a12.579,12.579,0,0,1-8.394,5.761,20.571,20.571,0,0,1-4.446.454,33.087,33.087,0,0,1-7.638-.982l-.236,2.884a12.782,12.782,0,0,1-9.656,10.913,18.988,18.988,0,0,1-5,.658,21.047,21.047,0,0,1-2.783-.188,23.644,23.644,0,0,1-5.9-1.589,17.655,17.655,0,0,1-4.473,4.109A15.06,15.06,0,0,1,2703.811,657.777Zm6.88-39.83a10.837,10.837,0,0,0-5.4,1.178c-2.5,1.378-3.324,3.945-2.2,6.869a15.462,15.462,0,0,0,1.81,3.508,7.925,7.925,0,0,0,2.522,1.9c1.118.635,2.083,1.183,2.048,1.912-.03.622-1.047.862-2.588,1.226l-.01,0c-.242.057-.493.116-.755.181-3.843.944-8.058,2.649-10.175,8.132-1.473,3.8.174,5.977,1.5,7.729a8.609,8.609,0,0,0,6.988,3.287,10.177,10.177,0,0,0,5.388-1.545,14,14,0,0,0,4.209-4.236,1.839,1.839,0,0,1,.788-.735,1.863,1.863,0,0,1,.811-.188,1.836,1.836,0,0,1,.9.237,19.023,19.023,0,0,0,6.1,1.867,17.758,17.758,0,0,0,2.314.155,15.374,15.374,0,0,0,4.017-.522,9.155,9.155,0,0,0,6.973-7.656l.375-4.545a7.66,7.66,0,0,1-1.837.4c-.184.016-.367.025-.546.025a4.485,4.485,0,0,1-2.132-.49,1.059,1.059,0,0,1,.505-1.99,1.06,1.06,0,0,1,.5.127,2.431,2.431,0,0,0,1.135.24c.115,0,.235-.005.356-.016a6.172,6.172,0,0,0,2.628-.909,5.748,5.748,0,0,0,2.067-2.123,4.49,4.49,0,0,0,.531-2.572,1.059,1.059,0,0,1,.965-1.141c.031,0,.061,0,.09,0a1.063,1.063,0,0,1,1.05.967,6.593,6.593,0,0,1-.77,3.758,7.448,7.448,0,0,1-1.386,1.8,28.939,28.939,0,0,0,7.911,1.23,17.388,17.388,0,0,0,3.738-.38,9.089,9.089,0,0,0,6.095-4.085,5.268,5.268,0,0,0,.467-5.449c-2.02-3.837-7.916-5.807-7.975-5.827a1.793,1.793,0,0,1-1.181-1.392,1.769,1.769,0,0,1,.667-1.7,27.461,27.461,0,0,0,4.349-4.372,10.614,10.614,0,0,0,2.444-5.072c.251-2.1-.919-3.9-3.479-5.352a6.346,6.346,0,0,0-3.162-.876,7.023,7.023,0,0,0-3,.72,15.468,15.468,0,0,0-4.064,3.086,29.255,29.255,0,0,0-4.938,6.682,3.1,3.1,0,0,1-.461-.517c-1.384-1.678-5.594-6.783-10.449-6.783a7.74,7.74,0,0,0-5.394,2.4c-2.487,2.375-3.608,6.166-4.11,8.928a7.267,7.267,0,0,1,1.671-.71,6.593,6.593,0,0,1,3.837.068,1.057,1.057,0,1,1-.637,2.016,4.671,4.671,0,0,0-1.407-.222,4.5,4.5,0,0,0-1.216.169,5.763,5.763,0,0,0-2.529,1.558,6.142,6.142,0,0,0-1.462,2.362,2.712,2.712,0,0,0-.115,1.5,1.055,1.055,0,1,1-2.031.575,4.763,4.763,0,0,1,.13-2.715,8,8,0,0,1,1.315-2.449c-.247-.017-.5-.037-.765-.058l-.062,0C2712.743,618.028,2711.726,617.948,2710.69,617.948Zm83.226-3.874a.581.581,0,0,1,.438.166c.51.522.153,1.573-.26,2.79a7.931,7.931,0,0,0-.625,3.094,15.454,15.454,0,0,0,.977,3.822c.917,2.428,2.707,3.821,4.91,3.821a5.889,5.889,0,0,0,1.3-.152c2.984-.676,5.165-2.951,6.918-4.78l.132-.138a6.575,6.575,0,0,1-3.3-1.682,1.054,1.054,0,0,1-.057-1.492,1.056,1.056,0,0,1,1.493-.055,4.49,4.49,0,0,0,2.352,1.164,5.056,5.056,0,0,0,.849.071,6.051,6.051,0,0,0,2.1-.393,6.185,6.185,0,0,0,2.334-1.511,2.687,2.687,0,0,0,.742-1.313,1.062,1.062,0,0,1,1.048-.884,1.081,1.081,0,0,1,.175.014,1.066,1.066,0,0,1,.868,1.225,4.8,4.8,0,0,1-1.282,2.4,8.341,8.341,0,0,1-3.14,2.05c-.1.037-.185.067-.268.094,2.16,1.657,5.439,3.659,8.795,3.776.138,0,.277.007.412.007a7.451,7.451,0,0,0,5.6-2.18c3.218-3.342,2.982-9.584,2.9-11.636a3.124,3.124,0,0,1,0-.691,28.068,28.068,0,0,0,9.432,1.747,13.732,13.732,0,0,0,3.786-.432,6.369,6.369,0,0,0,4.5-4.212c.946-2.786.623-4.909-.96-6.308a10.61,10.61,0,0,0-5.195-2.167,26.965,26.965,0,0,0-4.8-.417c-.818,0-1.331.035-1.353.037-.043,0-.086,0-.128,0a1.75,1.75,0,0,1-1.5-.831,1.778,1.778,0,0,1-.042-1.823c.031-.054,3.122-5.453,2.085-9.655a5.279,5.279,0,0,0-3.972-3.76,8.417,8.417,0,0,0-2.448-.369,9.87,9.87,0,0,0-4.823,1.368c-4.4,2.456-7.466,7.24-8.3,8.648a4.571,4.571,0,0,1,1.755,1.376,1.06,1.06,0,0,1-.229,1.477,1.049,1.049,0,0,1-.622.2,1.06,1.06,0,0,1-.854-.435,2.732,2.732,0,0,0-1.253-.834,5.931,5.931,0,0,0-2.034-.342,6.7,6.7,0,0,0-.729.04,5.757,5.757,0,0,0-2.784,1.037,4.513,4.513,0,0,0-1.574,2.1,1.057,1.057,0,1,1-1.981-.74,6.587,6.587,0,0,1,2.308-3.065,7.839,7.839,0,0,1,3.5-1.393l-2.286-2.179a9.371,9.371,0,0,0-4.907-2.134,8.654,8.654,0,0,0-.986-.056,9.826,9.826,0,0,0-4.4,1.1,16.132,16.132,0,0,0-4.975,3.935,19.05,19.05,0,0,0-3.313,5.449,1.84,1.84,0,0,1-2.323,1.146,13.568,13.568,0,0,0-3.853-.538,12.757,12.757,0,0,0-2.107.171c-4.9.84-8.452,5.025-8.091,9.528.177,2.189.4,4.914,4.019,6.771a12.382,12.382,0,0,0,5.691,1.447,16.367,16.367,0,0,0,7.872-2.433l.135-.073A6.574,6.574,0,0,1,2793.916,614.074Zm-24.669-57.106h0a42.158,42.158,0,0,0-12.647,2.107c-11.737,3.71-18.878,8.913-22.473,16.373-3.008,6.246-3.7,14.058-2.307,26.122l.015.006.01,0a13.662,13.662,0,0,1,5.457,4.678l.006-.008.006-.008a1.587,1.587,0,0,1-.121-.316,37.075,37.075,0,0,1-1.555-12.15,26.247,26.247,0,0,1,2.42-9.879,27.841,27.841,0,0,1,13.346-12.963,40.708,40.708,0,0,1,17.762-3.954,37.892,37.892,0,0,1,15.154,3.007,27.1,27.1,0,0,1,6.213,3.755,21.538,21.538,0,0,1,4.678,5.252,25.124,25.124,0,0,1,2.984,6.785,13.216,13.216,0,0,1,3.926-.887l-4.164-8.536c-2.281-4.677-7.542-13.123-17.159-17.145a29.771,29.771,0,0,0-11.551-2.244Zm6.5-17.261h0a70.017,70.017,0,0,0-12.737,1.233c-19.077,3.511-32.586,11.027-40.152,22.342a44.223,44.223,0,0,0-7.114,22.008,70.858,70.858,0,0,0,1.646,19.637,10.277,10.277,0,0,1,3.775-2.936,1.056,1.056,0,0,1-.223-.489,62.8,62.8,0,0,1-.864-14.809,43.657,43.657,0,0,1,4.111-16.144,38.626,38.626,0,0,1,7.617-10.631,47.853,47.853,0,0,1,12.782-8.881,74.425,74.425,0,0,1,15.638-5.405,60.075,60.075,0,0,1,13.656-1.579,57.688,57.688,0,0,1,10.158.894,46.4,46.4,0,0,1,20.3,8.641c11.85,9.223,17.5,22.168,19.383,27.306a13.9,13.9,0,0,1,2.417-.771,68.148,68.148,0,0,0-8.3-17.51,53.235,53.235,0,0,0-14.588-14.919,48.438,48.438,0,0,0-27.509-7.986Zm-1.875,6.459h0a57.912,57.912,0,0,0-13.16,1.522c-17.289,4.04-28.936,12.042-34.618,23.782-4,8.269-5.03,18.251-3.07,29.67a1.018,1.018,0,0,1,.013.129,13.92,13.92,0,0,1,4.167-.677,11.461,11.461,0,0,1,2.408.253,76.367,76.367,0,0,1-.407-14.4,33.431,33.431,0,0,1,3.023-11.912,26.3,26.3,0,0,1,5.715-7.793,36.617,36.617,0,0,1,9.306-6.263,64.007,64.007,0,0,1,8.708-3.417,44.3,44.3,0,0,1,13.288-2.205,31.9,31.9,0,0,1,12.375,2.411c10.259,4.29,15.835,13.222,18.246,18.165l4.653,9.54a12.886,12.886,0,0,1,6.864,3.119l2.1,2a28.771,28.771,0,0,1,8.343-8.234c-1.795-5-7.217-17.6-18.779-26.6a44.283,44.283,0,0,0-19.378-8.223,55.592,55.592,0,0,0-9.793-.862Z" transform="translate(-2668 1516.967)" fill="#70e8ff" stroke="rgba(0,0,0,0)" stroke-width="1"/>
    <path id="Subtraction_10" data-name="Subtraction 10" d="M2720.832,720.3a4.517,4.517,0,0,1-2.332-.707,52.49,52.49,0,0,1-7.753-6.3c-5.027-4.7-9.959-10.1-10.166-10.333a2.074,2.074,0,0,1-.435-.71c-.077-.2-8.686-22.94-16.646-44.137V646.155c9.049,23.585,20.084,52.716,20.193,53a14.677,14.677,0,0,0-.543-1.77l-.041-.078a1.568,1.568,0,0,1-.141-1.209,1.337,1.337,0,0,1,.76-.708.869.869,0,0,1,.36-.073c1.045,0,2.77,1.505,4.6,3.1l.005,0,2.379,2.065-.138-.5c-.66-2.369-1.482-5.317-.9-6.99.3-.845.783-1.274,1.45-1.274a2.194,2.194,0,0,1,.713.134c1.205.421,2.607,2.771,3.963,5.044.473.791.858,1.55,1.138,2.1l0,.006h0a3.309,3.309,0,0,0,.523.9l.054,0c.043,0,.069-.009.077-.027.021-.045-.061-.142-.174-.276a1.468,1.468,0,0,1-.467-.978c.077-.7.133-1.607.188-2.48v-.012l0-.043a29.551,29.551,0,0,1,.324-3.421,2.865,2.865,0,0,1,.641-1.4,1.739,1.739,0,0,1,1.315-.614,2.125,2.125,0,0,1,.537.073,3.094,3.094,0,0,1,1.331.822,6.367,6.367,0,0,1,.464.5c-.043-.3-.09-.6-.141-.893-.584-3.333-4.214-14.095-10.791-31.984-5.072-13.775-10.4-27.649-14.606-38.066a9.718,9.718,0,0,0-1.817-.146,28.781,28.781,0,0,0-3.243.227,30.6,30.6,0,0,0-5.768,1.179,21.772,21.772,0,0,0-2.248.846v-4.744a25.926,25.926,0,0,1,7.927-1.7c.322-.015.646-.022.964-.022a19.4,19.4,0,0,1,2.477.156c-.267-.684-.522-1.383-.792-2.123l0-.009c-1.9-5.194-4.045-11.081-10.492-11.569l-.081-.006V600.07c.141.01.252.02.351.031a11.629,11.629,0,0,1,5.893,2.362c4.087,3.08,6.638,8.5,8.709,13.333,4.994,11.651,11.422,27.7,16.776,41.875,6.072,16.09,10.436,28.933,11.118,32.719,1.012,5.754,1.288,18.606-.6,24.865a10.232,10.232,0,0,1-1.466,3.069l-.117.155a4.615,4.615,0,0,1-2.1,1.616A3.836,3.836,0,0,1,2720.832,720.3Zm1.435-10.3a11.246,11.246,0,0,0-3.628.841,7.677,7.677,0,0,0-2.356,1.5c1.016.884,1.9,1.609,2.707,2.217.633.476,1.209.873,1.711,1.18a4.833,4.833,0,0,0,.284-.438,8.747,8.747,0,0,0,.5-1.331,25.227,25.227,0,0,0,.778-3.969Zm-15.789-10.177h0c.336,1.41.643,2.877.841,3.858,1.577,1.636,3.976,4.073,6.452,6.387.207.193.415.385.622.575a10.066,10.066,0,0,1,3.248-2.155,13.819,13.819,0,0,1,4.878-1.061c.041-.552.077-1.142.107-1.8.117-2.5.113-5.228-.011-7.876a1.293,1.293,0,0,1-.262-.367,18.719,18.719,0,0,0-2.108-3.59c-.082.673-.134,1.521-.189,2.419v.009l0,.039-.013.2c-.052.808-.105,1.643-.193,2.457-.262,2.419-.928,3.546-2.1,3.546a1.965,1.965,0,0,1-.212-.012c-1.113-.12-2.3-2.109-3.56-4.214l-.011-.019c-.453-.764-.979-1.645-1.444-2.382.2,1.081.557,2.352.87,3.474a12.424,12.424,0,0,1,.7,3.626c-.1.964-.558,1.432-1.387,1.432a2.5,2.5,0,0,1-.27-.015c-.98-.106-3.344-2.17-5.43-3.991A5.659,5.659,0,0,1,2706.478,699.82Zm-2.871-9.672a1.28,1.28,0,0,1-1.207-.858l-18.9-54.479v-6.1a1.276,1.276,0,0,1,.43.212,1.26,1.26,0,0,1,.437.6l20.444,58.931a1.276,1.276,0,0,1-1.2,1.7Zm4.942-.956a1.283,1.283,0,0,1-1.258-1.532c.147-.746-14.584-41.067-20.925-58.368l-.154-.419-.181-.494a1.276,1.276,0,0,1,1.2-1.715,1.286,1.286,0,0,1,.77.258,1.268,1.268,0,0,1,.429.579c.219.583,21.7,59.041,21.374,60.662A1.284,1.284,0,0,1,2708.549,689.192Zm5.146-4.158a1.282,1.282,0,0,1-1.211-.863L2692.5,626.192a1.28,1.28,0,0,1,1.209-1.7,1.294,1.294,0,0,1,.774.26,1.278,1.278,0,0,1,.439.6l19.983,57.978a1.279,1.279,0,0,1-1.209,1.7Z" transform="translate(-2684 2182)" fill="#70e8ff" stroke="rgba(0,0,0,0)" stroke-width="1"/>
    <g id="Group_67" data-name="Group 67" transform="translate(1173.621 3217.397)" opacity="0.7">
      <g id="Group_66" data-name="Group 66" transform="translate(0 0)" clip-path="url(#clip-path)">
        <path id="Path_5204" data-name="Path 5204" d="M130.7,90.041c-6.8,16.45-14.4,26.346-22.846,32.293-11.2,7.885-23.938,8.883-38.59,8.723-17.99-.239-32.793-2.979-44.008-9.618-12.338-7.3-20.466-19.278-23.71-37.966C.051,74.8-.234,69.2.161,65.684a10.41,10.41,0,0,1,1.683-5.121,4.612,4.612,0,0,1,5.763-1.535c2.64.98,5.258,3.936,5.258,3.936a2.127,2.127,0,0,1,.313.494C15.187,61.978,20.2,58.3,26.586,53.8c6.5-4.583,14.425-10.012,21.852-15.085,4.362-2.972,8.534-5.86,12.222-8.266,5.182-3.38,9.322-5.937,11.274-7.127.936-12.229,1.651-21.328,1.651-21.328A2.159,2.159,0,0,1,77.306.677,78.007,78.007,0,0,0,92.095,12.6c9.29,5.5,19.76,2.863,23.673,5.657,1.943,1.389.315,3.8-9.094,7.909a29.529,29.529,0,0,1-11.989,2.474,44.385,44.385,0,0,1-11.142-1.43c-.513-.136-1-.279-1.483-.42,3.673,4.27,8.614,10.037,13.846,16.182,12.933,15.22,27.609,32.728,29.585,35.088a1.733,1.733,0,0,1,.7.22,10.443,10.443,0,0,1,3.57-.376,3.372,3.372,0,0,1,2.075.97,3.838,3.838,0,0,1,.912,2.955c-.079,1.678-.846,4.269-2.465,8.039Zm-20.812,25.606a51.821,51.821,0,0,0,6.68-7.413q-.5.342-1,.638c-4.829,2.837-9.792,2.515-14.12-2.382-2.871-3.262-4.654-5.429-5.763-6.86-2.624,3.954-7.793,11.037-13.088,14.233-8.786,5.313-15.8-3.282-20.47-10.116a27.667,27.667,0,0,1-2.363-4.16c-2.7,3.66-7.127,8.809-11.771,10.8-3.375,1.437-6.862,1.419-10.07-1.222a29.571,29.571,0,0,1-7.657-9.982A40.132,40.132,0,0,1,28.1,93.652c-.249.475-.5.962-.779,1.443a20.074,20.074,0,0,1-5.442,6.621c-2.565,1.756-5.421,2.109-8.36-.439a21.4,21.4,0,0,1-3.945-4.827,47.531,47.531,0,0,0,5.007,9.347c3.647,4.412,19.82,8.775,40.244,10.868,17.067,1.749,37.007,1.843,55.062-1.02m-90.4-4.028a41.721,41.721,0,0,0,7.972,6.1c10.662,6.317,24.753,8.822,41.865,9.086,13.722.249,25.692-.439,36.255-7.735.174-.119.345-.242.518-.366a228.014,228.014,0,0,1-51.511.429c-14.748-1.509-27.436-4.292-35.1-7.514M125.3,81.6h-.023c-.867.292-1.824.638-2.864,1.012a124.128,124.128,0,0,1-17.941,5.5c-9.7,1.961-21.174,2.442-32.025,2.022a174.754,174.754,0,0,1-31.83-3.986c-9.63-2.361-16.348-5.737-21-9.044-7.137-5.077-9.58-10.1-10.2-11.629a11.7,11.7,0,0,0-2.716-2.2c-.5-.272-1.054-.684-1.435-.168a6.54,6.54,0,0,0-.86,3.048A34.761,34.761,0,0,0,4.4,72.4c1.247,1.163,3.72,2.863,8.507,5.338C17,79.85,22.16,83.045,30.182,86.252c13.446,5.6,30.281,7.964,47.207,8,8.575.024,17.509.6,25.095-.274a114.881,114.881,0,0,0,24.707-5.672c.345-.129.707-.3,1.04-.413.476-1.206.853-2.264,1.135-3.193a12.254,12.254,0,0,0,.6-2.968c.005-.409.013-.7-.16-.878a.613.613,0,0,0-.384-.1,8.3,8.3,0,0,0-3.027.49,1.76,1.76,0,0,1-1.1.354M16.242,65.8a150.012,150.012,0,0,0,18.6,6.926A163.143,163.143,0,0,0,67.732,79.17c.214-2.663.466-5.93.743-9.6.737-9.705,1.644-22.192,2.512-33.792l.656-8.673c-2.076,1.6-5.113,3.9-8.758,6.564-3.554,2.6-7.716,5.492-12.043,8.521C43.478,47.348,35.6,52.854,29.018,57.314c-5.607,3.8-10.271,6.857-12.776,8.485m55.146,13.66a224.069,224.069,0,0,0,25.178.2c10.611-.459,19.373-1.356,25.373-1.57C117.3,72.9,104.4,58.435,92.994,45.492c-6.946-7.879-13.322-15.2-17.01-19.434C75.308,34.4,74.525,43.967,73.752,53,72.866,63.4,72,73.091,71.388,79.459m27.43,17.33c1.016,1.36,2.755,3.537,5.739,7.005a7.438,7.438,0,0,0,4.195,2.734,7.151,7.151,0,0,0,4.874-1.044c3.982-2.253,7.851-7.26,11-13.613a123.729,123.729,0,0,1-20.837,4.348c-1.623.209-3.284.4-4.974.571M4.876,76.9a91.524,91.524,0,0,0,4.78,12.59c1.746,3.639,3.818,7.046,6.212,9,1.929,1.581,3.653.508,5.14-1.135a35.822,35.822,0,0,0,5.529-9.086c-2.949-1.31-5.556-2.519-7.842-3.652A112.3,112.3,0,0,1,8.485,78.956C6.978,78,5.774,77.147,4.813,76.394ZM31.242,90.267a40.8,40.8,0,0,0,2.752,7.1,25.489,25.489,0,0,0,6.61,8.544c2.5,2.056,5.267,1.131,7.81-.591a43.829,43.829,0,0,0,9.027-8.857,111.276,111.276,0,0,1-26.2-6.194m31.926,6.8a29.73,29.73,0,0,0,2.526,4.247c4.612,6.757,9.386,13.5,16.936,7.233,3.914-3.247,7.491-8.184,9.5-11.206-4.347.281-8.834.423-13.37.414-5.178-.014-10.417-.233-15.587-.688M76.486,19.893A31.872,31.872,0,0,0,84.6,23.153a40.1,40.1,0,0,0,10.1,1.264,25.3,25.3,0,0,0,10.259-2.147,25.155,25.155,0,0,0,2.974-1.55c-1.31.037-2.862.055-4.676.055-4.291-.018-9-1.88-13.367-4.454A77.417,77.417,0,0,1,77.528,6.908c-.248,3.12-.611,7.65-1.043,12.985" transform="translate(0 0)" fill="#70e8ff" fill-rule="evenodd"/>
      </g>
    </g>
    <path id="Subtraction_13" data-name="Subtraction 13" d="M2632.619,669.074a19.976,19.976,0,0,1-4.469-.471l-.007,0a11.961,11.961,0,0,1-5.782-2.99,9.589,9.589,0,0,1-2.631-4.65,12.967,12.967,0,0,1-.218-5.815l.016-.069a7.621,7.621,0,0,1,4.04-5.144,15.147,15.147,0,0,1,7.048-1.509,24.969,24.969,0,0,1,9.909,2.1,24.378,24.378,0,0,1,7.332,5.154,89.078,89.078,0,0,1-1.276-15.08,99.29,99.29,0,0,1,2.056-20.219,70.492,70.492,0,0,1,2.325-7.561,27.275,27.275,0,0,1,2.242-5.149l.963-1.335a1.377,1.377,0,0,1,1.147-.608c.039,0,.079,0,.118,0a1.37,1.37,0,0,1,1.134.817l.408.862c.195.354.376.715.541,1.073s.317.734.449,1.086a6.539,6.539,0,0,1,.167.752v.005a16.447,16.447,0,0,0,1.581,4.925,2.939,2.939,0,0,0,2.123,1.7,21.881,21.881,0,0,1,7.531,1.955v3.07a17.615,17.615,0,0,0-7.785-2.32,5.5,5.5,0,0,1-4.233-3.033,18.3,18.3,0,0,1-1.763-5.274,7.372,7.372,0,0,0-.187-.792l-.326-.711c-.487.959-1.29,3.232-1.936,5.106-.053.155-.1.309-.156.464l-.026.078c-.063.189-.126.379-.191.568a9.843,9.843,0,0,0,.4,2,9.585,9.585,0,0,0,1.893,3.473,2.825,2.825,0,0,0,1.567.742,20.188,20.188,0,0,0,3.165.3c.488.022.988.045,1.493.08a20.849,20.849,0,0,1,3.293.452,12.5,12.5,0,0,1,1.786.55,11.765,11.765,0,0,1,3.01,1.86v3.395c-.171-.164-.433-.418-.722-.688a11.656,11.656,0,0,0-3.216-2.328,18.1,18.1,0,0,0-5.755-1.122l-.228-.017a20.8,20.8,0,0,1-3.307-.417,4.776,4.776,0,0,1-2.632-1.487,11.17,11.17,0,0,1-1.819-3.306c-.139.492-.261.974-.351,1.4a99.321,99.321,0,0,0-2.123,19.665,83.373,83.373,0,0,0,1.538,17.7,16.254,16.254,0,0,0,.411,1.622l.005.029a1.13,1.13,0,0,1-.6,1.6,4.823,4.823,0,0,1-1.039,2.453,10.055,10.055,0,0,1-4.357,2.86,38.6,38.6,0,0,1-9.784,2.067C2634.437,669.026,2633.5,669.074,2632.619,669.074Zm-1.687-18.548h0c-2.217,0-5.219.46-6.924,2.651-1.344,1.727-1.618,4.213-.814,7.388.984,3.882,4.024,5.77,9.294,5.77a26.377,26.377,0,0,0,2.634-.141c5.263-.514,9-1.46,11.108-2.813a3.252,3.252,0,0,0,1.719-2.193,3.667,3.667,0,0,0-1.035-2.627,1.027,1.027,0,0,1-.123-.15,21.79,21.79,0,0,0-7.266-5.834,18.746,18.746,0,0,0-4.31-1.539,19.386,19.386,0,0,0-4.281-.51Zm2.86,13.406c-.111,0-.223,0-.334,0a12.49,12.49,0,0,1-2.551-.3,8,8,0,0,1-2.81-1.2,6.509,6.509,0,0,1-2.7-4.652,10.451,10.451,0,0,1-.086-1.629.8.8,0,0,1,.792-.775h.017a.8.8,0,0,1,.776.811,8.82,8.82,0,0,0,.075,1.377,4.971,4.971,0,0,0,2.039,3.567,8.022,8.022,0,0,0,4.483,1.221q.139,0,.281,0a17.554,17.554,0,0,0,2.385-.176,35.017,35.017,0,0,0,8.95-2.269.793.793,0,1,1,.655,1.444,35.778,35.778,0,0,1-9.39,2.4A19.11,19.11,0,0,1,2633.792,663.932Z" transform="translate(-1302.866 1850)" fill="#70e8ff" stroke="rgba(0,0,0,0)" stroke-width="1"/>
    <g id="Group_55" data-name="Group 55" transform="translate(36.376 3191.39)">
      <g id="Group_54" data-name="Group 54" clip-path="url(#clip-path-2)">
        <path id="Path_5129" data-name="Path 5129" d="M100.01,80.479C83.977,71.786,69.459,60.215,52.546,53.07c-.779,1.291-2.19.5-3.3.267A28.906,28.906,0,0,0,45.47,55.9c1.152,5.647,7.922,11.5,11.845,15.768,1.649-4.1,2.112-8.307,2.9-12.546a1.489,1.489,0,0,1,2.949.4c-1.282,5.639-2.1,22.34-10.368,11.865-2.948-3.926-14.138-13.331-8.9-18.1-16.869.565-25.309,6.741-36.466,18.572C3.79,74.675.905,69.256.4,66.161c-1.772-6.632,2.684-12.872,6.9-17.575,8.075-8.927,25.245-11.267,36.119-6.9C38.269,32.132,41.7,20.9,46.688,12.024,49.483,8.125,52.118,1.312,57,0c3.336.32,2.759,7.3,3.633,9.872A55.412,55.412,0,0,1,59.3,36.055C69.762,25.734,88.827,16.2,103.461,21.85c2.784.728,7.947,2.923,4.49,6.195-4.467,3.118-9.931,4.571-14.7,7.207-8.707,4.354-16.9,9.87-26.18,12.977,14.29-.364,26.589,4.663,32.342,18.533.8,2.86,7.144,14.805.6,13.717m-.2-3.316C94,52.718,78.92,49.616,56.385,51.6c15.359,6.891,28.983,17.016,43.427,25.562M5.434,69.641c13.053-14.06,23.259-19.6,42.817-19.422-3.535-6.061-10.616-8.251-17.3-7.588-6.334.431-12.894,1.216-18.184,5.03C6.677,52.372-1.052,62.5,5.434,69.641m44.1-23.089q.639,1.059,1.282,2.114c5.06-9.678,8.69-20.685,7.7-31.7l.014.2A127,127,0,0,0,56.457,3.4h0c-6.54,7.36-11.626,16.636-12.657,26.542-.492,6.081,2.67,11.6,5.733,16.613m4.777,1.942A89.893,89.893,0,0,0,83.494,37.1c7.13-4.325,14.986-7.246,22.316-11.13-8.674-4.6-18.716-3.1-27.3.912-10.32,4.125-19.336,11.489-24.2,21.609" transform="translate(0 -0.001)" fill="#ffe815" fill-rule="evenodd"/>
        <path id="Path_5130" data-name="Path 5130" d="M43.069,66.044C39.6,62.522,22.631,48.192,30.756,44.112c1.48-.684,4.154-2.793,5.319-.742.688,2.573-3.261,2.312-4.543,3.784,1.861,6.5,8.616,11.75,13.375,16.549,1.133-5.917,2.746-12.087,2.693-18.088-.966-.767-3.144-.623-2.656-2.482.849-2.19,4.12-.562,5.1.787,1.34,2.265.389,5.047.1,7.481-1.215,3.389-.682,19.484-7.074,14.643" transform="translate(16.038 23.606)" fill="#ffe815" fill-rule="evenodd"/>
        <path id="Path_5131" data-name="Path 5131" d="M47.67,79.509c-2.895-.746-18.19-19.3-16.2-22.276.337-1.6,7-6.429,7.675-3.394.49,2.707-4.809,2.509-4.732,4.816,3.163,6.559,8.5,11.882,13.2,17.373.665-4.574.751-9.213,1.532-13.773-.072-2.169,1.855-5.327.309-7.016l.076.052.081.055c-4.565-1.667-.748-5.232,2.428-1.827,2.489,3.444-.637,9.28-.507,13.367-.934,3.122.685,12.816-3.861,12.622" transform="translate(17.56 29.238)" fill="#ffe815" fill-rule="evenodd"/>
        <path id="Path_5132" data-name="Path 5132" d="M48.714,89.637c-3.25-3.6-18.558-16.124-16.015-20.419.94-1.424,2.695-2.03,4.106-2.882,1.722-.529,4.158-3.305,5.708-1.366,1.238,2.765-5.62,3.891-7.179,5.692,3.566,6.276,9.742,10.7,14.491,16.067,1.087-4.737,1.561-9.6,2.411-14.384-.141-1.916,2.353-6.125-.6-6.35a1.488,1.488,0,0,1,.4-2.948c5.182.248,3.981,5.65,3.229,9.168C54,75.541,54.4,93.156,48.714,89.637" transform="translate(18.192 35.373)" fill="#ffe815" fill-rule="evenodd"/>
        <path id="Path_5133" data-name="Path 5133" d="M49.215,99.729C44.7,94.347,37.779,88.41,37.034,81.147c.7-1.816,7.555-6.435,8.048-2.659.055,1.675-3.8,2.08-5.069,3.533C42.319,88.233,47.28,93.189,51.7,97.994a78.411,78.411,0,0,0,2.932-19.765c-1.349-1.207-4.887-.548-4.482-3.052.951-2.493,5.994.064,7.063,1.539,1.288,4.532-.548,9.525-.87,14.154-.723,3.549-1.638,14.7-7.129,8.858" transform="translate(20.784 41.604)" fill="#ffe815" fill-rule="evenodd"/>
        <path id="Path_5134" data-name="Path 5134" d="M54.184,112.63c-5-4.164-8.6-10-12.479-15.213-1.916-2.551-4.215-6.858-.208-8.669,1.414-.806,4.368-2.692,4.991-.187.076,2.276-3.352,1.825-4.309,3.435,2.979,6.5,8.039,11.8,12.532,17.289C56.245,102.39,56.2,95.219,56.865,88.2c-.575-1.216-3.43-.7-2.834-2.8.84-2.2,4.039-.518,5.108.7,1.505,2.334.186,5.346.259,7.942-.851,3.622.432,20.091-5.214,18.585" transform="translate(22.049 47.332)" fill="#ffe815" fill-rule="evenodd"/>
        <path id="Path_5135" data-name="Path 5135" d="M6.254,43.7c.4-1.844-.962-5.9,1.852-5.973,2.387.721.773,4.128,1.123,5.973a1.488,1.488,0,0,1-2.974,0" transform="translate(3.51 21.172)" fill="#ffe815" fill-rule="evenodd"/>
        <path id="Path_5136" data-name="Path 5136" d="M12.759,40.1c-2.279-.531-.831-3.414-.71-4.983a1.505,1.505,0,0,1,1.663-1.205,1.565,1.565,0,0,1,1.163,2.178c-.418,1.4.031,4.167-2.115,4.011" transform="translate(6.445 19.023)" fill="#ffe815" fill-rule="evenodd"/>
        <path id="Path_5137" data-name="Path 5137" d="M18.817,38.122c-1.9-.336-1.119-2.5-.962-3.811.162-1.285.415-3.45,2.22-3.021a1.627,1.627,0,0,1,.93,2.272c-.531,1.508.151,4.665-2.189,4.56" transform="translate(9.858 17.53)" fill="#ffe815" fill-rule="evenodd"/>
        <path id="Path_5138" data-name="Path 5138" d="M35.063,25.424c-2.952-2.006,2.734-5.677,3.972-7.4a1.488,1.488,0,0,1,2.1,2.1c-1.784,1.073-4.3,6.132-6.075,5.3" transform="translate(19.207 9.864)" fill="#ffe815" fill-rule="evenodd"/>
        <path id="Path_5139" data-name="Path 5139" d="M34.822,16.291c-.165-.991.745-1.489,1.382-2.033,1.144-.84,2.448-3.141,4-1.758,1.343,1.471-.712,2.729-1.683,3.67-.952,1.183-3.208,2.283-3.7.12" transform="translate(19.532 6.773)" fill="#ffe815" fill-rule="evenodd"/>
        <path id="Path_5140" data-name="Path 5140" d="M35.171,9.811c.311-1.546,2.919-5.672,4.749-3.992,1.419,1.616-1.09,2.965-1.792,4.29a1.5,1.5,0,0,1-2.957-.3" transform="translate(19.739 3.044)" fill="#ffe815" fill-rule="evenodd"/>
        <path id="Path_5141" data-name="Path 5141" d="M55.455,26.791c-1.948-.59-6.876.437-7.213-2.1.478-3,5.513-.531,7.617-.851a1.489,1.489,0,0,1-.4,2.949" transform="translate(27.075 13.013)" fill="#ffe815" fill-rule="evenodd"/>
        <path id="Path_5142" data-name="Path 5142" d="M59.6,24a15.307,15.307,0,0,1-4.613-1.321,1.5,1.5,0,0,1-.269-2.086c1.438-1.422,3.542.54,5.285.462A1.487,1.487,0,0,1,59.6,24" transform="translate(30.539 11.268)" fill="#ffe815" fill-rule="evenodd"/>
        <path id="Path_5143" data-name="Path 5143" d="M62.785,21.671c-2.493-.2-2.384-3.763.209-3.085,2.5.222,2.382,3.742-.209,3.085" transform="translate(34.224 10.383)" fill="#ffe815" fill-rule="evenodd"/>
        <path id="Path_5144" data-name="Path 5144" d="M22.762,116.61c-1.986-1.888,8.954-10.051,10.721-11.338,2.963-1.981,21.159-12.07,22.749-7.547.181,1.911-2.109,1.73-3.4,2.051-5.308,1.212-10.231,3.767-15.008,6.314a44.622,44.622,0,0,0-9.82,7.653c-1.524,1.032-3.215,4.805-5.246,2.866" transform="translate(12.64 54.198)" fill="#ffe815" fill-rule="evenodd"/>
        <path id="Path_5145" data-name="Path 5145" d="M98.866,114.764C86.461,102.711,71.873,96.979,54.543,97.492c-3.121.639-4.267-2.8-1.213-3C68.293,94.184,84.1,97.678,95.4,108.009c1.848,1.819,4.62,3.1,5.847,5.375a1.5,1.5,0,0,1-2.382,1.38" transform="translate(28.925 53.022)" fill="#ffe815" fill-rule="evenodd"/>
        <path id="Path_5146" data-name="Path 5146" d="M69.829,106.374c-3.258-1.73-6.648-3.764-10.454-3.7a1.5,1.5,0,0,1-1.488-1.486c.18-2.237,3.068-1.4,4.545-1.185,1.93.512,10.943,3.208,9.431,5.834a1.508,1.508,0,0,1-2.034.532" transform="translate(32.488 55.94)" fill="#ffe815" fill-rule="evenodd"/>
        <path id="Path_5147" data-name="Path 5147" d="M63.7,108.842c-1.443-1.261-5.172-1.155-5.132-3.383,1.054-3,4.788.172,6.634.813a1.489,1.489,0,0,1-1.5,2.57" transform="translate(32.867 58.473)" fill="#ffe815" fill-rule="evenodd"/>
      </g>
    </g>
    <path id="Subtraction_14" data-name="Subtraction 14" d="M2659.557,651.1a5.264,5.264,0,0,1-1.54-.234,7.08,7.08,0,0,1-2.316-1.268,11.282,11.282,0,0,1-3.609-4.727,16.023,16.023,0,0,1-2.015-1.044,4.258,4.258,0,0,1-1.684-1.746,4.687,4.687,0,0,1-.241-3.052,5,5,0,0,1,.384-1,1.285,1.285,0,0,1-.3-.427.9.9,0,0,1-.065-.263,5.036,5.036,0,0,1-.4-3.242,7.478,7.478,0,0,1,.944-2.612l.058-.087a3.233,3.233,0,0,1-.277-.451,3.872,3.872,0,0,1-.327-2.615,3.971,3.971,0,0,1,1.547-2.589,2.341,2.341,0,0,1-.19-.424,2.463,2.463,0,0,1,.187-2.365c.723-1.018,2.21-1.607,4.42-1.75.073-5.088-1.518-8.766-6.547-15.136l-.215-.273c-2.606-3.312-5.066-6.438-6.121-10.018-1.488-5.075.029-10.024,4.773-15.573a35.968,35.968,0,0,1,11.87-9.23,29.478,29.478,0,0,1,12.643-2.871c.356,0,.716.007,1.071.02a28.505,28.505,0,0,1,18.121,7.369v5.051a24.716,24.716,0,0,0-11.838-7.84,25.318,25.318,0,0,0-6.417-1.085c-.325-.012-.654-.019-.977-.019-8.071,0-15.855,3.842-21.919,10.817-4,4.581-5.352,8.545-4.245,12.475.866,3.083,2.942,5.778,5.14,8.632l.011.014.51.664c5.758,7.516,6.687,12.076,6.319,17,.948.047,1.979.155,3.062.32a1.237,1.237,0,0,1-.175-.587c-.1-1.865-.2-3.641-.276-4.938v-.008c-.427-7.515-.662-11.655-.231-15.316a13.237,13.237,0,0,1,.706-3.26,2.651,2.651,0,0,1,1-1.3,1.834,1.834,0,0,1,1-.314,1.908,1.908,0,0,1,.938.266,4.233,4.233,0,0,1,1.58,2.236c.127.331.29.693.512,1.138a9.888,9.888,0,0,1,3.206-2.924,3.61,3.61,0,0,1,1.54-.373,2.809,2.809,0,0,1,1.227.278,3.955,3.955,0,0,1,1.973,2.9c.079.331.147.664.2.99a5.23,5.23,0,0,1,2.526-.756,2.765,2.765,0,0,1,2.128.9,2.6,2.6,0,0,1,.544,2,16.357,16.357,0,0,1-1.21,4.224c-2.248,5.616-7.226,14.406-8.7,16.966,1.268.439,2.43.9,3.455,1.374a22.979,22.979,0,0,1,2.525-5.367,16.069,16.069,0,0,1,4.616-3.789,45.111,45.111,0,0,1,7.635-3.407,26.388,26.388,0,0,0,3.637-1.548v3.819c-.8.349-1.643.678-2.519.979a40.55,40.55,0,0,0-7.031,3.108,12.529,12.529,0,0,0-3.661,2.917,19.973,19.973,0,0,0-2.281,4.975l0,0,.01.009c.038.031.075.062.112.093a4.464,4.464,0,0,1,1.511,2.21,4.589,4.589,0,0,1-.191,3.093,3.62,3.62,0,0,1-.679,1,4.314,4.314,0,0,1,.271,1.167,5.144,5.144,0,0,1-.672,3.029,7.035,7.035,0,0,0-2.174,4.315,7.021,7.021,0,0,1-2.115,2.151l-.009.005-.034.02a.568.568,0,0,1-.275.468.771.771,0,0,1-.13.07,5.043,5.043,0,0,1-.255,1.534,3.752,3.752,0,0,1-2.006,2.273,4.809,4.809,0,0,1-1.87.291,10.8,10.8,0,0,1-1.084-.057c-.123.139-.223.247-.313.342a7.046,7.046,0,0,1-4.037,2.323A5.263,5.263,0,0,1,2659.557,651.1Zm-2.691-4.475h0c.22.2.455.395.7.58a3.24,3.24,0,0,0,1.948.769,2.578,2.578,0,0,0,1.194-.309C2659.456,647.371,2658.128,647.011,2656.866,646.623Zm-4.912-7.72h0c-.034.034-.068.063-.094.086a1.894,1.894,0,0,0-.492.854,1.4,1.4,0,0,0,.057.805l.024.016a11.573,11.573,0,0,0,1.372.82,38.876,38.876,0,0,0,5.666,2.039,30.856,30.856,0,0,0,7.217,1.46c.8,0,1.3-.156,1.49-.465a1.072,1.072,0,0,0-.107-1.044c-.369-.143-.777-.28-1.209-.425-.248-.083-.528-.177-.815-.278-1.974-.692-3.607-1.233-5.138-1.7-.2-.062-.406-.124-.609-.185-1.918-.573-4-1.142-5.851-1.6l-.415-.105c-.369-.094-.75-.191-1.094-.274Zm.044-6.445-.09.116-.011.015a4.18,4.18,0,0,0-.969,2.024,2.339,2.339,0,0,0,.033.934,1.039,1.039,0,0,0,.433.643,1.641,1.641,0,0,1,.588.383c.59.082,1.209.189,1.84.316,1.593.321,3.541.829,5.632,1.468.195.059.389.119.582.18a50.521,50.521,0,0,1,6.059,2.226c.691.323,1.337.663,1.919,1.01a3.345,3.345,0,0,0,.5-.11c1.176-.518,1.688-2.823,1.7-3.7a6.735,6.735,0,0,0-.749-.362l-.306-.135c-.4-.173-.858-.331-1.343-.5-.277-.1-.559-.193-.852-.3-1.4-.509-3.523-1.261-5.732-1.915-1.761-.526-3.736-1.051-5.87-1.559l-.652-.155-.012,0c-.771-.185-1.436-.344-1.988-.425-.138-.02-.376-.076-.628-.136Zm-.939-2.041a30.632,30.632,0,0,1,4.2.572l.382.067a50.8,50.8,0,0,1,6.24,1.583,41.127,41.127,0,0,1,6.025,2.317,15.355,15.355,0,0,0,2.059.838c.43.149.8.277,1.12.428a2.381,2.381,0,0,0,1.331-1.767,1.66,1.66,0,0,0-.449-.886,3.451,3.451,0,0,1-.809-.71,5.151,5.151,0,0,0-1.085-.572l-.13-.057a22.467,22.467,0,0,0-5.184-2.135,55.43,55.43,0,0,0-12.013-2.36,3.365,3.365,0,0,0-.513.032,3.162,3.162,0,0,1-.719.1h-.04a.987.987,0,0,0-.179.147,1.512,1.512,0,0,0-.3.8,3.163,3.163,0,0,0-.094,1.6C2650.948,630.418,2651,630.417,2651.06,630.417Zm3.113-6.653a6.044,6.044,0,0,0-1.911.242,1.881,1.881,0,0,0-.42.232l-.016.011.031.055a3.813,3.813,0,0,0,.248.4,3.646,3.646,0,0,0,.507.544l.043.04a1.118,1.118,0,0,1,.287.375A62.533,62.533,0,0,1,2663,627.318c2.847.72,6.68,1.955,8.773,3.751a1.822,1.822,0,0,1,.436-.164.483.483,0,0,0,.329-.329,1.721,1.721,0,0,0-.027-.706l-.013-.018a2.68,2.68,0,0,0-.206-.258c-1.163-1.23-4.448-2.777-8.572-4.038a36.58,36.58,0,0,0-9.542-1.791Zm7.414-24.878h0c-.034.24-.081.554-.129.881-.234,1.576-.625,4.205-.707,5.934a41.957,41.957,0,0,0,.342,6.9c.229,2.206.489,4.705.6,8.212a1.264,1.264,0,0,1-.463,1.029c1.573.313,3.179.718,4.774,1.2,1.1-2.147,3.915-7.694,6.153-12.794.076-.175.219-.473.4-.851.923-1.939,2.841-5.969,2.34-6.762a.293.293,0,0,0-.264-.137c-.355,0-.991.417-1.89,1.239a11.968,11.968,0,0,1-1.531,5.234,5.475,5.475,0,0,1-1.687,1.872,2.179,2.179,0,0,1-1.133.338,1.812,1.812,0,0,1-.293-.023,1.794,1.794,0,0,1-1.18-.771,3,3,0,0,1-.253-2.382,13.187,13.187,0,0,1,3.115-5.383c-.006-.244-.01-.485-.015-.718-.031-1.689-.055-3.022-.7-3.022-.332,0-.817.358-1.482,1.1a15.367,15.367,0,0,0-1.351,2.042l0,.005c-.115.194-.222.375-.32.535.093.233.174.45.247.661a7.223,7.223,0,0,1,.426,2.848,7.737,7.737,0,0,1-.679,3.1,1.962,1.962,0,0,1-1.332,1.038,1.749,1.749,0,0,1-.351.035,2.073,2.073,0,0,1-1.729-1.013c-1.369-1.993-1.36-4.16.028-6.818a11.768,11.768,0,0,1-.468-1.765l0-.012a11.422,11.422,0,0,0-.465-1.751Zm16.724-15.927a16.507,16.507,0,0,1-4.894-.746,27.649,27.649,0,0,1-9.616-5.629,1.007,1.007,0,0,1,.648-1.778,1.01,1.01,0,0,1,.649.237c4.68,3.955,9.032,5.878,13.3,5.878a21.3,21.3,0,0,0,4.537-.577l1.006-.2a1.014,1.014,0,0,1,.188-.018,1,1,0,0,1,.987.822,1.007,1.007,0,0,1-.8,1.174l-.962.2A23.637,23.637,0,0,1,2678.311,582.96Zm-35.925-2.292a1.254,1.254,0,0,1-.366-.055c-.031-.01-.061-.02-.092-.031l-5.405-2.119a1.259,1.259,0,0,1-.76-1.5l.024-.08c.005-.016.012-.033.018-.049a1.261,1.261,0,0,1,1.633-.718l5.406,2.12a1.261,1.261,0,0,1-.458,2.436Zm46.888-9.421a1.255,1.255,0,0,1-1.236-1.488,1.243,1.243,0,0,1,.526-.8c.377-.258.767-.521,1.157-.781v2.991A1.248,1.248,0,0,1,2689.274,571.247Zm-37.623-.321a1.256,1.256,0,0,1-.368-.055,1.237,1.237,0,0,1-.334-.158,102.259,102.259,0,0,1-8.558-6.195,1.258,1.258,0,0,1,1.733-1.823,99.386,99.386,0,0,0,8.19,5.9l.036.024a1.26,1.26,0,0,1-.7,2.31Zm26.594-3.977a1.28,1.28,0,0,1-.368-.055,1.262,1.262,0,0,1-.89-1.147,60.517,60.517,0,0,1,.846-11.153,1.265,1.265,0,0,1,1.245-1.043,1.28,1.28,0,0,1,.219.019.755.755,0,0,1,.1.022l.093.028a1.26,1.26,0,0,1,.829,1.413,57.519,57.519,0,0,0-.811,10.581v.014a1.261,1.261,0,0,1-1.2,1.319Zm-12.7-1.089a1.262,1.262,0,0,1-.37-.055,1.247,1.247,0,0,1-.607-.409s-.462-.478-4.788-8.612a1.262,1.262,0,1,1,2.229-1.185c4.216,7.925,4.51,8.2,4.512,8.2a1.263,1.263,0,0,1-.977,2.061Z" transform="translate(-1323.222 2208)" fill="#ffe815" stroke="rgba(0,0,0,0)" stroke-width="1"/>
    <g id="Group_65" data-name="Group 65" transform="translate(1237.755 2078.176) rotate(9)">
      <g id="Group_64" data-name="Group 64" transform="translate(0 0)" clip-path="url(#clip-path-3)">
        <path id="Path_5194" data-name="Path 5194" d="M4.372,33.59c-5.664,11.877-6.64,25.618,1.987,37.994A118.3,118.3,0,0,0,21.276,89.029c7.038,6.773,13.534,11.367,18.45,15.2,3.009,2.344,5.4,4.364,6.841,6.491a6.866,6.866,0,0,0,4.972,2.763c2.627.371,6.2-.128,10.146-1.218C74.2,108.831,90.821,99.678,90.821,99.678a2.183,2.183,0,0,0,1.125-1.915s-.005-5.6.914-14.569c.439-4.188,1.066-9.117,2-14.546,1.562-9.171,4.491-19.9,4.219-29.848-.19-7.2-2.023-14-6.962-19.631C82.268,8.038,73.067,2.651,64.264.81,41.153-4.008,14,13.4,4.372,33.59M63.526,4.181C71.681,6.055,80.1,11.288,89.083,21.8c4.247,4.919,5.7,10.855,5.84,17.094.2,9.685-2.737,20.1-4.291,29.02-.97,5.534-1.623,10.553-2.068,14.83-.7,6.654-.9,11.506-.952,13.7a176.22,176.22,0,0,1-22.963,10.3c-4.294,1.473-8.378,2.525-11.42,2.461-1.352-.03-2.463-.166-3.008-.968-1.652-2.434-4.33-4.8-7.782-7.5-4.81-3.764-11.2-8.258-18.114-14.892a114.637,114.637,0,0,1-14.4-16.785C2.179,58.139,3.119,45.924,8.051,35.324,17.009,16.057,41.591-.867,63.526,4.181" transform="translate(0 0)" fill="#ffe815" fill-rule="evenodd"/>
        <path id="Path_5195" data-name="Path 5195" d="M52.3,104.94a3.807,3.807,0,0,0-1.469,2.6c-.944,5.186,3.339,17.418,7.545,20.355,4.753,3.319,12.516,2.685,20.7-.914,5.837-2.565,11.284-6.355,13.2-9.975a14.814,14.814,0,0,0,1.11-11.224c-2.112-7.508-9.2-13.1-9.2-13.1a2.19,2.19,0,0,0-2.876.143,49.36,49.36,0,0,1-15.219,9.554,25.511,25.511,0,0,1-9.885,1.764,7.77,7.77,0,0,0-3.908.8m5.309,3.272c3.446.055,6.486-.881,9.835-2.021a51.793,51.793,0,0,0,15.376-8.854,25.451,25.451,0,0,1,5.578,7.622,11.1,11.1,0,0,1-.018,10.016c-1.558,3.009-6.236,5.917-11.046,8.077-12.432,5.6-21.506,1.155-22.649-11.917-.2-2.276-.044-2.652.208-2.879.319-.286.927-.072,2.716-.044" transform="translate(15.607 28.387)" fill="#ffe815" fill-rule="evenodd"/>
        <path id="Path_5196" data-name="Path 5196" d="M56.367,108.083a1.268,1.268,0,0,1-2.4.827,105.973,105.973,0,0,0-4.8-11.255,107.678,107.678,0,0,0-6.146-11.285,1.268,1.268,0,0,1,2.044-1.5,109.238,109.238,0,0,1,6.377,11.678,108.588,108.588,0,0,1,4.918,11.538" transform="translate(13.17 25.967)" fill="#ffe815" fill-rule="evenodd"/>
        <path id="Path_5197" data-name="Path 5197" d="M68.721,107.237a1.269,1.269,0,0,1-2.379.884c-6.384-17.248-10.805-26.9-10.82-26.93a1.268,1.268,0,0,1,2.3-1.057c.012.03,4.5,9.826,10.894,27.1" transform="translate(17.057 24.442)" fill="#ffe815" fill-rule="evenodd"/>
        <path id="Path_5198" data-name="Path 5198" d="M67.553,73.494a1.267,1.267,0,1,1,2.52.271,28.412,28.412,0,0,0,1.9,12.347,52.209,52.209,0,0,0,7.557,13.833,1.27,1.27,0,1,1-1.972,1.6A54.918,54.918,0,0,1,69.584,86.98a30.911,30.911,0,0,1-2.031-13.485" transform="translate(20.757 22.277)" fill="#ffe815" fill-rule="evenodd"/>
        <path id="Path_5199" data-name="Path 5199" d="M52.436,111.775a1.268,1.268,0,0,1,.415-2.5c5.292.864,11.561-.659,17.16-3.021,7.8-3.289,14.186-8.028,14.806-10.166a1.267,1.267,0,0,1,2.435.7c-.779,2.7-7.812,8.239-16.249,11.8-5.981,2.524-12.737,4.142-18.568,3.189" transform="translate(15.816 29.298)" fill="#ffe815" fill-rule="evenodd"/>
        <path id="Path_5200" data-name="Path 5200" d="M19.338,10.154a1.27,1.27,0,0,1,2.108,1.415c-8.743,13.014-10.9,24.837-8.993,35.295C14.854,60,23.681,71.1,33.979,79.762c19.087,16.051,24.126,26,24.14,26.026a1.271,1.271,0,1,1-2.268,1.15c-.014-.027-4.827-9.526-23.5-25.238C21.656,72.71,12.484,61.134,9.959,47.324c-2.026-11.08.224-23.539,9.379-37.17" transform="translate(2.854 2.953)" fill="#ffe815" fill-rule="evenodd"/>
        <path id="Path_5201" data-name="Path 5201" d="M63.526,104.877a1.268,1.268,0,1,1-2.117,1.4c-5.553-8.416-10.537-15.621-14.966-22.027-22.4-32.4-30.87-44.647-21.059-78.664a1.269,1.269,0,0,1,2.438.7c-9.481,32.861-1.2,44.841,20.71,76.522,4.469,6.462,9.5,13.732,14.994,22.069" transform="translate(6.572 1.437)" fill="#ffe815" fill-rule="evenodd"/>
        <path id="Path_5202" data-name="Path 5202" d="M37.891,3.825A1.268,1.268,0,1,1,38.127,1.3c5.766.545,16.075,5.042,23.864,13.63a39.319,39.319,0,0,1,10.37,24.029c.675,9.813-.183,17.615-1,25.027-1.248,11.353-2.395,21.785,2.4,37.092a1.268,1.268,0,1,1-2.421.759c-4.954-15.808-3.778-26.494-2.5-38.121.8-7.313,1.652-15.008.993-24.577a36.827,36.827,0,0,0-9.724-22.511c-7.332-8.083-16.9-12.3-22.222-12.8" transform="translate(11.311 0.399)" fill="#ffe815" fill-rule="evenodd"/>
        <path id="Path_5203" data-name="Path 5203" d="M70.15,101.431a1.267,1.267,0,0,1-2.413.777c-5.484-17.1-8.123-31.3-10.35-43.262C52.664,33.563,49.843,18.406,25.135,7.087a1.268,1.268,0,1,1,1.059-2.3C52.091,16.647,55,32.285,59.875,58.474c2.214,11.892,4.839,26.005,10.274,42.958" transform="translate(7.51 1.436)" fill="#ffe815" fill-rule="evenodd"/>
      </g>
    </g>
    <path id="Subtraction_9" data-name="Subtraction 9" d="M2757.507,695.763a9.282,9.282,0,0,1-5.445-1.839,16.338,16.338,0,0,1-4.228-4.685,9.634,9.634,0,0,1-2.864,2.259,8.446,8.446,0,0,1-3.469.918v-3.585a4.84,4.84,0,0,0,1.846-.521,7.245,7.245,0,0,0,3.013-3.237,1.719,1.719,0,0,1,.084-.172,1.792,1.792,0,0,1,1.567-.922h.01a1.772,1.772,0,0,1,1.644,1.12,16.522,16.522,0,0,0,3.553,5.157,6.325,6.325,0,0,0,4.317,1.936,5.273,5.273,0,0,0,.68-.045,3.934,3.934,0,0,0,2.6-1.1c.808-.9,1.066-2.339.811-4.544-.375-3.385-1.933-8.033-4.761-14.209a1.431,1.431,0,0,1-.123-.392,15.036,15.036,0,0,1-2.993.835,18.563,18.563,0,0,1,.436,3.712c.025.439.045.934.066,1.457l0,.051c.042,1.05.091,2.239.2,3.7a1.474,1.474,0,0,1-1.288,1.647,1.5,1.5,0,0,1-.173.01,1.475,1.475,0,0,1-1.466-1.3c-.391-2.273-.644-3.947-.795-5.267-.046-.392-.083-.749-.116-1.064v-.014a10.1,10.1,0,0,0-.314-1.986c-.065-.193-.2-.246-.4-.319-.05-.019-.1-.038-.151-.06-.271-.11-.589-.221-.957-.349l-.022-.008-.351-.123-1.473-.546a19.437,19.437,0,0,1-1.968-.7l-.231-.1-.219-.095-1.478-.549c-.522.529-1.042,1.037-1.544,1.509v-8.116a9.9,9.9,0,0,0,4.855,4.049,12.778,12.778,0,0,0,4.959,1.057,13.18,13.18,0,0,0,8.376-3.3,30.144,30.144,0,0,0-12.652-3.115,28.178,28.178,0,0,0-5.539.569v-1.926a23.154,23.154,0,0,1,4.252-.38,38.183,38.183,0,0,1,10.586,1.72c.724.206,1.472.456,2.287.766.868.328,1.72.682,2.532,1.053a31.2,31.2,0,0,0,3.113-3.558,36.667,36.667,0,0,0-15.372-3.776,34.811,34.811,0,0,0-7.4.827v-2.35a27.78,27.78,0,0,1,5.83-.594,46.578,46.578,0,0,1,12.9,2.1c.92.265,1.831.57,2.784.934.862.323,1.722.676,2.557,1.047a59.859,59.859,0,0,0,3.539-6.022c-5.626-2.637-10.623-4.393-16.72-4.393a36.882,36.882,0,0,0-9.965,1.462c-.093.031-.186.064-.277.1l-.006,0a5.325,5.325,0,0,1-.639.2v-11.5c3.3-7.047,6.143-11.872,8.947-15.185a16.4,16.4,0,0,1,5.748-4.418,1.354,1.354,0,0,1-.41-.55,66.687,66.687,0,0,1-3.593-10.493,18.8,18.8,0,0,1-.541-7.16,7.934,7.934,0,0,1,.809-2.437l.085-.154a6.538,6.538,0,0,1,1.5-1.791,8.507,8.507,0,0,1,4.838-1.771c.26-.02.521-.03.778-.03a9.542,9.542,0,0,1,5.873,2.034,15.139,15.139,0,0,1,3.938,4.724,10.707,10.707,0,0,1,3.156-2.058,9.476,9.476,0,0,1,3.642-.731,10.88,10.88,0,0,1,3.53.62,9.847,9.847,0,0,1,1.461.634l.177.1a6.726,6.726,0,0,1,2.887,3.1,8.26,8.26,0,0,1,.488,4.712,14.254,14.254,0,0,1,3.911-.616,8.709,8.709,0,0,1,1.5.124,6.449,6.449,0,0,1,5.057,3.905,4.689,4.689,0,0,1-.078,3.761,10.6,10.6,0,0,1-2.929,3.777c-4.5,3.919-12.813,7.329-14.434,7.973l.017.045.006.015c.036.1.074.2.11.3,1.674,4.63.994,10.946-2.02,18.773-4.089,10.333-8.648,17.728-13.551,21.98a22.138,22.138,0,0,1-3.133,2.29,1.481,1.481,0,0,1,.258.376,75.6,75.6,0,0,1,4.418,10.652,20.893,20.893,0,0,1,1.171,7.348,7.869,7.869,0,0,1-.9,3.241l-.02.035a6.291,6.291,0,0,1-1.011,1.35,7.576,7.576,0,0,1-4.52,2.035A9.061,9.061,0,0,1,2757.507,695.763Zm-6.682-48.954a46.6,46.6,0,0,1,12.9,2.095c.9.257,1.807.563,2.784.933,1.724.651,2.984,1.231,3.582,1.518.568-1.181,1.082-2.3,1.569-3.432l-.085-.028c-5.846-2.771-11.007-4.617-17.189-4.617a36.873,36.873,0,0,0-9.969,1.464c-.1.033-.207.07-.3.1a3.009,3.009,0,0,1-.9.225.568.568,0,0,1-.367-.114c-.46,1.188-.869,2.342-1.212,3.43A26.02,26.02,0,0,1,2750.825,646.809Zm1.994-5.646a46.577,46.577,0,0,1,12.9,2.095c.911.262,1.822.567,2.783.933a41.807,41.807,0,0,1,4.007,1.729l.324-.794a46.864,46.864,0,0,0,2.1-6.27c-5.77-2.726-10.875-4.542-17.033-4.542a36.889,36.889,0,0,0-9.966,1.462c-.1.033-.2.069-.3.1l-.005,0a3.476,3.476,0,0,1-.812.221c-.77,1.562-1.591,3.326-2.439,5.243-.189.423-.382.861-.589,1.339A26.106,26.106,0,0,1,2752.819,641.163Zm3.51-8.966a46.523,46.523,0,0,1,12.9,2.1c.905.259,1.816.565,2.784.934,1.541.581,2.7,1.1,3.392,1.427a23.312,23.312,0,0,0,.389-3.75c-4.747-2.207-10.021-4.25-16.413-4.25a36.226,36.226,0,0,0-9.176,1.25c-.492.791-.987,1.636-1.514,2.586-.143.258-.3.542-.5.92A26.526,26.526,0,0,1,2756.329,632.2Zm1.48-5.662a46.583,46.583,0,0,1,12.9,2.1c.907.259,1.816.565,2.781.933.755.283,1.476.574,2.143.865a11.3,11.3,0,0,0-.433-1.875,10.884,10.884,0,0,0-3.783-5.439c-.05-.017-.1-.035-.138-.053l-5.06-2.138a13.442,13.442,0,0,0-2.161-.174,14.484,14.484,0,0,0-11.143,5.288c-.265.329-.535.678-.824,1.066A27.819,27.819,0,0,1,2757.81,626.536Zm20.475-12.155a.831.831,0,0,1,.656.308,1.141,1.141,0,0,1-.15,1.511c-.016.02-1.777,2.182-3.4,3.986-.712.787-1.318,1.416-1.615,1.721a12.087,12.087,0,0,1,3.119,3.422,65.761,65.761,0,0,0,11.561-6.753,13.083,13.083,0,0,0,3.372-3.505,2.035,2.035,0,0,0,.269-1.97,3.53,3.53,0,0,0-3.494-2.093h-.118a13.531,13.531,0,0,0-5.446,1.574,1.934,1.934,0,0,1-.928.238,1.807,1.807,0,0,1-1.163-.412,1.581,1.581,0,0,1-.4-1.921,8.224,8.224,0,0,0,.679-4.651,3.859,3.859,0,0,0-2.809-2.818,6.99,6.99,0,0,0-2.258-.4,5.607,5.607,0,0,0-2.147.422,7.686,7.686,0,0,0-3.387,3,1.982,1.982,0,0,1-1.7.986c-.036,0-.073,0-.109,0a1.736,1.736,0,0,1-1.6-1.151,15.058,15.058,0,0,0-3.2-5.152,6.292,6.292,0,0,0-4.537-2.071c-.147,0-.3.006-.444.017a4.411,4.411,0,0,0-2.769.951c-.917.831-1.3,2.175-1.254,4.358.087,3.3,1.275,7.859,3.63,13.948a1.331,1.331,0,0,1,.069.76,15.945,15.945,0,0,1,3.97-.5,4.758,4.758,0,0,1-.12-.542,17.9,17.9,0,0,1,.045-3.784c.032-.411.074-.887.112-1.306.09-1.014.2-2.274.291-3.76a1.614,1.614,0,0,1,1.354-1.572,1.235,1.235,0,0,1,.133-.007,1.128,1.128,0,0,1,.811.338,1.315,1.315,0,0,1,.36.956c.071,2.145.091,3.827.061,5.141-.006.428-.017.8-.026,1.136a10.061,10.061,0,0,0,.039,1.851c.036.2.157.25.326.324.037.016.077.034.119.054.316.157.7.319,1.125.5l4.555,2.049c.376-.359.979-.921,1.707-1.564,1.78-1.562,3.954-3.281,3.974-3.3A1.054,1.054,0,0,1,2778.284,614.381Z" transform="translate(-2742 1814)" fill="#ffe815" stroke="rgba(0,0,0,0)" stroke-width="1"/>
  </g>
</svg>
